<?xml version="1.0" encoding="UTF-8" standalone="no"?>
<svg
   xmlns:dc="http://purl.org/dc/elements/1.1/"
   xmlns:cc="http://creativecommons.org/ns#"
   xmlns:rdf="http://www.w3.org/1999/02/22-rdf-syntax-ns#"
   xmlns:svg="http://www.w3.org/2000/svg"
   xmlns="http://www.w3.org/2000/svg"
   xmlns:sodipodi="http://sodipodi.sourceforge.net/DTD/sodipodi-0.dtd"
   xmlns:inkscape="http://www.inkscape.org/namespaces/inkscape"
   sodipodi:docname="AdornoNavidadEditable.svg"
   inkscape:version="1.0 (4035a4fb49, 2020-05-01)"
   id="svg8"
   version="1.1"
   viewBox="0 0 210 297"
   height="297mm"
   width="210mm">
  <defs
     id="defs2">
    <marker
       inkscape:stockid="Arrow1Lstart"
       orient="auto"
       refY="0.0"
       refX="0.0"
       id="marker1935"
       style="overflow:visible"
       inkscape:isstock="true">
      <path
         id="path1933"
         d="M 0.0,0.0 L 5.0,-5.0 L -12.5,0.0 L 5.0,5.0 L 0.0,0.0 z "
         style="fill-rule:evenodd;stroke:#ff0000;stroke-width:1pt;stroke-opacity:1;fill:#ff0000;fill-opacity:1"
         transform="scale(0.8) translate(12.5,0)" />
    </marker>
    <marker
       inkscape:stockid="Arrow1Lstart"
       orient="auto"
       refY="0.0"
       refX="0.0"
       id="marker1895"
       style="overflow:visible"
       inkscape:isstock="true">
      <path
         id="path1893"
         d="M 0.0,0.0 L 5.0,-5.0 L -12.5,0.0 L 5.0,5.0 L 0.0,0.0 z "
         style="fill-rule:evenodd;stroke:#000000;stroke-width:1.0pt"
         transform="scale(0.8) translate(12.5,0)" />
    </marker>
    <marker
       inkscape:stockid="Arrow1Lstart"
       orient="auto"
       refY="0.0"
       refX="0.0"
       id="marker1861"
       style="overflow:visible"
       inkscape:isstock="true">
      <path
         id="path1859"
         d="M 0.0,0.0 L 5.0,-5.0 L -12.5,0.0 L 5.0,5.0 L 0.0,0.0 z "
         style="fill-rule:evenodd;stroke:#000000;stroke-width:1.0pt"
         transform="scale(0.8) translate(12.5,0)" />
    </marker>
    <marker
       inkscape:stockid="Arrow1Lstart"
       orient="auto"
       refY="0.0"
       refX="0.0"
       id="marker1833"
       style="overflow:visible"
       inkscape:isstock="true">
      <path
         id="path1831"
         d="M 0.0,0.0 L 5.0,-5.0 L -12.5,0.0 L 5.0,5.0 L 0.0,0.0 z "
         style="fill-rule:evenodd;stroke:#000000;stroke-width:1.0pt"
         transform="scale(0.8) translate(12.5,0)" />
    </marker>
    <marker
       inkscape:stockid="Arrow1Lstart"
       orient="auto"
       refY="0.0"
       refX="0.0"
       id="marker1805"
       style="overflow:visible"
       inkscape:isstock="true">
      <path
         id="path1803"
         d="M 0.0,0.0 L 5.0,-5.0 L -12.5,0.0 L 5.0,5.0 L 0.0,0.0 z "
         style="fill-rule:evenodd;stroke:#ff0000;stroke-width:1pt;stroke-opacity:1;fill:#ff0000;fill-opacity:1"
         transform="scale(0.8) translate(12.5,0)" />
    </marker>
    <marker
       inkscape:stockid="Arrow1Lstart"
       orient="auto"
       refY="0.0"
       refX="0.0"
       id="marker1789"
       style="overflow:visible"
       inkscape:isstock="true">
      <path
         id="path1787"
         d="M 0.0,0.0 L 5.0,-5.0 L -12.5,0.0 L 5.0,5.0 L 0.0,0.0 z "
         style="fill-rule:evenodd;stroke:#000000;stroke-width:1.0pt"
         transform="scale(0.8) translate(12.5,0)" />
    </marker>
    <marker
       inkscape:stockid="Arrow1Lstart"
       orient="auto"
       refY="0.0"
       refX="0.0"
       id="Arrow1Lstart"
       style="overflow:visible"
       inkscape:isstock="true">
      <path
         id="path1517"
         d="M 0.0,0.0 L 5.0,-5.0 L -12.5,0.0 L 5.0,5.0 L 0.0,0.0 z "
         style="fill-rule:evenodd;stroke:#000000;stroke-width:1.0pt"
         transform="scale(0.8) translate(12.5,0)" />
    </marker>
  </defs>
  <sodipodi:namedview
     inkscape:window-maximized="1"
     inkscape:window-y="-8"
     inkscape:window-x="-8"
     inkscape:window-height="1009"
     inkscape:window-width="1920"
     showgrid="false"
     inkscape:document-rotation="0"
     inkscape:current-layer="layer1"
     inkscape:document-units="mm"
     inkscape:cy="421.71292"
     inkscape:cx="25.672945"
     inkscape:zoom="0.49497475"
     inkscape:pageshadow="2"
     inkscape:pageopacity="0.0"
     borderopacity="1.0"
     bordercolor="#666666"
     pagecolor="#ffffff"
     id="base" />
  <metadata
     id="metadata5">
    <rdf:RDF>
      <cc:Work
         rdf:about="">
        <dc:format>image/svg+xml</dc:format>
        <dc:type
           rdf:resource="http://purl.org/dc/dcmitype/StillImage" />
        <dc:title></dc:title>
      </cc:Work>
    </rdf:RDF>
  </metadata>
  <g
     id="layer1"
     inkscape:groupmode="layer"
     inkscape:label="Capa 1">
    <path
       id="path1501"
       style="fill:none;fill-rule:evenodd;stroke:#ff0000;stroke-width:0.1;stroke-miterlimit:4;stroke-dasharray:none"
       d="m 52.093608,4.6843207 a 7.9455528,7.9455528 0 0 0 -7.945251,7.9457673 7.9455528,7.9455528 0 0 0 0.01654,0.515731 10.958662,3.528565 0 0 0 -2.596223,2.280481 10.958662,3.528565 0 0 0 0.0093,0.143145 v 3.883482 A 44.242368,44.242368 0 0 0 7.6503278,62.476143 44.242368,44.242368 0 0 0 51.892587,106.7184 44.242368,44.242368 0 0 0 96.134846,62.476143 44.242368,44.242368 0 0 0 63.476893,19.776939 v -4.20801 a 10.958662,3.528565 0 0 0 0.0093,-0.142629 10.958662,3.528565 0 0 0 -3.450435,-2.570385 7.9455528,7.9455528 0 0 0 0.0036,-0.225827 7.9455528,7.9455528 0 0 0 -7.945769,-7.9457673 z m -0.02325,1.8386475 a 5.8835631,5.8835633 0 0 1 0.0093,0 5.8835631,5.8835633 0 0 1 5.882845,5.8399538 10.958662,3.528565 0 0 0 -5.435327,-0.465087 10.958662,3.528565 0 0 0 -0.10232,0 10.958662,3.528565 0 0 0 -6.22701,0.64802 5.8835631,5.8835633 0 0 1 -0.0016,-0.139525 5.8835631,5.8835633 0 0 1 5.87406,-5.8833618 z" />
    <g
       aria-label="Augusto"
       transform="matrix(0.85197369,0,0,1.1737452,43.467262,-17.008928)"
       id="text878-9"
       style="font-size:29.1525px;line-height:1.25;font-family:sq;-inkscape-font-specification:sq;fill:none;fill-opacity:1;stroke:#0000ff;stroke-width:0.1;stroke-miterlimit:4;stroke-dasharray:none;stroke-opacity:1">
      <path
         id="path2080"
         style="font-style:normal;font-variant:normal;font-weight:normal;font-stretch:normal;font-family:Norican;-inkscape-font-specification:Norican;fill:none;fill-opacity:1;stroke:#0000ff;stroke-width:0.377953;stroke-miterlimit:4;stroke-dasharray:none;stroke-opacity:1"
         d="m -22.917969,142.42383 a 167.21525,167.21525 0 0 0 -9.978515,3.81836 c -0.204253,0.74164 -0.358622,1.5705 -0.464844,2.49414 -0.250277,2.17625 -0.184474,3.57235 0.457031,9.58008 0.413058,3.86832 0.751953,7.30954 0.751953,7.64648 0,0.42553 -1.222067,-0.95413 -4.003906,-4.51758 -2.202568,-2.8214 -4.527612,-5.647 -5.166016,-6.27929 -2.076378,-2.05654 -4.220917,-2.38238 -5.773437,-0.87891 -0.983225,0.9522 -1.342269,2.12169 -1.037109,3.37695 0.491726,2.02284 0.940348,2.4626 14.630859,14.31446 l 2.220703,1.92187 0.433594,4.01953 c 0.238405,2.21047 0.381696,4.06623 0.318359,4.125 -0.06336,0.0588 -2.334017,-2.56672 -5.046875,-5.83398 -2.712862,-3.26727 -5.243968,-6.09303 -5.623047,-6.28125 -1.710251,-0.84921 -4.102056,0.14453 -4.511719,1.875 -0.181752,0.76775 0.792548,3.28059 4.251954,10.9707 1.041891,2.31618 1.858737,4.24187 1.816406,4.28125 -0.04244,0.0394 -1.682594,-0.98755 -3.644531,-2.2832 l -3.566407,-2.35547 -0.5,-1.79492 c -0.274813,-0.98707 -0.879745,-3.3446 -1.34375,-5.23828 -2.313165,-9.44038 -2.912093,-11.6252 -3.46875,-12.6543 -1.473082,-2.72355 -3.439763,-3.64758 -5.810546,-2.72852 -1.67257,0.64835 -2.249927,2.4337 -1.546876,4.78321 0.173473,0.57978 1.590588,3.7227 3.150391,6.98437 1.559804,3.26166 2.798366,5.96545 2.751953,6.00781 -0.04639,0.0423 -2.973297,-1.83193 -6.505859,-4.16601 -5.140416,-3.39641 -7.718903,-4.92981 -9.896485,-5.79883 a 167.21525,167.21525 0 0 0 -9.464843,7.83984 c 1.000096,1.42855 2.692343,2.80411 5.08789,4.09766 1.020537,0.55106 4.915086,2.29527 8.654297,3.875 7.450893,3.14786 7.360431,3.05002 3.171875,3.39648 -1.244806,0.10297 -4.368451,0.41206 -6.941406,0.68555 -6.853175,0.72844 -8.571775,1.63809 -8.240234,4.36719 0.276635,2.27707 2.450998,3.5381 5.492187,3.18555 0.800697,-0.0928 5.800507,-1.3999 11.109375,-2.90625 l 9.652344,-2.73829 4.109375,1.73243 c 2.260724,0.95364 4.077222,1.76572 4.035156,1.80468 -0.04198,0.0389 -3.6078,0.50886 -7.923828,1.04297 -4.316001,0.5341 -8.246824,1.14401 -8.734375,1.35547 -2.303221,0.9992 -2.125853,4.38632 0.267578,5.10938 0.49739,0.15026 4.373159,0.70073 8.611328,1.22461 4.238177,0.52387 7.737874,0.98488 7.779297,1.02343 0.04131,0.0383 -1.772807,0.84923 -4.033203,1.80274 l -4.111328,1.73437 -9.164063,-2.59961 c -10.540262,-2.98946 -11.881697,-3.28774 -13.697265,-3.03515 -1.029222,0.1432 -1.558573,0.41507 -2.392578,1.22851 -0.916279,0.89363 -1.070313,1.21912 -1.070313,2.25196 0,1.01397 0.151286,1.34742 0.947266,2.08593 1.322555,1.22705 2.925839,1.57498 10.861328,2.34961 3.746857,0.36573 6.858831,0.70869 6.916016,0.76172 0.05718,0.053 -2.9444,1.37972 -6.669922,2.94922 -3.725571,1.5695 -7.636843,3.33029 -8.691407,3.91406 -3.797193,2.1021 -5.754868,4.23602 -6.113281,6.66211 -0.156321,1.05795 -0.0494,1.48794 0.736328,2.96875 1.328912,2.5045 2.503642,3.17093 5.5625,3.1543 2.131612,-0.0116 2.504598,-0.10207 5.015625,-1.21875 1.718147,-0.76408 5.065504,-2.76396 9.134766,-5.45899 3.532558,-2.33956 6.466202,-4.21484 6.519531,-4.16601 0.05328,0.0487 -1.210424,2.80073 -2.808594,6.11523 -1.238554,2.56876 -2.369255,5.11672 -2.904296,6.50586 -8.20191,0.42949 -16.497566,4.24582 -24.888672,11.45117 -4.125268,3.53627 -8.036914,7.7659 -11.734375,12.69141 -3.697462,4.88342 -6.891021,10.06236 -9.580081,15.53516 -2.68906,5.47279 -4.82702,11.30371 -6.41601,17.49218 -1.55844,6.14637 -2.33789,12.12401 -2.33789,17.9336 0,8.0829 1.25209,14.16645 3.75781,18.25 2.50572,4.04145 6.47873,6.06054 11.917968,6.06054 3.20854,0 6.799003,-1.45067 10.771484,-4.35546 3.972478,-2.90479 7.609942,-6.71466 10.910156,-11.42969 -0.122233,1.22085 -0.183594,2.44125 -0.183594,3.66211 0,5.51489 0.885865,9.11489 2.658204,10.79883 0.886168,0.88406 2.185263,1.32421 3.896484,1.32421 1.711222,10e-6 3.544317,-0.88225 5.5,-2.65039 1.069512,-0.96826 2.047425,-1.91563 2.933594,-2.84179 0.886168,-0.96827 1.956126,-2.29458 3.208984,-3.97852 1.25286,-1.72603 2.29018,-3.19907 3.115234,-4.41992 0.855611,-1.22085 2.031979,-2.94847 3.529297,-5.17969 0.233511,-0.34744 0.341312,-0.49549 0.560547,-0.82031 -0.03141,0.16256 -0.07055,0.34424 -0.101562,0.50586 -0.427807,2.27331 -0.640625,4.6082 -0.640625,7.00781 0,7.07254 1.786095,10.60938 5.361328,10.60938 4.889205,0 10.863085,-4.71448 17.921875,-14.14453 -0.305576,1.59974 -0.45703,3.55763 -0.457032,5.87304 0,5.5149 1.313459,8.27149 3.941407,8.27149 1.772337,0 4.049342,-1.2 6.830078,-3.59961 1.069514,-0.92617 2.397336,-2.29328 3.986328,-4.10352 1.619549,-1.81023 2.904278,-3.30562 3.851563,-4.48437 0.947283,-1.22086 2.3221051,-2.98928 4.1249995,-5.30469 0.4061396,-0.53108 0.5055569,-0.65093 0.8574219,-1.10938 -0.2034248,1.89717 -0.3066407,3.74188 -0.3066406,5.53125 0,3.49417 0.5483662,6.54615 1.6484374,9.15625 1.1306288,2.61011 2.8266332,3.91407 5.08789068,3.91407 2.26125742,0 4.67535472,-0.82106 7.24218752,-2.46289 2.5973906,-1.68394 5.8523076,-4.92539 9.7636716,-9.72461 l -1.466797,10.73633 -12.6972652,13.44921 c -0.1833454,0.2105 -0.6866654,0.73616 -1.5117188,1.57813 -0.8250534,0.88406 -1.34469103,1.45248 -1.55859375,1.70508 -0.21390275,0.25259 -0.62713059,0.73745 -1.23828125,1.45312 -0.6111507,0.71567 -1.0224255,1.26369 -1.2363281,1.64258 -0.1833452,0.42098 -0.443164,0.94666 -0.7792969,1.57812 -0.3361338,0.63148 -0.5652709,1.24266 -0.6875,1.83204 -0.091673,0.58938 -0.1386719,1.53674 -0.1386719,2.84179 0,1.30505 0.458274,2.67217 1.375,4.10352 0.9472836,1.43135 2.04792239,2.44187 3.30078128,3.03125 1.28341642,0.63148 2.75028382,0.94726 4.40039062,0.94726 1.6501067,0 3.5138845,-0.84145 5.591797,-2.52539 2.077912,-1.68393 4.064417,-4.02077 5.958984,-7.00976 4.155825,-6.73575 6.952468,-15.55549 8.388672,-26.45899 L 36.34375,310.24609 c -0.04351,0.2246 -0.09788,0.47446 -0.140625,0.69727 -0.427804,2.27331 -0.642578,4.6082 -0.642578,7.00781 0,7.07254 1.788051,10.60938 5.363281,10.60938 4.889205,0 10.863085,-4.71448 17.921875,-14.14453 -0.305575,1.59974 -0.457031,3.55763 -0.457031,5.87304 0,5.5149 1.313459,8.27149 3.941406,8.27149 1.772337,0 4.049343,-1.2 6.830078,-3.59961 1.069515,-0.92617 2.397337,-2.29328 3.986328,-4.10352 0.85574,-0.95649 1.605386,-1.8116 2.273438,-2.5918 0.135522,3.81913 1.612487,6.54451 4.464844,8.14844 1.313972,0.75777 2.643748,1.30579 3.988281,1.64258 1.375089,0.33679 2.674185,0.50391 3.896484,0.50391 1.25286,0 2.490589,-0.23028 3.712891,-0.69336 1.252858,-0.46309 2.398544,-0.9907 3.4375,-1.58008 0.6266,-0.38085 1.34184,-0.90511 2.101562,-1.5 -4.053364,6.82791 0.08673,30.19394 -3.945312,35.55859 -4.551629,6.05598 -34.241704,8.73409 -34.337891,16.28907 -0.0484,3.801 7.422762,6.55566 15.419922,9.14062 -7.558246,2.46452 -15.297834,5.22594 -18.71875,4.06641 -7.061896,-2.39362 -18.563458,-29.23783 -25.683594,-27.02344 -7.120136,2.21439 -1.369399,30.84765 -5.828125,36.82422 -4.458725,5.9766 -33.5444365,8.62026 -33.6386715,16.07617 -0.094233,7.45595 28.9164035,10.83451 33.2226565,16.92187 3.762181,5.31825 -0.702273,27.72482 2.818359,34.89844 a 167.21525,167.21525 0 0 0 5.513672,0.0918 167.21525,167.21525 0 0 0 1.767578,-0.01 c 6.894539,-5.98721 15.576202,-22.65192 21.154297,-24.38671 7.120135,-2.21439 32.203386,12.74222 36.662109,6.76562 4.458728,-5.97657 -17.023911,-25.76085 -16.929687,-33.2168 0.06708,-5.30703 11.185875,-16.56492 16.056641,-24.81836 0.920383,0.58158 1.647387,1.18461 2.097656,1.81641 4.395981,6.1682 -2.212952,35.02381 4.996094,37.44922 7.209042,2.42544 19.639702,-24.473 26.908202,-26.7168 5.56648,-1.71838 21.8802,6.76044 31.26367,8.10938 a 167.21525,167.21525 0 0 0 5.89063,-6.87305 c -3.62942,-8.51808 -17.08712,-22.11489 -17.01172,-28.03711 0.0962,-7.55496 22.5327,-27.04466 18.13672,-33.21289 -4.39598,-6.16823 -30.38276,8.33949 -37.5918,5.91406 -6.98376,-2.34963 -18.21975,-27.94996 -25.523437,-27.50781 -0.191908,0.0116 -0.379818,0.0533 -0.566406,0.10156 1.131163,-0.99196 2.114573,-1.87682 2.869143,-2.59375 0.91672,-0.88406 2.10941,-2.14527 3.57617,-3.78711 1.49732,-1.64184 2.56728,-2.84183 3.20898,-3.59961 0.45291,-0.53887 1.33122,-1.61735 2.13086,-2.5957 -0.30751,2.78085 -0.48242,5.34982 -0.48242,7.64648 0,6.98835 1.81873,10.48243 5.45508,10.48243 2.13903,0 4.61449,-1.15725 7.42578,-3.47266 1.10007,-0.92617 2.42985,-2.27289 3.98828,-4.04101 1.589,-1.76814 2.90245,-3.30433 3.94141,-4.60938 0.82272,-1.03629 2.07484,-2.64123 3.34961,-4.27539 0.2905,2.3924 0.77293,4.64025 1.46289,6.73633 2.10847,6.44106 5.63757,9.66211 10.58789,9.66211 3.453,0 6.78365,-1.2408 9.99219,-3.72461 3.2391,-2.52591 6.03574,-5.76736 8.38867,-9.72461 1.25286,0.58938 2.62768,0.88281 4.125,0.88281 1.52787,0 3.07047,-0.77829 4.6289,-2.33594 1.589,-1.55764 3.65318,-4.18986 6.18946,-7.89453 v -6.94531 c -0.76394,1.01036 -1.69681,2.31627 -2.79688,3.91602 -1.10007,1.59972 -1.94089,2.79778 -2.52148,3.59765 -0.5806,0.79987 -1.25169,1.66368 -2.01563,2.58985 -0.76393,0.88405 -1.45135,1.51564 -2.0625,1.89453 -0.58059,0.33678 -1.14723,0.50586 -1.69726,0.50586 -0.55004,0 -1.20677,-0.21183 -1.97071,-0.63282 2.84186,-4.75712 4.26368,-10.20909 4.26368,-16.35547 0,-2.98898 -0.64236,-5.51335 -1.92579,-7.57617 -1.25286,-2.06282 -3.27004,-3.0957 -6.05078,-3.0957 -2.78073,0 -4.90433,1.05328 -6.37109,3.1582 -1.46676,2.06283 -2.19922,4.77861 -2.19922,8.14649 0,3.32577 0.61168,6.60998 1.83399,9.85156 1.25285,3.24158 3.02459,5.85145 5.3164,7.83008 -2.4446,3.78885 -4.98143,5.68164 -7.60937,5.68164 -2.62795,0 -4.85796,-1.68291 -6.69141,-5.05078 -1.80289,-3.36788 -2.70508,-7.87248 -2.70508,-13.51368 0,-5.68327 1.49755,-10.79907 4.49219,-15.3457 3.20854,-4.79922 7.85265,-7.19726 13.93359,-7.19726 0.67227,-0.58938 1.00977,-1.49595 1.00977,-2.7168 -0.0611,-0.54728 -0.39862,-0.82031 -1.00977,-0.82031 -8.73945,0 -15.75261,2.94606 -21.03906,8.83984 -5.03453,5.64555 -7.64928,13.28604 -7.86133,22.91016 -6.55963,8.2139 -10.53855,12.39062 -11.84765,12.39062 -0.51948,0 -1.0228,-0.20987 -1.51172,-0.63086 -0.48892,-0.46308 -0.73438,-2.1907 -0.73438,-5.17969 0,-2.94688 1.37482,-11.38768 4.125,-25.32226 0.91674,-4.67292 1.39133,-7.00781 1.42188,-7.00781 8.37276,0 12.94114,-0.96972 13.70508,-2.90625 l 1.00781,-2.27344 -13.98047,0.88476 c 0.88617,-4.20983 2.64354,-11.49339 5.27148,-21.8496 0.7945,-3.11528 1.19141,-4.75739 1.19141,-4.92579 l -0.18359,-0.25195 c -1.83345,0 -3.61955,0.54802 -5.36133,1.64258 -0.73338,0.46308 -1.43711,1.15782 -2.10938,2.08398 -0.67226,0.92617 -1.26763,1.78803 -1.78711,2.58789 -0.48892,0.79988 -1.00855,1.91631 -1.55859,3.34766 -0.51948,1.43135 -1.0698,3.05109 -1.65039,4.86133 -0.58059,1.76813 -1.58919,5.93656 -3.02539,12.5039 l -3.84961,0.50586 c -0.97784,0.1684 -1.52816,0.46183 -1.65039,0.88282 -0.0306,0.16839 -0.0449,0.54734 -0.0449,1.13672 0,0.54728 0.10641,0.98938 0.32031,1.32617 0.12223,0.1684 0.24495,0.31707 0.36719,0.44336 0.12222,0.12628 0.27368,0.23025 0.45703,0.31445 0.21391,0.0842 0.398,0.14737 0.55078,0.18945 0.15279,0.0421 0.36561,0.0848 0.64062,0.12696 h 0.82618 1.09961 c -0.73338,4.33613 -1.40643,8.16641 -2.01758,11.49218 -0.47594,2.55718 -1.10533,6.202 -1.74805,9.9336 l -11.13086,12.54687 c 2.13903,-4.04145 3.20899,-7.61909 3.20899,-10.73437 0,-2.02073 -0.99423,-4.42072 -2.98047,-7.19922 -0.85561,-1.22086 -1.741481,-2.50441 -2.658206,-3.85156 -2.475159,-3.45208 -4.232528,-7.34551 -5.271484,-11.68164 1.864008,0 3.607013,-0.7171 5.226562,-2.14844 1.650108,-1.47345 2.474608,-3.5149 2.474608,-6.125 0,-1.47345 -0.96355,-2.21094 -2.88867,-2.21094 -4.369728,0 -7.653372,1.6217 -9.853516,4.86328 -2.200141,3.19948 -3.300781,7.26199 -3.300781,12.1875 0,3.32578 0.413227,6.39816 1.238281,9.21875 -0.519479,0.88407 -1.49739,2.35905 -2.933593,4.42188 -0.638844,0.91757 -1.105585,1.61741 -1.671875,2.44336 -7.472153,10.06701 -11.90052,15.11132 -13.271485,15.11132 -0.488927,0 -0.810109,-0.10592 -0.96289,-0.3164 -0.122234,-0.25259 -0.183594,-0.6947 -0.183594,-1.32617 0,-0.63148 0.122727,-2.54662 0.367187,-5.7461 0.702823,-4.29404 2.994193,-16.1026 6.875,-35.42578 H 71.40625 c -1.955683,0 -3.377503,0.31579 -4.263672,0.94727 -1.161185,0.79987 -2.077733,2.98804 -2.75,6.5664 l -4.996094,26.26953 c -0.427806,1.22086 -1.939718,2.86296 -4.537109,4.92579 -2.566833,2.06282 -4.721112,3.0957 -6.462891,3.0957 -2.047355,0 -3.072265,-1.51579 -3.072265,-4.54688 0,-3.03108 1.880093,-12.69423 5.638672,-28.98632 1.252858,-5.4307 1.878906,-8.18729 1.878906,-8.27149 h -1.603516 c -4.828086,0 -7.303548,0.52566 -7.425781,1.57813 -2.153268,8.5357 -3.965968,16.27675 -5.498047,23.36132 -1.792159,2.63636 -3.44892,4.92461 -4.953125,6.82422 -0.702823,0.92617 -1.895507,2.48276 -3.576172,4.67188 -1.650106,2.14702 -2.885884,3.74832 -3.710937,4.80078 l 7.011719,-40.85742 c -6.417083,-1.64184 -11.030504,-2.46289 -13.841797,-2.46289 -2.811294,0 -5.577255,0.86381 -8.296875,2.58984 -2.7196212,1.68394 -5.1030362,3.95567 -7.150391,6.81836 -2.0473547,2.86269 -3.84976894,6.1061 -5.4082031,9.72656 -1.0736937,2.54423 -1.9647932,5.18663 -2.6914063,7.91797 -8.6688466,11.84947 -13.7899506,17.8457 -15.2773436,17.8457 -0.488921,0 -0.810103,-0.10592 -0.962891,-0.3164 -0.122231,-0.25259 -0.18164,-0.6947 -0.18164,-1.32617 0,-0.63148 0.120774,-2.54662 0.365234,-5.7461 0.702823,-4.29404 2.994193,-16.1026 6.875,-35.42578 h -3.115234 c -1.955682,0 -3.377504,0.31579 -4.263672,0.94727 -1.161186,0.79987 -2.077735,2.98804 -2.75,6.5664 l -4.996094,26.26953 c -0.427806,1.22086 -1.939719,2.86296 -4.537109,4.92579 -2.566833,2.06282 -4.721112,3.0957 -6.462891,3.0957 -2.047356,0 -3.072266,-1.51579 -3.072266,-4.54688 0,-3.03108 1.880096,-12.69423 5.638672,-28.98632 1.25286,-5.4307 1.878906,-8.18729 1.878907,-8.27149 h -1.603516 c -4.828086,0 -7.303548,0.52566 -7.425781,1.57813 -2.096963,8.31251 -3.867165,15.86255 -5.375,22.79882 -5.32663,7.3004 -9.018839,12.06188 -10.94336,14.08008 -1.283416,1.34715 -2.750282,2.02149 -4.40039,2.02149 -0.427804,0 -0.779669,-0.16907 -1.054688,-0.50586 -0.886173,-1.01037 -0.94558,-4.27417 -0.181641,-9.78907 3.819692,-27.70075 7.072655,-46.51789 9.761719,-56.45312 0.09166,-0.1684 0.138672,-0.50459 0.138672,-1.00977 0,-1.38925 -0.413229,-2.08398 -1.238281,-2.08398 -5.744818,0 -8.952736,1.40987 -9.625,4.23047 -0.641708,2.82059 -2.108575,10.966 -4.400391,24.4375 -2.261258,13.4715 -3.713759,22.48071 -4.355469,27.02734 -0.611149,4.54663 -2.321519,8.37886 -5.132812,11.49414 -2.811293,3.07319 -5.577255,4.60938 -8.296875,4.60938 -4.09471,0 -7.318944,-1.76842 -9.671875,-5.30469 -2.32237,-3.57836 -3.48242,-8.71455 -3.48242,-15.4082 0,-8.79857 2.38341,-18.06042 7.150389,-27.78516 4.553072,-9.21956 10.052359,-16.90246 16.5,-23.04883 6.753215,-6.44106 12.849822,-9.66211 18.289062,-9.66211 7.119905,0 11.565554,5.68421 13.337891,17.05079 1.375089,-0.50518 3.026047,-1.97822 4.951172,-4.41993 1.955683,-2.44171 2.933594,-4.54632 2.933594,-6.31445 -10e-7,-1.35767 -0.288527,-2.62566 -0.859376,-3.80469 1.020502,-1.16256 2.24213,-2.64732 3.994141,-4.89258 2.200646,-2.82018 4.003296,-4.90575 4.005859,-4.63476 0.0024,0.27099 -0.340276,3.83147 -0.761718,7.91015 -0.659573,6.38263 -0.722212,7.73613 -0.453125,9.7168 0.498035,3.66593 1.66715,5.63412 3.921875,6.59961 0.671843,0.28765 1.789132,0.48828 2.71289,0.48828 3.988746,0 6.048233,-2.28769 6.632813,-7.37109 0.250274,-2.17625 0.182523,-3.5743 -0.458985,-9.58203 -0.413054,-3.86833 -0.75,-7.31293 -0.75,-7.6543 0,-0.45742 0.586579,0.14014 2.228516,2.26758 6.321733,8.19081 7.399373,9.37734 9.1640626,10.08594 2.5831329,1.03722 5.251604,-1.31651 4.5878906,-4.04688 -0.4033616,-1.65931 -1.9178763,-3.31245 -7.2734372,-7.94336 -2.826074,-2.44366 -6.134087,-5.30573 -7.34961,-6.35937 l -2.208984,-1.91602 -0.451172,-4.01953 c -0.248149,-2.21102 -0.396077,-4.07184 -0.328125,-4.13477 0.06785,-0.0629 1.071929,1.03118 2.232422,2.43164 7.677496,9.26503 7.940929,9.55541 9.001953,9.92969 0.95735,0.3377 2.0779645,0.0591 3.013672,-0.74804 1.5588291,-1.34472 1.4831231,-1.63469 -3.03125,-11.68165 -1.202855,-2.67704 -2.149418,-4.90264 -2.103516,-4.94531 0.046,-0.0427 1.688482,0.98452 3.650391,2.28125 3.4149358,2.25712 3.5841062,2.41006 3.921875,3.61914 0.1940391,0.69465 1.2009772,4.65499 2.2382812,8.80078 2.0437097,8.16805 2.6322667,9.92246 3.74414068,11.14844 2.46220142,2.71491 6.65810082,1.67019 6.65039062,-1.65625 -0.00259,-1.43092 -0.4858279,-2.66837 -3.4726563,-8.89453 -1.5655733,-3.26355 -2.80442072,-5.97151 -2.7539062,-6.01758 0.0504392,-0.0461 2.9811121,1.8261 6.5136719,4.16016 3.5325851,2.33407 7.2650281,4.63762 8.2949221,5.11914 5.047052,2.35967 8.694751,2.19534 10.751953,-0.48438 2.538899,-3.30709 1.676443,-6.38587 -2.632813,-9.39257 -2.072686,-1.44618 -5.018657,-2.84922 -12.916015,-6.15625 -2.550618,-1.06808 -4.5854937,-1.98932 -4.5234378,-2.04688 0.062055,-0.0576 3.1753473,-0.39834 6.9199218,-0.75781 7.870382,-0.7555 9.522224,-1.11475 10.857422,-2.35352 0.796315,-0.73892 0.947266,-1.07172 0.947266,-2.08789 0,-2.35545 -2.39348,-3.86044 -5.550782,-3.49023 -0.793723,0.0931 -5.790939,1.40155 -11.1054684,2.9082 l -9.6640625,2.74024 -4.1113281,-1.73438 c -2.2620333,-0.95419 -4.081256,-1.76645 -4.041016,-1.80273 0.04036,-0.0365 3.6062135,-0.50404 7.9238285,-1.03907 4.3175642,-0.53503 8.2487808,-1.14639 8.7363281,-1.35937 2.3845036,-1.04159 2.1063179,-4.47111 -0.4160156,-5.12695 -0.5726052,-0.1489 -4.4440138,-0.69636 -8.6035156,-1.2168 -4.1595012,-0.52046 -7.5973964,-0.97708 -7.6386714,-1.01563 -0.04144,-0.0384 1.7783707,-0.84825 4.0429682,-1.79882 l 4.1171876,-1.72852 9.6445312,2.73438 c 5.304121,1.50312 10.300069,2.80748 11.101563,2.90039 3.224562,0.37378 5.564453,-1.12653 5.564453,-3.56836 0,-1.14026 -0.114091,-1.37989 -1,-2.10157 -1.416101,-1.15357 -3.083222,-1.50172 -10.808594,-2.25586 -3.7468821,-0.36575 -6.864812,-0.71499 -6.9296876,-0.77539 -0.065005,-0.0603 2.8064548,-1.33075 6.3828126,-2.82421 9.680126,-4.04236 12.591488,-5.76232 14.28125,-8.4375 1.48867,-2.35683 0.864186,-5.19623 -1.597656,-7.25977 -2.065199,-1.73107 -5.009518,-1.63983 -9.320313,0.29101 -1.256038,0.5626 -5.174446,2.93709 -8.7070311,5.2754 -3.5325599,2.33829 -6.46274177,4.21474 -6.51171878,4.16992 -0.0491317,-0.0449 1.18822188,-2.74733 2.74999998,-6.00391 2.9768787,-6.20725 3.472045,-7.47732 3.4746094,-8.91211 0.00585,-3.19069 -4.0181736,-4.35207 -6.4609375,-1.86523 -1.4563858,1.48264 -1.5791765,1.85401 -4.3945312,13.18554 -1.1018212,4.43468 -2.0694605,8.12398 -2.1484376,8.19727 -0.3684879,0.34188 -7.1250882,4.7453 -7.1894532,4.68555 -0.04026,-0.0374 0.772905,-1.965 1.808594,-4.28321 4.7837768,-10.70739 4.8667174,-11.01446 3.314453,-12.35351 -1.407152,-1.21386 -3.026391,-1.17219 -4.339844,0.11133 -0.344537,0.33667 -2.697207,3.0956 -5.228515,6.13086 -2.531309,3.03525 -4.644028,5.40255 -4.695313,5.25976 -0.09401,-0.26164 0.732759,-8.05042 0.863281,-8.13281 0.722795,-0.45641 14.3329269,-12.43032 15.0117191,-13.20703 1.6789145,-1.92091 2.1699915,-3.29102 1.7207031,-4.80078 -0.3143042,-1.05602 -2.075036,-2.51563 -3.0351562,-2.51563 -2.106252,0 -3.725355,1.48932 -9.029297,8.30469 -2.681448,3.44554 -3.884766,4.80453 -3.884766,4.38476 0,-0.33457 0.336946,-3.77425 0.75,-7.64257 0.641613,-6.00773 0.709258,-7.40383 0.458985,-9.58008 -0.358852,-3.12045 -1.263492,-5.17914 -2.822266,-6.3125 z m 6.38086,39.2832 c 0.106699,0.099 -0.972048,5.55563 -1.539063,7.78516 -0.09591,0.37717 -1.269022,1.34559 -3.160156,2.60937 l -3.00586,2.00977 0.191407,-2.34571 c 0.387643,-4.74796 0.112518,-4.23536 3.953125,-7.375 1.886647,-1.5423 3.489004,-2.74984 3.560547,-2.68359 z m -20.386719,0.0742 c 0.04836,-0.13463 1.639357,1.01965 3.537109,2.56641 3.864791,3.14991 3.590823,2.63974 3.978516,7.39257 0.10413,1.2746 0.138896,2.30866 0.07813,2.29883 -0.156319,-0.0245 -5.358316,-3.55381 -5.685547,-3.85742 -0.295073,-0.27375 -2.050767,-8.00324 -1.908203,-8.40039 z m 21.882812,13.36914 4.429688,1.37305 c 2.4370965,0.75515 4.4324911,1.4371 4.4335936,1.51367 0.00103,0.0766 -1.8932041,0.7191 -4.2089846,1.42773 -2.315832,0.70864 -4.339157,1.31963 -4.496093,1.35743 -0.344563,0.0828 -6.707032,-2.56493 -6.707032,-2.79102 0,-0.0874 1.472489,-0.77117 3.273438,-1.51953 z m -23.396484,0.0137 3.285156,1.35352 c 1.807001,0.74483 3.285156,1.42779 3.285156,1.51562 0,0.0878 -1.380597,0.73165 -3.068359,1.43164 -1.687786,0.7 -3.196553,1.30937 -3.353515,1.35352 -0.345691,0.0972 -8.992188,-2.58279 -8.992188,-2.78711 0,-0.0793 1.989775,-0.75711 4.421875,-1.50586 z m 9.222656,6.78516 -0.191406,2.34375 c -0.388079,4.75354 -0.122473,4.25241 -3.908203,7.37109 -1.860234,1.53248 -3.452237,2.78711 -3.537109,2.78711 -0.240533,0 -0.207352,-0.20032 0.703124,-4.37109 0.47099,-2.15764 0.855469,-3.95547 0.855469,-3.9961 0,-0.0404 1.367663,-0.98654 3.039063,-2.10351 z m 4.984375,0.008 3,2.00586 c 1.886955,1.261 3.058395,2.22643 3.154297,2.60352 0.0839,0.32984 0.492635,2.18479 0.908203,4.12109 0.415492,1.93629 0.714327,3.61534 0.664063,3.73047 -0.05013,0.11512 -1.633521,-1.07383 -3.517578,-2.64063 -3.829608,-3.1848 -3.626543,-2.81303 -4.003907,-7.34765 z m -15.417969,7.03906 c 0.03869,0.0359 -1.303091,3.15532 -2.980468,6.93164 -1.96935,4.43358 -3.05261,7.21745 -3.060547,7.85938 -0.02044,1.97543 2.559156,3.33095 4.458984,2.34375 0.693665,-0.36045 2.079436,-1.92668 7.371094,-8.33594 1.789049,-2.16691 3.296273,-3.81842 3.349609,-3.66992 0.09703,0.27005 -0.727057,8.06661 -0.859375,8.13086 -0.03857,0.0187 -2.935761,2.52484 -6.4375,5.56836 -3.501713,3.04352 -6.627479,5.70232 -6.947265,5.91016 -0.179051,0.11635 -0.414429,0.33898 -0.667969,0.60156 -0.886494,-0.51065 -1.864534,-0.99298 -2.943359,-1.44336 -1.079519,-0.45761 -2.153709,-0.83249 -3.222657,-1.13477 0.586957,-1.82006 1.316495,-4.69999 2.595703,-9.86914 1.096305,-4.43013 2.062655,-8.11753 2.146485,-8.19531 0.364592,-0.33826 7.133959,-4.75615 7.197265,-4.69727 z m 58.570313,68.22657 c 0.763938,0 2.261488,0.37894 4.492187,1.13672 l -5.316406,30.75195 c -4.003037,6.23057 -7.319317,9.3457 -9.9472654,9.3457 -2.9640806,0 -4.4453125,-4.0625 -4.4453125,-12.1875 0,-6.65155 1.4668674,-13.07129 4.4003907,-19.25976 1.313974,-2.8206 2.9342502,-5.15744 4.8593752,-7.00977 1.925124,-1.85233 3.909676,-2.77734 5.957031,-2.77734 z m 144.156245,12.50195 c 2.50573,0 3.75782,1.93749 3.75782,5.81055 0,1.97862 -0.32118,4.20955 -0.96289,6.69336 -0.61116,2.4417 -1.22088,4.35684 -1.83203,5.74609 -1.43621,-1.34715 -2.58189,-3.15637 -3.4375,-5.42969 -0.82506,-2.31541 -1.23829,-4.54829 -1.23829,-6.69531 0,-4.08355 1.23774,-6.125 3.71289,-6.125 z M 88.273438,301.5332 c 0.275018,0.50518 0.856018,1.49531 1.742187,2.96875 0.886169,1.43135 1.542899,2.56819 1.970703,3.41016 0.458365,0.79987 0.978002,1.8512 1.558594,3.15625 0.611152,1.26295 1.053108,2.48531 1.328125,3.66406 0.275019,1.17876 0.412109,2.50312 0.412109,3.97656 0,1.47345 -0.626048,2.6958 -1.878906,3.66407 -1.25286,0.92616 -2.901865,1.38867 -4.949219,1.38867 -2.047356,0 -3.95813,-0.80065 -5.730469,-2.40039 -1.772337,-1.64184 -2.658203,-3.64054 -2.658203,-5.99805 0,-1.48379 0.693582,-3.35686 2.072266,-5.61328 1.110887,-1.44619 2.249963,-2.92907 2.787109,-3.60742 v -0.3125 c 0.184529,-0.23324 0.353746,-0.45812 0.548828,-0.69727 1.619551,-2.02072 2.552414,-3.22072 2.796876,-3.59961 z m -72.925782,32.58399 c -0.580593,7.11463 -1.65055,12.84159 -3.208984,17.17773 -1.527877,4.33614 -3.5143817,6.50391 -5.9589845,6.50391 -1.1917437,0 -2.0612924,-0.31579 -2.6113281,-0.94727 -0.519478,-0.63147 -0.7792969,-1.78872 -0.7792969,-3.47265 0,-1.64184 0.2741832,-3.24314 0.8242187,-4.80079 0.1833455,-0.54726 0.4882104,-1.1361 0.9160157,-1.76757 0.4278055,-0.63149 0.7653052,-1.094 1.0097656,-1.38867 0.2444602,-0.29469 0.6413704,-0.7368 1.1914063,-1.32618 0.5500348,-0.58938 0.9162635,-0.99069 1.0996093,-1.20117 z"
         transform="scale(0.31055341,0.22541803)" />
    </g>
    <path
       d="m 162.60314,3.6022164 a 7.9455528,7.9455528 0 0 0 -7.94525,7.9457676 7.9455528,7.9455528 0 0 0 0.0165,0.515731 10.958661,3.528565 0 0 0 -2.59623,2.280481 10.958661,3.528565 0 0 0 0.009,0.143145 v 3.883483 a 44.242368,44.242368 0 0 0 -33.9273,43.023212 44.242368,44.242368 0 0 0 44.24226,44.242264 44.242368,44.242368 0 0 0 44.24226,-44.242264 44.242368,44.242368 0 0 0 -32.65796,-42.699201 v -4.208013 a 10.958661,3.528565 0 0 0 0.009,-0.142626 10.958661,3.528565 0 0 0 -3.45044,-2.570385 7.9455528,7.9455528 0 0 0 0.004,-0.225827 7.9455528,7.9455528 0 0 0 -7.94577,-7.9457676 z m -0.0238,1.8386472 h 5.2e-4 a 5.8835631,5.8835633 0 0 1 0.009,0 5.8835631,5.8835633 0 0 1 5.88285,5.8399554 10.958661,3.528565 0 0 0 -5.43533,-0.46509 10.958661,3.528565 0 0 0 -0.10232,0 10.958661,3.528565 0 0 0 -6.22701,0.648023 5.8835631,5.8835633 0 0 1 -0.002,-0.139526 5.8835631,5.8835633 0 0 1 5.87406,-5.8833624 z m 0.50746,20.9656444 a 34.847135,34.847135 0 0 1 2.88768,0.204639 c -0.0102,0.0079 -0.0197,0.01367 -0.03,0.0217 -0.31863,0.248743 -1.27861,1.222454 -2.1332,2.16421 -0.8546,0.941763 -1.56665,1.703048 -1.58285,1.69137 -0.0161,-0.01171 0.17944,-0.944851 0.43511,-2.073259 0.22215,-0.980631 0.34945,-1.576642 0.42323,-2.008664 z m -2.17971,0.0041 c -0.0521,0.597768 -0.0953,1.529734 -0.16536,3.178617 -0.0629,1.48072 -0.12877,2.715226 -0.14677,2.742986 -0.0838,0.129622 -1.72236,1.909074 -1.74356,1.893424 -0.0133,-0.0098 0.10736,-0.671608 0.2682,-1.470713 0.74287,-3.690969 0.74897,-3.793982 0.2434,-4.138247 -0.45832,-0.312065 -0.907,-0.210473 -1.202,0.272336 -0.0774,0.126634 -0.58062,1.139071 -1.11827,2.249474 -0.53765,1.110401 -0.99531,1.983409 -1.01751,1.940449 -0.0405,-0.07869 -0.23841,-2.618534 -0.20671,-2.652033 0.12376,-0.130476 1.68083,-2.394492 2.66134,-3.849378 a 34.847135,34.847135 0 0 1 2.42724,-0.166915 z m -4.75113,0.486791 c -0.35239,0.763641 -0.53136,1.084755 -0.54984,0.977202 -0.009,-0.05523 -0.0401,-0.388641 -0.0801,-0.862478 a 34.847135,34.847135 0 0 1 0.62994,-0.114724 z m 13.2395,0.272336 a 34.847135,34.847135 0 0 1 27.42985,31.511771 c -0.27512,-0.172373 -0.60908,-0.262001 -1.00717,-0.262001 -0.70829,0 -1.24956,0.278159 -1.62316,0.835091 -0.3736,0.545786 -0.56017,1.264333 -0.56017,2.155426 0,0.879948 0.1553,1.748888 0.46664,2.606558 0.31911,0.857671 0.77068,1.548194 1.35443,2.071709 -0.62267,1.002472 -1.26849,1.503783 -1.93786,1.503783 -0.66937,0 -1.2378,-0.445778 -1.70481,-1.336868 -0.45922,-0.891085 -0.68884,-2.082919 -0.68884,-3.575492 0,-1.503709 0.38134,-2.856738 1.14411,-4.0597 0.81726,-1.269796 2.00076,-1.904794 3.54966,-1.904794 0.17123,-0.155945 0.25683,-0.395287 0.25683,-0.718304 -0.0156,-0.144801 -0.10117,-0.217556 -0.25683,-0.217556 -2.22605,0 -4.01232,0.779994 -5.35885,2.339393 -1.28227,1.493618 -1.94889,3.514976 -2.00298,6.061128 -1.6708,2.173239 -2.68394,3.278351 -3.01738,3.278351 -0.13232,0 -0.26098,-0.05553 -0.38551,-0.166915 -0.12454,-0.122523 -0.18655,-0.579104 -0.18655,-1.369941 0,-0.779703 0.35007,-3.012982 1.05058,-6.69985 0.2335,-1.236382 0.35395,-1.854666 0.36173,-1.854666 2.13266,0 3.29668,-0.256051 3.49126,-0.768429 l 0.25683,-0.601515 -3.56102,0.23358 c 0.22572,-1.113862 0.67319,-3.040441 1.34256,-5.780527 0.20237,-0.824291 0.30334,-1.258755 0.30334,-1.303279 l -0.0465,-0.06718 c -0.467,0 -0.92216,0.144997 -1.36581,0.4346 -0.1868,0.122531 -0.3662,0.30634 -0.53743,0.551389 -0.17124,0.245046 -0.32296,0.473593 -0.45527,0.685228 -0.12454,0.211635 -0.25678,0.506505 -0.39688,0.885217 -0.13232,0.378714 -0.27224,0.807786 -0.42013,1.286742 -0.14788,0.467818 -0.40467,1.570189 -0.77049,3.307811 l -0.98082,0.133842 c -0.24907,0.04455 -0.389,0.122714 -0.42013,0.234093 -0.008,0.04456 -0.0119,0.144814 -0.0119,0.300757 0,0.144801 0.0272,0.261773 0.0816,0.350882 0.0311,0.04452 0.0624,0.08338 0.0935,0.11679 0.0311,0.03341 0.0701,0.06142 0.11678,0.08372 0.0545,0.0223 0.10113,0.03901 0.14005,0.05013 0.0389,0.01119 0.0933,0.02196 0.1633,0.03307 h 0.21032 0.28008 c -0.1868,1.147273 -0.35799,2.160699 -0.51366,3.040642 -0.12123,0.676613 -0.28173,1.641414 -0.44545,2.628778 l -2.83549,3.319695 c 0.54484,-1.069305 0.81753,-2.016394 0.81753,-2.840654 0,-0.534648 -0.25321,-1.169127 -0.75913,-1.904277 -0.21794,-0.323014 -0.44346,-0.663141 -0.67696,-1.019575 -0.63046,-0.913371 -1.07792,-1.943494 -1.34255,-3.090767 0.47478,0 0.91814,-0.189211 1.33066,-0.567925 0.42031,-0.389848 0.63045,-0.930498 0.63045,-1.621089 0,-0.389848 -0.245,-0.58446 -0.73535,-0.58446 -1.11303,0 -1.94952,0.428554 -2.50993,1.286225 -0.5604,0.846529 -0.84077,1.921393 -0.84077,3.224609 0,0.879951 0.10507,1.693362 0.31522,2.439646 -0.13231,0.23391 -0.38142,0.623644 -0.74724,1.169437 -0.16331,0.243663 -0.28266,0.429813 -0.42736,0.649055 -1.90221,2.66196 -3.02951,3.995624 -3.3786,3.995624 -0.12454,0 -0.20655,-0.02749 -0.24547,-0.0832 -0.0311,-0.06683 -0.0465,-0.183804 -0.0465,-0.350883 0,-0.167079 0.0313,-0.674309 0.0935,-1.520838 0.17902,-1.136137 0.76282,-4.260464 1.75131,-9.373071 h -0.79427 c -0.49813,0 -0.86,0.08355 -1.08572,0.250632 -0.29577,0.211635 -0.52898,0.791104 -0.70021,1.737879 l -1.27279,6.950479 c -0.10897,0.323014 -0.49442,0.757489 -1.156,1.30328 -0.65381,0.54579 -1.20224,0.818554 -1.6459,0.818554 -0.52149,0 -0.78238,-0.401047 -0.78238,-1.203026 0,-0.801973 0.47873,-3.358149 1.43609,-7.668783 0.31912,-1.436852 0.47852,-2.166713 0.47852,-2.189015 h -0.40824 c -1.22978,0 -1.86023,0.139597 -1.89136,0.418063 -0.54724,2.253356 -1.00813,4.296974 -1.39785,6.168099 -0.45465,0.694454 -0.88271,1.317109 -1.26452,1.817976 -0.17902,0.245049 -0.48245,0.657415 -0.91054,1.236617 -0.4203,0.568071 -0.73553,0.991225 -0.94568,1.269691 l 1.78646,-10.810192 c -1.04655,-0.278141 -1.90243,-0.466313 -2.57245,-0.566375 0.27562,-0.450435 0.37662,-1.103263 0.31419,-1.991609 -0.0499,-0.710782 -0.14554,-1.154732 -0.65423,-3.044259 -0.32754,-1.216649 -0.61072,-2.301354 -0.62942,-2.410706 -0.0251,-0.146531 0.17028,0.01217 0.74414,0.604099 2.20944,2.278992 2.57518,2.60037 3.10524,2.731098 0.77587,0.191352 1.38896,-0.707726 1.0542,-1.546159 -0.20344,-0.509547 -0.7159,-0.956884 -2.46083,-2.148189 -0.92076,-0.628636 -1.99852,-1.364853 -2.39469,-1.636074 l -0.71985,-0.492993 -0.34675,-1.262973 c -0.19065,-0.694722 -0.33373,-1.282978 -0.31832,-1.306896 0.0154,-0.02386 0.35507,0.271997 0.75499,0.657323 2.64576,2.549144 2.73461,2.627738 3.05046,2.689759 0.28498,0.05595 0.58182,-0.09449 0.79788,-0.404111 0.3599,-0.515811 0.32328,-0.604869 -1.48518,-3.577042 -0.48186,-0.791951 -0.86781,-1.45305 -0.85731,-1.46916 0.0104,-0.01618 0.52426,0.222861 1.14153,0.531233 1.07438,0.536755 1.12936,0.577307 1.28984,0.946195 0.0922,0.211928 0.5899,1.425519 1.1064,2.696993 1.01764,2.505075 1.27788,3.034638 1.65468,3.36672 0.83442,0.735369 1.94485,0.172235 1.7601,-0.892969 -0.0794,-0.458243 -0.28183,-0.828754 -1.45521,-2.660303 -0.61504,-0.960044 -1.10921,-1.759633 -1.09761,-1.777151 0.0115,-0.01754 0.93036,0.422203 2.04174,0.977199 1.11136,0.554979 2.27693,1.088937 2.59002,1.187008 1.53424,0.480573 2.53993,0.229076 2.96519,-0.741556 0.52482,-1.197901 0.11546,-2.136857 -1.24902,-2.864942 -0.65629,-0.3502 -1.55306,-0.639054 -3.93257,-1.267622 -0.76854,-0.203009 -1.3856,-0.38694 -1.3715,-0.40876 0.0141,-0.02184 0.86177,-0.30121 1.88413,-0.620636 2.14875,-0.671364 2.58883,-0.875987 2.89233,-1.345652 0.18096,-0.280154 0.20462,-0.39484 0.14882,-0.72037 -0.12945,-0.754544 -0.878,-1.106279 -1.73632,-0.815454 -0.21577,0.07312 -1.53487,0.76482 -2.93109,1.537374 l -2.53835,1.404565 -1.24023,-0.331245 c -0.68196,-0.182274 -1.23218,-0.342638 -1.22318,-0.356569 0.009,-0.0139 0.97603,-0.358404 2.14819,-0.765328 1.17216,-0.406927 2.23247,-0.817319 2.35644,-0.912088 0.60636,-0.463748 0.34062,-1.54705 -0.39739,-1.619541 -0.16753,-0.01645 -1.2752,0.01939 -2.46135,0.07958 -1.18618,0.06019 -2.16756,0.101092 -2.18126,0.09095 -0.0136,-0.01006 0.44779,-0.368284 1.02578,-0.796332 l 1.05109,-0.778248 2.83394,0.349332 c 1.5587,0.192172 3.02077,0.337981 3.2489,0.324011 0.91792,-0.05616 1.48656,-0.664726 1.35237,-1.44694 -0.0627,-0.365276 -0.10756,-0.436234 -0.39377,-0.619082 -0.45748,-0.292288 -0.94023,-0.312664 -3.13159,-0.132808 -1.06284,0.08723 -1.94996,0.145963 -1.97146,0.130223 -0.0214,-0.01578 0.7084,-0.580144 1.6216,-1.25367 2.47176,-1.822985 3.18715,-2.532817 3.51039,-3.481957 0.126,-0.370011 0.13151,-0.747395 0.0294,-1.099158 z m -16.98708,0.588079 c 0.0955,0.367263 0.17099,0.661442 0.17932,0.710033 0.0169,0.09866 -0.20562,-0.08083 -0.69246,-0.557072 a 34.847135,34.847135 0 0 1 0.51314,-0.152961 z m -2.56832,0.851109 c 0.65835,0.459885 1.52235,1.052433 2.70268,1.859319 l 0.72347,0.494544 0.34158,1.263488 c 0.18786,0.695092 0.32963,1.282528 0.31523,1.30483 -0.0144,0.0223 -0.79095,-0.695058 -1.72548,-1.593702 -0.93451,-0.898641 -1.79358,-1.666211 -1.90944,-1.705837 -0.52262,-0.17875 -1.134,0.27029 -1.1529,0.846976 -0.008,0.255857 0.40061,1.007747 1.78594,3.282487 0.41726,0.685128 0.75114,1.257929 0.74104,1.272788 -0.01,0.01493 -0.52227,-0.225271 -1.13947,-0.533299 l -1.12241,-0.559657 -0.23771,-0.54777 c -0.13072,-0.301196 -0.42827,-1.023247 -0.66146,-1.604552 -0.54017,-1.346531 -0.87855,-2.177963 -1.12086,-2.748153 a 34.847135,34.847135 0 0 1 2.45979,-1.031462 z m -4.33978,1.97559 c 0.20278,0.328616 0.42005,0.679485 0.66611,1.064536 0.61334,0.959752 1.10675,1.758518 1.09606,1.774568 -0.0106,0.0161 -0.92882,-0.424796 -2.04019,-0.979786 -0.65516,-0.327174 -1.16614,-0.573056 -1.59835,-0.768427 a 34.847135,34.847135 0 0 1 1.87637,-1.090891 z m 12.29796,2.07481 c 0.0351,0.02589 0.0347,1.832486 -5.2e-4,2.577618 -0.006,0.126061 -0.27903,0.500201 -0.73587,1.008208 l -0.72606,0.807702 -0.076,-0.761193 c -0.15303,-1.542113 -0.20123,-1.36339 0.69505,-2.578653 0.44029,-0.596985 0.81986,-1.071044 0.84336,-1.053682 z m -5.64462,1.133263 c 0.10941,0.02892 0.56474,0.289034 1.10122,0.632003 1.24859,0.798224 1.14349,0.649396 1.51257,2.150774 0.0988,0.402664 0.16592,0.73207 0.14832,0.732255 -0.0449,6.83e-4 -1.68641,-0.846087 -1.79421,-0.925525 -0.0972,-0.0716 -1.01061,-2.452423 -0.99271,-2.58744 7.6e-4,-0.0057 0.009,-0.0062 0.0248,-0.0021 z m -12.12226,0.455269 c 0.35673,0.363556 0.87635,0.679487 1.5565,0.941028 0.31428,0.120859 1.49362,0.466878 2.62102,0.768945 2.24654,0.601959 2.21634,0.576217 1.06971,0.915707 -0.34076,0.100886 -1.19346,0.369874 -1.89446,0.597897 -1.86717,0.607203 -2.29484,0.99231 -2.05259,1.848464 0.20212,0.714436 0.87628,0.99972 1.70326,0.720887 0.21772,-0.07341 1.53695,-0.765223 2.9316,-1.537372 l 2.53576,-1.403533 1.2392,0.331245 c 0.68155,0.182158 1.23225,0.342852 1.22215,0.357603 -0.01,0.01476 -0.97642,0.359812 -2.14819,0.76636 -1.17179,0.406538 -2.23188,0.81619 -2.35593,0.91054 -0.58609,0.445733 -0.35027,1.52106 0.35554,1.622121 0.14667,0.02099 1.25515,-0.01363 2.46341,-0.077 1.20826,-0.06339 2.20807,-0.107182 2.22157,-0.09715 0.0136,0.01001 -0.44704,0.369123 -1.02371,0.797885 l -1.04851,0.779796 -2.69338,-0.332795 c -3.09759,-0.382657 -3.48719,-0.404794 -3.97857,-0.224793 -0.27855,0.102018 -0.411,0.217927 -0.59841,0.523999 -0.20587,0.336246 -0.23091,0.44894 -0.17415,0.779796 0.0557,0.324829 0.11617,0.423355 0.37827,0.616501 0.43549,0.320923 0.90025,0.344421 3.15123,0.159681 1.06283,-0.08723 1.94811,-0.147175 1.96681,-0.133326 0.0188,0.01387 -0.74342,0.602951 -1.69396,1.308965 -0.69121,0.513389 -1.39698,1.059352 -1.83503,1.415933 -0.35094,-0.645099 -1.02426,-1.185185 -2.02468,-1.619022 -0.80947,-0.356436 -1.60753,-0.534334 -2.39365,-0.534334 -2.21827,0 -4.46379,1.013418 -6.73654,3.040642 -1.05076,0.935638 -2.04718,2.055233 -2.98897,3.358451 -0.6344,0.870353 -1.20879,1.776643 -1.7265,2.717663 a 34.847135,34.847135 0 0 1 11.9512,-19.320784 z m 18.92184,2.636533 1.30897,0.197919 c 0.71972,0.108955 1.31171,0.218429 1.31671,0.24288 0.004,0.02448 -0.48742,0.333457 -1.09295,0.686779 -0.60553,0.35334 -1.13498,0.659452 -1.17668,0.680063 -0.0913,0.04533 -2.00763,-0.455136 -2.02003,-0.527616 -0.005,-0.02801 0.36777,-0.327615 0.82786,-0.665594 z m -6.51019,1.280541 0.98857,0.254249 c 0.54379,0.140028 0.99287,0.277855 0.99787,0.305924 0.005,0.02814 -0.34443,0.310007 -0.77567,0.626317 -0.43122,0.316301 -0.81746,0.593791 -0.85886,0.6165 -0.0909,0.05 -2.64435,-0.336592 -2.65565,-0.402042 -0.004,-0.02539 0.51204,-0.350949 1.14773,-0.723469 z m 4.32687,1.400948 0.94567,0.478525 c 0.59443,0.301006 0.97311,0.546931 1.02061,0.66249 0.0415,0.10109 0.25699,0.672611 0.47904,1.270207 0.2221,0.59759 0.39716,1.118997 0.39016,1.158586 -0.008,0.03961 -0.51354,-0.254069 -1.12396,-0.65319 -1.24077,-0.811324 -1.16405,-0.703755 -1.51825,-2.135788 z m -1.38752,0.269234 0.076,0.761193 c 0.15324,1.543918 0.1995,1.368962 -0.68265,2.574521 -0.43349,0.592394 -0.80787,1.081121 -0.83147,1.085723 -0.0669,0.01312 -0.0686,-0.05242 -0.0444,-1.438156 0.0127,-0.716865 0.0206,-1.314061 0.0186,-1.32705 -0.002,-0.01295 0.32643,-0.390755 0.73019,-0.839742 z m -2.51612,2.8267 c 0.0128,0.0094 -0.18927,1.081585 -0.44855,2.382801 -0.3044,1.527677 -0.45282,2.479092 -0.41962,2.685108 0.10286,0.633928 0.89498,0.92734 1.36943,0.507463 0.17325,-0.153321 0.47276,-0.73088 1.59318,-3.072681 0.3788,-0.791752 0.70771,-1.403215 0.73071,-1.358574 0.0418,0.08121 0.24104,2.624174 0.20774,2.652035 -0.01,0.0081 -0.67792,0.968764 -1.48518,2.134753 -0.80726,1.165987 -1.53181,2.188679 -1.60921,2.272729 -0.21852,0.236664 -0.66104,1.264989 -0.68885,1.600419 -0.0376,0.454851 0.1697,0.884071 0.54984,1.139466 0.35905,0.241247 0.59854,0.235841 0.96894,-0.02325 0.35995,-0.251774 0.70404,-0.871611 1.6123,-2.903698 0.45744,-1.02347 0.8443,-1.789954 0.8599,-1.703256 0.0156,0.08667 0.11586,1.245479 0.22272,2.575036 0.16723,2.080581 0.22397,2.517474 0.40773,3.137279 0.20915,0.705527 0.45388,1.190175 0.76946,1.503267 -0.15828,0.0801 -0.31626,0.17032 -0.47336,0.273883 -0.69272,0.44554 -1.3001,1.047118 -1.82159,1.804541 -0.52149,0.757428 -0.98074,1.615053 -1.37769,2.572969 -0.27349,0.673172 -0.50015,1.372288 -0.68523,2.094963 -2.2082,3.135379 -3.51237,4.721678 -3.89124,4.721678 -0.12453,0 -0.20654,-0.02749 -0.24546,-0.0832 -0.0311,-0.06683 -0.0465,-0.183804 -0.0465,-0.350883 0,-0.167079 0.0313,-0.674309 0.0935,-1.520838 0.17902,-1.136137 0.76283,-4.260464 1.75132,-9.373071 h -0.79427 c -0.49814,0 -0.86,0.08355 -1.08572,0.250632 -0.29577,0.211635 -0.52898,0.791104 -0.70021,1.737879 l -1.2728,6.950479 c -0.10896,0.323014 -0.49441,0.757489 -1.156,1.30328 -0.6538,0.54579 -1.20224,0.818554 -1.64589,0.818554 -0.52149,0 -0.78238,-0.401047 -0.78238,-1.203026 0,-0.801973 0.47873,-3.358149 1.43608,-7.668783 0.31912,-1.436852 0.47853,-2.166713 0.47853,-2.189015 h -0.40824 c -1.22978,0 -1.86023,0.139597 -1.89136,0.418063 -0.5341,2.199262 -0.98537,4.196511 -1.36943,6.031675 -1.35675,1.931545 -2.29671,3.191369 -2.78691,3.725351 -0.3269,0.356436 -0.70056,0.534853 -1.12086,0.534853 -0.10897,0 -0.19867,-0.04473 -0.26872,-0.133842 -0.22572,-0.267325 -0.24109,-1.130353 -0.0465,-2.589506 0.97293,-7.329186 1.80173,-12.308369 2.48667,-14.937073 0.0233,-0.04456 0.0351,-0.133501 0.0351,-0.267166 0,-0.36757 -0.10507,-0.551389 -0.31522,-0.551389 -1.46328,0 -2.28081,0.373028 -2.45205,1.119312 -0.16345,0.746283 -0.5371,2.901921 -1.12086,6.466271 -0.57597,3.564345 -0.94553,5.948013 -1.10898,7.150986 -0.15566,1.202963 -0.59134,2.216385 -1.30741,3.040639 -0.71607,0.813118 -1.42084,1.219565 -2.11357,1.219565 -1.04297,0 -1.86409,-0.467883 -2.46341,-1.403532 -0.59154,-0.946775 -0.88729,-2.30572 -0.88729,-4.076753 0,-2.327968 0.60739,-4.77796 1.8216,-7.350972 1.15973,-2.439349 2.56054,-4.472622 4.20284,-6.098854 1.72013,-1.704203 3.27319,-2.555915 4.65863,-2.555915 1.81353,0 2.94577,1.503418 3.39721,4.510836 0.12818,-0.04891 0.26596,-0.133117 0.41289,-0.250632 0.49305,0.69522 0.85988,0.839155 1.69448,0.670243 0.59257,-0.119999 0.69064,-0.169349 1.32808,-0.664041 0.43614,-0.338497 1.25789,-1.162105 2.24224,-2.247408 0.85452,-0.942173 1.56793,-1.70254 1.58543,-1.689819 0.0175,0.01271 -0.18284,0.963057 -0.44545,2.112015 -0.26261,1.14895 -0.48286,2.297546 -0.48886,2.5523 -0.0228,0.95444 0.40164,1.402673 1.18288,1.249535 0.3645,-0.07145 0.45562,-0.127135 0.63303,-0.387056 0.42164,-0.617784 0.4391,-0.754481 0.60048,-4.626592 0.0617,-1.478949 0.12776,-2.712958 0.14676,-2.742467 0.0829,-0.128254 1.72432,-1.912959 1.74512,-1.89756 z m 6.19859,14.053407 c 0.19458,0 0.57592,0.100264 1.14411,0.300757 l -1.35444,8.13697 c -1.01962,1.64851 -1.86432,2.472719 -2.53369,2.472719 -0.75499,0 -1.13223,-1.074865 -1.13223,-3.22461 0,-1.759891 0.37365,-3.458956 1.12086,-5.09633 0.33468,-0.746283 0.74729,-1.364051 1.23765,-1.854149 0.49035,-0.490096 0.99625,-0.735357 1.51774,-0.735357 z m 36.71817,3.308324 c 0.63824,0 0.95705,0.512109 0.95705,1.536858 0,0.523513 -0.0815,1.113772 -0.24495,1.770952 -0.15567,0.646036 -0.31149,1.153266 -0.46716,1.520836 -0.36582,-0.356434 -0.65746,-0.835639 -0.87539,-1.437122 -0.21016,-0.612624 -0.31523,-1.20288 -0.31523,-1.770951 0,-1.08044 0.31522,-1.620573 0.94568,-1.620573 z M 176.72938,63.1479 c 0.0701,0.133665 0.21767,0.395116 0.44338,0.784966 0.22572,0.378709 0.39333,0.679493 0.5023,0.902269 0.11675,0.211627 0.24899,0.490307 0.39687,0.835607 0.15567,0.334158 0.26843,0.657056 0.33848,0.968933 0.0323,0.143809 0.056,0.29694 0.0734,0.457338 -0.27218,0.106325 -0.46976,0.407723 -0.4346,0.834057 0.016,0.194058 0.0377,0.330247 0.14882,0.577744 -0.0487,0.05292 -0.10119,0.104248 -0.16122,0.152445 -0.27514,0.211275 -0.6302,0.325927 -1.05576,0.355018 -0.002,-0.02817 -0.004,-0.138967 -0.005,-0.150379 -0.0816,-0.596686 -0.24154,-0.919998 -0.55966,-1.133782 -0.22249,-0.149529 -0.71997,-0.164878 -0.85783,-0.02635 -0.14379,0.144465 -0.21246,0.34118 -0.2067,0.71882 -0.0116,-0.01058 -0.0236,-0.01963 -0.0351,-0.03049 -0.45144,-0.434403 -0.67748,-0.963739 -0.67748,-1.5875 0,-0.392371 0.17684,-0.887576 0.52762,-1.484145 0.28315,-0.382916 0.57315,-0.775412 0.71003,-0.954982 v -0.08216 c 0.0472,-0.06193 0.0902,-0.121496 0.14004,-0.185002 0.41252,-0.534649 0.65035,-0.852143 0.71262,-0.952397 z m -24.01972,2.229321 c -0.0518,0.501767 -0.078,0.98969 -0.078,1.462961 0,0.924496 0.14044,1.731997 0.42064,2.422591 0.28799,0.690592 0.71956,1.036111 1.29553,1.036111 0.57597,0 1.19104,-0.217236 1.84485,-0.65164 0.66159,-0.445545 1.4904,-1.303173 2.48667,-2.572969 l -0.37362,2.840138 -3.23391,3.558955 c -0.0467,0.05569 -0.17536,0.194768 -0.38551,0.417544 -0.21015,0.233913 -0.34239,0.38431 -0.39687,0.451136 -0.0545,0.06683 -0.15956,0.195117 -0.31523,0.384474 -0.15567,0.189354 -0.26074,0.333835 -0.31523,0.434081 -0.0467,0.111389 -0.11282,0.250984 -0.19843,0.418063 -0.0856,0.167079 -0.14405,0.328271 -0.17519,0.484208 -0.0233,0.155943 -0.0346,0.406599 -0.0346,0.751893 0,0.345297 0.11635,0.707525 0.34985,1.086236 0.24129,0.378706 0.52166,0.646076 0.84078,0.802019 0.3269,0.167079 0.70055,0.250632 1.12086,0.250632 0.4203,0 0.89493,-0.223147 1.4242,-0.668693 0.52927,-0.445539 1.03517,-1.063823 1.51774,-1.854668 1.05854,-1.782167 1.771,-4.115713 2.13682,-7.000605 l 2.8608,-3.977018 c -0.0111,0.05943 -0.0248,0.125526 -0.0357,0.184483 -0.10897,0.601483 -0.1633,1.219767 -0.1633,1.854669 0,1.871278 0.45515,2.807062 1.36581,2.807062 1.24534,0 2.76713,-1.247886 4.56509,-3.742923 -0.0778,0.42326 -0.11679,0.941285 -0.11679,1.553909 0,1.459153 0.33471,2.189014 1.00408,2.189014 0.2325,0 0.49988,-0.08583 0.80047,-0.254249 0.0836,0.136663 0.17744,0.277493 0.2899,0.42685 0.3296,0.437706 0.57364,0.686118 1.67483,1.702221 0.70904,0.654261 1.33557,1.240046 1.39217,1.302244 0.0715,0.07853 -0.33578,4.34e-4 -1.33377,-0.255796 -0.79014,-0.202896 -1.59892,-0.388832 -1.79679,-0.413412 -0.64358,-0.07994 -1.00577,0.168818 -0.97617,0.670243 0.0187,0.317579 0.1634,0.585467 0.41806,0.773081 0.41037,0.30235 0.54865,0.318772 4.50515,0.530717 l 0.64183,0.0341 0.7369,0.679545 c 0.40551,0.373509 0.73819,0.695232 0.73897,0.715203 8e-4,0.01999 -0.76647,-0.136766 -1.7048,-0.3483 -0.93831,-0.211548 -1.77632,-0.368239 -1.86242,-0.3483 -0.38825,0.09003 -0.56465,0.618937 -0.33279,0.997354 0.10285,0.167908 0.66468,0.490742 2.45307,1.410769 0.53865,0.277096 0.97988,0.514702 0.98031,0.528133 5.3e-4,0.01338 -0.40758,0.06043 -0.90693,0.104386 l -0.90795,0.0801 -0.3731,-0.259416 c -0.20525,-0.142494 -0.68812,-0.490046 -1.07281,-0.772565 -1.91778,-1.408377 -2.37082,-1.725441 -2.62361,-1.835029 -0.66911,-0.290245 -1.10638,-0.176262 -1.29243,0.335381 -0.13127,0.360937 0.0858,0.773726 0.58136,1.105874 0.1223,0.08196 0.85392,0.457189 1.62575,0.834059 0.7718,0.376859 1.40397,0.696883 1.40404,0.711584 4.5e-4,0.01451 -0.73524,0.09108 -1.63452,0.170016 -1.67563,0.147068 -2.23847,0.249726 -2.75384,0.503327 -0.61894,0.304559 -0.89019,0.802608 -0.76378,1.401982 0.23336,1.10649 1.10109,1.553125 2.49959,1.286743 0.2391,-0.04554 1.09119,-0.285877 1.89343,-0.533818 1.59861,-0.494049 1.56902,-0.498748 1.02577,0.1695 -0.16144,0.198586 -0.55812,0.705879 -0.8816,1.12758 -0.86171,1.123148 -0.95559,1.53892 -0.44958,1.99471 0.42221,0.380359 0.94647,0.299693 1.32395,-0.204121 0.0994,-0.132641 0.59761,-1.095508 1.10691,-2.139405 l 0.92604,-1.898076 0.88108,-0.272852 c 0.4848,-0.150177 0.88231,-0.262371 0.88263,-0.249081 5.3e-4,0.01324 -0.43269,0.614064 -0.96273,1.33532 -0.53004,0.721257 -0.99179,1.401112 -1.02629,1.510501 -0.1629,0.5167 0.43144,1.116158 0.89659,0.904338 0.0966,-0.04408 0.74518,-0.501219 1.44177,-1.015957 0.69659,-0.514742 1.27653,-0.935512 1.28932,-0.93431 0.0124,0.0011 -0.11204,0.413112 -0.27646,0.915188 l -0.29921,0.912606 -1.75235,0.842844 c -2.01562,0.96901 -2.25809,1.107363 -2.47633,1.415933 -0.12372,0.174911 -0.15436,0.301617 -0.13746,0.572058 0.0185,0.297091 0.0507,0.379431 0.22428,0.569992 0.1703,0.1871 0.24845,0.226645 0.48679,0.248047 0.39601,0.03563 0.6843,-0.131334 1.95388,-1.133266 0.59946,-0.473069 1.10376,-0.859311 1.12086,-0.857311 0.0171,0.0015 -0.19064,0.679249 -0.46198,1.506369 -0.27133,0.827129 -0.53727,1.716754 -0.59066,1.976622 -0.19218,0.93576 -0.11476,1.611604 0.24132,2.110984 0.15525,0.217778 0.24256,0.281921 0.6041,0.441833 0.6115,0.270481 0.89212,0.22367 1.3286,-0.22066 0.30412,-0.309679 0.34273,-0.379913 0.51573,-0.948262 0.11837,-0.388868 0.26264,-1.24103 0.39429,-2.325438 0.11428,-0.941401 0.22078,-1.710942 0.23668,-1.708941 0.0158,0.0013 0.29651,0.691528 0.62374,1.533757 0.32723,0.84223 0.67934,1.667389 0.78341,1.833481 0.11196,0.179422 0.22859,0.312557 0.34727,0.408241 a 34.847135,34.847135 0 0 1 -19.66909,6.0818 34.847135,34.847135 0 0 1 -33.52921,-25.355558 c 0.18777,0.02318 0.38255,0.03617 0.58652,0.03617 0.81726,0 1.73166,-0.384341 2.7435,-1.1529 1.01185,-0.768562 1.93804,-1.776588 2.77865,-3.024106 -0.0311,0.323014 -0.0465,0.645912 -0.0465,0.968933 0,1.459154 0.22552,2.411651 0.67696,2.857191 0.22572,0.23391 0.55683,0.350882 0.9927,0.350882 0.43587,0 0.90281,-0.23395 1.40095,-0.701765 0.27242,-0.25619 0.52152,-0.506846 0.74724,-0.751893 0.22572,-0.25619 0.49789,-0.607102 0.81701,-1.05265 0.31911,-0.456678 0.58411,-0.846423 0.79426,-1.169437 0.21794,-0.323022 0.51727,-0.779595 0.89866,-1.369941 0.0594,-0.09174 0.0869,-0.130741 0.14262,-0.216524 -0.008,0.0427 -0.018,0.09036 -0.0258,0.132807 -0.10897,0.601483 -0.1633,1.219767 -0.1633,1.854669 0,1.871278 0.45515,2.807062 1.36581,2.807062 1.24534,0 2.76712,-1.247886 4.56509,-3.742923 -0.0778,0.42326 -0.11679,0.941285 -0.11679,1.553909 0,1.459153 0.3347,2.189014 1.00408,2.189014 0.45143,0 1.03113,-0.317503 1.73942,-0.952397 0.27242,-0.245054 0.61123,-0.607279 1.01596,-1.086239 0.41252,-0.478956 0.73954,-0.874093 0.98082,-1.185973 0.24129,-0.323014 0.59136,-0.790906 1.05058,-1.403533 0.1034,-0.140446 0.12849,-0.172273 0.21808,-0.293521 z m 29.79249,0.12454 c -0.007,0.06816 -0.01,0.12918 -0.0165,0.196371 -0.0736,0.0213 -0.14418,0.0516 -0.21136,0.09199 0.083,-0.105505 0.14235,-0.179642 0.22789,-0.288356 z m 6.03116,0.458369 c 0.074,0.63287 0.19739,1.227828 0.37311,1.782321 0.53705,1.7042 1.43608,2.556433 2.69699,2.556433 0.87952,0 1.7278,-0.328814 2.54506,-0.985986 0.82504,-0.668316 1.53699,-1.525942 2.1363,-2.572969 0.0603,0.02947 0.12296,0.0536 0.18552,0.07752 a 34.847135,34.847135 0 0 1 -5.29735,13.591418 c -0.0213,-0.02831 -0.0424,-0.05657 -0.0677,-0.08423 -0.24071,-0.263686 -0.518,-0.422455 -1.99265,-1.1405 -0.77296,-0.376377 -1.4054,-0.697454 -1.40611,-0.713134 -5.1e-4,-0.01579 0.73471,-0.09315 1.63401,-0.172082 0.89928,-0.07895 1.82228,-0.192421 2.05103,-0.252182 1.12105,-0.292704 1.61713,-0.849424 1.46245,-1.640727 -0.1909,-0.976582 -0.83165,-1.419748 -1.95544,-1.352888 -0.54054,0.03217 -1.19926,0.197998 -2.88871,0.727088 -0.54566,0.170902 -0.99298,0.294508 -0.99374,0.274918 -7.6e-4,-0.01959 0.38928,-0.531852 0.86662,-1.138431 1.00321,-1.274902 1.18015,-1.579168 1.16375,-2.000395 -0.01,-0.25123 -0.0444,-0.334362 -0.21498,-0.521933 -0.39565,-0.434695 -0.99167,-0.367247 -1.38286,0.15658 -0.0983,0.131694 -0.59632,1.094629 -1.10639,2.139405 l -0.92708,1.899627 -0.88211,0.272851 c -0.48509,0.150265 -0.88179,0.262869 -0.88264,0.250629 -3.3e-4,-0.01256 0.43314,-0.613674 0.96325,-1.335317 0.53011,-0.721657 0.99158,-1.401429 1.02578,-1.51102 0.16745,-0.536236 -0.44802,-1.129146 -0.92036,-0.886251 -0.10724,0.05512 -0.75556,0.512937 -1.44022,1.016992 -0.68469,0.504071 -1.25451,0.915157 -1.26711,0.914157 -0.0124,-0.0011 0.11249,-0.413049 0.27802,-0.915191 l 0.30128,-0.912606 1.84381,-0.887283 c 1.01409,-0.487847 1.95035,-0.967605 2.08101,-1.066086 0.52581,-0.396237 0.61009,-1.010774 0.19999,-1.46141 -0.19153,-0.210426 -0.2487,-0.237995 -0.49713,-0.243395 -0.39709,-0.0086 -0.69467,0.167692 -1.93063,1.143082 -0.59943,0.473093 -1.1055,0.858496 -1.12499,0.856797 -0.0195,-0.0018 0.17915,-0.650713 0.44183,-1.442291 0.0112,-0.03385 0.0195,-0.06038 0.0305,-0.09353 0.0437,0.0046 0.0878,0.0088 0.13384,0.0088 0.54484,0 1.17528,-0.3067 1.89136,-0.919324 0.2802,-0.245046 0.61849,-0.601369 1.01544,-1.069184 0.40474,-0.467825 0.73944,-0.874273 1.00407,-1.219565 0.2095,-0.274111 0.5286,-0.698463 0.85318,-1.130681 z m -6.8063,0.499713 c -0.082,0.170956 -0.15749,0.367266 -0.22635,0.595829 -0.0859,0.285033 -0.2498,1.288161 -0.36431,2.229321 -0.11449,0.941157 -0.22053,1.710134 -0.23513,1.708941 -0.0146,-0.0012 -0.29015,-0.678027 -0.61288,-1.504302 -0.16846,-0.431154 -0.29689,-0.753411 -0.40618,-1.019577 0.11109,-0.104828 0.25926,-0.237704 0.34933,-0.326594 0.2335,-0.233913 0.53745,-0.568124 0.91106,-1.002522 0.27278,-0.310703 0.42324,-0.49004 0.58446,-0.681096 z m -8.27185,1.114142 c 0.0343,1.010936 0.41066,1.731968 1.1374,2.156458 0.3286,0.19686 0.66124,0.339439 0.99736,0.428916 0.0249,0.13689 0.0375,0.227536 0.0667,0.38137 0.19372,1.022689 0.2493,1.446898 0.1788,1.369428 -0.0562,-0.06174 -0.58571,-0.744821 -1.17616,-1.518256 -0.91695,-1.201214 -1.14161,-1.46849 -1.54306,-1.833996 -0.0996,-0.09069 -0.19451,-0.168516 -0.28835,-0.242877 0.0173,-0.02038 0.031,-0.03396 0.0486,-0.05478 0.21807,-0.253198 0.40855,-0.479755 0.57877,-0.686263 z m 5.2741,1.907895 c 0.2201,0.37579 0.50508,0.853286 0.9033,1.516703 0.58666,0.977331 1.06776,1.797703 1.06867,1.822627 0.005,0.116258 -0.22616,1.90391 -0.24546,1.902211 -0.0121,-0.0011 -0.21874,-0.4744 -0.45941,-1.051615 -1.11151,-2.666088 -1.15159,-2.734821 -1.59938,-2.757972 -0.40594,-0.02097 -0.63162,0.220633 -0.60461,0.646988 0.007,0.111826 0.13271,0.960356 0.27905,1.885675 0.14635,0.925322 0.24069,1.66688 0.20929,1.64796 -0.0575,-0.03472 -1.2473,-1.591223 -1.2423,-1.625224 0.0177,-0.122809 -0.001,-1.890692 -0.0248,-3.207039 0.17886,-0.03014 0.35642,-0.07787 0.53278,-0.147277 0.31912,-0.122524 0.61077,-0.261602 0.8754,-0.417547 0.0957,-0.06041 0.19954,-0.134665 0.30748,-0.21549 z m -20.57497,2.287198 c -0.14789,1.882423 -0.42057,3.397152 -0.81752,4.544425 -0.38917,1.147273 -0.89507,1.720827 -1.51774,1.720827 -0.30355,0 -0.52549,-0.08355 -0.66559,-0.250632 -0.13232,-0.167077 -0.19844,-0.473268 -0.19844,-0.918806 0,-0.434411 0.0702,-0.857564 0.21032,-1.26969 0.0467,-0.144801 0.12461,-0.300593 0.23358,-0.467672 0.10897,-0.167111 0.19456,-0.289999 0.25683,-0.367935 0.0623,-0.07797 0.16324,-0.19494 0.30334,-0.350885 0.1401,-0.155916 0.23339,-0.261578 0.28009,-0.317291 z m 21.0106,2.359547 c 0.032,0.0029 0.79315,1.165608 1.08624,1.658813 0.0496,0.08344 0.0438,0.431353 -0.0155,0.937411 l -0.0941,0.804603 -0.36638,-0.460439 c -0.74184,-0.932111 -0.69486,-0.798187 -0.67076,-1.931664 0.0118,-0.556805 0.0391,-1.010624 0.0605,-1.008724 z m 4.23023,1.518771 c 0.013,0.01399 -0.15133,0.405882 -0.36483,0.870747 -0.2135,0.464886 -0.40125,0.869619 -0.41755,0.89917 -0.0356,0.06499 -1.39385,0.494425 -1.43195,0.452687 -0.0147,-0.01613 0.082,-0.354989 0.21497,-0.752928 l 0.24185,-0.723469 0.86713,-0.385505 c 0.47677,-0.212249 0.87678,-0.374214 0.89038,-0.360702 z m -6.20634,1.399398 c 1.08399,0.02372 0.95884,-0.03101 1.81281,0.790133 0.22892,0.220297 0.4079,0.40641 0.39739,0.413411 -0.0265,0.01804 -1.36589,0.116803 -1.46399,0.108003 -0.0884,-0.0079 -1.63897,-1.180978 -1.68517,-1.274858 -0.0157,-0.03178 0.40666,-0.04834 0.93896,-0.03669 z m 8.67596,1.579747 c 0.15262,0.01338 0.22818,0.05803 0.35398,0.145211 0.14454,0.100198 0.95461,0.685814 1.79989,1.301213 1.57942,1.149861 2.00055,1.421363 2.3518,1.502752 a 34.847135,34.847135 0 0 1 -0.8413,1.121378 c -0.3576,-0.06018 -0.85852,-0.101738 -1.61127,-0.141595 -0.81623,-0.04323 -1.77186,-0.09409 -2.12338,-0.11317 l -0.63924,-0.03462 -0.74,-0.676963 c -0.40705,-0.37216 -0.74067,-0.694304 -0.74156,-0.715716 -8.3e-4,-0.02139 0.32728,0.03559 0.72915,0.126605 2.65859,0.602097 2.74533,0.617829 2.96055,0.533818 0.19417,-0.0758 0.30795,-0.289134 0.30695,-0.573092 -0.002,-0.473057 -0.0615,-0.515504 -2.39727,-1.718242 -0.62235,-0.320474 -1.13263,-0.594505 -1.13274,-0.609264 -5.7e-4,-0.0145 0.4079,-0.06219 0.90743,-0.105936 0.43473,-0.03808 0.66439,-0.05575 0.81701,-0.04238 z m -3.03857,0.263033 c 0.15261,0.0044 0.2544,0.02072 0.293,0.04858 0.0674,0.04878 0.43779,0.332052 0.82269,0.629417 0.38491,0.297333 0.70942,0.564478 0.72192,0.59273 0.0121,0.02849 -0.41457,0.03746 -0.94826,0.02015 -1.08482,-0.03521 -0.99388,0.0041 -1.80971,-0.778248 l -0.44494,-0.426847 0.76791,-0.06305 c 0.24138,-0.01976 0.44477,-0.02716 0.59739,-0.02274 z m -3.12074,0.463537 c 0.0147,0.01622 -0.0752,0.334256 -0.19999,0.706935 -0.12479,0.372668 -0.23905,0.702429 -0.25425,0.733287 -0.0333,0.06781 -1.72528,0.821185 -1.75958,0.783416 -0.0133,-0.01461 0.15893,-0.426654 0.3824,-0.915708 l 0.40618,-0.889349 0.69918,-0.224276 c 0.38456,-0.123243 0.71086,-0.21017 0.72606,-0.194305 z m 1.03869,0.340032 0.36639,0.45992 c 0.7427,0.933204 0.69676,0.802743 0.67696,1.924431 -0.01,0.551196 -0.0283,1.011626 -0.0403,1.024226 -0.0345,0.0347 -0.0632,-0.0064 -0.63304,-0.907437 -0.29438,-0.466365 -0.54228,-0.853646 -0.54828,-0.861446 -0.007,-0.0075 0.0308,-0.379566 0.0832,-0.826823 z m 1.85932,2.433444 c 0.0593,0.03584 1.2503,1.593805 1.2423,1.624706 -0.002,0.009 0.003,0.889103 0.0109,1.955953 0.008,1.066861 0.006,2.008913 -0.005,2.093413 -0.0142,0.109106 0.0163,0.346654 0.0625,0.590661 a 34.847135,34.847135 0 0 1 -1.08004,0.834575 c -0.0396,-0.422608 -0.25495,-0.794853 -1.58078,-2.999817 -0.58659,-0.975751 -1.06715,-1.795711 -1.06815,-1.822111 -0.004,-0.11502 0.22553,-1.90731 0.24443,-1.90531 0.0116,0.001 0.34297,0.77007 0.73639,1.708939 0.46191,1.10227 0.7738,1.772907 0.88056,1.89239 0.32889,0.36753 0.92707,0.245422 1.03405,-0.210839 0.0391,-0.166618 -0.0254,-0.655727 -0.3421,-2.601907 -0.10712,-0.65799 -0.16799,-1.180293 -0.13539,-1.160653 z m 4.06435,1.571995 c 0.1012,0.0089 0.30561,0.05556 0.63924,0.143145 0.43591,0.114438 0.74586,0.19299 1.05471,0.270786 a 34.847135,34.847135 0 0 1 -0.62063,0.694012 c -0.53877,-0.499443 -1.08765,-1.010658 -1.1343,-1.06195 -0.0192,-0.02111 -0.0224,-0.03532 -0.007,-0.04238 0.0118,-0.0053 0.034,-0.0066 0.0677,-0.0036 z m -1.63659,1.590601 c 0.0371,0.04013 0.51698,0.660316 0.98547,1.26814 a 34.847135,34.847135 0 0 1 -0.6966,0.640271 c -0.029,-0.160589 -0.0498,-0.286695 -0.0853,-0.474906 -0.15773,-0.83793 -0.2495,-1.483103 -0.2036,-1.433505 z"
       style="fill:none;stroke:#ff0000;stroke-width:0.0834668;stroke-opacity:1"
       id="path2138" />
    <text
       transform="scale(0.85197367,1.1737452)"
       id="text878-9-2"
       y="224.22685"
       x="18.016819"
       style="font-size:29.1526px;line-height:1.25;font-family:sq;-inkscape-font-specification:sq;stroke-width:0.729;stroke-miterlimit:4;stroke-dasharray:none"
       xml:space="preserve"><tspan
         style="font-style:normal;font-variant:normal;font-weight:normal;font-stretch:normal;font-family:Norican;-inkscape-font-specification:Norican;stroke-width:0.729;stroke-miterlimit:4;stroke-dasharray:none"
         y="224.22685"
         x="18.016819"
         id="tspan876-5-8"
         sodipodi:role="line">Augusto</tspan></text>
    <g
       style="font-size:29.1526px;line-height:1.25;font-family:sq;-inkscape-font-specification:sq;fill:none;stroke:#ff0000;stroke-width:0.1;stroke-miterlimit:4;stroke-dasharray:none;stroke-opacity:1"
       id="text878-9-2-8"
       transform="matrix(0.82018782,0,0,1.1737452,82.825901,-79.469493)"
       aria-label="Augusto" />
    <path
       d="m 212.1875,465.75195 a 30.030436,30.030436 0 0 0 -30.0293,30.03125 30.030436,30.030436 0 0 0 0.0625,1.94922 41.418565,13.336309 0 0 0 -9.8125,8.61914 41.418565,13.336309 0 0 0 0.0352,0.54102 v 14.67773 A 167.21525,167.21525 0 0 0 44.212891,684.17773 167.21525,167.21525 0 0 0 211.42773,851.39258 167.21525,167.21525 0 0 0 378.64258,684.17773 167.21525,167.21525 0 0 0 255.21094,522.79492 v -15.9043 a 41.418565,13.336309 0 0 0 0.0352,-0.53906 41.418565,13.336309 0 0 0 -13.04101,-9.71484 30.030436,30.030436 0 0 0 0.0137,-0.85352 30.030436,30.030436 0 0 0 -30.03125,-30.03125 z m -0.0879,6.94922 a 22.237089,22.23709 0 0 1 0.0352,0 22.237089,22.23709 0 0 1 22.23437,22.07227 41.418565,13.336309 0 0 0 -20.54297,-1.75782 41.418565,13.336309 0 0 0 -0.38672,0 41.418565,13.336309 0 0 0 -23.53515,2.44922 22.237089,22.23709 0 0 1 -0.006,-0.52734 22.237089,22.23709 0 0 1 22.20117,-22.23633 z m -1.7176,79.57996 a 131.77632,131.77632 0 0 1 0.41992,0 A 131.77632,131.77632 0 0 1 342.57732,684.05651 131.77632,131.77632 0 0 1 210.80193,815.83386 131.77632,131.77632 0 0 1 79.024582,684.05651 131.77632,131.77632 0 0 1 210.38201,552.28113 Z"
       transform="scale(0.26458333)"
       style="fill:none;fill-rule:evenodd;stroke:#ff0000;stroke-width:0.377953;stroke-miterlimit:4;stroke-dasharray:none"
       id="path1501-7" />
    <text
       xml:space="preserve"
       style="font-size:28.4957px;line-height:1.25;font-family:sq;-inkscape-font-specification:sq;stroke-width:0.712577;stroke-miterlimit:4;stroke-dasharray:none"
       x="20.758253"
       y="157.14471"
       id="text878-9-2-9"
       transform="scale(0.8202663,1.2191163)"><tspan
         sodipodi:role="line"
         id="tspan876-5-8-7"
         x="20.758253"
         y="157.14471"
         style="font-style:normal;font-variant:normal;font-weight:normal;font-stretch:normal;font-family:Norican;-inkscape-font-specification:Norican;stroke-width:0.712577;stroke-miterlimit:4;stroke-dasharray:none">Navidad</tspan></text>
    <path
       transform="matrix(0.97764408,0,0,0.91739131,-2.0751674,14.051744)"
       inkscape:transform-center-y="-0.93022621"
       inkscape:transform-center-x="0.40443446"
       d="m 52.384821,173.19065 c -1.171398,1.02497 -8.033526,-4.11947 -9.583671,-3.97878 -1.550144,0.14069 -7.373961,6.4365 -8.71075,5.63917 -1.336789,-0.79733 1.43535,-8.91333 0.822525,-10.34413 -0.612825,-1.43079 -8.400155,-5.02406 -8.054938,-6.54181 0.345217,-1.51775 8.920621,-1.38927 10.092019,-2.41424 1.171397,-1.02498 2.18238,-9.54155 3.732525,-9.68224 1.550144,-0.14069 4.077896,8.05471 5.414685,8.85204 1.336789,0.79733 9.74894,-0.87293 10.361766,0.55787 0.612825,1.4308 -6.400343,6.36735 -6.74556,7.8851 -0.345216,1.51775 3.842796,9.00204 2.671399,10.02702 z"
       inkscape:randomized="0"
       inkscape:rounded="0.15"
       inkscape:flatsided="false"
       sodipodi:arg2="1.4802849"
       sodipodi:arg1="0.85196633"
       sodipodi:r2="7.8130636"
       sodipodi:r1="15.626127"
       sodipodi:cy="161.43079"
       sodipodi:cx="42.094944"
       sodipodi:sides="5"
       id="path1019"
       style="fill:none;fill-rule:evenodd;stroke:#ff0000;stroke-width:0.1;stroke-miterlimit:4;stroke-dasharray:none;stroke-opacity:1"
       sodipodi:type="star" />
    <path
       sodipodi:type="star"
       style="fill:none;fill-rule:evenodd;stroke:#ff0000;stroke-width:0.1;stroke-miterlimit:4;stroke-dasharray:none;stroke-opacity:1"
       id="path1019-4"
       sodipodi:sides="5"
       sodipodi:cx="42.094944"
       sodipodi:cy="161.43079"
       sodipodi:r1="15.626127"
       sodipodi:r2="7.8130636"
       sodipodi:arg1="0.85196633"
       sodipodi:arg2="1.4802849"
       inkscape:flatsided="false"
       inkscape:rounded="0.15"
       inkscape:randomized="0"
       d="m 52.384821,173.19065 c -1.171398,1.02497 -8.033526,-4.11947 -9.583671,-3.97878 -1.550144,0.14069 -7.373961,6.4365 -8.71075,5.63917 -1.336789,-0.79733 1.43535,-8.91333 0.822525,-10.34413 -0.612825,-1.43079 -8.400155,-5.02406 -8.054938,-6.54181 0.345217,-1.51775 8.920621,-1.38927 10.092019,-2.41424 1.171397,-1.02498 2.18238,-9.54155 3.732525,-9.68224 1.550144,-0.14069 4.077896,8.05471 5.414685,8.85204 1.336789,0.79733 9.74894,-0.87293 10.361766,0.55787 0.612825,1.4308 -6.400343,6.36735 -6.74556,7.8851 -0.345216,1.51775 3.842796,9.00204 2.671399,10.02702 z"
       inkscape:transform-center-x="0.40443446"
       inkscape:transform-center-y="-0.93022621"
       transform="matrix(0.97764407,0,0,0.9173913,25.676142,55.847169)" />
    <path
       d="m 159.36113,119.92159 a 7.9455528,7.9455528 0 0 0 -7.94474,7.94577 7.9455528,7.9455528 0 0 0 0.0165,0.51573 10.958662,3.528565 0 0 0 -2.59674,2.28048 10.958662,3.528565 0 0 0 0.009,0.14315 v 3.88348 a 44.242368,44.242368 0 0 0 -33.92765,43.02322 44.242368,44.242368 0 0 0 44.24226,44.24226 44.242368,44.242368 0 0 0 44.24227,-44.24226 44.242368,44.242368 0 0 0 -32.65796,-42.69921 v -4.20801 a 10.958662,3.528565 0 0 0 0.009,-0.14263 10.958662,3.528565 0 0 0 -3.45044,-2.57038 7.9455528,7.9455528 0 0 0 0.004,-0.22583 7.9455528,7.9455528 0 0 0 -7.94525,-7.94577 z m -0.0238,1.83865 h 5.2e-4 a 5.8835631,5.8835633 0 0 1 0.009,0 5.8835631,5.8835633 0 0 1 5.88285,5.83996 10.958662,3.528565 0 0 0 -5.43533,-0.46509 10.958662,3.528565 0 0 0 -0.10232,0 10.958662,3.528565 0 0 0 -6.22701,0.64802 5.8835631,5.8835633 0 0 1 -0.002,-0.13953 5.8835631,5.8835633 0 0 1 5.87406,-5.88336 z m -0.45371,21.05557 a 34.865818,34.865818 0 0 1 0.1111,0 34.865818,34.865818 0 0 1 33.14423,24.04711 l -1.35444,7.51375 c -0.51701,-0.23748 -1.0486,-0.35605 -1.59473,-0.35605 -0.54614,0 -1.1762,0.35624 -1.88981,1.06867 -0.70633,0.70112 -1.33639,1.5891 -1.88981,2.6634 -0.55342,1.0743 -1.00848,2.28405 -1.36529,3.62975 -0.0802,0.30007 -0.14968,0.59083 -0.21187,0.87488 -1.22542,1.89343 -2.04066,2.85668 -2.43086,2.85668 -0.21846,0 -0.32815,-0.32752 -0.32815,-0.9834 0,-0.6559 0.18978,-2.34672 0.56844,-5.07205 0.13835,-0.99514 0.27661,-1.96774 0.41496,-2.91765 0.13837,-0.96121 0.21132,-1.48146 0.2186,-1.56063 -0.76459,-0.37318 -1.3768,-0.55965 -1.83555,-0.55965 -0.93935,0 -1.8602,0.3108 -2.76314,0.93276 -0.89565,0.62197 -1.66754,1.42533 -2.31562,2.40915 -0.6408,0.98384 -1.15811,2.10322 -1.55133,3.35845 -0.22495,0.71809 -0.38329,1.43234 -0.47955,2.14303 -0.26375,0.41058 -0.49872,0.76971 -0.68885,1.04593 -0.44419,0.65588 -0.73906,0.98391 -0.8847,0.98392 -0.13835,-1e-5 -0.23325,-0.0736 -0.28422,-0.22066 -0.051,-0.14701 -0.0765,-0.4296 -0.0765,-0.84801 0,-0.87075 0.39742,-3.55664 1.19114,-8.05739 0.80099,-4.51206 1.42645,-7.81431 1.87792,-9.90637 0.22572,-1.18738 0.35326,-1.97299 0.3824,-2.35748 h -0.3824 c -0.3204,0 -0.62241,0.0167 -0.9064,0.0506 -0.27671,0.0226 -0.54965,0.18663 -0.81908,0.49196 -0.1966,0.21486 -0.3971,0.97277 -0.60099,2.27325 l -1.45211,8.05687 c -0.517,-0.23748 -1.04912,-0.35605 -1.59525,-0.35605 -0.54613,0 -1.17619,0.35624 -1.88981,1.06867 -0.70633,0.70112 -1.33536,1.5891 -1.88877,2.6634 -0.55342,1.0743 -1.009,2.28405 -1.36581,3.62975 -0.0891,0.33305 -0.16675,0.65613 -0.23358,0.96945 -0.33037,0.52594 -0.69782,1.09838 -1.11001,1.72755 -0.84468,1.28916 -1.34668,1.93373 -1.50688,1.93373 -0.25487,0 -0.38241,-0.37295 -0.38241,-1.11931 0,-1.15346 0.57495,-4.59153 1.72548,-10.31359 -0.41506,0 -0.76452,0.0173 -1.04852,0.0512 -0.20388,0.0339 -0.35694,0.0903 -0.45888,0.1695 -0.0947,0.0678 -0.2069,0.16397 -0.33797,0.28836 -0.13107,0.12439 -0.24077,0.29415 -0.32814,0.50901 -0.0874,0.21486 -0.20065,0.59356 -0.339,1.13636 -0.13086,0.54191 -0.3995,2.10664 -0.80615,4.68861 -0.1164,0.18352 -0.20691,0.32352 -0.34055,0.53588 -0.31312,0.49757 -0.54932,0.87627 -0.70952,1.13637 -0.1602,0.24879 -0.37498,0.57107 -0.6444,0.96686 -0.26943,0.3958 -0.49901,0.59377 -0.68833,0.59377 -0.0146,-0.23749 -0.087,-0.54828 -0.21808,-0.93276 0.20389,-0.8029 0.45846,-2.06959 0.7643,-3.79977 0.30583,-1.73019 0.45837,-3.14365 0.45837,-4.24057 0,-1.10823 -0.18518,-1.66243 -0.55656,-1.66243 -0.30583,0 -0.58286,0.28833 -0.83044,0.86506 -0.2403,0.56542 -0.42957,1.28939 -0.56792,2.17144 -0.13835,0.88207 -0.24396,1.78102 -0.31678,2.697 -0.0655,0.91598 -0.0982,1.66241 -0.0982,2.23914 0,0.57674 0.004,0.87082 0.0109,0.88211 0.007,0 -0.1274,0.36147 -0.40411,1.08521 -0.58982,1.54925 -0.99388,2.32389 -1.21233,2.32389 -0.2767,0 -0.53179,-0.62159 -0.76481,-1.86552 -0.22574,-1.24392 -0.33848,-2.72529 -0.33848,-4.44417 0,-1.73019 0.11274,-3.52862 0.33848,-5.39451 H 152.129 c -1.09954,0 -1.67093,0.27736 -1.71463,0.83148 -0.0947,1.01776 -0.1421,2.23325 -0.1421,3.6468 0,1.01713 0.0251,1.95559 0.0708,2.82825 -1.36328,2.1483 -2.25501,3.2272 -2.67064,3.2272 -0.21845,0 -0.32711,-0.32752 -0.32711,-0.9834 0,-0.6559 0.18876,-2.34672 0.56741,-5.07205 0.13836,-0.99514 0.27661,-1.96774 0.41496,-2.91765 0.13836,-0.96121 0.21132,-1.48146 0.21859,-1.56063 -0.76459,-0.37318 -1.37576,-0.55965 -1.83451,-0.55965 -0.93935,0 -1.86072,0.3108 -2.76366,0.93276 -0.89566,0.62197 -1.66754,1.42533 -2.31562,2.40915 -0.64079,0.98384 -1.15759,2.10322 -1.55081,3.35845 -0.20794,0.6638 -0.35987,1.32432 -0.45785,1.98179 l -1.51929,2.25878 c -0.34224,0.5428 -0.64834,0.81442 -0.91777,0.81442 -0.50244,0 -0.75344,-1.20452 -0.75344,-3.61321 0,-2.10049 0.34374,-5.9408 1.03042,-11.51558 2.0831,-1.33399 5.32042,-4.57418 6.37946,-4.67051 1.41882,-0.12907 7.69992,4.59072 8.77207,3.65042 1.07216,-0.94031 -2.76129,-7.80655 -2.44532,-9.19893 0.31597,-1.39236 6.7352,-5.92106 6.17429,-7.23366 -0.5609,-1.3126 -8.26063,0.21987 -9.48417,-0.5116 -0.81856,-0.48935 -2.12435,-4.00978 -3.32434,-6.25233 a 34.865818,34.865818 0 0 1 15.3479,-3.61476 z m -18.72186,5.52369 c -0.57981,2.18912 -1.1066,4.60767 -1.6738,5.10511 -0.58654,0.51441 -3.19943,0.71235 -5.4994,1.01389 a 34.865818,34.865818 0 0 1 7.1732,-6.119 z m -9.50226,9.02632 c 2.03275,1.52155 5.57509,3.38478 5.96398,4.29483 0.0839,0.19639 0.0928,0.54149 0.061,0.96945 -0.18846,0.0421 -0.38097,0.10019 -0.57877,0.17828 -2.05346,0.8142 -4.27117,3.4207 -6.65231,7.81968 l 0.17518,-1.39061 c 0,-0.13571 0.14183,-1.06339 0.42582,-2.78226 0.28399,-1.73019 0.42633,-2.92323 0.42633,-3.57911 0,-0.21486 -0.073,-0.32195 -0.21859,-0.32195 -0.35681,0 -0.97616,0.44087 -1.85725,1.32292 l -2.30994,2.26033 a 34.865818,34.865818 0 0 1 4.56458,-8.77156 z m -3.08457,8.63151 -0.89555,5.39399 c -0.22574,1.56057 -0.56806,3.6186 -1.02681,6.1743 -0.41909,2.37242 -0.75164,4.36766 -1.01389,6.05803 a 34.865818,34.865818 0 0 1 -0.51005,-5.94227 34.865818,34.865818 0 0 1 1.25729,-9.27696 z m 7.60212,0.0677 c 0.19661,0 0.29508,0.23767 0.29508,0.71262 0,0.46365 -0.10561,1.2947 -0.31678,2.49339 -0.0947,0.53149 -0.15995,0.92168 -0.19637,1.17047 -0.65537,5.00962 -0.9834,9.39732 -0.9834,13.16302 0,3.75439 0.49894,5.6317 1.49655,5.6317 0.72089,0 2.03202,-1.41346 3.93257,-4.24057 0.019,-0.0213 0.0614,-0.0846 0.0956,-0.13229 0.009,0.35145 0.0254,0.69708 0.0569,1.03094 0.20389,1.91112 0.74262,2.86701 1.61643,2.86701 0.70634,0 1.40578,-0.3787 2.09755,-1.13636 0.69905,-0.75767 1.31023,-1.66812 1.83451,-2.7311 -0.0582,0.61065 -0.0873,1.15911 -0.0873,1.64537 0,1.4814 0.27703,2.22209 0.83044,2.22209 0.33497,0 1.00124,-0.5657 1.99885,-1.69654 0.83752,-0.9425 1.71217,-2.12219 2.62051,-3.51244 0.1535,1.55363 0.39564,2.82759 0.73277,3.8008 0.32768,0.93859 0.71336,1.40818 1.15755,1.40818 0.31312,0 0.63759,-0.0512 0.97255,-0.15296 0.34225,-0.0905 0.7167,-0.38455 1.12448,-0.88212 0.31311,-0.3958 0.76818,-1.40757 1.36529,-3.03599 0.31312,1.04038 0.59015,1.56063 0.83044,1.56063 0.1602,0 0.38926,-0.13006 0.68782,-0.39016 0.22762,-0.19357 0.7013,-0.84785 1.41696,-1.95595 -0.15921,1.17547 -0.24804,2.02635 -0.24804,2.46445 0,0.70112 0.0801,1.27831 0.24029,1.73064 0.1602,0.44103 0.40049,0.66146 0.72089,0.66146 0.63352,-0.0452 1.39469,-0.63914 2.28306,-1.78129 0.33143,-0.43019 0.89881,-1.25001 1.66709,-2.40037 -0.004,0.11188 -0.007,0.22296 -0.007,0.33125 0,1.01776 0.0872,1.87701 0.262,2.57814 0.10195,0.38448 0.25805,0.68953 0.46922,0.9157 0.21117,0.23748 0.5137,0.35657 0.90692,0.35657 0.4005,0 0.99791,-0.39594 1.79162,-1.18752 0.79372,-0.8029 1.58345,-1.91654 2.36988,-3.3414 -0.12373,0.7914 -0.18551,1.54914 -0.18551,2.27273 0,0.96762 0.12441,1.62217 0.37155,1.96732 -0.83316,2.42207 -1.53112,6.13698 -2.29909,6.76754 -1.14521,0.9403 -9.52908,0.82249 -9.86658,2.21486 -0.3375,1.39237 7.27585,4.68859 7.87498,6.00118 0.50821,1.11343 -1.36378,6.63796 -1.14619,8.7359 a 34.865818,34.865818 0 0 1 -4.96662,0.35553 34.865818,34.865818 0 0 1 -33.21916,-24.2781 h 0.65267 c 0.38594,-2.39738 0.66244,-4.25745 0.82992,-5.58054 0.17477,-1.32309 0.29517,-2.22779 0.36071,-2.71404 0.0728,-0.48627 0.20698,-1.21598 0.40359,-2.1885 0.12379,-0.62196 0.25133,-1.17617 0.38241,-1.66243 0.13107,-0.49757 0.30249,-1.07998 0.51366,-1.74718 0.21845,-0.6672 0.44803,-1.26633 0.68833,-1.79783 0.24758,-0.54279 0.54602,-1.1252 0.89555,-1.74717 0.35681,-0.62197 0.73178,-1.18715 1.125,-1.69603 0.40049,-0.50888 0.8627,-1.01241 1.38699,-1.50998 0.53157,-0.50888 1.00092,-0.89332 1.4087,-1.15342 0.40778,-0.2714 0.6593,-0.40721 0.75396,-0.40721 z m 28.0169,0.35657 c -0.37137,0 -0.69584,0.26536 -0.97256,0.79685 -0.26942,0.52019 -0.4041,1.06342 -0.4041,1.62884 0,0.81421 0.25865,1.22111 0.77566,1.22111 0.44419,0 0.83753,-0.26587 1.17977,-0.79736 0.34953,-0.5315 0.52452,-1.02354 0.52452,-1.47588 0,-0.46365 -0.0908,-0.8084 -0.27285,-1.03456 -0.18205,-0.22617 -0.45907,-0.339 -0.83044,-0.339 z m 30.1873,5.50044 a 34.865818,34.865818 0 0 1 0.47904,5.75934 34.865818,34.865818 0 0 1 -0.37362,5.09116 c -0.28589,0.44653 -0.54426,0.84326 -0.74672,1.1374 -0.4442,0.65588 -0.73907,0.98391 -0.8847,0.98392 -0.13836,-1e-5 -0.23325,-0.0736 -0.28422,-0.22066 -0.051,-0.14701 -0.0765,-0.4296 -0.0765,-0.84801 0,-0.87075 0.3964,-3.55664 1.19011,-8.05739 0.25125,-1.41527 0.47973,-2.66856 0.6966,-3.84576 z m -23.92877,3.2861 c 0.1966,0 0.40782,0.0737 0.63355,0.22066 0.233,0.1357 0.36411,0.28249 0.39326,0.4408 l -0.96118,6.56446 c -0.0728,0.46364 -0.4585,1.10822 -1.15755,1.93373 -0.69905,0.81421 -1.28167,1.22163 -1.7477,1.22163 -0.59711,0 -0.89607,-0.71822 -0.89607,-2.15439 0,-1.15346 0.17142,-2.36373 0.51366,-3.63027 0.34225,-1.27785 0.80803,-2.36329 1.39785,-3.25665 0.58982,-0.89336 1.19794,-1.33997 1.82418,-1.33997 z m 20.098,0 c 0.1966,0 0.40781,0.0737 0.63355,0.22066 0.23305,0.1357 0.36416,0.28249 0.39326,0.4408 l -0.9617,6.56446 c -0.0728,0.46364 -0.4585,1.10822 -1.15755,1.93373 -0.69905,0.81421 -1.28167,1.22163 -1.7477,1.22163 -0.5971,0 -0.89607,-0.71822 -0.89607,-2.15439 0,-1.15346 0.17142,-2.36373 0.51366,-3.63027 0.34225,-1.27785 0.80803,-2.36329 1.39785,-3.25665 0.58983,-0.89336 1.19847,-1.33997 1.8247,-1.33997 z m -43.05732,0.10181 -1.25626,8.34574 c -0.36409,0.59934 -0.77171,1.14781 -1.22318,1.64538 -0.44419,0.49757 -0.81915,0.7462 -1.12499,0.7462 -0.71362,0 -1.07074,-0.84828 -1.07074,-2.54454 0,-1.18738 0.21478,-2.41437 0.64441,-3.68092 0.42962,-1.26654 1.01223,-2.33525 1.74769,-3.206 0.73546,-0.87074 1.49663,-1.30586 2.28307,-1.30586 z m 33.7292,0 -1.25625,8.34574 c -0.36409,0.59934 -0.77171,1.14781 -1.22318,1.64538 -0.44419,0.49757 -0.81968,0.7462 -1.12551,0.7462 -0.71362,0 -1.07022,-0.84828 -1.07022,-2.54454 0,-1.18738 0.21478,-2.41437 0.6444,-3.68092 0.42962,-1.26654 1.01276,-2.33525 1.74822,-3.206 0.73546,-0.87074 1.49611,-1.30586 2.28254,-1.30586 z m 9.08782,8.92245 c -0.12374,0.7914 -0.18603,1.54914 -0.18603,2.27273 0,1.50401 0.29844,2.25619 0.89555,2.25619 0.21117,0 0.47392,-0.15827 0.78703,-0.47491 0.16748,-0.16962 0.32359,-0.33363 0.46922,-0.49195 0.14564,-0.16963 0.32725,-0.4073 0.5457,-0.71262 0.21846,-0.30533 0.40111,-0.55971 0.54674,-0.76326 0.15292,-0.20355 0.3529,-0.50338 0.60048,-0.89918 l 0.0336,-0.0512 a 34.865818,34.865818 0 0 1 -12.57494,19.81378 c -0.54679,-1.32651 -0.96781,-2.47489 -0.85059,-2.95847 0.3375,-1.39237 7.19407,-5.92107 6.59494,-7.23367 -0.59912,-1.3126 -8.82323,0.21987 -10.13013,-0.5116 -1.04968,-0.58749 -2.85019,-5.55047 -4.30361,-7.41556 0.21124,-0.29526 0.39026,-0.54566 0.53226,-0.74414 0.15293,-0.20355 0.35342,-0.50338 0.601,-0.89918 l 0.35915,-0.54725 c 0.009,0.34838 0.0246,0.69108 0.0558,1.02216 0.20389,1.91112 0.74263,2.86701 1.61644,2.86701 0.70633,0 1.40526,-0.3787 2.09703,-1.13636 0.69905,-0.75767 1.31126,-1.66812 1.83555,-2.7311 -0.0583,0.61065 -0.0879,1.15911 -0.0879,1.64537 0,1.4814 0.27651,2.22209 0.82992,2.22209 0.33496,0 1.00176,-0.5657 1.99936,-1.69654 0.62693,-0.7055 1.27386,-1.53649 1.94045,-2.49287 -0.004,0.11459 -0.007,0.22817 -0.007,0.339 0,1.01776 0.0872,1.87701 0.262,2.57814 0.10195,0.38448 0.25857,0.68953 0.46974,0.9157 0.21117,0.23748 0.51318,0.35657 0.9064,0.35657 0.4005,0 0.9979,-0.39594 1.79162,-1.18752 0.79372,-0.8029 1.58397,-1.91654 2.3704,-3.3414 z m -16.49098,23.53964 c 0.42906,-0.0365 1.28106,0.32145 2.29857,0.82373 a 34.865818,34.865818 0 0 1 -7.76387,2.9347 c 2.08433,-1.52136 4.54464,-3.68002 5.4653,-3.75843 z"
       style="fill:none;fill-rule:evenodd;stroke:#ff0000;stroke-width:0.1;stroke-miterlimit:4;stroke-dasharray:none"
       id="path1501-7-7" />
    <g
       style="font-size:28.4956px;line-height:1.25;font-family:sq;-inkscape-font-specification:sq;fill:none;stroke:#ff0000;stroke-width:0.1;stroke-miterlimit:4;stroke-dasharray:none;stroke-opacity:1"
       id="text878-9-2-9-1"
       transform="matrix(0.78502092,0,0,1.2191163,8.3994505,0)"
       aria-label="Navidad" />
  </g>
</svg>
