<?xml version="1.0" encoding="UTF-8" standalone="no"?>
<svg
   xmlns:dc="http://purl.org/dc/elements/1.1/"
   xmlns:cc="http://creativecommons.org/ns#"
   xmlns:rdf="http://www.w3.org/1999/02/22-rdf-syntax-ns#"
   xmlns:svg="http://www.w3.org/2000/svg"
   xmlns="http://www.w3.org/2000/svg"
   xmlns:sodipodi="http://sodipodi.sourceforge.net/DTD/sodipodi-0.dtd"
   xmlns:inkscape="http://www.inkscape.org/namespaces/inkscape"
   sodipodi:docname="EjemploAlumnosEditable.svg"
   inkscape:version="1.0 (4035a4fb49, 2020-05-01)"
   id="svg1101"
   version="1.1"
   viewBox="0 0 210 297"
   height="297mm"
   width="210mm">
  <defs
     id="defs1095">
    <marker
       inkscape:isstock="true"
       style="overflow:visible"
       id="marker2154"
       refX="0.0"
       refY="0.0"
       orient="auto"
       inkscape:stockid="Arrow1Lstart">
      <path
         transform="scale(0.8) translate(12.5,0)"
         style="fill-rule:evenodd;stroke:#000000;stroke-width:1.0pt"
         d="M 0.0,0.0 L 5.0,-5.0 L -12.5,0.0 L 5.0,5.0 L 0.0,0.0 z "
         id="path2152" />
    </marker>
    <marker
       inkscape:isstock="true"
       style="overflow:visible"
       id="marker2114"
       refX="0.0"
       refY="0.0"
       orient="auto"
       inkscape:stockid="Arrow1Lstart">
      <path
         transform="scale(0.8) translate(12.5,0)"
         style="fill-rule:evenodd;stroke:#000000;stroke-width:1.0pt"
         d="M 0.0,0.0 L 5.0,-5.0 L -12.5,0.0 L 5.0,5.0 L 0.0,0.0 z "
         id="path2112" />
    </marker>
    <marker
       inkscape:isstock="true"
       style="overflow:visible"
       id="marker2080"
       refX="0.0"
       refY="0.0"
       orient="auto"
       inkscape:stockid="Arrow1Lstart">
      <path
         transform="scale(0.8) translate(12.5,0)"
         style="fill-rule:evenodd;stroke:#000000;stroke-width:1.0pt"
         d="M 0.0,0.0 L 5.0,-5.0 L -12.5,0.0 L 5.0,5.0 L 0.0,0.0 z "
         id="path2078" />
    </marker>
    <marker
       inkscape:isstock="true"
       style="overflow:visible"
       id="marker2040"
       refX="0.0"
       refY="0.0"
       orient="auto"
       inkscape:stockid="Arrow1Lstart">
      <path
         transform="scale(0.8) translate(12.5,0)"
         style="fill-rule:evenodd;stroke:none;stroke-width:1pt;stroke-opacity:1;fill:#000000;fill-opacity:1"
         d="M 0.0,0.0 L 5.0,-5.0 L -12.5,0.0 L 5.0,5.0 L 0.0,0.0 z "
         id="path2038" />
    </marker>
    <marker
       inkscape:isstock="true"
       style="overflow:visible"
       id="marker2018"
       refX="0.0"
       refY="0.0"
       orient="auto"
       inkscape:stockid="Arrow1Lstart">
      <path
         transform="scale(0.8) translate(12.5,0)"
         style="fill-rule:evenodd;stroke:#000000;stroke-width:1.0pt"
         d="M 0.0,0.0 L 5.0,-5.0 L -12.5,0.0 L 5.0,5.0 L 0.0,0.0 z "
         id="path2016" />
    </marker>
    <marker
       inkscape:isstock="true"
       style="overflow:visible"
       id="marker2002"
       refX="0.0"
       refY="0.0"
       orient="auto"
       inkscape:stockid="Arrow1Lstart">
      <path
         transform="scale(0.8) translate(12.5,0)"
         style="fill-rule:evenodd;stroke:#ff0000;stroke-width:1pt;stroke-opacity:1;fill:none;fill-opacity:1"
         d="M 0.0,0.0 L 5.0,-5.0 L -12.5,0.0 L 5.0,5.0 L 0.0,0.0 z "
         id="path2000" />
    </marker>
    <marker
       inkscape:isstock="true"
       style="overflow:visible"
       id="Arrow1Lstart"
       refX="0.0"
       refY="0.0"
       orient="auto"
       inkscape:stockid="Arrow1Lstart">
      <path
         transform="scale(0.8) translate(12.5,0)"
         style="fill-rule:evenodd;stroke:none;stroke-width:1pt;stroke-opacity:1;fill:#000000;fill-opacity:1"
         d="M 0.0,0.0 L 5.0,-5.0 L -12.5,0.0 L 5.0,5.0 L 0.0,0.0 z "
         id="path1724" />
    </marker>
  </defs>
  <sodipodi:namedview
     inkscape:window-maximized="1"
     inkscape:window-y="-8"
     inkscape:window-x="-8"
     inkscape:window-height="1009"
     inkscape:window-width="1920"
     showgrid="false"
     inkscape:document-rotation="0"
     inkscape:current-layer="layer1"
     inkscape:document-units="mm"
     inkscape:cy="509.07572"
     inkscape:cx="315.14948"
     inkscape:zoom="0.90509668"
     inkscape:pageshadow="2"
     inkscape:pageopacity="0.0"
     borderopacity="1.0"
     bordercolor="#666666"
     pagecolor="#ffffff"
     id="base" />
  <metadata
     id="metadata1098">
    <rdf:RDF>
      <cc:Work
         rdf:about="">
        <dc:format>image/svg+xml</dc:format>
        <dc:type
           rdf:resource="http://purl.org/dc/dcmitype/StillImage" />
        <dc:title></dc:title>
      </cc:Work>
    </rdf:RDF>
  </metadata>
  <g
     id="layer1"
     inkscape:groupmode="layer"
     inkscape:label="Capa 1">
    <path
       d="m 108.17376,2.1708531 a 9.8579452,9.8579452 0 0 0 -9.855214,9.8583129 9.8579452,9.8579452 0 0 0 0.0098,0.4408 12.449516,4.9495167 0 0 0 -2.436029,2.846338 h -0.02119 v 5.960359 a 44.953147,44.953147 0 0 0 -32.264181,43.1245 44.953147,44.953147 0 0 0 44.953334,44.953327 44.953147,44.953147 0 0 0 44.95281,-44.953327 44.953147,44.953147 0 0 0 -32.7055,-43.25214 v -5.832719 h -0.0217 a 12.449516,4.9495167 0 0 0 -2.75539,-3.010669 9.8579452,9.8579452 0 0 0 0.004,-0.276469 9.8579452,9.8579452 0 0 0 -9.85779,-9.8583129 9.8579452,9.8579452 0 0 0 -0.003,0 z m -0.078,2.4985555 a 7.3596163,7.3596163 0 0 1 0.0196,0 7.3596163,7.3596163 0 0 1 5.2e-4,0 7.3596163,7.3596163 0 0 1 0.061,0 7.3596163,7.3596163 0 0 1 7.32927,6.6957154 12.449516,4.9495167 0 0 0 -7.16701,-0.902271 12.449516,4.9495167 0 0 0 -7.50031,0.999423 7.3596163,7.3596163 0 0 1 7.25692,-6.7928674 z m 0.43666,22.3278364 a 37.404362,37.404362 0 0 1 0.0279,0 37.404362,37.404362 0 0 1 37.40443,37.403918 A 37.404362,37.404362 0 0 1 108.5603,101.8056 37.404362,37.404362 0 0 1 71.155863,64.401163 37.404362,37.404362 0 0 1 108.53239,26.997245 Z"
       style="fill:none;fill-rule:evenodd;stroke:#ff0000;stroke-width:0.0940001;stroke-miterlimit:4;stroke-dasharray:none"
       id="path1664" />
    <text
       transform="scale(0.83696675,1.1947906)"
       id="text878-9-2-9"
       y="61.864868"
       x="83.243752"
       style="font-size:29.0758px;line-height:1.25;font-family:sq;-inkscape-font-specification:sq;stroke-width:0.727084;stroke-miterlimit:4;stroke-dasharray:none"
       xml:space="preserve"><tspan
         style="font-style:normal;font-variant:normal;font-weight:normal;font-stretch:normal;font-family:Norican;-inkscape-font-specification:Norican;stroke-width:0.727084;stroke-miterlimit:4;stroke-dasharray:none"
         y="61.864868"
         x="83.243752"
         id="tspan876-5-8-7"
         sodipodi:role="line">Navidad</tspan></text>
    <path
       id="path1722"
       d="m 83.626337,50.845032 c -0.281842,-0.503228 -0.22629,-1.063084 0.191001,-1.924871 0.233946,-0.483115 0.42402,-0.764427 1.30354,-1.929199 0.566324,-0.74998 1.064741,-1.42057 1.1076,-1.490204 0.05392,-0.08762 -0.33981,0.04469 -1.278595,0.42966 -1.495597,0.613289 -1.968556,0.754966 -2.297142,0.688132 -0.436804,-0.08886 -0.669015,-0.597814 -0.495068,-1.085186 0.194797,-0.545801 0.603067,-0.719235 2.506116,-1.064662 0.802161,-0.145595 1.747802,-0.323344 2.101427,-0.394987 l 0.642953,-0.130252 0.565286,-0.739745 c 0.310904,-0.406863 0.573125,-0.770486 0.582735,-0.808035 0.0096,-0.03755 -0.465521,0.113984 -1.055823,0.336735 -2.361591,0.891192 -2.371546,0.893591 -2.690753,0.648264 -0.204766,-0.15735 -0.308105,-0.550064 -0.213435,-0.811001 0.06526,-0.179931 0.496809,-0.528963 2.147299,-1.736699 0.477644,-0.349521 0.866572,-0.646002 0.864281,-0.658849 -0.0036,-0.02058 -1.751995,0.03623 -1.861397,0.06068 -0.02407,0.0054 -0.716417,0.699659 -1.538472,1.542829 -0.822051,0.843171 -1.623345,1.634439 -1.780649,1.758374 -0.1573,0.123939 -0.433002,0.263992 -0.612667,0.311234 -0.305321,0.08028 -0.344652,0.0729 -0.601999,-0.113093 -0.499499,-0.361012 -0.509036,-0.84368 -0.02684,-1.358797 0.127763,-0.13648 0.808086,-0.645924 1.5118,-1.132051 0.703717,-0.486125 1.277055,-0.896942 1.27409,-0.912931 -0.0029,-0.01591 -0.756792,0.0015 -1.675169,0.0389 -1.057902,0.04307 -1.900522,0.03365 -2.299468,-0.02569 -0.583051,-0.08673 -0.659718,-0.11511 -1.035132,-0.382944 -0.538757,-0.384298 -0.659848,-0.671658 -0.573223,-1.359616 0.05122,-0.40676 0.08743,-0.509487 0.249905,-0.709107 0.256484,-0.315128 0.642783,-0.50927 1.139374,-0.572651 0.632568,-0.08074 1.123583,-0.03562 2.80888,0.258071 0.853951,0.148824 1.549737,0.254328 1.54619,0.234463 -0.0035,-0.02009 -0.506182,-0.486582 -1.116963,-1.037167 -1.289971,-1.162797 -1.529389,-1.440945 -1.604994,-1.864574 -0.04534,-0.2541 -0.02932,-0.342581 0.100135,-0.552895 0.131878,-0.21423 0.200496,-0.262062 0.475313,-0.331251 0.250164,-0.06298 0.377662,-0.05225 0.57649,0.04854 0.351839,0.178362 0.556355,0.41879 2.016618,2.369016 l 1.27075,1.697299 0.944238,0.161803 c 0.51933,0.089 0.94231,0.151016 0.939959,0.137843 -0.0024,-0.01321 -0.557846,-0.552514 -1.234428,-1.198515 -0.676586,-0.645985 -1.285842,-1.251635 -1.353912,-1.345866 -0.327543,-0.453428 0.07379,-1.178475 0.605384,-1.093715 0.112524,0.01795 0.879844,0.389705 1.705156,0.826123 0.825305,0.436431 1.510648,0.791249 1.522977,0.788489 0.01224,-0.0028 -0.202447,-0.401345 -0.477269,-0.885778 l -0.499684,-0.880773 -2.042908,-0.655716 c -1.123601,-0.360644 -2.167525,-0.723021 -2.319832,-0.805286 -0.578502,-0.312449 -0.798907,-0.84976 -0.556733,-1.357127 0.174744,-0.366062 0.353297,-0.459072 0.764317,-0.398138 0.407073,0.06036 0.418117,0.06564 1.951034,0.934756 0.673869,0.382048 1.239696,0.69141 1.257405,0.687449 0.01787,-0.004 -0.322548,-0.633041 -0.756124,-1.397968 -0.433581,-0.764923 -0.886209,-1.602018 -1.005842,-1.860212 -0.690551,-1.490327 -0.530671,-2.496368 0.466435,-2.935043 0.540095,-0.237608 1.079842,-0.03996 1.540414,0.564085 0.380678,0.499255 0.632451,1.073634 1.231882,2.810223 0.321704,0.932 0.595993,1.692171 0.609535,1.689268 0.01349,-0.0029 0.141451,-0.720602 0.28424,-1.594884 0.272451,-1.668192 0.347184,-1.991227 0.529404,-2.288343 0.308999,-0.503836 0.991746,-0.476131 1.256078,0.05099 0.25747,0.513423 0.191403,0.832636 -0.700846,3.386314 -0.425615,1.218141 -0.770213,2.235159 -0.765771,2.260039 0.02172,0.121687 0.644564,1.887278 0.664227,1.882886 0.01251,-0.0029 0.115068,-0.506207 0.227992,-1.118725 0.374934,-2.033646 0.524872,-2.678106 0.654776,-2.814309 0.156019,-0.163579 0.528111,-0.235915 0.698247,-0.13573 0.406272,0.239213 0.401829,0.21832 0.527024,2.481768 0.05204,0.940956 0.110313,1.707321 0.1295,1.703037 0.01938,-0.0042 0.231459,-0.407712 0.471904,-0.896382 l 0.437038,-0.888588 -0.14407,-0.68003 c -0.881312,-4.160077 -0.906167,-4.318375 -0.754031,-4.802413 0.207124,-0.658961 1.006879,-0.82643 1.338793,-0.28033 0.211993,0.348785 0.238893,0.612068 0.311416,3.04772 0.01771,0.595083 0.06037,1.036661 0.09477,0.981281 0.0344,-0.05538 0.421309,-0.823642 0.859791,-1.707237 0.682585,-1.375538 0.849479,-1.673503 1.160594,-2.072193 0.746824,-0.957094 1.393336,-1.161794 2.086698,-0.660673 0.702142,0.507469 0.770132,1.238059 0.220809,2.372524 -0.233943,0.483112 -0.424018,0.764427 -1.303537,1.929198 -0.566326,0.749978 -1.065324,1.421521 -1.108897,1.492311 -0.05569,0.09046 0.322697,-0.03648 1.273437,-0.427242 1.48899,-0.611972 1.97765,-0.760483 2.29025,-0.696023 0.313319,0.0646 0.430369,0.179402 0.520619,0.510545 0.093,0.341402 0.019,0.667343 -0.20406,0.898665 -0.325899,0.337922 -0.654189,0.44177 -2.431425,0.769112 -0.78544,0.144677 -1.695628,0.313438 -2.022644,0.375047 l -0.59457,0.112009 -0.570293,0.746292 c -0.313661,0.410458 -0.577835,0.775851 -0.58706,0.811982 -0.0092,0.03621 0.663575,-0.186832 1.495126,-0.495458 0.831553,-0.308628 1.59653,-0.582538 1.699951,-0.608688 0.394272,-0.09971 0.683654,0.09703 0.775525,0.527214 0.101345,0.474543 0.04761,0.527863 -2.158553,2.142235 -0.477649,0.349522 -0.866575,0.646001 -0.864281,0.65885 0.0036,0.02058 1.751737,-0.03618 1.860588,-0.0605 0.02378,-0.0053 0.755989,-0.739856 1.627399,-1.632373 1.548988,-1.586511 1.870257,-1.868303 2.249437,-1.973059 0.746,-0.206105 1.30344,0.545046 0.89507,1.206113 -0.18313,0.296458 -0.42966,0.495329 -1.746279,1.408848 -0.69004,0.478762 -1.252381,0.882474 -1.249653,0.897139 0.0028,0.01478 0.756233,-0.0038 1.674442,-0.04084 0.91822,-0.03714 1.90853,-0.03267 2.20068,0.0099 1.00272,0.146062 1.531,0.500223 1.67228,1.121103 0.16784,0.737645 -0.0846,1.408411 -0.6422,1.706123 -0.62831,0.335489 -1.37494,0.325589 -3.520159,-0.04668 -0.85429,-0.148267 -1.550373,-0.253295 -1.546831,-0.233439 0.0036,0.0198 0.506018,0.48685 1.116601,1.037775 1.264519,1.140943 1.506689,1.418747 1.610139,1.847123 0.0704,0.291622 0.0648,0.317005 -0.12849,0.581443 -0.35338,0.483403 -0.88836,0.486129 -1.398439,0.0071 -0.12874,-0.12088 -0.839114,-1.026128 -1.578609,-2.011642 l -1.344536,-1.79184 -0.941234,-0.161294 c -0.517678,-0.08872 -0.939308,-0.150513 -0.936954,-0.137314 0.0024,0.01321 0.547056,0.543594 1.210448,1.178694 0.663389,0.635103 1.272668,1.239607 1.353943,1.343359 0.358015,0.457027 -0.03062,1.202933 -0.581756,1.116535 -0.112691,-0.01767 -0.880086,-0.389401 -1.705304,-0.826089 -0.825224,-0.436674 -1.510421,-0.79173 -1.522668,-0.788995 -0.01223,0.0028 0.202596,0.401314 0.477417,0.88575 l 0.499685,0.880773 2.042907,0.655714 c 1.123601,0.360643 2.167527,0.723025 2.319833,0.80529 0.592738,0.320148 0.803358,0.856742 0.542508,1.38211 -0.13567,0.273247 -0.1653,0.297857 -0.43459,0.357901 -0.401745,0.08975 -0.718811,-0.03717 -2.215769,-0.886956 -0.703765,-0.399523 -1.29396,-0.723177 -1.31153,-0.719254 -0.01764,0.0039 0.222388,0.453269 0.533242,0.998541 0.900662,1.579844 1.245467,2.232422 1.400755,2.651063 0.48219,1.299954 0.282412,2.119855 -0.618357,2.537762 -0.706536,0.3278 -1.392617,-0.105669 -1.987413,-1.255659 -0.119197,-0.230451 -0.479922,-1.181544 -0.801625,-2.113544 -0.321703,-0.931997 -0.597979,-1.691725 -0.613945,-1.688278 -0.01595,0.0033 -0.143629,0.720605 -0.283709,1.593686 -0.266426,1.660623 -0.341844,1.989051 -0.525527,2.288551 -0.406326,0.662542 -1.260495,0.393463 -1.371516,-0.432052 -0.0662,-0.492171 -0.04043,-0.585154 0.912374,-3.292438 0.372883,-1.059513 0.67429,-1.947021 0.669792,-1.97223 -0.02307,-0.129278 -0.645219,-1.887757 -0.666226,-1.883062 -0.01321,0.0031 -0.131544,0.584578 -0.262323,1.292343 -0.490758,2.656248 -0.514621,2.726054 -0.95975,2.807336 -0.267193,0.04877 -0.499454,-0.03571 -0.62428,-0.227131 -0.138343,-0.212142 -0.147443,-0.305587 -0.311375,-3.20069 -0.02478,-0.437616 -0.0603,-0.792254 -0.07892,-0.788094 -0.01871,0.0042 -0.229018,0.40457 -0.467711,0.889667 l -0.433842,0.882108 0.140289,0.687462 c 0.07717,0.378106 0.290618,1.395374 0.47435,2.260593 0.333406,1.570063 0.405767,2.287789 0.261723,2.59589 -0.127442,0.27257 -0.359908,0.479519 -0.607574,0.540874 -0.447661,0.110883 -0.788768,-0.2065 -0.901634,-0.83896 -0.03116,-0.174579 -0.07911,-1.056507 -0.106545,-1.959791 -0.03441,-1.133108 -0.07404,-1.6031 -0.127777,-1.515791 -0.04285,0.0696 -0.422676,0.825864 -0.844078,1.680585 -0.654473,1.327425 -0.821099,1.625685 -1.142856,2.045329 -0.751542,0.980256 -1.405055,1.193951 -2.104765,0.688241 -0.162049,-0.117126 -0.332172,-0.300397 -0.413301,-0.445236 z m 7.746003,-7.578839 c 0.192181,-0.511649 0.35747,-0.943333 0.367304,-0.959311 0.0099,-0.01591 -0.105432,-0.392214 -0.256121,-0.836088 l -0.273999,-0.807041 -0.24879,0.483465 c -0.559916,1.088006 -0.538772,0.931122 -0.273797,2.033095 0.129904,0.54018 0.230147,1.013963 0.222791,1.052854 -0.0076,0.04074 0.01335,0.0479 0.04993,0.01696 0.03487,-0.02949 0.220526,-0.472328 0.41271,-0.983972 z m -2.994113,-1.736365 c 1.062252,-0.166898 0.951665,-0.09663 1.626616,-1.033391 l 0.332874,-0.461991 -0.792371,0.03594 c -0.435802,0.01976 -0.796593,0.04281 -0.801755,0.05118 -0.0051,0.0083 -0.302372,0.332556 -0.660464,0.720363 -0.6922,0.749642 -0.723246,0.786918 -0.681056,0.817411 0.01485,0.01085 0.454162,-0.04752 0.97614,-0.129514 z m 1.273028,-2.735952 c 0.385436,0.0688 0.709976,0.110188 0.721188,0.09195 0.01112,-0.0183 -0.161154,-0.346979 -0.383052,-0.730562 l -0.403448,-0.697438 -0.949512,-0.278273 c -0.522237,-0.153031 -0.957796,-0.264822 -0.967914,-0.248384 -0.02608,0.04237 1.148562,1.694409 1.221609,1.718071 0.03316,0.01085 0.375685,0.07582 0.761129,0.144631 z m 4.30659,3.112408 c 0.496709,0.146637 0.911414,0.253106 0.921559,0.236623 0.01015,-0.01659 -0.253338,-0.410621 -0.585513,-0.875869 l -0.603962,-0.84589 -0.747153,-0.132824 c -0.410943,-0.07302 -0.756299,-0.117946 -0.76746,-0.09982 -0.02885,0.0469 0.749556,1.402732 0.820567,1.42924 0.03231,0.01224 0.46523,0.141945 0.961948,0.288554 z m -2.26383,-4.189254 c 0.184851,-0.379344 0.352761,-0.719384 0.373089,-0.755671 0.04985,-0.0889 -0.447717,-2.13786 -0.506933,-2.087595 -0.07573,0.06426 -0.7547,1.890312 -0.737891,1.984502 0.0222,0.12437 0.483199,1.499211 0.511679,1.525971 0.01307,0.01237 0.175149,-0.287907 0.360052,-0.66721 z m 2.187909,1.145895 c 0.384113,-0.390543 1.270029,-1.38564 1.26395,-1.419702 -0.0042,-0.02291 -0.439286,0.02458 -0.96715,0.105266 -1.074555,0.164274 -0.961148,0.09295 -1.635313,1.028607 l -0.33287,0.461987 0.784031,-0.03555 c 0.493092,-0.02237 0.822371,-0.07454 0.887352,-0.140603 z"
       style="fill:none;stroke:#ff0000;stroke-width:0.223386;stroke-miterlimit:4;stroke-dasharray:none;stroke-opacity:1" />
    <path
       style="fill:none;stroke:#ff0000;stroke-width:0.225178;stroke-miterlimit:4;stroke-dasharray:none;stroke-opacity:1"
       d="m 112.00677,92.241019 c 0.0304,-0.58061 0.37897,-1.027993 1.19829,-1.538171 0.45932,-0.285998 0.77268,-0.423567 2.14905,-0.943375 0.88622,-0.334696 1.67186,-0.63824 1.74585,-0.674547 0.0931,-0.04566 -0.31373,-0.144703 -1.32112,-0.321539 -1.60488,-0.281727 -2.08428,-0.415373 -2.32844,-0.649108 -0.32457,-0.310726 -0.24873,-0.869517 0.16173,-1.19142 0.45968,-0.360496 0.90102,-0.288716 2.70915,0.440544 0.76215,0.307397 1.66391,0.664572 2.00391,0.793732 l 0.61818,0.234836 0.87983,-0.326534 c 0.48391,-0.179593 0.90306,-0.348512 0.93144,-0.375356 0.0287,-0.02668 -0.45816,-0.153252 -1.0812,-0.280906 -2.49263,-0.510681 -2.50241,-0.513993 -2.64255,-0.894842 -0.0899,-0.244291 0.0332,-0.634669 0.25432,-0.80618 0.15236,-0.118326 0.70807,-0.183679 2.76478,-0.325381 0.59521,-0.04101 1.08624,-0.08454 1.09121,-0.09672 0.008,-0.01967 -1.51303,-0.91159 -1.61945,-0.949609 -0.0234,-0.0083 -0.9871,0.211062 -2.14148,0.487624 -1.15436,0.276569 -2.26311,0.52006 -2.46386,0.5411 -0.20078,0.02103 -0.51115,-0.0079 -0.68972,-0.06426 -0.30347,-0.0958 -0.33303,-0.123263 -0.45236,-0.420252 -0.23161,-0.576461 0.0199,-0.99305 0.70804,-1.172812 0.18234,-0.04761 1.03634,-0.115939 1.89775,-0.151794 0.86142,-0.03585 1.57117,-0.07764 1.57726,-0.09286 0.006,-0.01516 -0.64595,-0.405842 -1.44897,-0.867983 -0.92502,-0.532372 -1.63828,-0.993694 -1.94644,-1.258891 -0.45039,-0.387594 -0.50049,-0.453025 -0.67643,-0.883297 -0.25255,-0.617429 -0.2012,-0.927536 0.24273,-1.467408 0.26245,-0.319219 0.34867,-0.38726 0.5945,-0.470067 0.38817,-0.130667 0.82191,-0.08837 1.27935,0.124743 0.58268,0.271453 0.97699,0.574051 2.25569,1.731018 0.64792,0.586251 1.1843,1.050481 1.19197,1.031642 0.007,-0.01926 -0.16976,-0.687104 -0.39426,-1.485033 -0.47416,-1.685195 -0.52862,-2.0511 -0.36519,-2.452912 0.098,-0.241004 0.15926,-0.30784 0.38277,-0.417475 0.22761,-0.111726 0.31189,-0.115551 0.5834,-0.02669 0.24713,0.08088 0.35005,0.158612 0.46532,0.351491 0.20399,0.341326 0.24901,0.656306 0.44474,3.104379 l 0.17023,2.1305 0.71791,0.645885 c 0.39485,0.35524 0.72207,0.635649 0.72714,0.623149 0.005,-0.01286 -0.17832,-0.771093 -0.40759,-1.685764 -0.22927,-0.914655 -0.42284,-1.758704 -0.43018,-1.875653 -0.0353,-0.562734 0.69687,-0.964924 1.10443,-0.606711 0.0862,0.07581 0.54042,0.805528 1.0092,1.62153 0.46879,0.81602 0.86217,1.487176 0.87417,1.491457 0.0122,0.0044 0.0433,-0.451049 0.0696,-1.01186 l 0.0478,-1.019638 -1.38881,-1.657958 c -0.76385,-0.911878 -1.45883,-1.782367 -1.54442,-1.934435 -0.32508,-0.577556 -0.22393,-1.154168 0.25546,-1.456411 0.34588,-0.218062 0.54813,-0.201297 0.86573,0.07175 0.31456,0.270435 0.32113,0.280882 1.16038,1.84641 0.36894,0.68819 0.68488,1.256301 0.70211,1.262456 0.0175,0.0062 0.0656,-0.713171 0.10744,-1.5985 0.0419,-0.885326 0.10633,-1.842417 0.14323,-2.126883 0.21303,-1.641954 0.89051,-2.41358 1.97652,-2.251153 0.58824,0.08799 0.94204,0.546833 1.00972,1.309527 0.0559,0.630389 -0.0384,1.25548 -0.46158,3.058345 -0.22712,0.967574 -0.40222,1.763158 -0.3891,1.767974 0.0134,0.005 0.50821,-0.538216 1.10025,-1.206711 1.12965,-1.275543 1.36714,-1.510718 1.68231,-1.66598 0.53445,-0.263287 1.10158,0.127613 1.04335,0.719157 -0.0567,0.576191 -0.28474,0.812772 -2.41909,2.509759 -1.01813,0.809482 -1.85898,1.491103 -1.86859,1.514699 -0.0469,0.115422 -0.46576,1.955611 -0.44665,1.962439 0.0122,0.0043 0.37046,-0.3696 0.79618,-0.83104 1.41361,-1.531955 1.88811,-2.000687 2.07213,-2.046915 0.22099,-0.05552 0.5771,0.08298 0.66825,0.259912 0.21766,0.422475 0.2251,0.402268 -0.88577,2.399169 -0.46187,0.830113 -0.82445,1.514772 -0.80579,1.521441 0.0187,0.0069 0.41664,-0.223053 0.88449,-0.510291 l 0.85058,-0.522405 0.24299,-0.657218 c 1.4866,-4.020478 1.55056,-4.168798 1.94063,-4.499595 0.53106,-0.450329 1.30293,-0.162865 1.29211,0.481223 -0.007,0.411376 -0.1256,0.650293 -1.37402,2.765654 -0.30507,0.516797 -0.50625,0.916181 -0.44703,0.887541 0.059,-0.02874 0.80222,-0.475503 1.65135,-0.992873 1.32185,-0.805429 1.62442,-0.969656 2.1041,-1.142176 1.15151,-0.414157 1.81277,-0.240873 2.13427,0.559311 0.32558,0.810323 -0.009,1.469715 -1.08803,2.141327 -0.45933,0.28599 -0.77269,0.423556 -2.14905,0.943373 -0.88623,0.334685 -1.67287,0.638732 -1.7481,0.67564 -0.0961,0.04717 0.29472,0.142485 1.31542,0.320826 1.59854,0.279289 2.09502,0.415569 2.32681,0.638671 0.23235,0.223623 0.27038,0.384456 0.16917,0.715291 -0.10433,0.341097 -0.34276,0.579144 -0.65737,0.656338 -0.45961,0.112753 -0.79535,0.02467 -2.48649,-0.652321 -0.74741,-0.299193 -1.61411,-0.644958 -1.92603,-0.768354 l -0.56711,-0.224359 -0.88762,0.329425 c -0.4882,0.181169 -0.90996,0.350551 -0.93725,0.376393 -0.0279,0.02553 0.66618,0.197692 1.54108,0.38192 0.87491,0.184227 1.67438,0.362236 1.77662,0.395583 0.38975,0.127102 0.53061,0.450486 0.37751,0.866626 -0.16888,0.459063 -0.24345,0.475555 -2.99253,0.665042 -0.59521,0.04101 -1.08624,0.08454 -1.0912,0.09672 -0.008,0.01967 1.51278,0.911488 1.61866,0.949319 0.0231,0.0083 1.04245,-0.224041 2.26544,-0.516126 2.17394,-0.519201 2.59941,-0.586597 2.979,-0.471928 0.74683,0.225613 0.81795,1.165821 0.11421,1.509691 -0.31559,0.154211 -0.63274,0.191124 -2.24655,0.261617 -0.84579,0.03694 -1.54235,0.07859 -1.54792,0.09255 -0.005,0.0142 0.64671,0.403597 1.44941,0.865955 0.80274,0.462292 1.64455,0.998813 1.8707,1.192296 0.77622,0.663921 1.03605,1.250017 0.82249,1.855305 -0.25372,0.719123 -0.82987,1.155068 -1.46525,1.108976 -0.71611,-0.052 -1.34727,-0.462086 -2.97577,-1.933438 -0.64851,-0.585958 -1.1854,-1.049943 -1.19307,-1.03111 -0.007,0.01901 0.16947,0.687235 0.39362,1.485352 0.46422,1.652872 0.52122,2.019973 0.37896,2.440801 -0.0967,0.286546 -0.1153,0.305089 -0.4223,0.426559 -0.56129,0.221997 -1.01883,-0.06348 -1.19594,-0.746283 -0.0447,-0.172307 -0.16333,-1.32615 -0.26358,-2.564085 l -0.18228,-2.250794 -0.71561,-0.643829 c -0.3936,-0.354117 -0.71978,-0.633608 -0.72487,-0.621086 -0.005,0.01286 0.17392,0.757682 0.39781,1.655964 0.22388,0.898284 0.41809,1.741367 0.43155,1.873531 0.0593,0.5822 -0.67315,1.009043 -1.09656,0.638881 -0.0866,-0.07572 -0.54078,-0.805396 -1.00935,-1.621587 -0.46858,-0.816178 -0.8617,-1.487452 -0.87361,-1.491711 -0.0122,-0.0044 -0.0432,0.451097 -0.0695,1.011906 l -0.0478,1.019643 1.3888,1.65795 c 0.76386,0.911884 1.45884,1.782375 1.54443,1.934443 0.33307,0.591779 0.22396,1.162513 -0.28103,1.470058 -0.26267,0.159938 -0.30115,0.164993 -0.563,0.07132 -0.39076,-0.139607 -0.59279,-0.418361 -1.41177,-1.94807 -0.38503,-0.719177 -0.71406,-1.312578 -0.73114,-1.318685 -0.0171,-0.0062 -0.0543,0.506034 -0.0826,1.138092 -0.0821,1.831295 -0.13919,2.573086 -0.23201,3.013509 -0.28825,1.367579 -0.89961,1.959069 -1.89231,1.830759 -0.77865,-0.10064 -1.13033,-0.839231 -1.01875,-2.13954 0.0224,-0.260558 0.22647,-1.265424 0.45359,-2.232988 0.22712,-0.967572 0.40028,-1.763852 0.38482,-1.7695 -0.0154,-0.0057 -0.51009,0.537039 -1.09917,1.205972 -1.12045,1.272325 -1.36141,1.511735 -1.67911,1.668246 -0.7028,0.346222 -1.28621,-0.342658 -0.93677,-1.106116 0.20835,-0.455162 0.28027,-0.520607 2.54892,-2.315939 0.88784,-0.702623 1.62221,-1.29707 1.63193,-1.320983 0.0498,-0.122642 0.46548,-1.956362 0.44505,-1.963663 -0.0123,-0.0041 -0.4266,0.427584 -0.91884,0.960583 -1.84728,2.0004 -1.90517,2.047074 -2.32836,1.876911 -0.25402,-0.102154 -0.40657,-0.299115 -0.41,-0.529454 -0.004,-0.255272 0.0387,-0.339819 1.45634,-2.896036 0.21427,-0.386401 0.37477,-0.707828 0.35663,-0.714315 -0.0182,-0.0065 -0.41285,0.221698 -0.8773,0.506824 l -0.84437,0.5186 -0.25022,0.661514 c -0.13761,0.363848 -0.50289,1.345867 -0.81169,2.182296 -0.56039,1.517798 -0.88479,2.168578 -1.17333,2.35374 -0.25531,0.163775 -0.56477,0.215169 -0.80891,0.134238 -0.44127,-0.146289 -0.56132,-0.600347 -0.31732,-1.200228 0.0674,-0.165582 0.50094,-0.943186 0.96347,-1.727975 0.58012,-0.984525 0.79921,-1.406478 0.70649,-1.36092 -0.074,0.03628 -0.8046,0.476656 -1.62362,0.978602 -1.27201,0.779538 -1.5745,0.944164 -2.07454,1.128816 -1.168,0.431358 -1.84006,0.261979 -2.1645,-0.545533 -0.0751,-0.187022 -0.12158,-0.434774 -0.11283,-0.60189 z m 10.68031,-2.29391 c 0.43907,-0.33279 0.8122,-0.611874 0.82917,-0.620212 0.017,-0.0082 0.12115,-0.391046 0.23143,-0.850525 l 0.20057,-0.83538 -0.47217,0.278307 c -1.06261,0.626297 -0.96019,0.503933 -1.32709,1.585892 -0.17989,0.53035 -0.34926,0.98819 -0.37645,1.017388 -0.0287,0.03046 -0.0139,0.0483 0.0334,0.04131 0.0456,-0.0064 0.44208,-0.284023 0.88115,-0.616804 z m -1.61836,-3.090882 c 0.99532,0.429147 0.86327,0.429563 1.94257,-0.0059 l 0.53229,-0.214775 -0.69481,-0.395607 c -0.38215,-0.217592 -0.70211,-0.392028 -0.71103,-0.387676 -0.01,0.0039 -0.43665,0.120843 -0.95054,0.258803 -0.99335,0.266694 -1.03986,0.281779 -1.0203,0.330463 0.007,0.01725 0.41272,0.203802 0.9018,0.414695 z m 2.55702,-1.647532 c 0.29157,0.265993 0.54596,0.475854 0.56534,0.466336 0.0193,-0.0096 0.0493,-0.382487 0.0665,-0.828849 l 0.0312,-0.811585 -0.65975,-0.748007 c -0.36287,-0.411387 -0.67405,-0.740997 -0.69152,-0.732432 -0.045,0.02208 0.0676,2.062322 0.11718,2.121786 0.0224,0.02707 0.27948,0.266735 0.57105,0.532742 z m 1.99699,4.969969 c 0.34455,0.392205 0.64081,0.70606 0.65833,0.697468 0.0174,-0.0088 0.005,-0.486333 -0.028,-1.06164 l -0.0598,-1.046 -0.56548,-0.515152 c -0.31105,-0.283327 -0.58128,-0.507396 -0.60055,-0.497944 -0.0499,0.02439 -0.11561,1.599022 -0.0693,1.659815 0.0209,0.02777 0.32025,0.371277 0.66482,0.763463 z m 0.32371,-4.789075 c 0.36164,-0.223947 0.68771,-0.423496 0.72456,-0.443496 0.0903,-0.049 0.76837,-2.063334 0.69085,-2.052339 -0.0992,0.01401 -1.66024,1.205473 -1.69659,1.294809 -0.048,0.117977 -0.39457,1.537986 -0.38469,1.576114 0.004,0.01727 0.30419,-0.151216 0.66587,-0.375091 z m 1.24872,2.153826 c 0.53755,-0.126297 1.82808,-0.498027 1.84122,-0.530336 0.009,-0.02167 -0.38771,-0.215355 -0.88111,-0.430536 -1.00441,-0.438012 -0.86935,-0.437805 -1.94741,-0.0028 l -0.53228,0.214771 0.68749,0.391455 c 0.43239,0.246186 0.74116,0.378844 0.83209,0.357484 z"
       id="path1722-6" />
    <path
       transform="scale(0.26458333)"
       d="M 405.12695 487.98242 A 37.258376 37.258376 0 0 0 367.87891 525.24219 A 37.258376 37.258376 0 0 0 367.91602 526.9082 A 47.053289 18.706835 0 0 0 358.70898 537.66602 L 358.62891 537.66602 L 358.62891 560.19336 A 169.90166 169.90166 0 0 0 236.68555 723.18359 A 169.90166 169.90166 0 0 0 406.58789 893.08594 A 169.90166 169.90166 0 0 0 576.48828 723.18359 A 169.90166 169.90166 0 0 0 452.87695 559.71094 L 452.87695 537.66602 L 452.79492 537.66602 A 47.053289 18.706835 0 0 0 442.38086 526.28711 A 37.258376 37.258376 0 0 0 442.39453 525.24219 A 37.258376 37.258376 0 0 0 405.13672 487.98242 A 37.258376 37.258376 0 0 0 405.12695 487.98242 z M 404.83203 497.42578 A 27.815873 27.815873 0 0 1 404.90625 497.42578 A 27.815873 27.815873 0 0 1 404.9082 497.42578 A 27.815873 27.815873 0 0 1 405.13867 497.42578 A 27.815873 27.815873 0 0 1 432.83984 522.73242 A 47.053289 18.706835 0 0 0 405.75195 519.32227 A 47.053289 18.706835 0 0 0 377.4043 523.09961 A 27.815873 27.815873 0 0 1 404.83203 497.42578 z M 406.48242 581.81445 A 141.37082 141.37082 0 0 1 406.58789 581.81445 A 141.37082 141.37082 0 0 1 541.48438 680.89844 L 536.4375 706.63672 C 534.31174 705.73917 532.12639 705.29102 529.88086 705.29102 C 527.63531 705.29102 525.04547 706.63548 522.11133 709.32812 C 519.20711 711.97805 516.61727 715.33415 514.3418 719.39453 C 512.06632 723.45488 510.19559 728.02714 508.72852 733.11328 C 508.399 734.24606 508.11293 735.34556 507.85742 736.41797 C 502.8175 743.57659 499.46403 747.21875 497.85938 747.21875 C 496.96116 747.21875 496.51172 745.97896 496.51172 743.5 C 496.51172 741.02104 497.29075 734.63058 498.84766 724.33008 C 499.41651 720.56891 499.98581 716.89491 500.55469 713.30469 C 501.12356 709.6718 501.42318 707.70549 501.45312 707.40625 C 498.30938 705.9958 495.79446 705.29102 493.9082 705.29102 C 490.04589 705.29102 486.25752 706.46566 482.54492 708.81641 C 478.86225 711.16712 475.68813 714.20148 473.02344 717.91992 C 470.38867 721.63837 468.26327 725.86907 466.64648 730.61328 C 465.72113 733.32861 465.06956 736.02947 464.67383 738.7168 C 463.58991 740.26789 462.62327 741.62242 461.8418 742.66602 C 460.01543 745.14498 458.80192 746.38477 458.20312 746.38477 C 457.63429 746.38477 457.24478 746.10643 457.03516 745.55078 C 456.82553 744.99516 456.7207 743.92712 456.7207 742.3457 C 456.7207 739.05469 458.35368 728.90339 461.61719 711.89258 C 464.91062 694.83905 467.48549 682.36013 469.3418 674.45312 C 470.26992 669.96535 470.79428 666.99418 470.91406 665.54102 L 469.3418 665.54102 C 468.02441 665.54102 466.78095 665.60613 465.61328 665.73438 C 464.47553 665.81984 463.35387 666.43974 462.24609 667.59375 C 461.43769 668.4058 460.61372 671.26842 459.77539 676.18359 L 453.80273 706.63672 C 451.67697 705.73917 449.49162 705.29102 447.24609 705.29102 C 445.00057 705.29102 442.41073 706.63548 439.47656 709.32812 C 436.57234 711.97805 433.98251 715.33415 431.70703 719.39453 C 429.43156 723.45488 427.55887 728.02714 426.0918 733.11328 C 425.72521 734.37349 425.40389 735.59967 425.12891 736.78516 C 423.7714 738.77159 422.26167 740.93268 420.56836 743.30859 C 417.09529 748.18102 415.02979 750.61719 414.37109 750.61719 C 413.32316 750.61719 412.79883 749.20563 412.79883 746.38477 C 412.79883 742.02521 415.16395 729.03302 419.89453 707.40625 C 418.18793 707.40625 416.75166 707.46941 415.58398 707.59766 C 414.74566 707.72581 414.11643 707.93904 413.69727 708.23828 C 413.30803 708.49475 412.84362 708.85801 412.30469 709.32812 C 411.76576 709.79827 411.3163 710.43987 410.95703 711.25195 C 410.59774 712.06403 410.13528 713.49534 409.56641 715.54688 C 409.02832 717.59522 407.92029 723.50941 406.24805 733.26953 C 405.76961 733.96297 405.39889 734.49256 404.84961 735.29492 C 403.56217 737.17549 402.59033 738.6068 401.93164 739.58984 C 401.27295 740.53014 400.38905 741.74823 399.28125 743.24414 C 398.17345 744.74006 397.22961 745.48828 396.45117 745.48828 C 396.39128 744.59073 396.09166 743.4141 395.55273 741.96094 C 396.39106 738.92636 397.43975 734.1409 398.69727 727.60156 C 399.95476 721.06225 400.58398 715.71811 400.58398 711.57227 C 400.58398 707.38367 399.81993 705.29102 398.29297 705.29102 C 397.03548 705.29102 395.89689 706.38077 394.87891 708.56055 C 393.89089 710.69758 393.1138 713.43186 392.54492 716.76562 C 391.97605 720.09939 391.54159 723.49697 391.24219 726.95898 C 390.97271 730.42096 390.83789 733.2421 390.83789 735.42188 C 390.83789 737.60165 390.85287 738.71311 390.88281 738.75586 C 390.91276 738.75586 390.35845 740.12398 389.2207 742.85938 C 386.79554 748.71485 385.13455 751.64258 384.23633 751.64258 C 383.0986 751.64258 382.04989 749.29134 381.0918 744.58984 C 380.16363 739.88838 379.69922 734.28956 379.69922 727.79297 C 379.69922 721.25366 380.16363 714.45846 381.0918 707.40625 L 377.5 707.40625 C 372.97904 707.40625 370.6289 708.45259 370.44922 710.54688 C 370.05998 714.39354 369.86523 718.9875 369.86523 724.33008 C 369.86523 728.17498 369.96827 731.72275 370.15625 735.02148 C 364.55098 743.14086 360.88471 747.21875 359.17578 747.21875 C 358.27756 747.21875 357.82812 745.97896 357.82812 743.5 C 357.82812 741.02104 358.60715 734.63058 360.16406 724.33008 C 360.73292 720.56891 361.30222 716.89491 361.87109 713.30469 C 362.43995 709.6718 362.73958 707.70549 362.76953 707.40625 C 359.62581 705.9958 357.11087 705.29102 355.22461 705.29102 C 351.3623 705.29102 347.57393 706.46566 343.86133 708.81641 C 340.17865 711.16712 337.00453 714.20148 334.33984 717.91992 C 331.70508 721.63837 329.57967 725.86907 327.96289 730.61328 C 327.10769 733.12275 326.48682 735.61992 326.08398 738.10547 L 319.83398 746.64258 C 318.42678 748.69414 317.1703 749.71875 316.0625 749.71875 C 313.99661 749.71875 312.96289 745.16627 312.96289 736.0625 C 312.96289 726.95876 314.81863 709.22257 318.53125 682.85156 C 319.11936 678.75376 319.54241 675.65401 319.85547 673.21094 C 320.50929 672.65042 321.17553 671.9289 321.86523 671.0293 C 323.08132 669.44326 323.71195 668.31589 326.18555 663.29883 C 327.77825 660.06839 329.21305 657.21032 329.375 656.94727 C 329.5781 656.61728 329.72932 658.39316 329.85938 662.67578 C 329.96307 666.08979 330.14395 669.42415 330.26172 670.08398 C 330.6883 672.47438 331.97797 673.67302 333.66992 673.25391 C 334.60598 673.02203 335.48317 672.23917 335.96484 671.20898 C 336.50927 670.04451 336.23668 667.33252 334.97656 661.39844 C 334.28214 658.12831 333.47526 654.28451 333.18359 652.85547 L 332.65234 650.25586 L 334.29297 646.92188 C 335.19512 645.08846 335.98983 643.57566 336.06055 643.56055 C 336.13092 643.54482 336.26572 644.8851 336.35938 646.53906 C 336.97896 657.48121 337.01229 657.83298 337.53516 658.63477 C 338.00694 659.35828 338.88467 659.67858 339.89453 659.49414 C 341.57691 659.18694 341.6686 658.92218 343.52344 648.88281 C 344.01772 646.20778 344.46378 644.01134 344.51367 644 C 344.59307 643.98227 346.94406 650.62662 347.03125 651.11523 C 347.04825 651.21052 345.90933 654.56583 344.5 658.57031 C 340.89885 668.80255 340.80253 669.1535 341.05273 671.01367 C 341.47235 674.13375 344.70061 675.15057 346.23633 672.64648 C 346.93057 671.51452 347.21568 670.27444 348.22266 663.99805 C 348.75208 660.69822 349.23464 657.98595 349.29492 657.97461 C 349.35527 657.96157 350.39935 660.83295 351.61523 664.35547 C 352.83112 667.87799 354.19402 671.47276 354.64453 672.34375 C 356.89258 676.69017 359.48588 678.32877 362.15625 677.08984 C 365.56073 675.51034 366.31659 672.41124 364.49414 667.49805 C 363.90722 665.91579 362.60329 663.4496 359.19922 657.47852 C 358.02434 655.41765 357.11689 653.71824 357.18359 653.70312 C 357.24999 653.68831 359.48073 654.91184 362.14062 656.42188 C 367.79842 659.63357 368.99721 660.11284 370.51562 659.77344 C 371.53341 659.54648 371.64545 659.45463 372.1582 658.42188 C 373.14409 656.43626 372.3477 654.40728 370.10742 653.19727 C 369.53178 652.88636 365.58652 651.51738 361.33984 650.1543 L 353.61914 647.67578 L 351.73047 644.34766 C 350.69178 642.5167 349.8796 641.01134 349.92578 641 C 349.97207 640.98964 352.56073 642.33006 355.67969 643.98047 C 358.79861 645.63095 361.69908 647.03662 362.125 647.10352 C 364.20803 647.43007 365.67735 644.61013 364.32422 642.88281 C 364.01704 642.49065 361.71432 640.20702 359.20703 637.80664 C 356.69972 635.40626 354.64188 633.40145 354.63281 633.35156 C 354.62391 633.30167 356.21725 633.53585 358.17383 633.87109 L 361.73047 634.48047 L 366.8125 641.25195 C 369.60744 644.97672 372.29272 648.3986 372.7793 648.85547 C 374.70715 650.66635 376.72884 650.65515 378.06445 648.82812 C 378.795 647.82867 378.81686 647.73305 378.55078 646.63086 C 378.15979 645.01179 377.24414 643.96264 372.46484 639.65039 C 370.15713 637.56817 368.25775 635.80335 368.24414 635.72852 C 368.23075 635.65345 370.86102 636.04898 374.08984 636.60938 C 382.19777 638.01646 385.01982 638.0551 387.39453 636.78711 C 389.502 635.66191 390.45662 633.12586 389.82227 630.33789 C 389.28829 627.9913 387.29176 626.6536 383.50195 626.10156 C 382.39776 625.94018 378.65404 625.92228 375.18359 626.0625 C 371.71319 626.20159 368.86605 626.27273 368.85547 626.2168 C 368.84516 626.16139 370.9701 624.6357 373.57812 622.82617 C 378.55433 619.3735 379.48754 618.62243 380.17969 617.50195 C 381.72313 615.00346 379.61445 612.1644 376.79492 612.94336 C 375.36179 613.3393 374.14936 614.40413 368.29492 620.40039 C 365.0014 623.77369 362.23249 626.55141 362.14258 626.57031 C 361.73117 626.66216 355.12493 626.87669 355.11133 626.79883 C 355.10266 626.75026 356.57167 625.62965 358.37695 624.30859 C 366.71521 618.20704 366.91818 618.00643 366.53516 616.21289 C 366.18793 614.5869 365.09563 613.84193 363.60547 614.21875 C 363.21459 614.31755 360.32256 615.35306 357.17969 616.51953 C 354.03682 617.68601 351.49453 618.5294 351.5293 618.39258 C 351.56416 618.25602 352.56256 616.87556 353.74805 615.32422 L 355.90234 612.50391 L 358.15039 612.08008 C 359.38635 611.84722 362.82633 611.20893 365.79492 610.66211 C 372.51203 609.42492 373.75262 609.03304 374.98438 607.75586 C 375.82744 606.88158 376.10736 605.64974 375.75586 604.35938 C 375.41475 603.10782 374.97326 602.67384 373.78906 602.42969 C 372.60758 602.18606 370.76049 602.74759 365.13281 605.06055 C 361.53946 606.53736 360.10788 607.01588 360.31836 606.67383 C 360.48304 606.40628 362.36931 603.86973 364.50977 601.03516 C 367.83392 596.63288 368.55331 595.56815 369.4375 593.74219 C 370.94216 590.63476 371.21458 588.33237 370.24414 586.56836 A 141.37082 141.37082 0 0 1 406.48242 581.81445 z M 358.88867 590.10547 C 358.28167 591.20901 357.52735 592.69273 356.33008 595.10547 C 354.67282 598.44502 353.21009 601.34725 353.08008 601.55664 C 352.95006 601.76595 352.7876 600.09682 352.7207 597.84766 C 352.65471 595.63129 352.60114 593.93632 352.54297 592.55273 A 141.37082 141.37082 0 0 1 358.88867 590.10547 z M 347.125 594.92773 C 347.6119 597.38075 348.30419 600.68007 349.33398 605.54102 L 349.87891 608.10938 L 348.22656 611.46875 C 347.31779 613.31565 346.51664 614.8423 346.44336 614.85742 C 346.37084 614.8736 346.14981 611.97627 345.95312 608.41992 C 345.47996 599.86515 345.49841 599.94316 343.96289 599.03906 C 343.31986 598.66043 341.91194 598.93448 341.32227 599.55273 C 340.83129 600.06751 340.26474 602.50322 338.84766 610.18945 C 338.42086 612.50449 338.03365 614.40663 337.98633 614.41797 C 337.91201 614.43456 335.55865 607.76071 335.47656 607.30078 C 335.46082 607.21261 336.64647 603.72089 338.11523 599.50391 A 141.37082 141.37082 0 0 1 347.125 594.92773 z M 323.30664 608.94922 L 328.88867 610.74023 L 330.77734 614.06836 C 331.81604 615.89931 332.62829 617.40468 332.58203 617.41602 C 332.53543 617.42645 329.94543 616.08505 326.82617 614.43555 C 323.70688 612.78612 320.80615 611.38211 320.38086 611.31445 C 320.31045 611.30323 320.24294 611.30467 320.17383 611.30078 A 141.37082 141.37082 0 0 1 323.30664 608.94922 z M 342.33594 611.58398 C 342.55975 611.39399 344.43841 619.13861 344.25 619.47461 C 344.17317 619.61173 343.54045 620.89631 342.8418 622.33008 C 342.14295 623.76369 341.52987 624.89843 341.48047 624.85156 C 341.37283 624.75042 339.63078 619.55404 339.54688 619.08398 C 339.48334 618.72799 342.04971 611.82701 342.33594 611.58398 z M 317.79297 613.17969 C 317.55682 613.92846 317.60179 614.76622 318.09375 615.44727 C 318.35102 615.80341 320.65376 618.0917 323.21094 620.5332 C 325.7681 622.97478 327.86593 625.01456 327.875 625.06445 C 327.88389 625.11423 326.28704 624.87935 324.32422 624.54297 L 320.75391 623.93164 L 315.95117 617.51562 C 315.41248 616.79619 315.10358 616.39507 314.65039 615.79297 A 141.37082 141.37082 0 0 1 317.79297 613.17969 z M 310.66602 619.33594 C 312.64132 621.12567 314.25183 622.61949 314.26367 622.6875 C 314.27708 622.7626 311.64745 622.3652 308.41992 621.80273 C 308.29815 621.78151 308.23179 621.77249 308.11328 621.75195 A 141.37082 141.37082 0 0 1 310.66602 619.33594 z M 327.62695 619.35938 C 327.66519 619.29728 329.31135 619.72045 331.28516 620.29883 L 334.87305 621.34961 L 336.39844 623.98633 C 337.23711 625.43608 337.88769 626.67888 337.8457 626.74805 C 337.80333 626.81717 336.57786 626.66042 335.12109 626.40039 C 333.6643 626.14025 332.36947 625.89471 332.24414 625.85352 C 331.96806 625.76405 327.52838 619.51963 327.62695 619.35938 z M 355.58984 621.27734 C 355.77741 621.26792 355.88275 621.27328 355.88672 621.29492 C 355.90969 621.42365 352.56114 625.1841 351.10938 626.66016 C 350.86379 626.90998 349.61952 627.10674 347.75586 627.19141 L 344.79297 627.32617 L 346.05078 625.58008 C 348.5988 622.04395 348.17111 622.31422 352.23242 621.69336 C 353.72873 621.46469 355.02713 621.30561 355.58984 621.27734 z M 337.71484 631.08789 L 336.45703 632.83398 C 333.90604 636.37461 334.3234 636.10947 330.30859 636.74023 C 328.33576 637.05023 326.67527 637.27167 326.61914 637.23047 C 326.45968 637.11519 326.57717 636.97391 329.19336 634.14062 C 330.54678 632.67489 331.67018 631.4482 331.68945 631.41797 C 331.70896 631.38622 333.07358 631.29944 334.7207 631.22461 L 337.71484 631.08789 z M 326.34961 631.60742 C 326.97749 631.5968 327.39308 631.59772 327.39648 631.61719 C 327.40514 631.66575 325.93613 632.7864 324.13086 634.10742 C 317.89279 638.67207 316.26032 639.98987 316.01367 640.66992 C 315.65586 641.65611 316.04639 643.14162 316.82031 643.73633 C 318.02676 644.66352 318.06454 644.65347 326.99023 641.28516 C 329.2213 640.44327 331.01675 639.87156 330.98047 640.01367 C 330.94415 640.15559 329.95437 641.52867 328.7793 643.06641 L 326.64258 645.86328 L 324.21289 646.35547 C 322.87636 646.62627 319.30132 647.29739 316.26953 647.84766 C 309.07691 649.15322 307.53507 649.80823 306.79883 651.87109 C 306.14139 653.71312 307.01901 655.63666 308.66992 655.97266 C 309.91182 656.22524 311.69891 655.69099 317.35156 653.37305 C 320.89973 651.91812 322.38739 651.41696 322.18359 651.74805 C 322.02161 652.01122 320.13848 654.54629 317.99805 657.38086 C 316.2449 659.70259 315.23359 661.07858 314.52344 662.14453 C 313.58173 662.30205 312.61442 662.54947 311.61523 662.91211 C 303.17204 665.98944 294.05614 675.84262 284.26562 692.46875 L 284.98438 687.21094 C 284.98438 686.69807 285.5667 683.19386 286.73438 676.69727 C 287.90205 670.15796 288.48633 665.64888 288.48633 663.16992 C 288.48633 662.35784 288.1867 661.95117 287.58789 661.95117 C 286.12081 661.95117 283.57591 663.61741 279.95312 666.95117 L 275.0625 671.35156 A 141.37082 141.37082 0 0 1 298.375 632.21484 C 298.47184 632.22961 298.52563 632.24216 298.63086 632.25781 C 300.13869 632.48194 303.3239 632.51641 307.32227 632.35352 C 310.7933 632.21405 313.64334 632.14694 313.6543 632.20703 C 313.6655 632.26743 311.49761 633.8209 308.83789 635.6582 C 306.17818 637.49554 303.60788 639.41972 303.125 639.93555 C 301.30253 641.88242 301.3387 643.70782 303.22656 645.07227 C 304.19921 645.77526 304.34798 645.8035 305.50195 645.5 C 306.181 645.32146 307.22189 644.7907 307.81641 644.32227 C 308.41094 643.85387 311.43991 640.86452 314.54688 637.67773 C 317.65385 634.49095 320.27035 631.8646 320.36133 631.8457 C 320.67144 631.77625 324.46596 631.63929 326.34961 631.60742 z M 344.91211 631.66211 C 345.36982 631.69388 346.39567 631.8419 347.56055 632.04883 L 350.38477 632.55078 L 352.66797 635.74805 C 353.92344 637.50643 354.91926 638.99585 354.88086 639.05859 C 354.84251 639.12092 353.2738 638.71829 351.39648 638.16406 C 349.51912 637.60998 347.88384 637.11838 347.76172 637.07227 C 347.49333 636.97207 344.55112 631.84913 344.66016 631.67188 C 344.6707 631.65473 344.75954 631.65152 344.91211 631.66211 z M 341.00977 633.4668 L 342.04492 636.51758 C 342.61445 638.1952 343.05109 639.61764 343.01367 639.67773 C 342.9765 639.73813 342.35135 641.36894 341.625 643.30273 C 340.89863 645.23649 340.19625 646.90999 340.06445 647.02148 C 339.92616 647.13827 339.84823 647.11086 339.87695 646.95703 C 339.90476 646.81005 339.52614 645.02014 339.03516 642.97852 C 338.03368 638.81359 337.9541 639.40709 340.07031 635.29492 L 341.00977 633.4668 z M 276.54102 674.96484 L 272.85742 695.35352 C 271.92927 701.25174 270.52297 709.03007 268.63672 718.68945 C 267.49327 724.63946 266.54108 729.82192 265.68164 734.63672 A 141.37082 141.37082 0 0 1 265.2168 723.18359 A 141.37082 141.37082 0 0 1 272.17578 679.37695 L 276.54102 674.96484 z M 307.79883 675.22266 C 308.60722 675.22266 309.00977 676.11896 309.00977 677.91406 C 309.00977 679.66641 308.57726 682.80932 307.70898 687.33984 C 307.31977 689.34866 307.0501 690.82142 306.90039 691.76172 C 304.20575 710.69581 302.85742 727.28101 302.85742 741.51367 C 302.85742 755.70355 304.90793 762.79688 309.00977 762.79688 C 311.97386 762.79688 317.3633 757.45468 325.17773 746.76953 C 325.25626 746.68857 325.43473 746.44925 325.57617 746.26758 C 325.61235 747.59687 325.67717 748.90527 325.80664 750.16797 C 326.64497 757.39114 328.86029 761.00195 332.45312 761.00195 C 335.35734 761.00195 338.23182 759.57065 341.07617 756.70703 C 343.95044 753.84339 346.46538 750.40236 348.62109 746.38477 C 348.38157 748.69276 348.26172 750.76567 348.26172 752.60352 C 348.26172 758.20253 349.40031 761.00195 351.67578 761.00195 C 353.05304 761.00195 355.79269 758.86586 359.89453 754.5918 C 363.33775 751.03001 366.93561 746.57205 370.66992 741.31836 C 371.30109 747.18952 372.29559 752.00374 373.68164 755.68164 C 375.02895 759.22912 376.617 761.00195 378.44336 761.00195 C 379.7308 761.00195 381.0622 760.81043 382.43945 760.42578 C 383.84665 760.08385 385.38778 758.97239 387.06445 757.0918 C 388.35189 755.59588 390.22458 751.76989 392.67969 745.61523 C 393.96712 749.54736 395.10376 751.51367 396.0918 751.51367 C 396.75049 751.51367 397.69433 751.02208 398.92188 750.03906 C 399.85791 749.30733 401.80476 746.83371 404.74805 742.64453 C 404.09312 747.08882 403.72656 750.30672 403.72656 751.96289 C 403.72656 754.61282 404.05615 756.79232 404.71484 758.50195 C 405.37351 760.16883 406.3623 761.00195 407.67969 761.00195 C 410.28451 760.83099 413.41368 758.58829 417.06641 754.27148 C 418.42888 752.64585 420.76192 749.54576 423.91992 745.19922 C 423.90336 745.6214 423.89258 746.04055 423.89258 746.44922 C 423.89258 750.29588 424.25212 753.54343 424.9707 756.19336 C 425.38987 757.64653 426.03212 758.80142 426.90039 759.65625 C 427.76866 760.5538 429.01212 761.00195 430.62891 761.00195 C 432.27561 761.00195 434.73063 759.50746 437.99414 756.51562 C 441.25765 753.48101 444.50667 749.27009 447.74023 743.88477 C 447.23123 746.87663 446.97656 749.74117 446.97656 752.47656 C 446.97656 758.16107 448.20309 761.00195 450.6582 761.00195 C 451.52648 761.00195 452.60514 760.40376 453.89258 759.20703 C 454.58122 758.56592 455.22542 757.94602 455.82422 757.34766 C 456.42304 756.70654 457.17014 755.81023 458.06836 754.65625 C 458.96656 753.50224 459.71563 752.53886 460.31445 751.76953 C 460.9432 751.0002 461.76719 749.86896 462.78516 748.37305 L 464.25977 746.30469 C 464.29647 747.62103 464.36196 748.91699 464.49023 750.16797 C 465.10963 755.50483 466.48433 758.8641 468.60742 760.25781 C 468.243 761.32902 467.96316 762.56528 467.7793 763.98242 C 467.63983 765.05758 467.39469 768.67536 467.23633 772.02148 C 467.07819 775.36761 466.89622 778.08518 466.83008 778.0625 C 466.76496 778.03922 465.57215 775.89205 464.17773 773.29102 C 461.00577 767.37405 460.9799 767.33464 459.79102 766.3125 C 458.59064 765.28069 457.82679 765.21685 456.51953 766.04102 C 454.70766 767.18334 454.32604 769.36401 455.55469 771.54688 C 455.87818 772.12163 458.50363 775.41095 461.39062 778.85742 L 466.64062 785.12305 L 466.45898 788.97656 C 466.35958 791.09616 466.24338 792.8159 466.19727 792.80078 C 466.15191 792.7846 464.66438 790.24823 462.89258 787.16406 C 461.12081 784.07993 459.40392 781.3236 459.07812 781.03711 C 457.53774 779.68321 454.77088 781.20319 454.9043 783.33008 C 454.93204 783.77209 455.66276 786.96099 456.5293 790.41797 C 457.39583 793.87499 458.08921 796.74031 458.07031 796.78906 C 458.05115 796.83631 456.81461 795.77623 455.32227 794.43359 L 452.60938 791.99414 L 451.96484 783.94141 C 451.22508 774.68886 451.05614 773.4971 450.28516 772.20703 C 449.84949 771.47804 449.45943 771.18467 448.52539 770.87891 C 447.49921 770.5431 447.18057 770.55818 446.32031 770.98047 C 445.47555 771.39482 445.24539 771.64773 444.875 772.55859 C 444.25731 774.07728 444.46181 775.46082 446.25391 781.83008 C 447.10241 784.84584 447.7706 787.36846 447.74414 787.44141 C 447.71515 787.51261 445.68907 785.75872 443.24023 783.54297 C 438.40735 779.17017 436.9171 778.02595 434.71484 777 C 432.98594 776.19443 431.34601 776.03543 429.87891 776.5293 C 428.94978 776.84224 428.6228 777.09819 427.63086 778.30469 C 425.95301 780.34514 425.76032 781.51797 426.71484 783.85156 C 427.37981 785.47778 427.56922 785.72451 429.27148 787.18945 C 430.43618 788.19178 433.13081 789.93516 436.62695 791.94727 C 439.66199 793.69394 442.12619 795.17107 442.10352 795.22852 C 442.0805 795.28634 439.39834 795.44439 436.14258 795.58008 C 432.88686 795.71561 429.65986 795.97439 428.9707 796.1543 C 426.36986 796.8337 425.41955 798.40719 426.29492 800.58594 C 426.74593 801.70842 426.85693 801.81175 428.00391 802.17383 C 428.67882 802.38662 429.85247 802.49734 430.61133 802.41797 C 431.37007 802.33845 435.55894 801.41835 439.92188 800.37305 C 444.28489 799.32778 447.92718 798.49906 448.01562 798.5293 C 448.41784 798.67299 454.16695 802.04468 454.13672 802.11914 C 454.11793 802.16525 452.26328 802.32941 450.01367 802.48438 C 442.24028 803.01993 440.1403 803.26566 439.56445 803.71289 C 438.72872 804.36112 438.26178 805.83646 438.60156 806.75977 C 439.13123 808.1992 439.16888 808.21245 448.58984 810.14258 C 450.94464 810.62507 452.78425 811.10416 452.67578 811.20508 C 452.56852 811.30652 450.9852 811.94428 449.15625 812.62305 L 445.83008 813.85742 L 443.49414 812.96875 C 442.2091 812.48059 438.80049 811.13253 435.91992 809.9707 C 429.08604 807.21444 427.41901 806.94217 425.68164 808.30469 C 424.1303 809.52132 423.84359 811.63418 425.07031 812.80859 C 425.99312 813.69198 427.80541 814.19695 433.87109 815.26172 C 437.67855 815.93009 439.21516 816.30384 438.86328 816.47656 C 438.58363 816.6138 435.61512 817.76038 432.26562 819.02539 C 427.0636 820.99003 425.87859 821.51085 424.14258 822.5918 C 421.04594 824.52 419.72818 826.20987 419.61328 828.4043 C 419.58021 829.03593 419.75522 829.97284 420.03906 830.67969 C 421.26529 833.73169 423.80621 834.37053 428.2207 832.74023 C 430.11062 832.04231 431.25295 831.4209 436.06055 828.47461 C 439.15606 826.57748 441.91758 824.91259 442.19727 824.77539 C 442.5477 824.6032 441.71992 826.19886 439.52734 829.91992 C 437.7792 832.88606 436.14146 835.8234 435.88672 836.44922 C 434.96451 838.71648 435.41815 840.43342 437.08594 840.98633 C 438.00867 841.29221 439.17763 841.09753 440.14258 840.47852 C 441.23312 839.7787 442.46012 837.32055 444.57812 831.58398 C 445.74524 828.42267 447.12443 824.71108 447.64453 823.33594 L 448.5918 820.83398 L 451.78125 818.875 C 453.53665 817.79738 455.02887 816.93631 455.09766 816.95898 C 455.16622 816.98351 454.55984 818.19779 453.75 819.6582 C 448.39199 829.31951 448.23098 829.64067 448.24609 830.60547 C 448.25906 831.47605 448.83485 832.21939 449.79492 832.60547 C 451.39438 833.24863 451.61386 833.07229 458.5957 825.51172 C 460.45614 823.49723 462.02187 821.86574 462.06836 821.88086 C 462.14558 821.90845 460.57494 828.83921 460.38672 829.30273 C 460.34998 829.39314 457.57437 831.63935 454.21875 834.29492 C 445.64432 841.08046 445.37145 841.3285 444.58398 843.04883 C 443.26327 845.93431 445.46875 848.53706 448.125 847.22852 C 449.32576 846.63698 450.23593 845.73263 454.4707 840.92383 C 456.69715 838.39559 458.5668 836.34451 458.625 836.36719 C 458.68343 836.38854 458.03028 839.39773 457.17188 843.05469 C 456.31347 846.71164 455.54169 850.50935 455.45703 851.49414 C 455.31247 853.17875 455.38902 854.59348 455.65039 855.76758 A 141.37082 141.37082 0 0 1 406.58789 864.55469 A 141.37082 141.37082 0 0 1 269.86719 759.14258 L 271.82422 759.14258 C 273.41106 750.08156 274.54965 743.05143 275.23828 738.05078 C 275.95685 733.05011 276.45124 729.63082 276.7207 727.79297 C 277.02011 725.95512 277.57247 723.19913 278.38086 719.52344 C 278.88985 717.17269 279.4142 715.07808 279.95312 713.24023 C 280.49205 711.35967 281.19618 709.15843 282.06445 706.63672 C 282.96267 704.11504 283.9065 701.84866 284.89453 699.83984 C 285.9125 697.78828 287.13903 695.58707 288.57617 693.23633 C 290.04325 690.88561 291.58439 688.74952 293.20117 686.82617 C 294.84789 684.90286 296.75054 683.00169 298.90625 681.12109 C 301.0919 679.19775 303.02256 677.74278 304.69922 676.75977 C 306.37588 675.734 307.4096 675.22266 307.79883 675.22266 z M 422.99414 676.56836 C 421.46718 676.56836 420.13382 677.57322 418.99609 679.58203 C 417.88829 681.5481 417.33594 683.5993 417.33594 685.73633 C 417.33594 688.81366 418.39765 690.35156 420.52344 690.35156 C 422.3498 690.35156 423.96782 689.34866 425.375 687.33984 C 426.81215 685.33103 427.5293 683.47135 427.5293 681.76172 C 427.5293 680.00937 427.15476 678.70444 426.40625 677.84961 C 425.65774 676.99481 424.52111 676.56836 422.99414 676.56836 z M 546.28516 701.50586 A 141.37082 141.37082 0 0 1 547.95898 723.18359 A 141.37082 141.37082 0 0 1 547.0625 739.06836 C 546.08541 740.46119 545.19677 741.70423 544.47656 742.66602 C 542.6502 745.14498 541.43864 746.38477 540.83984 746.38477 C 540.27101 746.38477 539.8815 746.10643 539.67188 745.55078 C 539.46225 744.99516 539.35742 743.92712 539.35742 742.3457 C 539.35742 739.05469 540.98846 728.90339 544.25195 711.89258 C 544.9687 708.18124 545.63647 704.784 546.28516 701.50586 z M 448.72852 709.77734 C 449.53692 709.77734 450.40389 710.05568 451.33203 710.61133 C 452.2901 711.12423 452.82943 711.67898 452.94922 712.27734 L 448.99609 737.08984 C 448.69669 738.84222 447.11062 741.27839 444.23633 744.39844 C 441.36206 747.47577 438.96696 749.01367 437.05078 749.01367 C 434.59567 749.01367 433.36719 746.29917 433.36719 740.87109 C 433.36719 736.51156 434.07131 731.9393 435.47852 727.15234 C 436.8857 722.32267 438.80138 718.21831 441.22656 714.8418 C 443.65173 711.46525 446.15364 709.77734 448.72852 709.77734 z M 531.36328 709.77734 C 532.17168 709.77734 533.04061 710.05568 533.96875 710.61133 C 534.92682 711.12423 535.4642 711.67898 535.58398 712.27734 L 531.63281 737.08984 C 531.33339 738.84222 529.74537 741.27839 526.87109 744.39844 C 523.99682 747.47577 521.60173 749.01367 519.68555 749.01367 C 517.23044 749.01367 516.00391 746.29917 516.00391 740.87109 C 516.00391 736.51156 516.70805 731.9393 518.11523 727.15234 C 519.52244 722.32267 521.4381 718.21831 523.86328 714.8418 C 526.28844 711.46525 528.78841 709.77734 531.36328 709.77734 z M 354.32617 710.16211 L 349.16016 741.70508 C 347.66314 743.97033 345.98717 746.04323 344.13086 747.92383 C 342.3045 749.80442 340.76335 750.74414 339.50586 750.74414 C 336.57169 750.74414 335.10352 747.54003 335.10352 741.12891 C 335.10352 736.64116 335.98741 732.00376 337.75391 727.2168 C 339.52038 722.42984 341.91547 718.39065 344.93945 715.09961 C 347.96344 711.8086 351.09261 710.16211 354.32617 710.16211 z M 493.00977 710.16211 L 487.84375 741.70508 C 486.34673 743.97033 484.67076 746.04323 482.81445 747.92383 C 480.98809 749.80442 479.44694 750.74414 478.18945 750.74414 C 475.25529 750.74414 473.78711 747.54003 473.78711 741.12891 C 473.78711 736.64116 474.67101 732.00376 476.4375 727.2168 C 478.20397 722.42984 480.59906 718.39065 483.62305 715.09961 C 486.64703 711.8086 489.7762 710.16211 493.00977 710.16211 z M 530.375 743.88477 C 529.86602 746.87663 529.61133 749.74117 529.61133 752.47656 C 529.61133 758.16107 530.83981 761.00195 533.29492 761.00195 C 534.1632 761.00195 535.23991 760.40376 536.52734 759.20703 C 537.21598 758.56592 537.86019 757.94602 538.45898 757.34766 C 539.0578 756.70654 539.80688 755.81023 540.70508 754.65625 C 541.6033 753.50224 542.3504 752.53886 542.94922 751.76953 C 543.57796 751.0002 544.40196 749.86896 545.41992 748.37305 L 545.78711 747.85742 A 141.37082 141.37082 0 0 1 503.21094 826.38086 C 501.79414 825.44201 499.82826 824.22261 497.86133 823.08984 C 494.8275 821.34238 492.36587 819.87008 492.38477 819.81641 C 492.40582 819.76387 495.03769 819.60626 498.23438 819.4668 C 504.33381 819.20038 505.53183 819.06136 506.72461 818.47852 C 509.38441 817.17885 509.11563 813.62617 506.29297 812.77344 C 504.8583 812.34004 503.25162 812.59431 495.03516 814.55664 C 490.41283 815.6606 486.55996 816.53805 486.47266 816.50781 C 486.07248 816.36483 480.32523 812.99438 480.35547 812.91992 C 480.37422 812.87381 482.2289 812.70965 484.47852 812.55469 C 494.86874 811.8385 495.15078 811.77605 495.78906 810.04102 C 496.36771 808.4682 495.8344 807.246 494.36133 806.76562 C 493.97491 806.63958 490.95518 805.9658 487.64844 805.26953 C 484.34173 804.57323 481.71682 803.92255 481.82227 803.82617 C 481.92541 803.72851 483.52007 803.08903 485.36523 802.4043 L 488.7207 801.1582 L 490.86328 802.00586 C 492.04219 802.47225 495.31772 803.77936 498.14258 804.91016 C 504.53429 807.46897 505.80391 807.80313 507.54102 807.37695 C 508.73009 807.08521 509.63107 806.18564 510.02539 804.89648 C 510.40792 803.64607 510.26489 803.03662 509.38672 802.19141 C 508.51066 801.34819 506.63352 800.83293 500.5918 799.77734 C 496.73403 799.1033 495.25593 798.7448 495.61914 798.56641 C 495.90347 798.4269 498.87703 797.27665 502.22656 796.01172 C 507.42855 794.04704 508.61356 793.52821 510.34961 792.44727 C 514.42783 789.9089 515.69148 787.41614 514.46094 784.35352 C 513.24582 781.32918 510.7467 780.67491 506.39453 782.24023 C 504.58157 782.89228 503.43933 783.5125 498.44336 786.55664 C 495.23405 788.51205 492.42416 790.20012 492.20117 790.30859 C 491.97735 790.41684 492.7376 788.90834 493.89062 786.95508 C 498.60906 778.96002 499.05753 778.05678 499.08398 776.50195 C 499.12488 774.0676 496.20833 772.98156 494.20117 774.68359 C 492.72689 775.93382 492.48388 776.49394 486.86523 791.68945 L 485.94727 794.17383 L 482.73242 796.14648 C 480.96417 797.23212 479.45935 798.10263 479.38867 798.07617 C 479.31815 798.05096 480.6899 795.46363 482.43555 792.32617 C 486.63411 784.77883 486.60586 784.85455 485.7832 783.25781 C 485.4387 782.58914 484.09305 782.06563 483.25781 782.27539 C 482.5623 782.45012 480.76856 784.22163 475.42578 790.01172 C 473.81676 791.75574 472.46213 793.16746 472.41602 793.15234 C 472.34379 793.12653 473.92821 786.17256 474.10547 785.73633 C 474.14179 785.64713 477.31797 783.07117 481.16602 780.01172 C 489.23285 773.59794 490.09625 772.70312 490.31055 770.52539 C 490.53063 768.28965 488.38716 766.81153 486.36719 767.80664 C 485.17599 768.39345 484.27736 769.28254 480.00781 774.10352 C 477.77018 776.63009 475.90026 778.68296 475.84961 778.66406 C 475.80002 778.64585 476.46191 775.63942 477.32031 771.98242 C 478.91973 765.16846 479.27573 762.8064 479.06445 760.42383 C 478.97825 759.45235 478.75991 758.62279 478.43555 757.92188 C 478.87786 757.54681 479.32084 757.1509 479.76172 756.70703 C 482.63599 753.84339 485.15093 750.40236 487.30664 746.38477 C 487.06713 748.69276 486.94727 750.76567 486.94727 752.60352 C 486.94727 758.20253 488.08392 761.00195 490.35938 761.00195 C 491.73665 761.00195 494.47631 758.86586 498.57812 754.5918 C 501.15672 751.92441 503.81674 748.78229 506.55859 745.16602 C 506.54114 745.59979 506.52734 746.02968 506.52734 746.44922 C 506.52734 750.29588 506.88688 753.54343 507.60547 756.19336 C 508.02463 757.64653 508.66884 758.80142 509.53711 759.65625 C 510.40538 760.5538 511.64689 761.00195 513.26367 761.00195 C 514.91038 761.00195 517.36539 759.50746 520.62891 756.51562 C 523.89242 753.48101 527.14146 749.27009 530.375 743.88477 z M 460.92578 791.79297 C 460.99181 791.76058 462.16954 793.00569 463.54102 794.56055 L 466.0332 797.38867 L 465.91602 800.45508 C 465.85101 802.14211 465.73701 803.5501 465.66406 803.58789 C 465.59082 803.62387 464.62934 802.83153 463.52734 801.82617 C 462.42535 800.82082 461.4538 799.91493 461.36914 799.8125 C 461.18175 799.58777 460.7557 791.8765 460.92578 791.79297 z M 477.64844 793.07617 C 477.94143 793.03463 475.3784 800.64879 475.03711 800.83398 C 474.89783 800.90957 473.66566 801.66334 472.29883 802.50977 C 470.93185 803.35593 469.79637 803.99312 469.78125 803.92773 C 469.74391 803.78366 471.05491 798.41661 471.23633 797.9707 C 471.37371 797.63304 477.27351 793.12909 477.64844 793.07617 z M 457.9043 804.25781 C 457.93801 804.24133 459.14745 804.90027 460.5918 805.72266 L 463.2168 807.21875 L 461.20508 808.0293 C 457.12583 809.67551 457.62512 809.67468 453.86328 808.05273 C 452.01479 807.25563 450.48153 806.54938 450.45508 806.48438 C 450.38115 806.30039 450.55615 806.24429 454.31055 805.23633 C 456.25281 804.7149 457.8665 804.27293 457.9043 804.25781 z M 477.07227 805.77539 C 477.92849 805.77671 478.74839 806.18984 480.64648 807.01758 C 482.5113 807.83086 484.01058 808.56447 483.97656 808.64648 C 483.9269 808.7686 479.04926 810.17307 477.01758 810.65039 C 476.67391 810.73112 475.50728 810.22931 473.87305 809.29883 L 471.27539 807.81836 L 473.28711 807.00781 C 475.32439 806.18612 476.21604 805.77407 477.07227 805.77539 z M 464.74609 811.01953 L 463.98828 814.17578 C 463.57147 815.9124 463.17753 817.36039 463.11328 817.39062 C 463.04914 817.42215 461.63995 818.47659 459.98047 819.73438 C 458.32099 820.99213 456.82274 822.04373 456.65039 822.06641 C 456.47162 822.09286 456.41497 822.02543 456.52344 821.91016 C 456.6262 821.79979 457.26737 820.06893 457.94727 818.06445 C 459.33397 813.97516 458.94673 814.43739 462.96289 812.07031 L 464.74609 811.01953 z M 468.82422 811.45117 C 468.89705 811.41546 469.91813 812.26313 471.09375 813.33398 L 473.23242 815.28125 L 473.45703 819.23438 C 473.58176 821.40878 473.63022 823.21208 473.56445 823.24609 C 473.49824 823.27856 472.37841 822.09174 471.07617 820.60938 C 469.77386 819.12712 468.64149 817.82968 468.5625 817.72461 C 468.38747 817.49485 468.63562 811.54339 468.82422 811.45117 z M 476.42188 818.24805 C 476.44111 818.20073 477.67253 819.2573 479.16016 820.5957 L 481.86523 823.02734 L 482.55469 831.53516 C 482.93359 836.21395 483.38184 840.57535 483.55078 841.22656 C 483.59234 841.38679 483.64964 841.52332 483.69922 841.67188 A 141.37082 141.37082 0 0 1 479.35156 844.39062 C 479.24203 844.09341 479.10769 843.79262 478.9375 843.49023 C 478.61401 842.91548 475.98664 839.62616 473.09961 836.17969 L 467.85156 829.91406 L 468.03125 826.06055 C 468.13065 823.94095 468.24881 822.21926 468.29492 822.23438 C 468.33994 822.25048 469.82469 824.78827 471.5957 827.87305 C 473.36668 830.95786 475.0848 833.71584 475.41211 834.00195 C 477.0124 835.40102 479.78077 833.78833 479.55664 831.58789 C 479.50577 831.08839 478.77194 827.90097 477.92578 824.50586 C 477.07958 821.11079 476.40298 818.2968 476.42188 818.24805 z M 486.74609 827.5957 C 486.77508 827.52453 488.8048 829.27757 491.25586 831.49219 C 492.37602 832.50426 493.33731 833.34309 494.23242 834.10547 A 141.37082 141.37082 0 0 1 489.43164 837.73633 C 489.1601 836.58214 488.77911 835.14853 488.23438 833.20898 C 487.38719 830.19247 486.71964 827.66751 486.74609 827.5957 z M 467.64844 836.96875 C 467.71299 836.99184 468.95688 839.235 470.41211 841.95312 C 471.96348 844.85081 472.93008 846.55991 473.69336 847.61133 A 141.37082 141.37082 0 0 1 466.70312 851.13867 C 466.92572 849.32284 467.10369 846.45184 467.33594 841.27148 C 467.4429 838.88263 467.58381 836.94607 467.64844 836.96875 z "
       style="fill:none;fill-rule:evenodd;stroke:#ff0000;stroke-width:0.355276;stroke-miterlimit:4;stroke-dasharray:none"
       id="path1664-2" />
    <g
       style="font-size:29.0759px;line-height:1.25;font-family:sq;-inkscape-font-specification:sq;stroke-width:0.1;stroke-miterlimit:4;stroke-dasharray:none;fill:none;stroke:#ff0000;stroke-opacity:1"
       id="text878-9-2-9-8"
       transform="scale(0.83696675,1.1947906)"
       aria-label="Navidad" />
  </g>
</svg>
