<?xml version="1.0" encoding="UTF-8" standalone="no"?>
<!-- Created with Inkscape (http://www.inkscape.org/) -->

<svg
   xmlns:dc="http://purl.org/dc/elements/1.1/"
   xmlns:cc="http://creativecommons.org/ns#"
   xmlns:rdf="http://www.w3.org/1999/02/22-rdf-syntax-ns#"
   xmlns:svg="http://www.w3.org/2000/svg"
   xmlns="http://www.w3.org/2000/svg"
   xmlns:sodipodi="http://sodipodi.sourceforge.net/DTD/sodipodi-0.dtd"
   xmlns:inkscape="http://www.inkscape.org/namespaces/inkscape"
   width="210mm"
   height="297mm"
   viewBox="0 0 210 297"
   version="1.1"
   id="svg5141"
   inkscape:version="0.92.2 5c3e80d, 2017-08-06"
   sodipodi:docname="Imagenes_Binaria.svg">
  <defs
     id="defs5135" />
  <sodipodi:namedview
     id="base"
     pagecolor="#ffffff"
     bordercolor="#666666"
     borderopacity="1.0"
     inkscape:pageopacity="0.0"
     inkscape:pageshadow="2"
     inkscape:zoom="0.7"
     inkscape:cx="400"
     inkscape:cy="788.57143"
     inkscape:document-units="mm"
     inkscape:current-layer="layer1"
     showgrid="false"
     inkscape:window-width="1280"
     inkscape:window-height="690"
     inkscape:window-x="0"
     inkscape:window-y="1"
     inkscape:window-maximized="1" />
  <metadata
     id="metadata5138">
    <rdf:RDF>
      <cc:Work
         rdf:about="">
        <dc:format>image/svg+xml</dc:format>
        <dc:type
           rdf:resource="http://purl.org/dc/dcmitype/StillImage" />
        <dc:title></dc:title>
      </cc:Work>
    </rdf:RDF>
  </metadata>
  <g
     inkscape:label="Capa 1"
     inkscape:groupmode="layer"
     id="layer1">
    <path
       style="fill:#000000;stroke-width:0.7;stroke:#0000ff;stroke-opacity:1;stroke-miterlimit:4;stroke-dasharray:none"
       d="m 68.164109,124.40615 c -9.81475,-6.01927 -12.59942,-7.83028 -12.49977,-8.12924 0.0427,-0.12801 0.17202,-0.23689 0.28745,-0.24198 0.11543,-0.005 2.31511,1.29287 4.88818,2.88433 2.57307,1.59146 7.20372,4.43228 10.29034,6.31294 4.96778,3.02683 6.40287,4.12611 5.30203,4.06138 -0.1819,-0.0107 -3.9026,-2.21004 -8.26823,-4.88743 z m 18.25684,3.43172 c -0.43624,-0.22746 -0.97202,-0.56801 -1.19062,-0.75677 -0.21861,-0.18877 -3.27846,-2.08031 -6.79968,-4.20342 -8.48529,-5.11621 -12.28224,-7.58742 -12.10312,-7.87724 0.19234,-0.31121 0.61966,-0.0634 11.68552,6.77631 8.29425,5.12662 10.26683,6.48256 9.42155,6.47631 -0.12127,-7.9e-4 -0.57741,-0.18773 -1.01365,-0.41519 z m 49.403031,-3.16308 c -2.78191,-0.94768 -6.1258,-2.6882 -14.48736,-7.54079 -8.5896,-4.98493 -12.46598,-7.37903 -17.05689,-10.53454 -3.17295,-2.18089 -11.124111,-8.068026 -13.890621,-10.284766 l -1.32292,-1.06003 -6.35,1.95126 c -3.4925,1.0732 -7.32976,2.25387 -8.52725,2.62372 l -2.17726,0.672436 0.1585,1.51645 c 0.28321,2.70963 -1.42355,5.40114 -4.2344,6.67751 -1.70892,0.77599 -2.99981,0.65348 -5.30117,-0.50311 l -2.01318,-1.01176 -0.76189,1.34999 c -0.82667,1.46479 -2.57219,3.19254 -3.63274,3.59576 -0.36566,0.13902 -1.22903,0.25277 -1.91859,0.25277 -1.88162,0 -3.60991,-0.99896 -5.96128,-3.44567 -1.11558,-1.16082 -2.17324,-2.10905 -2.35036,-2.10718 -0.17713,0.002 -1.74354,0.35906 -3.48094,0.79375 -3.69475,0.92443 -5.95149,1.01714 -7.28964,0.29948 -2.47917,-1.32959 -3.35063,-4.24134 -2.03639,-6.80409 0.66843,-1.303436 2.75882,-3.496766 4.87788,-5.118086 l 1.1242,-0.86014 -0.1674,-1.42433 c -0.14276,-1.21471 -0.0628,-1.63815 0.54346,-2.87726 1.5489,-3.16586 5.75775,-4.98386 8.40891,-3.63222 l 0.95881,0.48883 -0.13626,-0.83969 c -0.31087,-1.91561 1.81373,-4.89604 4.35632,-6.11116 1.41723,-0.67731 3.59338,-0.81391 4.41279,-0.27702 0.36042,0.23616 0.75771,0.42938 0.88286,0.42938 0.30535,0 7.83967,-5.25542 7.93882,-5.53757 0.0429,-0.12202 -0.8688,-1.36088 -2.02595,-2.75302 -8.00521,-9.63089 -12.77638,-16.90205 -13.91783,-21.21045 -0.61435,-2.31887 -0.80563,-5.87747 -0.42211,-7.85323 1.14763,-5.91224 4.72084,-8.15406 12.99667,-8.15406 7.88481,0 14.8546,2.05621 21.28722,6.28009 7.35,4.82627 17.567861,14.4839 25.064531,23.69026 0.85758,1.05315 1.16184,1.2403 2.24896,1.38331 0.69147,0.091 3.01179,0.45547 5.15628,0.81002 2.14448,0.35456 3.96019,0.64465 4.03489,0.64465 0.0747,0 0.13583,-0.4578 0.13583,-1.01732 0,-1.17696 0.40751,-1.63496 2.13438,-2.39884 2.85077,-1.26103 7.01491,-0.86804 8.231,0.77681 0.72427,0.97963 0.90597,0.98519 1.09631,0.0335 0.19892,-0.99463 1.09781,-1.54555 3.54142,-2.17052 2.37156,-0.60655 5.28499,-0.66841 6.55174,-0.13913 0.93563,0.39094 2.63869,2.49398 4.97962,6.14917 0.66755,1.04234 1.42953,1.96013 1.69328,2.03954 0.26375,0.0794 2.44407,0.57004 4.84517,1.09028 7.77014,1.68356 12.42196,2.97175 13.3856,3.70676 1.22813,0.93674 2.11281,2.17631 2.50823,3.51442 0.4439,1.50213 -0.1027,2.73337 -1.53114,3.44902 -1.40489,0.70384 -1.97813,0.81283 -6.51142,1.23794 -2.20815,0.20707 -5.28816,0.5192 -6.84448,0.69362 -2.74223,0.30733 -2.83936,0.34051 -3.14318,1.07399 -0.73909,1.78433 -2.56397,2.59438 -5.85003,2.59676 -2.42703,0.002 -3.21378,-0.25887 -4.47267,-1.4817 l -0.94971,-0.92251 -0.63779,0.93179 c -1.26022,1.84116 -4.41969,2.94055 -6.48848,2.25779 -0.56212,-0.18552 -1.69158,-0.97594 -2.50992,-1.7565 l -1.48788,-1.4192 -1.86508,0.44762 c -1.78448,0.42827 -1.8502,0.47138 -1.52079,0.99746 0.18937,0.30242 1.76895,2.81204 3.51019,5.57694 1.74124,2.76488 3.67973,5.96756 4.30778,7.117036 l 1.14189,2.08996 0.68204,-0.78747 c 0.37513,-0.43309 1.9322,-2.533216 3.46017,-4.666916 1.52797,-2.1337 2.8525,-3.88069 2.94341,-3.88218 0.0909,-0.002 1.05964,0.6504 2.15274,1.4487 l 1.98746,1.45142 0.12067,1.92202 c 0.15178,2.417456 -0.20827,8.615536 -0.70716,12.173436 -0.20924,1.49223 -0.29818,2.79301 -0.19763,2.8906 0.10054,0.0976 1.25437,0.79322 2.56405,1.54582 2.58798,1.48713 4.47522,2.9167 4.90116,3.71259 0.2105,0.39332 0.15187,0.62362 -0.26488,1.04037 -0.69041,0.69041 -1.83152,0.68836 -5.44912,-0.01 -1.55325,-0.29975 -2.96243,-0.49191 -3.13151,-0.42703 -0.16908,0.0649 -0.70675,1.16926 -1.19483,2.45417 -1.1697,3.07933 -1.89583,3.81174 -3.77015,3.80275 -0.78886,-0.004 -2.25722,-0.29558 -3.33496,-0.66272 z m 4.15912,-1.69638 c 0.53355,-0.53355 1.60288,-3.61123 1.60288,-4.61329 0,-0.38552 -0.30784,-0.73921 -0.93939,-1.07932 -1.41507,-0.76207 -2.76478,-2.37953 -2.76478,-3.31327 0,-1.25684 0.93661,-1.70197 3.1846,-1.51351 2.14497,0.17983 1.87896,0.6082 2.51375,-4.04808 0.56632,-4.15414 0.93629,-10.233696 0.66539,-10.934286 -0.1223,-0.31629 -0.57615,-0.78072 -1.00855,-1.03206 -0.97441,-0.5664 -0.70329,-0.86091 -4.23677,4.602246 l -2.6811,4.14526 0.51676,1.80702 c 0.28422,0.99386 0.51411,2.10505 0.51087,2.46932 l -0.006,0.6623 -0.51406,-0.66146 c -0.28274,-0.36381 -1.96718,-3.22131 -3.7432,-6.35 -3.96412,-6.983306 -5.93461,-10.275906 -7.97592,-13.327376 l -1.57016,-2.34718 -1.09609,0.15023 c -4.74373,0.65016 -6.1443,0.47443 -7.49872,-0.94087 -1.47685,-1.54322 -8.77673,-11.09796 -10.9393,-14.31833 -1.15772,-1.72402 -2.10495,-3.40746 -2.10495,-3.741 0,-1.05458 0.80234,-1.70404 2.48244,-2.00943 0.85602,-0.15559 1.85412,-0.20817 2.21801,-0.11684 l 0.66161,0.16605 -0.72724,-0.87377 c -3.73284,-4.48499 -11.673181,-12.60525 -15.361611,-15.70969 -4.86486,-4.09461 -4.79093,-4.0511 -5.02745,-2.95854 -0.50081,2.31337 -3.34255,6.39951 -4.99641,7.18431 -1.6509,0.78341 -2.66598,0.30975 -6.35609,-2.9659 -1.00317,-0.89048 -2.7857,-2.26415 -3.9612,-3.05257 -2.85945,-1.91791 -8.92326,-5.38294 -10.52495,-6.01427 -2.57909,-1.01658 -6.80748,-0.43812 -7.59826,1.03946 -0.15726,0.29385 -0.28593,1.35649 -0.28593,2.36142 0,3.41567 1.62177,8.27783 4.23575,12.69907 2.87915,4.86973 11.77159,16.28874 14.45428,18.56111 0.41627,0.3526 1.49061,1.28076 2.38742,2.06258 1.70504,1.4864 2.28005,1.497 1.52042,0.028 -0.91044,-1.76061 -0.73925,-5.67367 0.3197,-7.30762 l 0.3935,-0.60716 0.84603,0.71042 c 0.46531,0.39073 2.33431,2.10533 4.15332,3.81021 1.81901,1.70489 3.75378,3.48646 4.29948,3.95905 0.79339,0.6871 0.99219,1.04454 0.99219,1.78405 0,1.22906 -0.72704,2.7055 -1.50733,3.06103 -0.37659,0.17158 -0.57249,0.43626 -0.48727,0.65833 0.0784,0.20426 0.14251,0.9481 0.14251,1.65296 v 1.28158 l 2.84427,2.35359 c 1.56435,1.29447 5.22552,4.13604 8.13594,6.3146 4.66552,3.492316 6.234381,4.628846 10.845261,7.856646 7.05713,4.94027 16.60798,10.96958 22.62453,14.28251 8.38245,4.61569 10.23728,5.29685 11.3617,4.17243 z m -7.42289,-6.84439 c -0.63838,-0.70001 -2.22886,-2.63477 -3.53441,-4.29947 -1.30554,-1.6647 -2.44023,-3.08626 -2.52152,-3.15902 -0.0813,-0.0728 -1.76491,-2.15636 -3.74137,-4.63021 C 107.89095,85.430744 99.519289,75.522094 91.019869,66.474494 c -0.82022,-0.87312 -2.13112,-2.29443 -2.91312,-3.15845 -0.78199,-0.86402 -2.28217,-2.47137 -3.33374,-3.57187 -1.05156,-1.10051 -1.91476,-2.15875 -1.91822,-2.35164 -0.009,-0.50313 2.08352,-4.01491 2.39236,-4.01491 0.14226,0 2.02544,1.75617 4.18486,3.9026 3.6929,3.6707 6.90451,7.28414 9.95293,11.19823 6.356561,8.16164 22.016391,28.94348 30.408061,40.353886 4.01351,5.45729 4.21994,5.7981 4.33225,7.15239 0.0696,0.8388 0.0108,1.42205 -0.14322,1.42205 -0.14362,0 -0.78345,-0.57274 -1.42182,-1.27276 z m 0.12859,-1.70381 c -0.55796,-0.93596 -3.39094,-4.43177 -3.59148,-4.43177 -0.12773,0 0.63568,1.06887 1.69645,2.37526 1.82278,2.24484 2.34539,2.81198 1.89503,2.05651 z m -3.96972,-5.29166 c -0.37747,-0.63012 -24.56198,-32.890636 -27.32247,-36.446346 -1.525171,-1.96453 -4.028641,-5.06016 -5.563281,-6.87917 -3.26381,-3.86858 -10.05691,-10.89785 -10.41603,-10.77814 -0.13637,0.0455 -0.54615,0.58759 -0.91061,1.20474 l -0.66267,1.12209 2.75426,2.83659 c 1.51485,1.56013 3.93555,4.14628 5.37935,5.74701 1.4438,1.60073 3.7651,4.10104 5.15845,5.55625 2.33072,2.4342 4.651311,5.15859 11.381051,13.36146 6.73811,8.21306 10.07499,12.32238 14.77953,18.200816 2.81947,3.52298 5.23751,6.40543 5.37343,6.40543 0.13592,0 0.15796,-0.14883 0.049,-0.33073 z m 3.60259,0.856 c -0.74485,-0.74485 -0.68613,-1.99517 0.11844,-2.52235 0.49096,-0.32169 0.76925,-0.3546 1.17271,-0.13867 1.10518,0.59147 1.04734,2.36013 -0.0942,2.88024 -0.56889,0.2592 -0.7521,0.22565 -1.19697,-0.21922 z m 1.19452,-1.32265 c 0,-0.94146 -0.7706,-0.86 -0.87971,0.093 -0.0695,0.6071 0.006,0.73302 0.39687,0.65783 0.313,-0.0603 0.48284,-0.32438 0.48284,-0.75082 z m -2.67237,-1.52178 c -0.53823,-0.35938 -0.94581,-1.4291 -0.78644,-2.06406 0.1242,-0.49484 0.0702,-0.59606 -0.25194,-0.47244 -0.64996,0.24942 -1.44863,-0.67 -1.44863,-1.66764 0,-0.76545 -0.0885,-0.88504 -0.65536,-0.88504 -0.85709,0 -1.55986,-1.06063 -1.40443,-2.119606 0.099,-0.67467 0.0431,-0.77423 -0.36237,-0.64553 -1.06595,0.33832 -2.29699,-1.9191 -1.60868,-2.94994 0.33872,-0.50727 1.38668,-0.93463 1.89572,-0.77307 0.72783,0.23101 1.23036,1.62616 0.9005,2.50005 -0.25748,0.68216 -0.23759,0.70453 0.52663,0.59237 0.97197,-0.14265 1.50174,0.46641 1.50174,1.726506 0,0.73715 0.0961,0.87547 0.60855,0.87547 0.87227,0 1.24354,0.48975 1.24354,1.64042 0,0.80717 0.0979,1.00542 0.49677,1.00542 0.8143,0 1.21641,0.77607 1.12119,2.16391 -0.0617,0.90014 -1.09831,1.52622 -1.77679,1.07318 z m 1.06113,-1.28625 c 0.0908,-0.23673 0.0245,-0.59989 -0.1474,-0.80703 -0.26992,-0.32522 -0.36574,-0.32345 -0.70221,0.013 -0.44705,0.44705 -0.25178,1.22442 0.30757,1.22442 0.20728,0 0.4512,-0.19368 0.54204,-0.43041 z m -1.74543,-2.96341 c 0.069,-0.69851 -0.009,-0.83952 -0.46302,-0.83952 -0.42307,0 -0.54594,0.16872 -0.54594,0.74966 0,1.39679 0.87221,1.47448 1.00896,0.0899 z m -1.935,-2.56293 c 0,-0.611916 -0.11853,-0.790126 -0.52554,-0.790126 -0.55014,0 -0.82213,0.664316 -0.55597,1.357926 0.27648,0.72049 1.08151,0.29785 1.08151,-0.5678 z m -1.82282,-2.664606 c 0.11199,-0.4462 0.0349,-0.82055 -0.22174,-1.07723 -0.34812,-0.34812 -0.4434,-0.34336 -0.82806,0.0413 -0.44401,0.44401 -0.57499,1.22669 -0.25828,1.5434 0.42237,0.42237 1.14508,0.142 1.30808,-0.50747 z m -3.75749,-1.42549 c -0.8324,-0.33661 -1.30605,-1.6942 -0.97145,-2.78442 0.26256,-0.85551 0.24994,-0.88199 -0.31766,-0.66618 -1.32305,0.50302 -2.66025,-0.98524 -2.37394,-2.64213 0.21708,-1.25629 0.8144,-1.85209 1.85683,-1.85209 1.32878,0 2.06131,1.07379 1.8669,2.73663 -0.12634,1.08065 -0.0861,1.25697 0.25668,1.12543 0.43177,-0.16569 1.42903,0.25616 1.75317,0.74161 0.10692,0.16012 0.19621,0.7885 0.19844,1.3964 0.003,0.88164 -0.137,1.21623 -0.69309,1.65364 -0.77061,0.60617 -0.78858,0.60949 -1.57588,0.29111 z m 1.20141,-1.18194 c 0.17385,-0.20949 0.27773,-0.7155 0.23083,-1.12448 -0.11627,-1.01408 -1.14464,-1.18884 -1.56513,-0.26598 -0.54169,1.18888 0.55399,2.33067 1.3343,1.39046 z m -2.45509,-3.26385 c 1.0696,-0.68038 0.18997,-3.20127 -0.88849,-2.5463 -0.26378,0.1602 -0.51749,0.67399 -0.5638,1.14176 -0.12346,1.24705 0.59998,1.9467 1.45229,1.40454 z m -30.695781,-2.56204 c -2.54967,-0.90909 -4.16341,-3.99372 -4.13048,-7.89532 0.014,-1.66287 0.44721,-2.95662 1.41462,-4.22495 0.71392,-0.936 0.71765,-0.96119 0.27038,-1.82611 -0.66928,-1.29425 -0.79255,-4.05163 -0.26261,-5.87454 0.71332,-2.45374 0.80322,-2.42522 5.13622,1.62936 6.66773,6.2393 6.12977,5.63316 6.12977,6.90663 0,0.97627 -0.14973,1.29918 -0.99219,2.1397 -0.936,0.93386 -0.98721,1.07068 -0.90446,2.41627 0.24825,4.03643 -1.84,7.14254 -4.77558,7.10328 -0.47762,-0.006 -1.32617,-0.17483 -1.88567,-0.37432 z m 2.55817,-8.94063 c 0.0787,-0.32742 0.22458,-1.56107 0.32423,-2.74144 0.17354,-2.05565 0.15478,-2.16464 -0.4451,-2.58554 -0.60044,-0.42131 -0.63337,-0.41464 -0.79834,0.16174 -0.28135,0.98303 -0.24663,4.69623 0.0491,5.24878 0.36335,0.67892 0.69456,0.64712 0.87013,-0.0835 z m 4.26494,-1.58023 c 0.22653,-0.32342 0.41188,-0.7336 0.41188,-0.9115 0,-0.17791 -1.80699,-1.99961 -4.01554,-4.04824 -2.84296,-2.6371 -4.07794,-3.62642 -4.22928,-3.38797 -0.32346,0.50967 -0.26357,3.52762 0.0852,4.29309 0.47165,1.03515 1.18196,0.86687 1.37258,-0.32517 0.0879,-0.5495 0.31144,-1.20229 0.49683,-1.45065 0.30601,-0.40994 0.47732,-0.32801 1.85843,0.88871 1.28399,1.13116 1.52136,1.4789 1.52136,2.22878 0,0.48868 0.12076,0.96315 0.26836,1.05437 0.1476,0.0912 0.50721,0.63403 0.79913,1.20624 0.6094,1.19452 0.8565,1.27263 1.43105,0.45234 z m 1.058,-13.1082 c -1.53882,-1.0686 -1.57772,-3.93691 -0.064,-4.71968 1.751811,-0.90589 3.330351,0.44913 3.040521,2.60999 -0.23034,1.71733 -1.869001,2.87878 -2.976511,2.10969 z m 1.725811,-1.36761 c 0.36985,-0.69106 0.34633,-1.95579 -0.0436,-2.34573 -0.790731,-0.79074 -1.887351,-0.0528 -1.887351,1.27 0,1.42282 1.34438,2.17177 1.930961,1.07573 z m -5.722431,-3.07925 c -0.60538,-0.60539 -0.6673,-0.84107 -0.56021,-2.1324 0.14982,-1.80668 0.81768,-2.5845 2.21912,-2.5845 1.35412,0 1.95617,0.8042 1.95617,2.61301 0,1.82126 -0.69725,2.78449 -2.0156,2.78449 -0.63425,0 -1.12969,-0.21082 -1.59948,-0.6806 z m 2.40945,-0.96577 c 0.54959,-0.78465 0.51962,-1.60153 -0.0862,-2.3497 -0.4396,-0.54289 -0.57939,-0.57806 -1.19062,-0.29957 -0.66632,0.3036 -0.84298,0.794 -0.72964,2.02539 0.11454,1.24424 1.31131,1.61636 2.00647,0.62388 z m -6.16706,-2.68131 c -0.65242,-0.69447 -0.98387,-2.16458 -0.72266,-3.20531 0.43551,-1.73522 2.49204,-2.3277 3.74175,-1.07799 1.0594,1.05939 0.84266,3.62436 -0.38597,4.56767 -0.70433,0.54076 -1.98821,0.40211 -2.63312,-0.28437 z m 2.27499,-0.76555 c 0.45041,-0.57566 0.56886,-1.53108 0.28926,-2.33314 -0.21426,-0.61464 -0.42792,-0.77571 -1.02897,-0.77571 -0.8461,0 -1.30634,0.6059 -1.30634,1.71979 0,0.38294 0.12325,0.92654 0.27389,1.20802 0.30817,0.57582 1.37779,0.6851 1.77216,0.18104 z m 58.278941,61.886836 c 0,-0.36252 -1.2296,-1.32321 -2.91041,-2.27393 -3.09503,-1.75064 -4.97537,-2.45513 -6.94012,-2.60022 -1.53922,-0.11366 -1.80537,-0.0673 -1.96235,0.34178 -0.12485,0.32535 0.0182,0.63837 0.45783,1.00156 0.92243,0.7621 5.18325,2.74672 6.87089,3.20034 1.26809,0.34085 4.48416,0.57786 4.48416,0.33047 z m -94.476461,-8.65522 c 1.02094,-0.73956 2.39116,-2.94598 2.39888,-3.86284 0.001,-0.16871 -0.73102,-1.18074 -1.62765,-2.24896 -2.24887,-2.67923 -4.10031,-5.587086 -6.03775,-9.482836 -1.41482,-2.84487 -2.90646,-5.02708 -3.43625,-5.02708 -0.0839,0 -0.37791,0.41854 -0.6534,0.9301 -0.90605,1.68242 -3.91789,3.75026 -5.653,3.88117 -0.78698,0.0594 -0.85781,0.13118 -0.71009,0.71975 0.3405,1.35666 2.825,6.259366 4.28551,8.456666 0.83504,1.2563 2.30985,3.07677 3.27736,4.04549 3.40972,3.41399 5.918,4.21002 8.15639,2.58854 z m 10.27771,-2.77498 c 2.96858,-1.24035 3.96875,-4.24825 2.61114,-7.852676 -1.00421,-2.66616 -3.02245,-6.50592 -4.73983,-9.01771 -1.44946,-2.11993 -6.33575,-7.59094 -6.77965,-7.59094 -0.10148,0 -0.33029,0.40313 -0.50845,0.89584 -0.8508,2.35284 -3.85198,4.52526 -6.01403,4.35331 -0.64717,-0.0515 -1.17667,-0.007 -1.17667,0.0999 0,0.40355 1.62804,4.26842 2.67945,6.36085 2.66625,5.30613 7.55087,11.082566 10.55335,12.480126 1.69837,0.79054 2.06206,0.81978 3.37469,0.27133 z m -24.94187,-1.17839 c 1.01865,-0.30673 2.00134,-0.60715 2.18376,-0.66758 0.21934,-0.0727 -0.073,-0.71742 -0.86318,-1.90377 -0.65716,-0.98663 -1.73286,-2.84068 -2.39043,-4.120096 l -1.19558,-2.32623 -1.51312,1.07569 c -2.93173,2.084186 -4.29124,3.694236 -4.29124,5.082026 0,1.44852 1.08997,2.94587 2.50816,3.44558 0.85736,0.3021 3.55787,0.0178 5.56163,-0.58562 z m 32.27917,-8.318996 c 1.30969,-0.39402 4.57903,-1.42179 7.2652,-2.28392 2.68617,-0.86214 5.0662,-1.56752 5.28896,-1.56752 0.44513,0 -0.01,-0.46689 -2.13037,-2.18712 -1.17628,-0.95414 -1.82483,-1.22685 -1.82483,-0.76732 0,0.12131 -0.45796,0.71662 -1.01769,1.32292 -0.95358,1.03291 -1.10776,1.10219 -2.4474,1.09977 -3.06797,-0.006 -5.373,-1.9368 -6.04357,-5.06355 -0.35624,-1.66111 -0.36157,-4.21229 -0.0107,-5.1351 0.25682,-0.67548 0.12251,-0.8517 -2.71198,-3.55824 l -2.98219,-2.84756 -0.92604,0.70387 c -0.50932,0.38713 -1.94265,1.38273 -3.18518,2.21245 -2.0293,1.35509 -3.4294,2.45068 -3.4294,2.68352 0,0.0466 0.69176,0.78608 1.53725,1.64334 3.44922,3.49722 5.93144,7.02713 8.18105,11.63407 0.81723,1.67359 1.61407,2.99427 1.77076,2.93484 0.15669,-0.0594 1.35646,-0.43042 2.66615,-0.82445 z m 62.188031,-9.90501 c 1.28583,-0.58408 2.50259,-1.95322 2.50259,-2.81601 0,-0.34479 -1.05827,-2.68714 -2.35172,-5.20521 -1.29344,-2.51808 -2.9834,-6.00708 -3.75547,-7.75333 -0.77206,-1.74625 -1.43853,-3.22294 -1.48103,-3.28154 -0.0425,-0.0586 -0.33748,0.22426 -0.65551,0.62855 -0.91578,1.16423 -2.44068,1.71448 -4.76977,1.72114 -1.11832,0.003 -2.33871,-0.11031 -2.71198,-0.25223 -0.37328,-0.14192 -0.67869,-0.19152 -0.67869,-0.11022 0,0.72829 1.27951,4.84867 1.96294,6.32125 0.83645,1.80227 5.78992,8.69402 7.06081,9.82369 1.63899,1.45685 3.0967,1.73296 4.87783,0.92391 z m 11.59479,-0.92582 c 0.48022,-0.20065 1.14385,-0.70666 1.47474,-1.12448 0.94378,-1.19171 0.67228,-3.53674 -0.98072,-8.47092 -1.48954,-4.44625 -2.72238,-7.27833 -4.05343,-9.31154 -0.87767,-1.34065 -0.8884,-1.34703 -1.42263,-0.84578 -0.29605,0.27779 -1.37172,0.89802 -2.39037,1.3783 -1.67797,0.79113 -2.08327,0.87353 -4.31137,0.87654 l -2.45928,0.003 0.16249,0.66145 c 0.68241,2.77789 5.40084,13.03513 6.90722,15.01539 1.41805,1.86413 4.85091,2.74631 7.07335,1.81772 z m -24.08337,-1.20439 c 1.86856,-0.27893 3.45425,-0.56402 3.52376,-0.63353 0.0695,-0.0695 -0.81799,-1.5371 -1.97223,-3.26131 -2.66984,-3.98819 -4.54337,-8.2619 -4.55608,-10.39283 -0.002,-0.37378 -0.10549,-0.83964 -0.22947,-1.03526 -0.30024,-0.47373 -2.85043,-0.98648 -8.10004,-1.6286 -6.00326,-0.73431 -8.643,-0.69399 -8.96183,0.13688 -0.17787,0.46351 8.76576,12.9551 11.42954,15.96368 1.26925,1.43354 3.51796,1.64937 8.86635,0.85097 z m -43.845101,-3.53899 c 0.30822,-2.40089 0.30413,-2.44083 -0.31563,-3.07986 -0.34534,-0.35609 -0.70756,-0.56776 -0.80493,-0.4704 -0.0974,0.0974 -0.19027,1.35132 -0.20645,2.78655 -0.0211,1.87568 0.0742,2.73521 0.33901,3.05648 0.20264,0.24583 0.43758,0.37781 0.52208,0.29331 0.0845,-0.0845 0.29418,-1.24825 0.46592,-2.58608 z m 3.95401,0.22188 c 0.23532,-0.35914 0.38689,-0.77404 0.33683,-0.92199 -0.12705,-0.37549 -7.96703,-7.70284 -8.09974,-7.57013 -0.37878,0.37877 -0.56009,2.41047 -0.31336,3.51141 0.48244,2.15276 1.37623,2.48628 1.67392,0.62463 0.26729,-1.6715 0.74387,-1.81774 2.15514,-0.66131 1.32151,1.08288 1.71489,1.64727 1.71489,2.46039 0,0.58731 1.54055,3.20998 1.88553,3.20998 0.12042,0 0.41147,-0.29384 0.64679,-0.65298 z m 75.847971,0.15622 c 5.26738,-0.39832 6.36716,-0.55267 6.81302,-0.95617 0.62202,-0.56291 0.68095,-1.4597 0.1619,-2.46344 -0.65288,-1.26253 -1.3299,-1.62376 -4.27956,-2.28342 -1.5902,-0.35562 -5.12973,-1.18975 -7.86562,-1.85361 -2.73589,-0.66386 -5.08612,-1.20702 -5.22274,-1.20702 -0.13662,0 0.0879,0.92274 0.49887,2.05052 0.63522,1.74306 1.27376,4.11311 1.78211,6.61458 0.1476,0.72634 -0.14312,0.72281 8.11202,0.0985 z M 80.843159,52.023904 c 1.24895,-0.98242 3.2684,-4.12794 3.57851,-5.57394 0.35744,-1.6667 0.33184,-1.70119 -2.74104,-3.69406 -5.98057,-3.87859 -13.08757,-5.79043 -20.23367,-5.443 -3.48181,0.16929 -5.35922,0.67785 -6.75765,1.83055 -1.05707,0.87133 -1.27087,1.46261 -0.35082,0.97021 0.99189,-0.53084 4.09223,-0.38565 6.1527,0.28815 4.44658,1.45407 9.52032,4.43437 14.68438,8.62555 2.97,2.41047 4.50594,3.55651 4.76652,3.55651 0.10406,0 0.50954,-0.25199 0.90107,-0.55997 z M 59.143149,123.8074 c -0.8593,-0.55424 -5.01518,-3.13071 -9.23529,-5.72549 -9.90212,-6.08842 -9.65729,-5.93035 -9.65729,-6.23514 0,-0.14345 0.0824,-0.26083 0.18305,-0.26083 0.42628,0 20.11279,12.01827 20.84397,12.72489 0.51909,0.50164 0.51896,0.50428 -0.0251,0.50428 -0.30081,0 -1.25001,-0.45347 -2.10931,-1.00771 z M 164.99659,107.55105 c -0.23463,-0.32742 -1.45204,-2.26219 -2.70536,-4.29948 -5.50496,-8.948416 -7.97548,-13.195566 -7.82106,-13.445426 0.0942,-0.15241 0.4056,0.032 0.72021,0.4266 0.60182,0.75475 10.73727,17.525556 10.73727,17.766616 0,0.35643 -0.54109,0.0959 -0.93106,-0.44831 z m 2.56933,-7.27604 c -5.23873,-9.955526 -6.14078,-11.929826 -5.32674,-11.658476 0.15416,0.0514 2.04002,3.54389 4.19079,7.76111 2.15077,4.217216 4.16777,8.142166 4.48221,8.722086 0.60601,1.11766 0.72403,1.72371 0.33567,1.72371 -0.12983,0 -1.78669,-2.94679 -3.68193,-6.54843 z m 8.15131,5.67749 c 0,-0.0425 -1.60339,-4.05484 -3.56308,-8.916416 -1.9597,-4.86159 -3.51265,-8.88968 -3.451,-8.95133 0.44025,-0.44025 1.21426,1.16092 4.18018,8.64734 1.84969,4.668886 3.36307,8.670856 3.36307,8.893246 0,0.22239 -0.11906,0.40435 -0.26459,0.40435 -0.14552,0 -0.26458,-0.0347 -0.26458,-0.0772 z"
       id="path5154"
       inkscape:connector-curvature="0" />
    <rect
       style="fill:none;fill-opacity:1;stroke:#f90000;stroke-width:1.2;stroke-linecap:square;stroke-linejoin:round;stroke-miterlimit:4;stroke-dasharray:none;stroke-opacity:1;paint-order:markers fill stroke"
       id="rect5699"
       width="167.06548"
       height="106.2113"
       x="16.630953"
       y="29.014879"
       ry="9.220808" />
  </g>
</svg>
