  0
SECTION
  2
HEADER
  9
$ACADVER
  1
AC1014
  9
$HANDSEED
  5
FFFF
  9
$MEASUREMENT
 70
     1
  0
ENDSEC
  0
SECTION
  2
TABLES
  0
TABLE
  2
VPORT
  5
8
330
0
100
AcDbSymbolTable
 70
     4
  0
VPORT
  5
2E
330
8
100
AcDbSymbolTableRecord
100
AcDbViewportTableRecord
  2
*ACTIVE
 70
     0
 10
0.0
 20
0.0
 11
1.0
 21
1.0
 12
210.0
 22
148.5
 13
0.0
 23
0.0
 14
10.0
 24
10.0
 15
10.0
 25
10.0
 16
0.0
 26
0.0
 36
1.0
 17
0.0
 27
0.0
 37
0.0
 40
341.0
 41
1.24
 42
50.0
 43
0.0
 44
0.0
 50
0.0
 51
0.0
 71
     0
 72
   100
 73
     1
 74
     3
 75
     0
 76
     0
 77
     0
 78
     0
  0
ENDTAB
  0
TABLE
  2
LTYPE
  5
5
330
0
100
AcDbSymbolTable
 70
     1
  0
LTYPE
  5
14
330
5
100
AcDbSymbolTableRecord
100
AcDbLinetypeTableRecord
  2
BYBLOCK
 70
     0
  3

 72
    65
 73
     0
 40
0.0
  0
LTYPE
  5
15
330
5
100
AcDbSymbolTableRecord
100
AcDbLinetypeTableRecord
  2
BYLAYER
 70
     0
  3

 72
    65
 73
     0
 40
0.0
  0
LTYPE
  5
16
330
5
100
AcDbSymbolTableRecord
100
AcDbLinetypeTableRecord
  2
CONTINUOUS
 70
     0
  3
Solid line
 72
    65
 73
     0
 40
0.0
  0
ENDTAB
  0
TABLE
  2
LAYER
  5
2
100
AcDbSymbolTable
 70
2
  0
LAYER
  5
50
100
AcDbSymbolTableRecord
100
AcDbLayerTableRecord
  2
0
 70
0
  6
CONTINUOUS
  0
LAYER
  5
51
100
AcDbSymbolTableRecord
100
AcDbLayerTableRecord
  2
Capa_1
 70
0
  6
CONTINUOUS
  0
ENDTAB
  0
TABLE
  2
STYLE
  5
3
330
0
100
AcDbSymbolTable
 70
     1
  0
STYLE
  5
11
330
3
100
AcDbSymbolTableRecord
100
AcDbTextStyleTableRecord
  2
STANDARD
 70
     0
 40
0.0
 41
1.0
 50
0.0
 71
     0
 42
2.5
  3
txt
  4

  0
ENDTAB
  0
TABLE
  2
VIEW
  5
6
330
0
100
AcDbSymbolTable
 70
     0
  0
ENDTAB
  0
TABLE
  2
UCS
  5
7
330
0
100
AcDbSymbolTable
 70
     0
  0
ENDTAB
  0
TABLE
  2
APPID
  5
9
330
0
100
AcDbSymbolTable
 70
     2
  0
APPID
  5
12
330
9
100
AcDbSymbolTableRecord
100
AcDbRegAppTableRecord
  2
ACAD
 70
     0
  0
ENDTAB
  0
TABLE
  2
DIMSTYLE
  5
A
330
0
100
AcDbSymbolTable
 70
     1
  0
DIMSTYLE
105
27
330
A
100
AcDbSymbolTableRecord
100
AcDbDimStyleTableRecord
  2
ISO-25
 70
     0
  3

  4

  5

  6

  7

 40
1.0
 41
2.5
 42
0.625
 43
3.75
 44
1.25
 45
0.0
 46
0.0
 47
0.0
 48
0.0
140
2.5
141
2.5
142
0.0
143
0.03937007874016
144
1.0
145
0.0
146
1.0
147
0.625
 71
     0
 72
     0
 73
     0
 74
     0
 75
     0
 76
     0
 77
     1
 78
     8
170
     0
171
     3
172
     1
173
     0
174
     0
175
     0
176
     0
177
     0
178
     0
270
     2
271
     2
272
     2
273
     2
274
     3
340
11
275
     0
280
     0
281
     0
282
     0
283
     0
284
     8
285
     0
286
     0
287
     3
288
     0
  0
ENDTAB
  0
TABLE
  2
BLOCK_RECORD
  5
1
330
0
100
AcDbSymbolTable
 70
     1
  0
BLOCK_RECORD
  5
1F
330
1
100
AcDbSymbolTableRecord
100
AcDbBlockTableRecord
  2
*MODEL_SPACE
  0
BLOCK_RECORD
  5
1B
330
1
100
AcDbSymbolTableRecord
100
AcDbBlockTableRecord
  2
*PAPER_SPACE
  0
ENDTAB
  0
ENDSEC
  0
SECTION
  2
BLOCKS
  0
BLOCK
  5
20
330
1F
100
AcDbEntity
  8
0
100
AcDbBlockBegin
  2
*MODEL_SPACE
 70
     0
 10
0.0
 20
0.0
 30
0.0
  3
*MODEL_SPACE
  1

  0
ENDBLK
  5
21
330
1F
100
AcDbEntity
  8
0
100
AcDbBlockEnd
  0
BLOCK
  5
1C
330
1B
100
AcDbEntity
 67
     1
  8
0
100
AcDbBlockBegin
  2
*PAPER_SPACE
  1

  0
ENDBLK
  5
1D
330
1B
100
AcDbEntity
 67
     1
  8
0
100
AcDbBlockEnd
  0
ENDSEC
  0
SECTION
  2
ENTITIES
  0
SPLINE
  5
100
100
AcDbEntity
  8
Capa_1
 62
5
100
AcDbSpline
 70
8
 71
3
 72
8
 73
4
 74
0
 40
0
 40
0
 40
0
 40
0
 40
1
 40
1
 40
1
 40
1
 10
68.164109
 20
172.593850
 30
0.0
 10
58.349359
 20
178.613120
 30
0.0
 10
55.564689
 20
180.424130
 30
0.0
 10
55.664339
 20
180.723090
 30
0.0
  0
SPLINE
  5
101
100
AcDbEntity
  8
Capa_1
 62
5
100
AcDbSpline
 70
8
 71
3
 72
8
 73
4
 74
0
 40
0
 40
0
 40
0
 40
0
 40
1
 40
1
 40
1
 40
1
 10
55.664339
 20
180.723090
 30
0.0
 10
55.707039
 20
180.851100
 30
0.0
 10
55.836359
 20
180.959980
 30
0.0
 10
55.951789
 20
180.965070
 30
0.0
  0
SPLINE
  5
102
100
AcDbEntity
  8
Capa_1
 62
5
100
AcDbSpline
 70
8
 71
3
 72
8
 73
4
 74
0
 40
0
 40
0
 40
0
 40
0
 40
1
 40
1
 40
1
 40
1
 10
55.951789
 20
180.965070
 30
0.0
 10
56.067219
 20
180.970070
 30
0.0
 10
58.266899
 20
179.672200
 30
0.0
 10
60.839969
 20
178.080740
 30
0.0
  0
SPLINE
  5
103
100
AcDbEntity
  8
Capa_1
 62
5
100
AcDbSpline
 70
8
 71
3
 72
8
 73
4
 74
0
 40
0
 40
0
 40
0
 40
0
 40
1
 40
1
 40
1
 40
1
 10
60.839969
 20
178.080740
 30
0.0
 10
63.413039
 20
176.489280
 30
0.0
 10
68.043689
 20
173.648460
 30
0.0
 10
71.130309
 20
171.767800
 30
0.0
  0
SPLINE
  5
104
100
AcDbEntity
  8
Capa_1
 62
5
100
AcDbSpline
 70
8
 71
3
 72
8
 73
4
 74
0
 40
0
 40
0
 40
0
 40
0
 40
1
 40
1
 40
1
 40
1
 10
71.130309
 20
171.767800
 30
0.0
 10
76.098089
 20
168.740970
 30
0.0
 10
77.533179
 20
167.641690
 30
0.0
 10
76.432339
 20
167.706420
 30
0.0
  0
SPLINE
  5
105
100
AcDbEntity
  8
Capa_1
 62
5
100
AcDbSpline
 70
8
 71
3
 72
8
 73
4
 74
0
 40
0
 40
0
 40
0
 40
0
 40
1
 40
1
 40
1
 40
1
 10
76.432339
 20
167.706420
 30
0.0
 10
76.250439
 20
167.717120
 30
0.0
 10
72.529739
 20
169.916460
 30
0.0
 10
68.164109
 20
172.593850
 30
0.0
  0
SPLINE
  5
106
100
AcDbEntity
  8
Capa_1
 62
5
100
AcDbSpline
 70
8
 71
3
 72
8
 73
4
 74
0
 40
0
 40
0
 40
0
 40
0
 40
1
 40
1
 40
1
 40
1
 10
86.420949
 20
169.162130
 30
0.0
 10
85.984709
 20
169.389590
 30
0.0
 10
85.448929
 20
169.730140
 30
0.0
 10
85.230329
 20
169.918900
 30
0.0
  0
SPLINE
  5
107
100
AcDbEntity
  8
Capa_1
 62
5
100
AcDbSpline
 70
8
 71
3
 72
8
 73
4
 74
0
 40
0
 40
0
 40
0
 40
0
 40
1
 40
1
 40
1
 40
1
 10
85.230329
 20
169.918900
 30
0.0
 10
85.011719
 20
170.107670
 30
0.0
 10
81.951869
 20
171.999210
 30
0.0
 10
78.430649
 20
174.122320
 30
0.0
  0
SPLINE
  5
108
100
AcDbEntity
  8
Capa_1
 62
5
100
AcDbSpline
 70
8
 71
3
 72
8
 73
4
 74
0
 40
0
 40
0
 40
0
 40
0
 40
1
 40
1
 40
1
 40
1
 10
78.430649
 20
174.122320
 30
0.0
 10
69.945359
 20
179.238530
 30
0.0
 10
66.148409
 20
181.709740
 30
0.0
 10
66.327529
 20
181.999560
 30
0.0
  0
SPLINE
  5
109
100
AcDbEntity
  8
Capa_1
 62
5
100
AcDbSpline
 70
8
 71
3
 72
8
 73
4
 74
0
 40
0
 40
0
 40
0
 40
0
 40
1
 40
1
 40
1
 40
1
 10
66.327529
 20
181.999560
 30
0.0
 10
66.519869
 20
182.310770
 30
0.0
 10
66.947189
 20
182.062960
 30
0.0
 10
78.013049
 20
175.223250
 30
0.0
  0
SPLINE
  5
10a
100
AcDbEntity
  8
Capa_1
 62
5
100
AcDbSpline
 70
8
 71
3
 72
8
 73
4
 74
0
 40
0
 40
0
 40
0
 40
0
 40
1
 40
1
 40
1
 40
1
 10
78.013049
 20
175.223250
 30
0.0
 10
86.307299
 20
170.096630
 30
0.0
 10
88.279879
 20
168.740690
 30
0.0
 10
87.434599
 20
168.746940
 30
0.0
  0
SPLINE
  5
10b
100
AcDbEntity
  8
Capa_1
 62
5
100
AcDbSpline
 70
8
 71
3
 72
8
 73
4
 74
0
 40
0
 40
0
 40
0
 40
0
 40
1
 40
1
 40
1
 40
1
 10
87.434599
 20
168.746940
 30
0.0
 10
87.313329
 20
168.747730
 30
0.0
 10
86.857189
 20
168.934670
 30
0.0
 10
86.420949
 20
169.162130
 30
0.0
  0
LWPOLYLINE
  5
10c
100
AcDbEntity
  8
Capa_1
 62
5
100
AcDbPolyline
 90
1
 70
1
 10
68.164109
 20
172.593850
 30
0.0
  0
SPLINE
  5
10d
100
AcDbEntity
  8
Capa_1
 62
5
100
AcDbSpline
 70
8
 71
3
 72
8
 73
4
 74
0
 40
0
 40
0
 40
0
 40
0
 40
1
 40
1
 40
1
 40
1
 10
135.823980
 20
172.325210
 30
0.0
 10
133.042070
 20
173.272890
 30
0.0
 10
129.698180
 20
175.013410
 30
0.0
 10
121.336620
 20
179.866000
 30
0.0
  0
SPLINE
  5
10e
100
AcDbEntity
  8
Capa_1
 62
5
100
AcDbSpline
 70
8
 71
3
 72
8
 73
4
 74
0
 40
0
 40
0
 40
0
 40
0
 40
1
 40
1
 40
1
 40
1
 10
121.336620
 20
179.866000
 30
0.0
 10
112.747020
 20
184.850930
 30
0.0
 10
108.870640
 20
187.245030
 30
0.0
 10
104.279730
 20
190.400540
 30
0.0
  0
SPLINE
  5
10f
100
AcDbEntity
  8
Capa_1
 62
5
100
AcDbSpline
 70
8
 71
3
 72
8
 73
4
 74
0
 40
0
 40
0
 40
0
 40
0
 40
1
 40
1
 40
1
 40
1
 10
104.279730
 20
190.400540
 30
0.0
 10
101.106780
 20
192.581430
 30
0.0
 10
93.155619
 20
198.468566
 30
0.0
 10
90.389109
 20
200.685306
 30
0.0
  0
LWPOLYLINE
  5
110
100
AcDbEntity
  8
Capa_1
 62
5
100
AcDbPolyline
 90
1
 70
1
 10
86.420949
 20
169.162130
 30
0.0
  0
SPLINE
  5
111
100
AcDbEntity
  8
Capa_1
 62
5
100
AcDbSpline
 70
8
 71
3
 72
8
 73
4
 74
0
 40
0
 40
0
 40
0
 40
0
 40
1
 40
1
 40
1
 40
1
 10
82.716189
 20
199.794076
 30
0.0
 10
79.223689
 20
198.720876
 30
0.0
 10
75.386429
 20
197.540206
 30
0.0
 10
74.188939
 20
197.170356
 30
0.0
  0
LWPOLYLINE
  5
112
100
AcDbEntity
  8
Capa_1
 62
5
100
AcDbPolyline
 90
3
 70
0
 10
90.389109
 20
200.685306
 30
0.0
 10
89.066189
 20
201.745336
 30
0.0
 10
82.716189
 20
199.794076
 30
0.0
  0
SPLINE
  5
113
100
AcDbEntity
  8
Capa_1
 62
5
100
AcDbSpline
 70
8
 71
3
 72
8
 73
4
 74
0
 40
0
 40
0
 40
0
 40
0
 40
1
 40
1
 40
1
 40
1
 10
72.170179
 20
194.981470
 30
0.0
 10
72.453389
 20
192.271840
 30
0.0
 10
70.746629
 20
189.580330
 30
0.0
 10
67.935779
 20
188.303960
 30
0.0
  0
SPLINE
  5
114
100
AcDbEntity
  8
Capa_1
 62
5
100
AcDbSpline
 70
8
 71
3
 72
8
 73
4
 74
0
 40
0
 40
0
 40
0
 40
0
 40
1
 40
1
 40
1
 40
1
 10
67.935779
 20
188.303960
 30
0.0
 10
66.226859
 20
187.527970
 30
0.0
 10
64.935969
 20
187.650480
 30
0.0
 10
62.634609
 20
188.807070
 30
0.0
  0
LWPOLYLINE
  5
115
100
AcDbEntity
  8
Capa_1
 62
5
100
AcDbPolyline
 90
3
 70
0
 10
74.188939
 20
197.170356
 30
0.0
 10
72.011679
 20
196.497920
 30
0.0
 10
72.170179
 20
194.981470
 30
0.0
  0
SPLINE
  5
116
100
AcDbEntity
  8
Capa_1
 62
5
100
AcDbSpline
 70
8
 71
3
 72
8
 73
4
 74
0
 40
0
 40
0
 40
0
 40
0
 40
1
 40
1
 40
1
 40
1
 10
59.859539
 20
188.468840
 30
0.0
 10
59.032869
 20
187.004050
 30
0.0
 10
57.287349
 20
185.276300
 30
0.0
 10
56.226799
 20
184.873080
 30
0.0
  0
SPLINE
  5
117
100
AcDbEntity
  8
Capa_1
 62
5
100
AcDbSpline
 70
8
 71
3
 72
8
 73
4
 74
0
 40
0
 40
0
 40
0
 40
0
 40
1
 40
1
 40
1
 40
1
 10
56.226799
 20
184.873080
 30
0.0
 10
55.861139
 20
184.734060
 30
0.0
 10
54.997769
 20
184.620310
 30
0.0
 10
54.308209
 20
184.620310
 30
0.0
  0
SPLINE
  5
118
100
AcDbEntity
  8
Capa_1
 62
5
100
AcDbSpline
 70
8
 71
3
 72
8
 73
4
 74
0
 40
0
 40
0
 40
0
 40
0
 40
1
 40
1
 40
1
 40
1
 10
54.308209
 20
184.620310
 30
0.0
 10
52.426589
 20
184.620310
 30
0.0
 10
50.698299
 20
185.619270
 30
0.0
 10
48.346929
 20
188.065980
 30
0.0
  0
SPLINE
  5
119
100
AcDbEntity
  8
Capa_1
 62
5
100
AcDbSpline
 70
8
 71
3
 72
8
 73
4
 74
0
 40
0
 40
0
 40
0
 40
0
 40
1
 40
1
 40
1
 40
1
 10
48.346929
 20
188.065980
 30
0.0
 10
47.231349
 20
189.226800
 30
0.0
 10
46.173689
 20
190.175030
 30
0.0
 10
45.996569
 20
190.173160
 30
0.0
  0
SPLINE
  5
11a
100
AcDbEntity
  8
Capa_1
 62
5
100
AcDbSpline
 70
8
 71
3
 72
8
 73
4
 74
0
 40
0
 40
0
 40
0
 40
0
 40
1
 40
1
 40
1
 40
1
 10
45.996569
 20
190.173160
 30
0.0
 10
45.819439
 20
190.171160
 30
0.0
 10
44.253029
 20
189.814100
 30
0.0
 10
42.515629
 20
189.379410
 30
0.0
  0
SPLINE
  5
11b
100
AcDbEntity
  8
Capa_1
 62
5
100
AcDbSpline
 70
8
 71
3
 72
8
 73
4
 74
0
 40
0
 40
0
 40
0
 40
0
 40
1
 40
1
 40
1
 40
1
 10
42.515629
 20
189.379410
 30
0.0
 10
38.820879
 20
188.454980
 30
0.0
 10
36.564139
 20
188.362270
 30
0.0
 10
35.225989
 20
189.079930
 30
0.0
  0
SPLINE
  5
11c
100
AcDbEntity
  8
Capa_1
 62
5
100
AcDbSpline
 70
8
 71
3
 72
8
 73
4
 74
0
 40
0
 40
0
 40
0
 40
0
 40
1
 40
1
 40
1
 40
1
 10
35.225989
 20
189.079930
 30
0.0
 10
32.746819
 20
190.409520
 30
0.0
 10
31.875359
 20
193.321270
 30
0.0
 10
33.189599
 20
195.884020
 30
0.0
  0
SPLINE
  5
11d
100
AcDbEntity
  8
Capa_1
 62
5
100
AcDbSpline
 70
8
 71
3
 72
8
 73
4
 74
0
 40
0
 40
0
 40
0
 40
0
 40
1
 40
1
 40
1
 40
1
 10
33.189599
 20
195.884020
 30
0.0
 10
33.858029
 20
197.187456
 30
0.0
 10
35.948419
 20
199.380786
 30
0.0
 10
38.067479
 20
201.002106
 30
0.0
  0
LWPOLYLINE
  5
11e
100
AcDbEntity
  8
Capa_1
 62
5
100
AcDbPolyline
 90
3
 70
0
 10
62.634609
 20
188.807070
 30
0.0
 10
60.621429
 20
189.818830
 30
0.0
 10
59.859539
 20
188.468840
 30
0.0
  0
SPLINE
  5
11f
100
AcDbEntity
  8
Capa_1
 62
5
100
AcDbSpline
 70
8
 71
3
 72
8
 73
4
 74
0
 40
0
 40
0
 40
0
 40
0
 40
1
 40
1
 40
1
 40
1
 10
39.024279
 20
203.286576
 30
0.0
 10
38.881519
 20
204.501286
 30
0.0
 10
38.961479
 20
204.924726
 30
0.0
 10
39.567739
 20
206.163836
 30
0.0
  0
SPLINE
  5
120
100
AcDbEntity
  8
Capa_1
 62
5
100
AcDbSpline
 70
8
 71
3
 72
8
 73
4
 74
0
 40
0
 40
0
 40
0
 40
0
 40
1
 40
1
 40
1
 40
1
 10
39.567739
 20
206.163836
 30
0.0
 10
41.116639
 20
209.329696
 30
0.0
 10
45.325489
 20
211.147696
 30
0.0
 10
47.976649
 20
209.796056
 30
0.0
  0
LWPOLYLINE
  5
121
100
AcDbEntity
  8
Capa_1
 62
5
100
AcDbPolyline
 90
3
 70
0
 10
38.067479
 20
201.002106
 30
0.0
 10
39.191679
 20
201.862246
 30
0.0
 10
39.024279
 20
203.286576
 30
0.0
  0
SPLINE
  5
122
100
AcDbEntity
  8
Capa_1
 62
5
100
AcDbSpline
 70
8
 71
3
 72
8
 73
4
 74
0
 40
0
 40
0
 40
0
 40
0
 40
1
 40
1
 40
1
 40
1
 10
48.799199
 20
210.146916
 30
0.0
 10
48.488329
 20
212.062526
 30
0.0
 10
50.612929
 20
215.042956
 30
0.0
 10
53.155519
 20
216.258076
 30
0.0
  0
SPLINE
  5
123
100
AcDbEntity
  8
Capa_1
 62
5
100
AcDbSpline
 70
8
 71
3
 72
8
 73
4
 74
0
 40
0
 40
0
 40
0
 40
0
 40
1
 40
1
 40
1
 40
1
 10
53.155519
 20
216.258076
 30
0.0
 10
54.572749
 20
216.935386
 30
0.0
 10
56.748899
 20
217.071986
 30
0.0
 10
57.568309
 20
216.535096
 30
0.0
  0
SPLINE
  5
124
100
AcDbEntity
  8
Capa_1
 62
5
100
AcDbSpline
 70
8
 71
3
 72
8
 73
4
 74
0
 40
0
 40
0
 40
0
 40
0
 40
1
 40
1
 40
1
 40
1
 10
57.568309
 20
216.535096
 30
0.0
 10
57.928729
 20
216.298936
 30
0.0
 10
58.326019
 20
216.105716
 30
0.0
 10
58.451169
 20
216.105716
 30
0.0
  0
SPLINE
  5
125
100
AcDbEntity
  8
Capa_1
 62
5
100
AcDbSpline
 70
8
 71
3
 72
8
 73
4
 74
0
 40
0
 40
0
 40
0
 40
0
 40
1
 40
1
 40
1
 40
1
 10
58.451169
 20
216.105716
 30
0.0
 10
58.756519
 20
216.105716
 30
0.0
 10
66.290839
 20
221.361136
 30
0.0
 10
66.389989
 20
221.643286
 30
0.0
  0
SPLINE
  5
126
100
AcDbEntity
  8
Capa_1
 62
5
100
AcDbSpline
 70
8
 71
3
 72
8
 73
4
 74
0
 40
0
 40
0
 40
0
 40
0
 40
1
 40
1
 40
1
 40
1
 10
66.389989
 20
221.643286
 30
0.0
 10
66.432889
 20
221.765306
 30
0.0
 10
65.521189
 20
223.004166
 30
0.0
 10
64.364039
 20
224.396306
 30
0.0
  0
SPLINE
  5
127
100
AcDbEntity
  8
Capa_1
 62
5
100
AcDbSpline
 70
8
 71
3
 72
8
 73
4
 74
0
 40
0
 40
0
 40
0
 40
0
 40
1
 40
1
 40
1
 40
1
 10
64.364039
 20
224.396306
 30
0.0
 10
56.358829
 20
234.027196
 30
0.0
 10
51.587659
 20
241.298356
 30
0.0
 10
50.446209
 20
245.606756
 30
0.0
  0
SPLINE
  5
128
100
AcDbEntity
  8
Capa_1
 62
5
100
AcDbSpline
 70
8
 71
3
 72
8
 73
4
 74
0
 40
0
 40
0
 40
0
 40
0
 40
1
 40
1
 40
1
 40
1
 10
50.446209
 20
245.606756
 30
0.0
 10
49.831859
 20
247.925626
 30
0.0
 10
49.640579
 20
251.484226
 30
0.0
 10
50.024099
 20
253.459986
 30
0.0
  0
SPLINE
  5
129
100
AcDbEntity
  8
Capa_1
 62
5
100
AcDbSpline
 70
8
 71
3
 72
8
 73
4
 74
0
 40
0
 40
0
 40
0
 40
0
 40
1
 40
1
 40
1
 40
1
 10
50.024099
 20
253.459986
 30
0.0
 10
51.171729
 20
259.372226
 30
0.0
 10
54.744939
 20
261.614046
 30
0.0
 10
63.020769
 20
261.614046
 30
0.0
  0
SPLINE
  5
12a
100
AcDbEntity
  8
Capa_1
 62
5
100
AcDbSpline
 70
8
 71
3
 72
8
 73
4
 74
0
 40
0
 40
0
 40
0
 40
0
 40
1
 40
1
 40
1
 40
1
 10
63.020769
 20
261.614046
 30
0.0
 10
70.905579
 20
261.614046
 30
0.0
 10
77.875369
 20
259.557836
 30
0.0
 10
84.307989
 20
255.333956
 30
0.0
  0
SPLINE
  5
12b
100
AcDbEntity
  8
Capa_1
 62
5
100
AcDbSpline
 70
8
 71
3
 72
8
 73
4
 74
0
 40
0
 40
0
 40
0
 40
0
 40
1
 40
1
 40
1
 40
1
 10
84.307989
 20
255.333956
 30
0.0
 10
91.657989
 20
250.507686
 30
0.0
 10
101.875850
 20
240.850056
 30
0.0
 10
109.372520
 20
231.643696
 30
0.0
  0
SPLINE
  5
12c
100
AcDbEntity
  8
Capa_1
 62
5
100
AcDbSpline
 70
8
 71
3
 72
8
 73
4
 74
0
 40
0
 40
0
 40
0
 40
0
 40
1
 40
1
 40
1
 40
1
 10
109.372520
 20
231.643696
 30
0.0
 10
110.230100
 20
230.590546
 30
0.0
 10
110.534360
 20
230.403396
 30
0.0
 10
111.621480
 20
230.260386
 30
0.0
  0
SPLINE
  5
12d
100
AcDbEntity
  8
Capa_1
 62
5
100
AcDbSpline
 70
8
 71
3
 72
8
 73
4
 74
0
 40
0
 40
0
 40
0
 40
0
 40
1
 40
1
 40
1
 40
1
 10
111.621480
 20
230.260386
 30
0.0
 10
112.312950
 20
230.169386
 30
0.0
 10
114.633270
 20
229.804916
 30
0.0
 10
116.777760
 20
229.450366
 30
0.0
  0
SPLINE
  5
12e
100
AcDbEntity
  8
Capa_1
 62
5
100
AcDbSpline
 70
8
 71
3
 72
8
 73
4
 74
0
 40
0
 40
0
 40
0
 40
0
 40
1
 40
1
 40
1
 40
1
 10
116.777760
 20
229.450366
 30
0.0
 10
118.922240
 20
229.095806
 30
0.0
 10
120.737950
 20
228.805716
 30
0.0
 10
120.812650
 20
228.805716
 30
0.0
  0
SPLINE
  5
12f
100
AcDbEntity
  8
Capa_1
 62
5
100
AcDbSpline
 70
8
 71
3
 72
8
 73
4
 74
0
 40
0
 40
0
 40
0
 40
0
 40
1
 40
1
 40
1
 40
1
 10
120.812650
 20
228.805716
 30
0.0
 10
120.887350
 20
228.805716
 30
0.0
 10
120.948480
 20
229.263516
 30
0.0
 10
120.948480
 20
229.823036
 30
0.0
  0
SPLINE
  5
130
100
AcDbEntity
  8
Capa_1
 62
5
100
AcDbSpline
 70
8
 71
3
 72
8
 73
4
 74
0
 40
0
 40
0
 40
0
 40
0
 40
1
 40
1
 40
1
 40
1
 10
120.948480
 20
229.823036
 30
0.0
 10
120.948480
 20
230.999996
 30
0.0
 10
121.355990
 20
231.457996
 30
0.0
 10
123.082860
 20
232.221876
 30
0.0
  0
SPLINE
  5
131
100
AcDbEntity
  8
Capa_1
 62
5
100
AcDbSpline
 70
8
 71
3
 72
8
 73
4
 74
0
 40
0
 40
0
 40
0
 40
0
 40
1
 40
1
 40
1
 40
1
 10
123.082860
 20
232.221876
 30
0.0
 10
125.933630
 20
233.482906
 30
0.0
 10
130.097770
 20
233.089916
 30
0.0
 10
131.313860
 20
231.445066
 30
0.0
  0
SPLINE
  5
132
100
AcDbEntity
  8
Capa_1
 62
5
100
AcDbSpline
 70
8
 71
3
 72
8
 73
4
 74
0
 40
0
 40
0
 40
0
 40
0
 40
1
 40
1
 40
1
 40
1
 10
131.313860
 20
231.445066
 30
0.0
 10
132.038130
 20
230.465436
 30
0.0
 10
132.219830
 20
230.459876
 30
0.0
 10
132.410170
 20
231.411566
 30
0.0
  0
SPLINE
  5
133
100
AcDbEntity
  8
Capa_1
 62
5
100
AcDbSpline
 70
8
 71
3
 72
8
 73
4
 74
0
 40
0
 40
0
 40
0
 40
0
 40
1
 40
1
 40
1
 40
1
 10
132.410170
 20
231.411566
 30
0.0
 10
132.609090
 20
232.406196
 30
0.0
 10
133.507980
 20
232.957116
 30
0.0
 10
135.951590
 20
233.582086
 30
0.0
  0
SPLINE
  5
134
100
AcDbEntity
  8
Capa_1
 62
5
100
AcDbSpline
 70
8
 71
3
 72
8
 73
4
 74
0
 40
0
 40
0
 40
0
 40
0
 40
1
 40
1
 40
1
 40
1
 10
135.951590
 20
233.582086
 30
0.0
 10
138.323150
 20
234.188636
 30
0.0
 10
141.236580
 20
234.250496
 30
0.0
 10
142.503330
 20
233.721216
 30
0.0
  0
SPLINE
  5
135
100
AcDbEntity
  8
Capa_1
 62
5
100
AcDbSpline
 70
8
 71
3
 72
8
 73
4
 74
0
 40
0
 40
0
 40
0
 40
0
 40
1
 40
1
 40
1
 40
1
 10
142.503330
 20
233.721216
 30
0.0
 10
143.438960
 20
233.330276
 30
0.0
 10
145.142020
 20
231.227236
 30
0.0
 10
147.482950
 20
227.572046
 30
0.0
  0
SPLINE
  5
136
100
AcDbEntity
  8
Capa_1
 62
5
100
AcDbSpline
 70
8
 71
3
 72
8
 73
4
 74
0
 40
0
 40
0
 40
0
 40
0
 40
1
 40
1
 40
1
 40
1
 10
147.482950
 20
227.572046
 30
0.0
 10
148.150500
 20
226.529706
 30
0.0
 10
148.912480
 20
225.611916
 30
0.0
 10
149.176230
 20
225.532506
 30
0.0
  0
SPLINE
  5
137
100
AcDbEntity
  8
Capa_1
 62
5
100
AcDbSpline
 70
8
 71
3
 72
8
 73
4
 74
0
 40
0
 40
0
 40
0
 40
0
 40
1
 40
1
 40
1
 40
1
 10
149.176230
 20
225.532506
 30
0.0
 10
149.439980
 20
225.453106
 30
0.0
 10
151.620300
 20
224.962466
 30
0.0
 10
154.021400
 20
224.442226
 30
0.0
  0
SPLINE
  5
138
100
AcDbEntity
  8
Capa_1
 62
5
100
AcDbSpline
 70
8
 71
3
 72
8
 73
4
 74
0
 40
0
 40
0
 40
0
 40
0
 40
1
 40
1
 40
1
 40
1
 10
154.021400
 20
224.442226
 30
0.0
 10
161.791540
 20
222.758666
 30
0.0
 10
166.443360
 20
221.470476
 30
0.0
 10
167.407000
 20
220.735466
 30
0.0
  0
SPLINE
  5
139
100
AcDbEntity
  8
Capa_1
 62
5
100
AcDbSpline
 70
8
 71
3
 72
8
 73
4
 74
0
 40
0
 40
0
 40
0
 40
0
 40
1
 40
1
 40
1
 40
1
 10
167.407000
 20
220.735466
 30
0.0
 10
168.635130
 20
219.798726
 30
0.0
 10
169.519810
 20
218.559156
 30
0.0
 10
169.915230
 20
217.221046
 30
0.0
  0
SPLINE
  5
13a
100
AcDbEntity
  8
Capa_1
 62
5
100
AcDbSpline
 70
8
 71
3
 72
8
 73
4
 74
0
 40
0
 40
0
 40
0
 40
0
 40
1
 40
1
 40
1
 40
1
 10
169.915230
 20
217.221046
 30
0.0
 10
170.359130
 20
215.718916
 30
0.0
 10
169.812530
 20
214.487676
 30
0.0
 10
168.384090
 20
213.772026
 30
0.0
  0
SPLINE
  5
13b
100
AcDbEntity
  8
Capa_1
 62
5
100
AcDbSpline
 70
8
 71
3
 72
8
 73
4
 74
0
 40
0
 40
0
 40
0
 40
0
 40
1
 40
1
 40
1
 40
1
 10
168.384090
 20
213.772026
 30
0.0
 10
166.979200
 20
213.068186
 30
0.0
 10
166.405960
 20
212.959196
 30
0.0
 10
161.872670
 20
212.534086
 30
0.0
  0
SPLINE
  5
13c
100
AcDbEntity
  8
Capa_1
 62
5
100
AcDbSpline
 70
8
 71
3
 72
8
 73
4
 74
0
 40
0
 40
0
 40
0
 40
0
 40
1
 40
1
 40
1
 40
1
 10
161.872670
 20
212.534086
 30
0.0
 10
159.664520
 20
212.327016
 30
0.0
 10
156.584510
 20
212.014886
 30
0.0
 10
155.028190
 20
211.840466
 30
0.0
  0
SPLINE
  5
13d
100
AcDbEntity
  8
Capa_1
 62
5
100
AcDbSpline
 70
8
 71
3
 72
8
 73
4
 74
0
 40
0
 40
0
 40
0
 40
0
 40
1
 40
1
 40
1
 40
1
 10
155.028190
 20
211.840466
 30
0.0
 10
152.285960
 20
211.533136
 30
0.0
 10
152.188830
 20
211.499956
 30
0.0
 10
151.885010
 20
210.766476
 30
0.0
  0
SPLINE
  5
13e
100
AcDbEntity
  8
Capa_1
 62
5
100
AcDbSpline
 70
8
 71
3
 72
8
 73
4
 74
0
 40
0
 40
0
 40
0
 40
0
 40
1
 40
1
 40
1
 40
1
 10
151.885010
 20
210.766476
 30
0.0
 10
151.145920
 20
208.982146
 30
0.0
 10
149.321040
 20
208.172096
 30
0.0
 10
146.034980
 20
208.169716
 30
0.0
  0
SPLINE
  5
13f
100
AcDbEntity
  8
Capa_1
 62
5
100
AcDbSpline
 70
8
 71
3
 72
8
 73
4
 74
0
 40
0
 40
0
 40
0
 40
0
 40
1
 40
1
 40
1
 40
1
 10
146.034980
 20
208.169716
 30
0.0
 10
143.607950
 20
208.167716
 30
0.0
 10
142.821200
 20
208.428586
 30
0.0
 10
141.562310
 20
209.651416
 30
0.0
  0
LWPOLYLINE
  5
140
100
AcDbEntity
  8
Capa_1
 62
5
100
AcDbPolyline
 90
3
 70
0
 10
47.976649
 20
209.796056
 30
0.0
 10
48.935459
 20
209.307226
 30
0.0
 10
48.799199
 20
210.146916
 30
0.0
  0
SPLINE
  5
141
100
AcDbEntity
  8
Capa_1
 62
5
100
AcDbSpline
 70
8
 71
3
 72
8
 73
4
 74
0
 40
0
 40
0
 40
0
 40
0
 40
1
 40
1
 40
1
 40
1
 10
139.974810
 20
209.642136
 30
0.0
 10
138.714590
 20
207.800976
 30
0.0
 10
135.555120
 20
206.701586
 30
0.0
 10
133.486330
 20
207.384346
 30
0.0
  0
SPLINE
  5
142
100
AcDbEntity
  8
Capa_1
 62
5
100
AcDbSpline
 70
8
 71
3
 72
8
 73
4
 74
0
 40
0
 40
0
 40
0
 40
0
 40
1
 40
1
 40
1
 40
1
 10
133.486330
 20
207.384346
 30
0.0
 10
132.924210
 20
207.569866
 30
0.0
 10
131.794750
 20
208.360286
 30
0.0
 10
130.976410
 20
209.140846
 30
0.0
  0
LWPOLYLINE
  5
143
100
AcDbEntity
  8
Capa_1
 62
5
100
AcDbPolyline
 90
3
 70
0
 10
141.562310
 20
209.651416
 30
0.0
 10
140.612600
 20
210.573926
 30
0.0
 10
139.974810
 20
209.642136
 30
0.0
  0
SPLINE
  5
144
100
AcDbEntity
  8
Capa_1
 62
5
100
AcDbSpline
 70
8
 71
3
 72
8
 73
4
 74
0
 40
0
 40
0
 40
0
 40
0
 40
1
 40
1
 40
1
 40
1
 10
127.623450
 20
210.112426
 30
0.0
 10
125.838970
 20
209.684156
 30
0.0
 10
125.773250
 20
209.641046
 30
0.0
 10
126.102660
 20
209.114966
 30
0.0
  0
SPLINE
  5
145
100
AcDbEntity
  8
Capa_1
 62
5
100
AcDbSpline
 70
8
 71
3
 72
8
 73
4
 74
0
 40
0
 40
0
 40
0
 40
0
 40
1
 40
1
 40
1
 40
1
 10
126.102660
 20
209.114966
 30
0.0
 10
126.292030
 20
208.812546
 30
0.0
 10
127.871610
 20
206.302926
 30
0.0
 10
129.612850
 20
203.538026
 30
0.0
  0
SPLINE
  5
146
100
AcDbEntity
  8
Capa_1
 62
5
100
AcDbSpline
 70
8
 71
3
 72
8
 73
4
 74
0
 40
0
 40
0
 40
0
 40
0
 40
1
 40
1
 40
1
 40
1
 10
129.612850
 20
203.538026
 30
0.0
 10
131.354090
 20
200.773146
 30
0.0
 10
133.292580
 20
197.570466
 30
0.0
 10
133.920630
 20
196.420990
 30
0.0
  0
LWPOLYLINE
  5
147
100
AcDbEntity
  8
Capa_1
 62
5
100
AcDbPolyline
 90
3
 70
0
 10
130.976410
 20
209.140846
 30
0.0
 10
129.488530
 20
210.560046
 30
0.0
 10
127.623450
 20
210.112426
 30
0.0
  0
SPLINE
  5
148
100
AcDbEntity
  8
Capa_1
 62
5
100
AcDbSpline
 70
8
 71
3
 72
8
 73
4
 74
0
 40
0
 40
0
 40
0
 40
0
 40
1
 40
1
 40
1
 40
1
 10
135.744560
 20
195.118500
 30
0.0
 10
136.119690
 20
195.551590
 30
0.0
 10
137.676760
 20
197.651716
 30
0.0
 10
139.204730
 20
199.785416
 30
0.0
  0
SPLINE
  5
149
100
AcDbEntity
  8
Capa_1
 62
5
100
AcDbSpline
 70
8
 71
3
 72
8
 73
4
 74
0
 40
0
 40
0
 40
0
 40
0
 40
1
 40
1
 40
1
 40
1
 10
139.204730
 20
199.785416
 30
0.0
 10
140.732700
 20
201.919116
 30
0.0
 10
142.057230
 20
203.666106
 30
0.0
 10
142.148140
 20
203.667596
 30
0.0
  0
SPLINE
  5
14a
100
AcDbEntity
  8
Capa_1
 62
5
100
AcDbSpline
 70
8
 71
3
 72
8
 73
4
 74
0
 40
0
 40
0
 40
0
 40
0
 40
1
 40
1
 40
1
 40
1
 10
142.148140
 20
203.667596
 30
0.0
 10
142.239040
 20
203.669596
 30
0.0
 10
143.207780
 20
203.017196
 30
0.0
 10
144.300880
 20
202.218896
 30
0.0
  0
LWPOLYLINE
  5
14b
100
AcDbEntity
  8
Capa_1
 62
5
100
AcDbPolyline
 90
3
 70
0
 10
133.920630
 20
196.420990
 30
0.0
 10
135.062520
 20
194.331030
 30
0.0
 10
135.744560
 20
195.118500
 30
0.0
  0
SPLINE
  5
14c
100
AcDbEntity
  8
Capa_1
 62
5
100
AcDbSpline
 70
8
 71
3
 72
8
 73
4
 74
0
 40
0
 40
0
 40
0
 40
0
 40
1
 40
1
 40
1
 40
1
 10
146.409010
 20
198.845456
 30
0.0
 10
146.560790
 20
196.428000
 30
0.0
 10
146.200740
 20
190.229920
 30
0.0
 10
145.701850
 20
186.672020
 30
0.0
  0
SPLINE
  5
14d
100
AcDbEntity
  8
Capa_1
 62
5
100
AcDbSpline
 70
8
 71
3
 72
8
 73
4
 74
0
 40
0
 40
0
 40
0
 40
0
 40
1
 40
1
 40
1
 40
1
 10
145.701850
 20
186.672020
 30
0.0
 10
145.492610
 20
185.179790
 30
0.0
 10
145.403670
 20
183.879010
 30
0.0
 10
145.504220
 20
183.781420
 30
0.0
  0
SPLINE
  5
14e
100
AcDbEntity
  8
Capa_1
 62
5
100
AcDbSpline
 70
8
 71
3
 72
8
 73
4
 74
0
 40
0
 40
0
 40
0
 40
0
 40
1
 40
1
 40
1
 40
1
 10
145.504220
 20
183.781420
 30
0.0
 10
145.604760
 20
183.683820
 30
0.0
 10
146.758590
 20
182.988200
 30
0.0
 10
148.068270
 20
182.235600
 30
0.0
  0
SPLINE
  5
14f
100
AcDbEntity
  8
Capa_1
 62
5
100
AcDbSpline
 70
8
 71
3
 72
8
 73
4
 74
0
 40
0
 40
0
 40
0
 40
0
 40
1
 40
1
 40
1
 40
1
 10
148.068270
 20
182.235600
 30
0.0
 10
150.656250
 20
180.748470
 30
0.0
 10
152.543490
 20
179.318900
 30
0.0
 10
152.969430
 20
178.523010
 30
0.0
  0
SPLINE
  5
150
100
AcDbEntity
  8
Capa_1
 62
5
100
AcDbSpline
 70
8
 71
3
 72
8
 73
4
 74
0
 40
0
 40
0
 40
0
 40
0
 40
1
 40
1
 40
1
 40
1
 10
152.969430
 20
178.523010
 30
0.0
 10
153.179930
 20
178.129690
 30
0.0
 10
153.121300
 20
177.899390
 30
0.0
 10
152.704550
 20
177.482640
 30
0.0
  0
SPLINE
  5
151
100
AcDbEntity
  8
Capa_1
 62
5
100
AcDbSpline
 70
8
 71
3
 72
8
 73
4
 74
0
 40
0
 40
0
 40
0
 40
0
 40
1
 40
1
 40
1
 40
1
 10
152.704550
 20
177.482640
 30
0.0
 10
152.014140
 20
176.792230
 30
0.0
 10
150.873030
 20
176.794280
 30
0.0
 10
147.255430
 20
177.492640
 30
0.0
  0
SPLINE
  5
152
100
AcDbEntity
  8
Capa_1
 62
5
100
AcDbSpline
 70
8
 71
3
 72
8
 73
4
 74
0
 40
0
 40
0
 40
0
 40
0
 40
1
 40
1
 40
1
 40
1
 10
147.255430
 20
177.492640
 30
0.0
 10
145.702180
 20
177.792390
 30
0.0
 10
144.293000
 20
177.984550
 30
0.0
 10
144.123920
 20
177.919670
 30
0.0
  0
SPLINE
  5
153
100
AcDbEntity
  8
Capa_1
 62
5
100
AcDbSpline
 70
8
 71
3
 72
8
 73
4
 74
0
 40
0
 40
0
 40
0
 40
0
 40
1
 40
1
 40
1
 40
1
 10
144.123920
 20
177.919670
 30
0.0
 10
143.954840
 20
177.854770
 30
0.0
 10
143.417170
 20
176.750410
 30
0.0
 10
142.929090
 20
175.465500
 30
0.0
  0
SPLINE
  5
154
100
AcDbEntity
  8
Capa_1
 62
5
100
AcDbSpline
 70
8
 71
3
 72
8
 73
4
 74
0
 40
0
 40
0
 40
0
 40
0
 40
1
 40
1
 40
1
 40
1
 10
142.929090
 20
175.465500
 30
0.0
 10
141.759390
 20
172.386170
 30
0.0
 10
141.033260
 20
171.653760
 30
0.0
 10
139.158940
 20
171.662750
 30
0.0
  0
SPLINE
  5
155
100
AcDbEntity
  8
Capa_1
 62
5
100
AcDbSpline
 70
8
 71
3
 72
8
 73
4
 74
0
 40
0
 40
0
 40
0
 40
0
 40
1
 40
1
 40
1
 40
1
 10
139.158940
 20
171.662750
 30
0.0
 10
138.370080
 20
171.666750
 30
0.0
 10
136.901720
 20
171.958330
 30
0.0
 10
135.823980
 20
172.325470
 30
0.0
  0
LWPOLYLINE
  5
156
100
AcDbEntity
  8
Capa_1
 62
5
100
AcDbPolyline
 90
3
 70
0
 10
144.300880
 20
202.218896
 30
0.0
 10
146.288340
 20
200.767476
 30
0.0
 10
146.409010
 20
198.845456
 30
0.0
  0
SPLINE
  5
157
100
AcDbEntity
  8
Capa_1
 62
5
100
AcDbSpline
 70
8
 71
3
 72
8
 73
4
 74
0
 40
0
 40
0
 40
0
 40
0
 40
1
 40
1
 40
1
 40
1
 10
139.983100
 20
174.021590
 30
0.0
 10
140.516650
 20
174.555140
 30
0.0
 10
141.585980
 20
177.632820
 30
0.0
 10
141.585980
 20
178.634880
 30
0.0
  0
SPLINE
  5
158
100
AcDbEntity
  8
Capa_1
 62
5
100
AcDbSpline
 70
8
 71
3
 72
8
 73
4
 74
0
 40
0
 40
0
 40
0
 40
0
 40
1
 40
1
 40
1
 40
1
 10
141.585980
 20
178.634880
 30
0.0
 10
141.585980
 20
179.020400
 30
0.0
 10
141.278140
 20
179.374090
 30
0.0
 10
140.646590
 20
179.714200
 30
0.0
  0
SPLINE
  5
159
100
AcDbEntity
  8
Capa_1
 62
5
100
AcDbSpline
 70
8
 71
3
 72
8
 73
4
 74
0
 40
0
 40
0
 40
0
 40
0
 40
1
 40
1
 40
1
 40
1
 10
140.646590
 20
179.714200
 30
0.0
 10
139.231520
 20
180.476270
 30
0.0
 10
137.881810
 20
182.093730
 30
0.0
 10
137.881810
 20
183.027470
 30
0.0
  0
SPLINE
  5
15a
100
AcDbEntity
  8
Capa_1
 62
5
100
AcDbSpline
 70
8
 71
3
 72
8
 73
4
 74
0
 40
0
 40
0
 40
0
 40
0
 40
1
 40
1
 40
1
 40
1
 10
137.881810
 20
183.027470
 30
0.0
 10
137.881810
 20
184.284310
 30
0.0
 10
138.818420
 20
184.729440
 30
0.0
 10
141.066410
 20
184.540980
 30
0.0
  0
SPLINE
  5
15b
100
AcDbEntity
  8
Capa_1
 62
5
100
AcDbSpline
 70
8
 71
3
 72
8
 73
4
 74
0
 40
0
 40
0
 40
0
 40
0
 40
1
 40
1
 40
1
 40
1
 10
141.066410
 20
184.540980
 30
0.0
 10
143.211380
 20
184.361150
 30
0.0
 10
142.945370
 20
183.932780
 30
0.0
 10
143.580160
 20
188.589060
 30
0.0
  0
SPLINE
  5
15c
100
AcDbEntity
  8
Capa_1
 62
5
100
AcDbSpline
 70
8
 71
3
 72
8
 73
4
 74
0
 40
0
 40
0
 40
0
 40
0
 40
1
 40
1
 40
1
 40
1
 10
143.580160
 20
188.589060
 30
0.0
 10
144.146480
 20
192.743200
 30
0.0
 10
144.516450
 20
198.822756
 30
0.0
 10
144.245550
 20
199.523346
 30
0.0
  0
SPLINE
  5
15d
100
AcDbEntity
  8
Capa_1
 62
5
100
AcDbSpline
 70
8
 71
3
 72
8
 73
4
 74
0
 40
0
 40
0
 40
0
 40
0
 40
1
 40
1
 40
1
 40
1
 10
144.245550
 20
199.523346
 30
0.0
 10
144.123250
 20
199.839636
 30
0.0
 10
143.669400
 20
200.304066
 30
0.0
 10
143.237000
 20
200.555406
 30
0.0
  0
SPLINE
  5
15e
100
AcDbEntity
  8
Capa_1
 62
5
100
AcDbSpline
 70
8
 71
3
 72
8
 73
4
 74
0
 40
0
 40
0
 40
0
 40
0
 40
1
 40
1
 40
1
 40
1
 10
143.237000
 20
200.555406
 30
0.0
 10
142.262590
 20
201.121806
 30
0.0
 10
142.533710
 20
201.416316
 30
0.0
 10
139.000230
 20
195.953160
 30
0.0
  0
LWPOLYLINE
  5
15f
100
AcDbEntity
  8
Capa_1
 62
5
100
AcDbPolyline
 90
2
 70
0
 10
135.823980
 20
172.325470
 30
0.0
 10
135.823980
 20
172.325210
 30
0.0
  0
SPLINE
  5
160
100
AcDbEntity
  8
Capa_1
 62
5
100
AcDbSpline
 70
8
 71
3
 72
8
 73
4
 74
0
 40
0
 40
0
 40
0
 40
0
 40
1
 40
1
 40
1
 40
1
 10
136.835890
 20
190.000880
 30
0.0
 10
137.120110
 20
189.007020
 30
0.0
 10
137.350000
 20
187.895830
 30
0.0
 10
137.346760
 20
187.531560
 30
0.0
  0
LWPOLYLINE
  5
161
100
AcDbEntity
  8
Capa_1
 62
5
100
AcDbPolyline
 90
3
 70
0
 10
139.000230
 20
195.953160
 30
0.0
 10
136.319130
 20
191.807900
 30
0.0
 10
136.835890
 20
190.000880
 30
0.0
  0
SPLINE
  5
162
100
AcDbEntity
  8
Capa_1
 62
5
100
AcDbSpline
 70
8
 71
3
 72
8
 73
4
 74
0
 40
0
 40
0
 40
0
 40
0
 40
1
 40
1
 40
1
 40
1
 10
136.826700
 20
187.530720
 30
0.0
 10
136.543960
 20
187.894530
 30
0.0
 10
134.859520
 20
190.752030
 30
0.0
 10
133.083500
 20
193.880720
 30
0.0
  0
SPLINE
  5
163
100
AcDbEntity
  8
Capa_1
 62
5
100
AcDbSpline
 70
8
 71
3
 72
8
 73
4
 74
0
 40
0
 40
0
 40
0
 40
0
 40
1
 40
1
 40
1
 40
1
 10
133.083500
 20
193.880720
 30
0.0
 10
129.119380
 20
200.864026
 30
0.0
 10
127.148890
 20
204.156626
 30
0.0
 10
125.107580
 20
207.208096
 30
0.0
  0
LWPOLYLINE
  5
164
100
AcDbEntity
  8
Capa_1
 62
5
100
AcDbPolyline
 90
3
 70
0
 10
137.346760
 20
187.531560
 30
0.0
 10
137.340760
 20
186.869260
 30
0.0
 10
136.826700
 20
187.530720
 30
0.0
  0
SPLINE
  5
165
100
AcDbEntity
  8
Capa_1
 62
5
100
AcDbSpline
 70
8
 71
3
 72
8
 73
4
 74
0
 40
0
 40
0
 40
0
 40
0
 40
1
 40
1
 40
1
 40
1
 10
122.441330
 20
209.405046
 30
0.0
 10
117.697600
 20
208.754886
 30
0.0
 10
116.297030
 20
208.930616
 30
0.0
 10
114.942610
 20
210.345916
 30
0.0
  0
SPLINE
  5
166
100
AcDbEntity
  8
Capa_1
 62
5
100
AcDbSpline
 70
8
 71
3
 72
8
 73
4
 74
0
 40
0
 40
0
 40
0
 40
0
 40
1
 40
1
 40
1
 40
1
 10
114.942610
 20
210.345916
 30
0.0
 10
113.465760
 20
211.889136
 30
0.0
 10
106.165880
 20
221.443876
 30
0.0
 10
104.003310
 20
224.664246
 30
0.0
  0
SPLINE
  5
167
100
AcDbEntity
  8
Capa_1
 62
5
100
AcDbSpline
 70
8
 71
3
 72
8
 73
4
 74
0
 40
0
 40
0
 40
0
 40
0
 40
1
 40
1
 40
1
 40
1
 10
104.003310
 20
224.664246
 30
0.0
 10
102.845590
 20
226.388266
 30
0.0
 10
101.898360
 20
228.071706
 30
0.0
 10
101.898360
 20
228.405246
 30
0.0
  0
SPLINE
  5
168
100
AcDbEntity
  8
Capa_1
 62
5
100
AcDbSpline
 70
8
 71
3
 72
8
 73
4
 74
0
 40
0
 40
0
 40
0
 40
0
 40
1
 40
1
 40
1
 40
1
 10
101.898360
 20
228.405246
 30
0.0
 10
101.898360
 20
229.459826
 30
0.0
 10
102.700700
 20
230.109286
 30
0.0
 10
104.380800
 20
230.414676
 30
0.0
  0
SPLINE
  5
169
100
AcDbEntity
  8
Capa_1
 62
5
100
AcDbSpline
 70
8
 71
3
 72
8
 73
4
 74
0
 40
0
 40
0
 40
0
 40
0
 40
1
 40
1
 40
1
 40
1
 10
104.380800
 20
230.414676
 30
0.0
 10
105.236820
 20
230.570266
 30
0.0
 10
106.234920
 20
230.622846
 30
0.0
 10
106.598810
 20
230.531516
 30
0.0
  0
LWPOLYLINE
  5
16a
100
AcDbEntity
  8
Capa_1
 62
5
100
AcDbPolyline
 90
3
 70
0
 10
125.107580
 20
207.208096
 30
0.0
 10
123.537420
 20
209.555276
 30
0.0
 10
122.441330
 20
209.405046
 30
0.0
  0
SPLINE
  5
16b
100
AcDbEntity
  8
Capa_1
 62
5
100
AcDbSpline
 70
8
 71
3
 72
8
 73
4
 74
0
 40
0
 40
0
 40
0
 40
0
 40
1
 40
1
 40
1
 40
1
 10
106.533180
 20
231.239236
 30
0.0
 10
102.800340
 20
235.724226
 30
0.0
 10
94.859999
 20
243.844486
 30
0.0
 10
91.171569
 20
246.948926
 30
0.0
  0
SPLINE
  5
16c
100
AcDbEntity
  8
Capa_1
 62
5
100
AcDbSpline
 70
8
 71
3
 72
8
 73
4
 74
0
 40
0
 40
0
 40
0
 40
0
 40
1
 40
1
 40
1
 40
1
 10
91.171569
 20
246.948926
 30
0.0
 10
86.306709
 20
251.043536
 30
0.0
 10
86.380639
 20
251.000026
 30
0.0
 10
86.144119
 20
249.907466
 30
0.0
  0
SPLINE
  5
16d
100
AcDbEntity
  8
Capa_1
 62
5
100
AcDbSpline
 70
8
 71
3
 72
8
 73
4
 74
0
 40
0
 40
0
 40
0
 40
0
 40
1
 40
1
 40
1
 40
1
 10
86.144119
 20
249.907466
 30
0.0
 10
85.643309
 20
247.594096
 30
0.0
 10
82.801569
 20
243.507956
 30
0.0
 10
81.147709
 20
242.723156
 30
0.0
  0
SPLINE
  5
16e
100
AcDbEntity
  8
Capa_1
 62
5
100
AcDbSpline
 70
8
 71
3
 72
8
 73
4
 74
0
 40
0
 40
0
 40
0
 40
0
 40
1
 40
1
 40
1
 40
1
 10
81.147709
 20
242.723156
 30
0.0
 10
79.496809
 20
241.939746
 30
0.0
 10
78.481729
 20
242.413406
 30
0.0
 10
74.791619
 20
245.689056
 30
0.0
  0
SPLINE
  5
16f
100
AcDbEntity
  8
Capa_1
 62
5
100
AcDbSpline
 70
8
 71
3
 72
8
 73
4
 74
0
 40
0
 40
0
 40
0
 40
0
 40
1
 40
1
 40
1
 40
1
 10
74.791619
 20
245.689056
 30
0.0
 10
73.788449
 20
246.579536
 30
0.0
 10
72.005919
 20
247.953206
 30
0.0
 10
70.830419
 20
248.741626
 30
0.0
  0
SPLINE
  5
170
100
AcDbEntity
  8
Capa_1
 62
5
100
AcDbSpline
 70
8
 71
3
 72
8
 73
4
 74
0
 40
0
 40
0
 40
0
 40
0
 40
1
 40
1
 40
1
 40
1
 10
70.830419
 20
248.741626
 30
0.0
 10
67.970969
 20
250.659536
 30
0.0
 10
61.907159
 20
254.124566
 30
0.0
 10
60.305469
 20
254.755896
 30
0.0
  0
SPLINE
  5
171
100
AcDbEntity
  8
Capa_1
 62
5
100
AcDbSpline
 70
8
 71
3
 72
8
 73
4
 74
0
 40
0
 40
0
 40
0
 40
0
 40
1
 40
1
 40
1
 40
1
 10
60.305469
 20
254.755896
 30
0.0
 10
57.726379
 20
255.772476
 30
0.0
 10
53.497989
 20
255.194016
 30
0.0
 10
52.707209
 20
253.716436
 30
0.0
  0
SPLINE
  5
172
100
AcDbEntity
  8
Capa_1
 62
5
100
AcDbSpline
 70
8
 71
3
 72
8
 73
4
 74
0
 40
0
 40
0
 40
0
 40
0
 40
1
 40
1
 40
1
 40
1
 10
52.707209
 20
253.716436
 30
0.0
 10
52.549949
 20
253.422586
 30
0.0
 10
52.421279
 20
252.359946
 30
0.0
 10
52.421279
 20
251.355016
 30
0.0
  0
SPLINE
  5
173
100
AcDbEntity
  8
Capa_1
 62
5
100
AcDbSpline
 70
8
 71
3
 72
8
 73
4
 74
0
 40
0
 40
0
 40
0
 40
0
 40
1
 40
1
 40
1
 40
1
 10
52.421279
 20
251.355016
 30
0.0
 10
52.421279
 20
247.939346
 30
0.0
 10
54.043049
 20
243.077186
 30
0.0
 10
56.657029
 20
238.655946
 30
0.0
  0
SPLINE
  5
174
100
AcDbEntity
  8
Capa_1
 62
5
100
AcDbSpline
 70
8
 71
3
 72
8
 73
4
 74
0
 40
0
 40
0
 40
0
 40
0
 40
1
 40
1
 40
1
 40
1
 10
56.657029
 20
238.655946
 30
0.0
 10
59.536179
 20
233.786216
 30
0.0
 10
68.428619
 20
222.367206
 30
0.0
 10
71.111309
 20
220.094836
 30
0.0
  0
SPLINE
  5
175
100
AcDbEntity
  8
Capa_1
 62
5
100
AcDbSpline
 70
8
 71
3
 72
8
 73
4
 74
0
 40
0
 40
0
 40
0
 40
0
 40
1
 40
1
 40
1
 40
1
 10
71.111309
 20
220.094836
 30
0.0
 10
71.527579
 20
219.742236
 30
0.0
 10
72.601919
 20
218.814076
 30
0.0
 10
73.498729
 20
218.032256
 30
0.0
  0
SPLINE
  5
176
100
AcDbEntity
  8
Capa_1
 62
5
100
AcDbSpline
 70
8
 71
3
 72
8
 73
4
 74
0
 40
0
 40
0
 40
0
 40
0
 40
1
 40
1
 40
1
 40
1
 10
73.498729
 20
218.032256
 30
0.0
 10
75.203769
 20
216.545856
 30
0.0
 10
75.778779
 20
216.535256
 30
0.0
 10
75.019149
 20
218.004256
 30
0.0
  0
SPLINE
  5
177
100
AcDbEntity
  8
Capa_1
 62
5
100
AcDbSpline
 70
8
 71
3
 72
8
 73
4
 74
0
 40
0
 40
0
 40
0
 40
0
 40
1
 40
1
 40
1
 40
1
 10
75.019149
 20
218.004256
 30
0.0
 10
74.108709
 20
219.764866
 30
0.0
 10
74.279899
 20
223.677926
 30
0.0
 10
75.338849
 20
225.311876
 30
0.0
  0
LWPOLYLINE
  5
178
100
AcDbEntity
  8
Capa_1
 62
5
100
AcDbPolyline
 90
3
 70
0
 10
106.598810
 20
230.531516
 30
0.0
 10
107.260420
 20
230.365466
 30
0.0
 10
106.533180
 20
231.239236
 30
0.0
  0
SPLINE
  5
179
100
AcDbEntity
  8
Capa_1
 62
5
100
AcDbSpline
 70
8
 71
3
 72
8
 73
4
 74
0
 40
0
 40
0
 40
0
 40
0
 40
1
 40
1
 40
1
 40
1
 10
76.578379
 20
225.208616
 30
0.0
 10
77.043689
 20
224.817886
 30
0.0
 10
78.912689
 20
223.103286
 30
0.0
 10
80.731699
 20
221.398406
 30
0.0
  0
SPLINE
  5
17a
100
AcDbEntity
  8
Capa_1
 62
5
100
AcDbSpline
 70
8
 71
3
 72
8
 73
4
 74
0
 40
0
 40
0
 40
0
 40
0
 40
1
 40
1
 40
1
 40
1
 10
80.731699
 20
221.398406
 30
0.0
 10
82.550709
 20
219.693516
 30
0.0
 10
84.485479
 20
217.911946
 30
0.0
 10
85.031179
 20
217.439356
 30
0.0
  0
SPLINE
  5
17b
100
AcDbEntity
  8
Capa_1
 62
5
100
AcDbSpline
 70
8
 71
3
 72
8
 73
4
 74
0
 40
0
 40
0
 40
0
 40
0
 40
1
 40
1
 40
1
 40
1
 10
85.031179
 20
217.439356
 30
0.0
 10
85.824569
 20
216.752256
 30
0.0
 10
86.023369
 20
216.394816
 30
0.0
 10
86.023369
 20
215.655306
 30
0.0
  0
SPLINE
  5
17c
100
AcDbEntity
  8
Capa_1
 62
5
100
AcDbSpline
 70
8
 71
3
 72
8
 73
4
 74
0
 40
0
 40
0
 40
0
 40
0
 40
1
 40
1
 40
1
 40
1
 10
86.023369
 20
215.655306
 30
0.0
 10
86.023369
 20
214.426246
 30
0.0
 10
85.296329
 20
212.949806
 30
0.0
 10
84.516039
 20
212.594276
 30
0.0
  0
SPLINE
  5
17d
100
AcDbEntity
  8
Capa_1
 62
5
100
AcDbSpline
 70
8
 71
3
 72
8
 73
4
 74
0
 40
0
 40
0
 40
0
 40
0
 40
1
 40
1
 40
1
 40
1
 10
84.516039
 20
212.594276
 30
0.0
 10
84.139449
 20
212.422696
 30
0.0
 10
83.943549
 20
212.158016
 30
0.0
 10
84.028769
 20
211.935946
 30
0.0
  0
SPLINE
  5
17e
100
AcDbEntity
  8
Capa_1
 62
5
100
AcDbSpline
 70
8
 71
3
 72
8
 73
4
 74
0
 40
0
 40
0
 40
0
 40
0
 40
1
 40
1
 40
1
 40
1
 10
84.028769
 20
211.935946
 30
0.0
 10
84.107169
 20
211.731686
 30
0.0
 10
84.171279
 20
210.987846
 30
0.0
 10
84.171279
 20
210.282986
 30
0.0
  0
LWPOLYLINE
  5
17f
100
AcDbEntity
  8
Capa_1
 62
5
100
AcDbPolyline
 90
3
 70
0
 10
75.338849
 20
225.311876
 30
0.0
 10
75.732349
 20
225.919036
 30
0.0
 10
76.578379
 20
225.208616
 30
0.0
  0
SPLINE
  5
180
100
AcDbEntity
  8
Capa_1
 62
5
100
AcDbSpline
 70
8
 71
3
 72
8
 73
4
 74
0
 40
0
 40
0
 40
0
 40
0
 40
1
 40
1
 40
1
 40
1
 10
87.015549
 20
206.647816
 30
0.0
 10
88.579899
 20
205.353346
 30
0.0
 10
92.241069
 20
202.511776
 30
0.0
 10
95.151489
 20
200.333216
 30
0.0
  0
SPLINE
  5
181
100
AcDbEntity
  8
Capa_1
 62
5
100
AcDbSpline
 70
8
 71
3
 72
8
 73
4
 74
0
 40
0
 40
0
 40
0
 40
0
 40
1
 40
1
 40
1
 40
1
 10
95.151489
 20
200.333216
 30
0.0
 10
99.817009
 20
196.840900
 30
0.0
 10
101.385870
 20
195.704370
 30
0.0
 10
105.996750
 20
192.476570
 30
0.0
  0
SPLINE
  5
182
100
AcDbEntity
  8
Capa_1
 62
5
100
AcDbSpline
 70
8
 71
3
 72
8
 73
4
 74
0
 40
0
 40
0
 40
0
 40
0
 40
1
 40
1
 40
1
 40
1
 10
105.996750
 20
192.476570
 30
0.0
 10
113.053880
 20
187.536300
 30
0.0
 10
122.604730
 20
181.506990
 30
0.0
 10
128.621280
 20
178.194060
 30
0.0
  0
SPLINE
  5
183
100
AcDbEntity
  8
Capa_1
 62
5
100
AcDbSpline
 70
8
 71
3
 72
8
 73
4
 74
0
 40
0
 40
0
 40
0
 40
0
 40
1
 40
1
 40
1
 40
1
 10
128.621280
 20
178.194060
 30
0.0
 10
137.003730
 20
173.578370
 30
0.0
 10
138.858560
 20
172.897210
 30
0.0
 10
139.982980
 20
174.021630
 30
0.0
  0
LWPOLYLINE
  5
184
100
AcDbEntity
  8
Capa_1
 62
5
100
AcDbPolyline
 90
3
 70
0
 10
84.171279
 20
210.282986
 30
0.0
 10
84.171279
 20
209.001406
 30
0.0
 10
87.015549
 20
206.647816
 30
0.0
  0
SPLINE
  5
185
100
AcDbEntity
  8
Capa_1
 62
5
100
AcDbSpline
 70
8
 71
3
 72
8
 73
4
 74
0
 40
0
 40
0
 40
0
 40
0
 40
1
 40
1
 40
1
 40
1
 10
132.560210
 20
180.865980
 30
0.0
 10
131.921830
 20
181.565990
 30
0.0
 10
130.331350
 20
183.500750
 30
0.0
 10
129.025800
 20
185.165450
 30
0.0
  0
SPLINE
  5
186
100
AcDbEntity
  8
Capa_1
 62
5
100
AcDbSpline
 70
8
 71
3
 72
8
 73
4
 74
0
 40
0
 40
0
 40
0
 40
0
 40
1
 40
1
 40
1
 40
1
 10
129.025800
 20
185.165450
 30
0.0
 10
127.720260
 20
186.830150
 30
0.0
 10
126.585570
 20
188.251710
 30
0.0
 10
126.504280
 20
188.324470
 30
0.0
  0
SPLINE
  5
187
100
AcDbEntity
  8
Capa_1
 62
5
100
AcDbSpline
 70
8
 71
3
 72
8
 73
4
 74
0
 40
0
 40
0
 40
0
 40
0
 40
1
 40
1
 40
1
 40
1
 10
126.504280
 20
188.324470
 30
0.0
 10
126.422980
 20
188.397270
 30
0.0
 10
124.739370
 20
190.480830
 30
0.0
 10
122.762910
 20
192.954680
 30
0.0
  0
SPLINE
  5
188
100
AcDbEntity
  8
Capa_1
 62
5
100
AcDbSpline
 70
8
 71
3
 72
8
 73
4
 74
0
 40
0
 40
0
 40
0
 40
0
 40
1
 40
1
 40
1
 40
1
 10
122.762910
 20
192.954680
 30
0.0
 10
107.890950
 20
211.569256
 30
0.0
 10
99.519289
 20
221.477906
 30
0.0
 10
91.019869
 20
230.525506
 30
0.0
  0
SPLINE
  5
189
100
AcDbEntity
  8
Capa_1
 62
5
100
AcDbSpline
 70
8
 71
3
 72
8
 73
4
 74
0
 40
0
 40
0
 40
0
 40
0
 40
1
 40
1
 40
1
 40
1
 10
91.019869
 20
230.525506
 30
0.0
 10
90.199649
 20
231.398626
 30
0.0
 10
88.888749
 20
232.819936
 30
0.0
 10
88.106749
 20
233.683956
 30
0.0
  0
SPLINE
  5
18a
100
AcDbEntity
  8
Capa_1
 62
5
100
AcDbSpline
 70
8
 71
3
 72
8
 73
4
 74
0
 40
0
 40
0
 40
0
 40
0
 40
1
 40
1
 40
1
 40
1
 10
88.106749
 20
233.683956
 30
0.0
 10
87.324759
 20
234.547976
 30
0.0
 10
85.824579
 20
236.155326
 30
0.0
 10
84.773009
 20
237.255826
 30
0.0
  0
SPLINE
  5
18b
100
AcDbEntity
  8
Capa_1
 62
5
100
AcDbSpline
 70
8
 71
3
 72
8
 73
4
 74
0
 40
0
 40
0
 40
0
 40
0
 40
1
 40
1
 40
1
 40
1
 10
84.773009
 20
237.255826
 30
0.0
 10
83.721449
 20
238.356336
 30
0.0
 10
82.858249
 20
239.414576
 30
0.0
 10
82.854789
 20
239.607466
 30
0.0
  0
SPLINE
  5
18c
100
AcDbEntity
  8
Capa_1
 62
5
100
AcDbSpline
 70
8
 71
3
 72
8
 73
4
 74
0
 40
0
 40
0
 40
0
 40
0
 40
1
 40
1
 40
1
 40
1
 10
82.854789
 20
239.607466
 30
0.0
 10
82.845789
 20
240.110596
 30
0.0
 10
84.938309
 20
243.622376
 30
0.0
 10
85.247149
 20
243.622376
 30
0.0
  0
SPLINE
  5
18d
100
AcDbEntity
  8
Capa_1
 62
5
100
AcDbSpline
 70
8
 71
3
 72
8
 73
4
 74
0
 40
0
 40
0
 40
0
 40
0
 40
1
 40
1
 40
1
 40
1
 10
85.247149
 20
243.622376
 30
0.0
 10
85.389409
 20
243.622376
 30
0.0
 10
87.272589
 20
241.866206
 30
0.0
 10
89.432009
 20
239.719776
 30
0.0
  0
SPLINE
  5
18e
100
AcDbEntity
  8
Capa_1
 62
5
100
AcDbSpline
 70
8
 71
3
 72
8
 73
4
 74
0
 40
0
 40
0
 40
0
 40
0
 40
1
 40
1
 40
1
 40
1
 10
89.432009
 20
239.719776
 30
0.0
 10
93.124909
 20
236.049076
 30
0.0
 10
96.336519
 20
232.435636
 30
0.0
 10
99.384939
 20
228.521546
 30
0.0
  0
SPLINE
  5
18f
100
AcDbEntity
  8
Capa_1
 62
5
100
AcDbSpline
 70
8
 71
3
 72
8
 73
4
 74
0
 40
0
 40
0
 40
0
 40
0
 40
1
 40
1
 40
1
 40
1
 10
99.384939
 20
228.521546
 30
0.0
 10
105.741500
 20
220.359906
 30
0.0
 10
121.401330
 20
199.578066
 30
0.0
 10
129.793000
 20
188.167660
 30
0.0
  0
SPLINE
  5
190
100
AcDbEntity
  8
Capa_1
 62
5
100
AcDbSpline
 70
8
 71
3
 72
8
 73
4
 74
0
 40
0
 40
0
 40
0
 40
0
 40
1
 40
1
 40
1
 40
1
 10
129.793000
 20
188.167660
 30
0.0
 10
133.806510
 20
182.710370
 30
0.0
 10
134.012940
 20
182.369560
 30
0.0
 10
134.125250
 20
181.015270
 30
0.0
  0
SPLINE
  5
191
100
AcDbEntity
  8
Capa_1
 62
5
100
AcDbSpline
 70
8
 71
3
 72
8
 73
4
 74
0
 40
0
 40
0
 40
0
 40
0
 40
1
 40
1
 40
1
 40
1
 10
134.125250
 20
181.015270
 30
0.0
 10
134.194850
 20
180.176470
 30
0.0
 10
134.136050
 20
179.593220
 30
0.0
 10
133.982030
 20
179.593220
 30
0.0
  0
SPLINE
  5
192
100
AcDbEntity
  8
Capa_1
 62
5
100
AcDbSpline
 70
8
 71
3
 72
8
 73
4
 74
0
 40
0
 40
0
 40
0
 40
0
 40
1
 40
1
 40
1
 40
1
 10
133.982030
 20
179.593220
 30
0.0
 10
133.838410
 20
179.593220
 30
0.0
 10
133.198580
 20
180.165960
 30
0.0
 10
132.560210
 20
180.865980
 30
0.0
  0
LWPOLYLINE
  5
193
100
AcDbEntity
  8
Capa_1
 62
5
100
AcDbPolyline
 90
2
 70
0
 10
139.982980
 20
174.021630
 30
0.0
 10
139.983100
 20
174.021590
 30
0.0
  0
SPLINE
  5
194
100
AcDbEntity
  8
Capa_1
 62
5
100
AcDbSpline
 70
8
 71
3
 72
8
 73
4
 74
0
 40
0
 40
0
 40
0
 40
0
 40
1
 40
1
 40
1
 40
1
 10
132.688800
 20
182.569790
 30
0.0
 10
132.130840
 20
183.505750
 30
0.0
 10
129.297860
 20
187.001560
 30
0.0
 10
129.097320
 20
187.001560
 30
0.0
  0
SPLINE
  5
195
100
AcDbEntity
  8
Capa_1
 62
5
100
AcDbSpline
 70
8
 71
3
 72
8
 73
4
 74
0
 40
0
 40
0
 40
0
 40
0
 40
1
 40
1
 40
1
 40
1
 10
129.097320
 20
187.001560
 30
0.0
 10
128.969590
 20
187.001560
 30
0.0
 10
129.733000
 20
185.932690
 30
0.0
 10
130.793770
 20
184.626300
 30
0.0
  0
SPLINE
  5
196
100
AcDbEntity
  8
Capa_1
 62
5
100
AcDbSpline
 70
8
 71
3
 72
8
 73
4
 74
0
 40
0
 40
0
 40
0
 40
0
 40
1
 40
1
 40
1
 40
1
 10
130.793770
 20
184.626300
 30
0.0
 10
132.616550
 20
182.381460
 30
0.0
 10
133.139160
 20
181.814320
 30
0.0
 10
132.688800
 20
182.569790
 30
0.0
  0
LWPOLYLINE
  5
197
100
AcDbEntity
  8
Capa_1
 62
5
100
AcDbPolyline
 90
1
 70
1
 10
132.560210
 20
180.865980
 30
0.0
  0
SPLINE
  5
198
100
AcDbEntity
  8
Capa_1
 62
5
100
AcDbSpline
 70
8
 71
3
 72
8
 73
4
 74
0
 40
0
 40
0
 40
0
 40
0
 40
1
 40
1
 40
1
 40
1
 10
128.719080
 20
187.861450
 30
0.0
 10
128.341610
 20
188.491570
 30
0.0
 10
104.157100
 20
220.752086
 30
0.0
 10
101.396610
 20
224.307796
 30
0.0
  0
SPLINE
  5
199
100
AcDbEntity
  8
Capa_1
 62
5
100
AcDbSpline
 70
8
 71
3
 72
8
 73
4
 74
0
 40
0
 40
0
 40
0
 40
0
 40
1
 40
1
 40
1
 40
1
 10
101.396610
 20
224.307796
 30
0.0
 10
99.871439
 20
226.272326
 30
0.0
 10
97.367969
 20
229.367956
 30
0.0
 10
95.833329
 20
231.186966
 30
0.0
  0
SPLINE
  5
19a
100
AcDbEntity
  8
Capa_1
 62
5
100
AcDbSpline
 70
8
 71
3
 72
8
 73
4
 74
0
 40
0
 40
0
 40
0
 40
0
 40
1
 40
1
 40
1
 40
1
 10
95.833329
 20
231.186966
 30
0.0
 10
92.569519
 20
235.055546
 30
0.0
 10
85.776419
 20
242.084816
 30
0.0
 10
85.417299
 20
241.965106
 30
0.0
  0
SPLINE
  5
19b
100
AcDbEntity
  8
Capa_1
 62
5
100
AcDbSpline
 70
8
 71
3
 72
8
 73
4
 74
0
 40
0
 40
0
 40
0
 40
0
 40
1
 40
1
 40
1
 40
1
 10
85.417299
 20
241.965106
 30
0.0
 10
85.280929
 20
241.919606
 30
0.0
 10
84.871149
 20
241.377516
 30
0.0
 10
84.506689
 20
240.760366
 30
0.0
  0
LWPOLYLINE
  5
19c
100
AcDbEntity
  8
Capa_1
 62
5
100
AcDbPolyline
 90
1
 70
1
 10
132.688800
 20
182.569790
 30
0.0
  0
SPLINE
  5
19d
100
AcDbEntity
  8
Capa_1
 62
5
100
AcDbSpline
 70
8
 71
3
 72
8
 73
4
 74
0
 40
0
 40
0
 40
0
 40
0
 40
1
 40
1
 40
1
 40
1
 10
86.598279
 20
236.801686
 30
0.0
 10
88.113129
 20
235.241556
 30
0.0
 10
90.533829
 20
232.655406
 30
0.0
 10
91.977629
 20
231.054676
 30
0.0
  0
SPLINE
  5
19e
100
AcDbEntity
  8
Capa_1
 62
5
100
AcDbSpline
 70
8
 71
3
 72
8
 73
4
 74
0
 40
0
 40
0
 40
0
 40
0
 40
1
 40
1
 40
1
 40
1
 10
91.977629
 20
231.054676
 30
0.0
 10
93.421429
 20
229.453946
 30
0.0
 10
95.742729
 20
226.953636
 30
0.0
 10
97.136079
 20
225.498426
 30
0.0
  0
SPLINE
  5
19f
100
AcDbEntity
  8
Capa_1
 62
5
100
AcDbSpline
 70
8
 71
3
 72
8
 73
4
 74
0
 40
0
 40
0
 40
0
 40
0
 40
1
 40
1
 40
1
 40
1
 10
97.136079
 20
225.498426
 30
0.0
 10
99.466799
 20
223.064226
 30
0.0
 10
101.787390
 20
220.339836
 30
0.0
 10
108.517130
 20
212.136966
 30
0.0
  0
SPLINE
  5
1a0
100
AcDbEntity
  8
Capa_1
 62
5
100
AcDbSpline
 70
8
 71
3
 72
8
 73
4
 74
0
 40
0
 40
0
 40
0
 40
0
 40
1
 40
1
 40
1
 40
1
 10
108.517130
 20
212.136966
 30
0.0
 10
115.255240
 20
203.923906
 30
0.0
 10
118.592120
 20
199.814586
 30
0.0
 10
123.296660
 20
193.936150
 30
0.0
  0
SPLINE
  5
1a1
100
AcDbEntity
  8
Capa_1
 62
5
100
AcDbSpline
 70
8
 71
3
 72
8
 73
4
 74
0
 40
0
 40
0
 40
0
 40
0
 40
1
 40
1
 40
1
 40
1
 10
123.296660
 20
193.936150
 30
0.0
 10
126.116130
 20
190.413170
 30
0.0
 10
128.534170
 20
187.530720
 30
0.0
 10
128.670090
 20
187.530720
 30
0.0
  0
SPLINE
  5
1a2
100
AcDbEntity
  8
Capa_1
 62
5
100
AcDbSpline
 70
8
 71
3
 72
8
 73
4
 74
0
 40
0
 40
0
 40
0
 40
0
 40
1
 40
1
 40
1
 40
1
 10
128.670090
 20
187.530720
 30
0.0
 10
128.806010
 20
187.530720
 30
0.0
 10
128.828050
 20
187.679550
 30
0.0
 10
128.719090
 20
187.861450
 30
0.0
  0
LWPOLYLINE
  5
1a3
100
AcDbEntity
  8
Capa_1
 62
5
100
AcDbPolyline
 90
3
 70
0
 10
84.506689
 20
240.760366
 30
0.0
 10
83.844019
 20
239.638276
 30
0.0
 10
86.598279
 20
236.801686
 30
0.0
  0
SPLINE
  5
1a4
100
AcDbEntity
  8
Capa_1
 62
5
100
AcDbSpline
 70
8
 71
3
 72
8
 73
4
 74
0
 40
0
 40
0
 40
0
 40
0
 40
1
 40
1
 40
1
 40
1
 10
132.321670
 20
187.005450
 30
0.0
 10
131.576820
 20
187.750300
 30
0.0
 10
131.635540
 20
189.000620
 30
0.0
 10
132.440110
 20
189.527800
 30
0.0
  0
SPLINE
  5
1a5
100
AcDbEntity
  8
Capa_1
 62
5
100
AcDbSpline
 70
8
 71
3
 72
8
 73
4
 74
0
 40
0
 40
0
 40
0
 40
0
 40
1
 40
1
 40
1
 40
1
 10
132.440110
 20
189.527800
 30
0.0
 10
132.931070
 20
189.849490
 30
0.0
 10
133.209360
 20
189.882400
 30
0.0
 10
133.612820
 20
189.666470
 30
0.0
  0
SPLINE
  5
1a6
100
AcDbEntity
  8
Capa_1
 62
5
100
AcDbSpline
 70
8
 71
3
 72
8
 73
4
 74
0
 40
0
 40
0
 40
0
 40
0
 40
1
 40
1
 40
1
 40
1
 10
133.612820
 20
189.666470
 30
0.0
 10
134.718000
 20
189.075000
 30
0.0
 10
134.660160
 20
187.306340
 30
0.0
 10
133.518620
 20
186.786230
 30
0.0
  0
SPLINE
  5
1a7
100
AcDbEntity
  8
Capa_1
 62
5
100
AcDbSpline
 70
8
 71
3
 72
8
 73
4
 74
0
 40
0
 40
0
 40
0
 40
0
 40
1
 40
1
 40
1
 40
1
 10
133.518620
 20
186.786230
 30
0.0
 10
132.949730
 20
186.527030
 30
0.0
 10
132.766520
 20
186.560580
 30
0.0
 10
132.321650
 20
187.005450
 30
0.0
  0
LWPOLYLINE
  5
1a8
100
AcDbEntity
  8
Capa_1
 62
5
100
AcDbPolyline
 90
1
 70
1
 10
128.719090
 20
187.861450
 30
0.0
  0
SPLINE
  5
1a9
100
AcDbEntity
  8
Capa_1
 62
5
100
AcDbSpline
 70
8
 71
3
 72
8
 73
4
 74
0
 40
0
 40
0
 40
0
 40
0
 40
1
 40
1
 40
1
 40
1
 10
133.516190
 20
188.328100
 30
0.0
 10
133.516190
 20
189.269560
 30
0.0
 10
132.745590
 20
189.188100
 30
0.0
 10
132.636480
 20
188.235100
 30
0.0
  0
SPLINE
  5
1aa
100
AcDbEntity
  8
Capa_1
 62
5
100
AcDbSpline
 70
8
 71
3
 72
8
 73
4
 74
0
 40
0
 40
0
 40
0
 40
0
 40
1
 40
1
 40
1
 40
1
 10
132.636480
 20
188.235100
 30
0.0
 10
132.566980
 20
187.628000
 30
0.0
 10
132.642480
 20
187.502080
 30
0.0
 10
133.033350
 20
187.577270
 30
0.0
  0
SPLINE
  5
1ab
100
AcDbEntity
  8
Capa_1
 62
5
100
AcDbSpline
 70
8
 71
3
 72
8
 73
4
 74
0
 40
0
 40
0
 40
0
 40
0
 40
1
 40
1
 40
1
 40
1
 10
133.033350
 20
187.577270
 30
0.0
 10
133.346350
 20
187.637570
 30
0.0
 10
133.516190
 20
187.901650
 30
0.0
 10
133.516190
 20
188.328090
 30
0.0
  0
LWPOLYLINE
  5
1ac
100
AcDbEntity
  8
Capa_1
 62
5
100
AcDbPolyline
 90
1
 70
1
 10
132.321650
 20
187.005450
 30
0.0
  0
SPLINE
  5
1ad
100
AcDbEntity
  8
Capa_1
 62
5
100
AcDbSpline
 70
8
 71
3
 72
8
 73
4
 74
0
 40
0
 40
0
 40
0
 40
0
 40
1
 40
1
 40
1
 40
1
 10
130.843820
 20
189.849880
 30
0.0
 10
130.305590
 20
190.209260
 30
0.0
 10
129.898010
 20
191.278980
 30
0.0
 10
130.057380
 20
191.913940
 30
0.0
  0
SPLINE
  5
1ae
100
AcDbEntity
  8
Capa_1
 62
5
100
AcDbSpline
 70
8
 71
3
 72
8
 73
4
 74
0
 40
0
 40
0
 40
0
 40
0
 40
1
 40
1
 40
1
 40
1
 10
130.057380
 20
191.913940
 30
0.0
 10
130.181580
 20
192.408780
 30
0.0
 10
130.127580
 20
192.510000
 30
0.0
 10
129.805440
 20
192.386380
 30
0.0
  0
SPLINE
  5
1af
100
AcDbEntity
  8
Capa_1
 62
5
100
AcDbSpline
 70
8
 71
3
 72
8
 73
4
 74
0
 40
0
 40
0
 40
0
 40
0
 40
1
 40
1
 40
1
 40
1
 10
129.805440
 20
192.386380
 30
0.0
 10
129.155480
 20
192.136960
 30
0.0
 10
128.356810
 20
193.056380
 30
0.0
 10
128.356810
 20
194.054020
 30
0.0
  0
SPLINE
  5
1b0
100
AcDbEntity
  8
Capa_1
 62
5
100
AcDbSpline
 70
8
 71
3
 72
8
 73
4
 74
0
 40
0
 40
0
 40
0
 40
0
 40
1
 40
1
 40
1
 40
1
 10
128.356810
 20
194.054020
 30
0.0
 10
128.356810
 20
194.819470
 30
0.0
 10
128.268310
 20
194.939060
 30
0.0
 10
127.701450
 20
194.939060
 30
0.0
  0
SPLINE
  5
1b1
100
AcDbEntity
  8
Capa_1
 62
5
100
AcDbSpline
 70
8
 71
3
 72
8
 73
4
 74
0
 40
0
 40
0
 40
0
 40
0
 40
1
 40
1
 40
1
 40
1
 10
127.701450
 20
194.939060
 30
0.0
 10
126.844360
 20
194.939060
 30
0.0
 10
126.141590
 20
195.999690
 30
0.0
 10
126.297020
 20
197.058666
 30
0.0
  0
SPLINE
  5
1b2
100
AcDbEntity
  8
Capa_1
 62
5
100
AcDbSpline
 70
8
 71
3
 72
8
 73
4
 74
0
 40
0
 40
0
 40
0
 40
0
 40
1
 40
1
 40
1
 40
1
 10
126.297020
 20
197.058666
 30
0.0
 10
126.396020
 20
197.733336
 30
0.0
 10
126.340120
 20
197.832896
 30
0.0
 10
125.934650
 20
197.704196
 30
0.0
  0
SPLINE
  5
1b3
100
AcDbEntity
  8
Capa_1
 62
5
100
AcDbSpline
 70
8
 71
3
 72
8
 73
4
 74
0
 40
0
 40
0
 40
0
 40
0
 40
1
 40
1
 40
1
 40
1
 10
125.934650
 20
197.704196
 30
0.0
 10
124.868700
 20
197.365876
 30
0.0
 10
123.637660
 20
199.623296
 30
0.0
 10
124.325970
 20
200.654136
 30
0.0
  0
SPLINE
  5
1b4
100
AcDbEntity
  8
Capa_1
 62
5
100
AcDbSpline
 70
8
 71
3
 72
8
 73
4
 74
0
 40
0
 40
0
 40
0
 40
0
 40
1
 40
1
 40
1
 40
1
 10
124.325970
 20
200.654136
 30
0.0
 10
124.664690
 20
201.161406
 30
0.0
 10
125.712650
 20
201.588766
 30
0.0
 10
126.221690
 20
201.427206
 30
0.0
  0
SPLINE
  5
1b5
100
AcDbEntity
  8
Capa_1
 62
5
100
AcDbSpline
 70
8
 71
3
 72
8
 73
4
 74
0
 40
0
 40
0
 40
0
 40
0
 40
1
 40
1
 40
1
 40
1
 10
126.221690
 20
201.427206
 30
0.0
 10
126.949520
 20
201.196196
 30
0.0
 10
127.452050
 20
199.801046
 30
0.0
 10
127.122190
 20
198.927156
 30
0.0
  0
SPLINE
  5
1b6
100
AcDbEntity
  8
Capa_1
 62
5
100
AcDbSpline
 70
8
 71
3
 72
8
 73
4
 74
0
 40
0
 40
0
 40
0
 40
0
 40
1
 40
1
 40
1
 40
1
 10
127.122190
 20
198.927156
 30
0.0
 10
126.864710
 20
198.244996
 30
0.0
 10
126.884600
 20
198.222626
 30
0.0
 10
127.648820
 20
198.334786
 30
0.0
  0
SPLINE
  5
1b7
100
AcDbEntity
  8
Capa_1
 62
5
100
AcDbSpline
 70
8
 71
3
 72
8
 73
4
 74
0
 40
0
 40
0
 40
0
 40
0
 40
1
 40
1
 40
1
 40
1
 10
127.648820
 20
198.334786
 30
0.0
 10
128.620790
 20
198.477436
 30
0.0
 10
129.150560
 20
197.868376
 30
0.0
 10
129.150560
 20
196.608280
 30
0.0
  0
SPLINE
  5
1b8
100
AcDbEntity
  8
Capa_1
 62
5
100
AcDbSpline
 70
8
 71
3
 72
8
 73
4
 74
0
 40
0
 40
0
 40
0
 40
0
 40
1
 40
1
 40
1
 40
1
 10
129.150560
 20
196.608280
 30
0.0
 10
129.150560
 20
195.871130
 30
0.0
 10
129.246660
 20
195.732810
 30
0.0
 10
129.759110
 20
195.732810
 30
0.0
  0
SPLINE
  5
1b9
100
AcDbEntity
  8
Capa_1
 62
5
100
AcDbSpline
 70
8
 71
3
 72
8
 73
4
 74
0
 40
0
 40
0
 40
0
 40
0
 40
1
 40
1
 40
1
 40
1
 10
129.759110
 20
195.732810
 30
0.0
 10
130.631380
 20
195.732810
 30
0.0
 10
131.002650
 20
195.243060
 30
0.0
 10
131.002650
 20
194.092390
 30
0.0
  0
SPLINE
  5
1ba
100
AcDbEntity
  8
Capa_1
 62
5
100
AcDbSpline
 70
8
 71
3
 72
8
 73
4
 74
0
 40
0
 40
0
 40
0
 40
0
 40
1
 40
1
 40
1
 40
1
 10
131.002650
 20
194.092390
 30
0.0
 10
131.002650
 20
193.285220
 30
0.0
 10
131.100550
 20
193.086970
 30
0.0
 10
131.499420
 20
193.086970
 30
0.0
  0
SPLINE
  5
1bb
100
AcDbEntity
  8
Capa_1
 62
5
100
AcDbSpline
 70
8
 71
3
 72
8
 73
4
 74
0
 40
0
 40
0
 40
0
 40
0
 40
1
 40
1
 40
1
 40
1
 10
131.499420
 20
193.086970
 30
0.0
 10
132.313720
 20
193.086970
 30
0.0
 10
132.715830
 20
192.310900
 30
0.0
 10
132.620610
 20
190.923060
 30
0.0
  0
SPLINE
  5
1bc
100
AcDbEntity
  8
Capa_1
 62
5
100
AcDbSpline
 70
8
 71
3
 72
8
 73
4
 74
0
 40
0
 40
0
 40
0
 40
0
 40
1
 40
1
 40
1
 40
1
 10
132.620610
 20
190.923060
 30
0.0
 10
132.558910
 20
190.022920
 30
0.0
 10
131.522300
 20
189.396840
 30
0.0
 10
130.843820
 20
189.849880
 30
0.0
  0
LWPOLYLINE
  5
1bd
100
AcDbEntity
  8
Capa_1
 62
5
100
AcDbPolyline
 90
1
 70
1
 10
133.516190
 20
188.328090
 30
0.0
  0
SPLINE
  5
1be
100
AcDbEntity
  8
Capa_1
 62
5
100
AcDbSpline
 70
8
 71
3
 72
8
 73
4
 74
0
 40
0
 40
0
 40
0
 40
0
 40
1
 40
1
 40
1
 40
1
 10
131.904950
 20
191.136130
 30
0.0
 10
131.995750
 20
191.372860
 30
0.0
 10
131.929450
 20
191.736020
 30
0.0
 10
131.757550
 20
191.943160
 30
0.0
  0
SPLINE
  5
1bf
100
AcDbEntity
  8
Capa_1
 62
5
100
AcDbSpline
 70
8
 71
3
 72
8
 73
4
 74
0
 40
0
 40
0
 40
0
 40
0
 40
1
 40
1
 40
1
 40
1
 10
131.757550
 20
191.943160
 30
0.0
 10
131.487630
 20
192.268380
 30
0.0
 10
131.391810
 20
192.266610
 30
0.0
 10
131.055340
 20
191.930160
 30
0.0
  0
SPLINE
  5
1c0
100
AcDbEntity
  8
Capa_1
 62
5
100
AcDbSpline
 70
8
 71
3
 72
8
 73
4
 74
0
 40
0
 40
0
 40
0
 40
0
 40
1
 40
1
 40
1
 40
1
 10
131.055340
 20
191.930160
 30
0.0
 10
130.608290
 20
191.483110
 30
0.0
 10
130.803560
 20
190.705740
 30
0.0
 10
131.362910
 20
190.705740
 30
0.0
  0
SPLINE
  5
1c1
100
AcDbEntity
  8
Capa_1
 62
5
100
AcDbSpline
 70
8
 71
3
 72
8
 73
4
 74
0
 40
0
 40
0
 40
0
 40
0
 40
1
 40
1
 40
1
 40
1
 10
131.362910
 20
190.705740
 30
0.0
 10
131.570190
 20
190.705740
 30
0.0
 10
131.814110
 20
190.899420
 30
0.0
 10
131.904950
 20
191.136150
 30
0.0
  0
LWPOLYLINE
  5
1c2
100
AcDbEntity
  8
Capa_1
 62
5
100
AcDbPolyline
 90
1
 70
1
 10
130.843820
 20
189.849880
 30
0.0
  0
SPLINE
  5
1c3
100
AcDbEntity
  8
Capa_1
 62
5
100
AcDbSpline
 70
8
 71
3
 72
8
 73
4
 74
0
 40
0
 40
0
 40
0
 40
0
 40
1
 40
1
 40
1
 40
1
 10
130.159520
 20
194.099540
 30
0.0
 10
130.228520
 20
194.798050
 30
0.0
 10
130.150520
 20
194.939060
 30
0.0
 10
129.696500
 20
194.939060
 30
0.0
  0
SPLINE
  5
1c4
100
AcDbEntity
  8
Capa_1
 62
5
100
AcDbSpline
 70
8
 71
3
 72
8
 73
4
 74
0
 40
0
 40
0
 40
0
 40
0
 40
1
 40
1
 40
1
 40
1
 10
129.696500
 20
194.939060
 30
0.0
 10
129.273430
 20
194.939060
 30
0.0
 10
129.150560
 20
194.770340
 30
0.0
 10
129.150560
 20
194.189400
 30
0.0
  0
SPLINE
  5
1c5
100
AcDbEntity
  8
Capa_1
 62
5
100
AcDbSpline
 70
8
 71
3
 72
8
 73
4
 74
0
 40
0
 40
0
 40
0
 40
0
 40
1
 40
1
 40
1
 40
1
 10
129.150560
 20
194.189400
 30
0.0
 10
129.150560
 20
192.792610
 30
0.0
 10
130.022770
 20
192.714920
 30
0.0
 10
130.159520
 20
194.099500
 30
0.0
  0
LWPOLYLINE
  5
1c6
100
AcDbEntity
  8
Capa_1
 62
5
100
AcDbPolyline
 90
1
 70
1
 10
131.904950
 20
191.136150
 30
0.0
  0
SPLINE
  5
1c7
100
AcDbEntity
  8
Capa_1
 62
5
100
AcDbSpline
 70
8
 71
3
 72
8
 73
4
 74
0
 40
0
 40
0
 40
0
 40
0
 40
1
 40
1
 40
1
 40
1
 10
128.224520
 20
196.662470
 30
0.0
 10
128.224520
 20
197.274386
 30
0.0
 10
128.105990
 20
197.452596
 30
0.0
 10
127.698980
 20
197.452596
 30
0.0
  0
SPLINE
  5
1c8
100
AcDbEntity
  8
Capa_1
 62
5
100
AcDbSpline
 70
8
 71
3
 72
8
 73
4
 74
0
 40
0
 40
0
 40
0
 40
0
 40
1
 40
1
 40
1
 40
1
 10
127.698980
 20
197.452596
 30
0.0
 10
127.148840
 20
197.452596
 30
0.0
 10
126.876850
 20
196.788280
 30
0.0
 10
127.143010
 20
196.094670
 30
0.0
  0
SPLINE
  5
1c9
100
AcDbEntity
  8
Capa_1
 62
5
100
AcDbSpline
 70
8
 71
3
 72
8
 73
4
 74
0
 40
0
 40
0
 40
0
 40
0
 40
1
 40
1
 40
1
 40
1
 10
127.143010
 20
196.094670
 30
0.0
 10
127.419490
 20
195.374180
 30
0.0
 10
128.224520
 20
195.796820
 30
0.0
 10
128.224520
 20
196.662470
 30
0.0
  0
LWPOLYLINE
  5
1ca
100
AcDbEntity
  8
Capa_1
 62
5
100
AcDbPolyline
 90
1
 70
1
 10
130.159520
 20
194.099500
 30
0.0
  0
SPLINE
  5
1cb
100
AcDbEntity
  8
Capa_1
 62
5
100
AcDbSpline
 70
8
 71
3
 72
8
 73
4
 74
0
 40
0
 40
0
 40
0
 40
0
 40
1
 40
1
 40
1
 40
1
 10
126.401700
 20
199.327076
 30
0.0
 10
126.513690
 20
199.773276
 30
0.0
 10
126.436600
 20
200.147626
 30
0.0
 10
126.179960
 20
200.404306
 30
0.0
  0
SPLINE
  5
1cc
100
AcDbEntity
  8
Capa_1
 62
5
100
AcDbSpline
 70
8
 71
3
 72
8
 73
4
 74
0
 40
0
 40
0
 40
0
 40
0
 40
1
 40
1
 40
1
 40
1
 10
126.179960
 20
200.404306
 30
0.0
 10
125.831840
 20
200.752426
 30
0.0
 10
125.736560
 20
200.747666
 30
0.0
 10
125.351900
 20
200.363006
 30
0.0
  0
SPLINE
  5
1cd
100
AcDbEntity
  8
Capa_1
 62
5
100
AcDbSpline
 70
8
 71
3
 72
8
 73
4
 74
0
 40
0
 40
0
 40
0
 40
0
 40
1
 40
1
 40
1
 40
1
 10
125.351900
 20
200.363006
 30
0.0
 10
124.907890
 20
199.918996
 30
0.0
 10
124.776910
 20
199.136316
 30
0.0
 10
125.093620
 20
198.819606
 30
0.0
  0
SPLINE
  5
1ce
100
AcDbEntity
  8
Capa_1
 62
5
100
AcDbSpline
 70
8
 71
3
 72
8
 73
4
 74
0
 40
0
 40
0
 40
0
 40
0
 40
1
 40
1
 40
1
 40
1
 10
125.093620
 20
198.819606
 30
0.0
 10
125.515990
 20
198.397236
 30
0.0
 10
126.238700
 20
198.677606
 30
0.0
 10
126.401700
 20
199.327076
 30
0.0
  0
LWPOLYLINE
  5
1cf
100
AcDbEntity
  8
Capa_1
 62
5
100
AcDbPolyline
 90
1
 70
1
 10
128.224520
 20
196.662470
 30
0.0
  0
SPLINE
  5
1d0
100
AcDbEntity
  8
Capa_1
 62
5
100
AcDbSpline
 70
8
 71
3
 72
8
 73
4
 74
0
 40
0
 40
0
 40
0
 40
0
 40
1
 40
1
 40
1
 40
1
 10
122.644210
 20
200.752566
 30
0.0
 10
121.811810
 20
201.089176
 30
0.0
 10
121.338160
 20
202.446766
 30
0.0
 10
121.672760
 20
203.536986
 30
0.0
  0
SPLINE
  5
1d1
100
AcDbEntity
  8
Capa_1
 62
5
100
AcDbSpline
 70
8
 71
3
 72
8
 73
4
 74
0
 40
0
 40
0
 40
0
 40
0
 40
1
 40
1
 40
1
 40
1
 10
121.672760
 20
203.536986
 30
0.0
 10
121.935320
 20
204.392496
 30
0.0
 10
121.922700
 20
204.418976
 30
0.0
 10
121.355100
 20
204.203166
 30
0.0
  0
SPLINE
  5
1d2
100
AcDbEntity
  8
Capa_1
 62
5
100
AcDbSpline
 70
8
 71
3
 72
8
 73
4
 74
0
 40
0
 40
0
 40
0
 40
0
 40
1
 40
1
 40
1
 40
1
 10
121.355100
 20
204.203166
 30
0.0
 10
120.032050
 20
203.700146
 30
0.0
 10
118.694850
 20
205.188406
 30
0.0
 10
118.981160
 20
206.845296
 30
0.0
  0
SPLINE
  5
1d3
100
AcDbEntity
  8
Capa_1
 62
5
100
AcDbSpline
 70
8
 71
3
 72
8
 73
4
 74
0
 40
0
 40
0
 40
0
 40
0
 40
1
 40
1
 40
1
 40
1
 10
118.981160
 20
206.845296
 30
0.0
 10
119.198240
 20
208.101586
 30
0.0
 10
119.795560
 20
208.697386
 30
0.0
 10
120.837990
 20
208.697386
 30
0.0
  0
SPLINE
  5
1d4
100
AcDbEntity
  8
Capa_1
 62
5
100
AcDbSpline
 70
8
 71
3
 72
8
 73
4
 74
0
 40
0
 40
0
 40
0
 40
0
 40
1
 40
1
 40
1
 40
1
 10
120.837990
 20
208.697386
 30
0.0
 10
122.166770
 20
208.697386
 30
0.0
 10
122.899300
 20
207.623596
 30
0.0
 10
122.704890
 20
205.960756
 30
0.0
  0
SPLINE
  5
1d5
100
AcDbEntity
  8
Capa_1
 62
5
100
AcDbSpline
 70
8
 71
3
 72
8
 73
4
 74
0
 40
0
 40
0
 40
0
 40
0
 40
1
 40
1
 40
1
 40
1
 10
122.704890
 20
205.960756
 30
0.0
 10
122.578550
 20
204.880106
 30
0.0
 10
122.618790
 20
204.703786
 30
0.0
 10
122.961570
 20
204.835326
 30
0.0
  0
SPLINE
  5
1d6
100
AcDbEntity
  8
Capa_1
 62
5
100
AcDbSpline
 70
8
 71
3
 72
8
 73
4
 74
0
 40
0
 40
0
 40
0
 40
0
 40
1
 40
1
 40
1
 40
1
 10
122.961570
 20
204.835326
 30
0.0
 10
123.393340
 20
205.001016
 30
0.0
 10
124.390600
 20
204.579166
 30
0.0
 10
124.714740
 20
204.093716
 30
0.0
  0
SPLINE
  5
1d7
100
AcDbEntity
  8
Capa_1
 62
5
100
AcDbSpline
 70
8
 71
3
 72
8
 73
4
 74
0
 40
0
 40
0
 40
0
 40
0
 40
1
 40
1
 40
1
 40
1
 10
124.714740
 20
204.093716
 30
0.0
 10
124.821660
 20
203.933596
 30
0.0
 10
124.910950
 20
203.305216
 30
0.0
 10
124.913180
 20
202.697316
 30
0.0
  0
SPLINE
  5
1d8
100
AcDbEntity
  8
Capa_1
 62
5
100
AcDbSpline
 70
8
 71
3
 72
8
 73
4
 74
0
 40
0
 40
0
 40
0
 40
0
 40
1
 40
1
 40
1
 40
1
 10
124.913180
 20
202.697316
 30
0.0
 10
124.916180
 20
201.815676
 30
0.0
 10
124.776180
 20
201.481086
 30
0.0
 10
124.220090
 20
201.043676
 30
0.0
  0
SPLINE
  5
1d9
100
AcDbEntity
  8
Capa_1
 62
5
100
AcDbSpline
 70
8
 71
3
 72
8
 73
4
 74
0
 40
0
 40
0
 40
0
 40
0
 40
1
 40
1
 40
1
 40
1
 10
124.220090
 20
201.043676
 30
0.0
 10
123.449480
 20
200.437506
 30
0.0
 10
123.431510
 20
200.434186
 30
0.0
 10
122.644210
 20
200.752566
 30
0.0
  0
LWPOLYLINE
  5
1da
100
AcDbEntity
  8
Capa_1
 62
5
100
AcDbPolyline
 90
1
 70
1
 10
126.401700
 20
199.327076
 30
0.0
  0
SPLINE
  5
1db
100
AcDbEntity
  8
Capa_1
 62
5
100
AcDbSpline
 70
8
 71
3
 72
8
 73
4
 74
0
 40
0
 40
0
 40
0
 40
0
 40
1
 40
1
 40
1
 40
1
 10
123.845620
 20
201.934506
 30
0.0
 10
124.019470
 20
202.143996
 30
0.0
 10
124.123350
 20
202.650006
 30
0.0
 10
124.076450
 20
203.058986
 30
0.0
  0
SPLINE
  5
1dc
100
AcDbEntity
  8
Capa_1
 62
5
100
AcDbSpline
 70
8
 71
3
 72
8
 73
4
 74
0
 40
0
 40
0
 40
0
 40
0
 40
1
 40
1
 40
1
 40
1
 10
124.076450
 20
203.058986
 30
0.0
 10
123.960180
 20
204.073066
 30
0.0
 10
122.931810
 20
204.247826
 30
0.0
 10
122.511320
 20
203.324966
 30
0.0
  0
SPLINE
  5
1dd
100
AcDbEntity
  8
Capa_1
 62
5
100
AcDbSpline
 70
8
 71
3
 72
8
 73
4
 74
0
 40
0
 40
0
 40
0
 40
0
 40
1
 40
1
 40
1
 40
1
 10
122.511320
 20
203.324966
 30
0.0
 10
121.969630
 20
202.136086
 30
0.0
 10
123.065310
 20
200.994296
 30
0.0
 10
123.845620
 20
201.934506
 30
0.0
  0
LWPOLYLINE
  5
1de
100
AcDbEntity
  8
Capa_1
 62
5
100
AcDbPolyline
 90
1
 70
1
 10
122.644210
 20
200.752566
 30
0.0
  0
SPLINE
  5
1df
100
AcDbEntity
  8
Capa_1
 62
5
100
AcDbSpline
 70
8
 71
3
 72
8
 73
4
 74
0
 40
0
 40
0
 40
0
 40
0
 40
1
 40
1
 40
1
 40
1
 10
121.390530
 20
205.198356
 30
0.0
 10
122.460130
 20
205.878736
 30
0.0
 10
121.580500
 20
208.399626
 30
0.0
 10
120.502040
 20
207.744656
 30
0.0
  0
SPLINE
  5
1e0
100
AcDbEntity
  8
Capa_1
 62
5
100
AcDbSpline
 70
8
 71
3
 72
8
 73
4
 74
0
 40
0
 40
0
 40
0
 40
0
 40
1
 40
1
 40
1
 40
1
 10
120.502040
 20
207.744656
 30
0.0
 10
120.238260
 20
207.584456
 30
0.0
 10
119.984550
 20
207.070666
 30
0.0
 10
119.938240
 20
206.602896
 30
0.0
  0
SPLINE
  5
1e1
100
AcDbEntity
  8
Capa_1
 62
5
100
AcDbSpline
 70
8
 71
3
 72
8
 73
4
 74
0
 40
0
 40
0
 40
0
 40
0
 40
1
 40
1
 40
1
 40
1
 10
119.938240
 20
206.602896
 30
0.0
 10
119.814780
 20
205.355846
 30
0.0
 10
120.538220
 20
204.656196
 30
0.0
 10
121.390530
 20
205.198356
 30
0.0
  0
LWPOLYLINE
  5
1e2
100
AcDbEntity
  8
Capa_1
 62
5
100
AcDbPolyline
 90
1
 70
1
 10
123.845620
 20
201.934506
 30
0.0
  0
SPLINE
  5
1e3
100
AcDbEntity
  8
Capa_1
 62
5
100
AcDbSpline
 70
8
 71
3
 72
8
 73
4
 74
0
 40
0
 40
0
 40
0
 40
0
 40
1
 40
1
 40
1
 40
1
 10
90.694749
 20
207.760396
 30
0.0
 10
88.145079
 20
208.669486
 30
0.0
 10
86.531339
 20
211.754116
 30
0.0
 10
86.564269
 20
215.655716
 30
0.0
  0
SPLINE
  5
1e4
100
AcDbEntity
  8
Capa_1
 62
5
100
AcDbSpline
 70
8
 71
3
 72
8
 73
4
 74
0
 40
0
 40
0
 40
0
 40
0
 40
1
 40
1
 40
1
 40
1
 10
86.564269
 20
215.655716
 30
0.0
 10
86.578269
 20
217.318586
 30
0.0
 10
87.011479
 20
218.612336
 30
0.0
 10
87.978889
 20
219.880666
 30
0.0
  0
SPLINE
  5
1e5
100
AcDbEntity
  8
Capa_1
 62
5
100
AcDbSpline
 70
8
 71
3
 72
8
 73
4
 74
0
 40
0
 40
0
 40
0
 40
0
 40
1
 40
1
 40
1
 40
1
 10
87.978889
 20
219.880666
 30
0.0
 10
88.692809
 20
220.816666
 30
0.0
 10
88.696539
 20
220.841856
 30
0.0
 10
88.249269
 20
221.706776
 30
0.0
  0
SPLINE
  5
1e6
100
AcDbEntity
  8
Capa_1
 62
5
100
AcDbSpline
 70
8
 71
3
 72
8
 73
4
 74
0
 40
0
 40
0
 40
0
 40
0
 40
1
 40
1
 40
1
 40
1
 10
88.249269
 20
221.706776
 30
0.0
 10
87.579989
 20
223.001026
 30
0.0
 10
87.456719
 20
225.758406
 30
0.0
 10
87.986659
 20
227.581316
 30
0.0
  0
SPLINE
  5
1e7
100
AcDbEntity
  8
Capa_1
 62
5
100
AcDbSpline
 70
8
 71
3
 72
8
 73
4
 74
0
 40
0
 40
0
 40
0
 40
0
 40
1
 40
1
 40
1
 40
1
 10
87.986659
 20
227.581316
 30
0.0
 10
88.699979
 20
230.035056
 30
0.0
 10
88.789879
 20
230.006536
 30
0.0
 10
93.122879
 20
225.951956
 30
0.0
  0
SPLINE
  5
1e8
100
AcDbEntity
  8
Capa_1
 62
5
100
AcDbSpline
 70
8
 71
3
 72
8
 73
4
 74
0
 40
0
 40
0
 40
0
 40
0
 40
1
 40
1
 40
1
 40
1
 10
93.122879
 20
225.951956
 30
0.0
 10
99.790609
 20
219.712656
 30
0.0
 10
99.252649
 20
220.318796
 30
0.0
 10
99.252649
 20
219.045326
 30
0.0
  0
SPLINE
  5
1e9
100
AcDbEntity
  8
Capa_1
 62
5
100
AcDbSpline
 70
8
 71
3
 72
8
 73
4
 74
0
 40
0
 40
0
 40
0
 40
0
 40
1
 40
1
 40
1
 40
1
 10
99.252649
 20
219.045326
 30
0.0
 10
99.252649
 20
218.069056
 30
0.0
 10
99.102919
 20
217.746146
 30
0.0
 10
98.260459
 20
216.905626
 30
0.0
  0
SPLINE
  5
1ea
100
AcDbEntity
  8
Capa_1
 62
5
100
AcDbSpline
 70
8
 71
3
 72
8
 73
4
 74
0
 40
0
 40
0
 40
0
 40
0
 40
1
 40
1
 40
1
 40
1
 10
98.260459
 20
216.905626
 30
0.0
 10
97.324459
 20
215.971766
 30
0.0
 10
97.273249
 20
215.834946
 30
0.0
 10
97.355999
 20
214.489356
 30
0.0
  0
SPLINE
  5
1eb
100
AcDbEntity
  8
Capa_1
 62
5
100
AcDbSpline
 70
8
 71
3
 72
8
 73
4
 74
0
 40
0
 40
0
 40
0
 40
0
 40
1
 40
1
 40
1
 40
1
 10
97.355999
 20
214.489356
 30
0.0
 10
97.604249
 20
210.452926
 30
0.0
 10
95.515999
 20
207.346816
 30
0.0
 10
92.580419
 20
207.386076
 30
0.0
  0
SPLINE
  5
1ec
100
AcDbEntity
  8
Capa_1
 62
5
100
AcDbSpline
 70
8
 71
3
 72
8
 73
4
 74
0
 40
0
 40
0
 40
0
 40
0
 40
1
 40
1
 40
1
 40
1
 10
92.580419
 20
207.386076
 30
0.0
 10
92.102799
 20
207.392076
 30
0.0
 10
91.254249
 20
207.560906
 30
0.0
 10
90.694749
 20
207.760396
 30
0.0
  0
LWPOLYLINE
  5
1ed
100
AcDbEntity
  8
Capa_1
 62
5
100
AcDbPolyline
 90
1
 70
1
 10
121.390530
 20
205.198356
 30
0.0
  0
SPLINE
  5
1ee
100
AcDbEntity
  8
Capa_1
 62
5
100
AcDbSpline
 70
8
 71
3
 72
8
 73
4
 74
0
 40
0
 40
0
 40
0
 40
0
 40
1
 40
1
 40
1
 40
1
 10
93.252919
 20
216.701026
 30
0.0
 10
93.331619
 20
217.028446
 30
0.0
 10
93.477499
 20
218.262096
 30
0.0
 10
93.577149
 20
219.442466
 30
0.0
  0
SPLINE
  5
1ef
100
AcDbEntity
  8
Capa_1
 62
5
100
AcDbSpline
 70
8
 71
3
 72
8
 73
4
 74
0
 40
0
 40
0
 40
0
 40
0
 40
1
 40
1
 40
1
 40
1
 10
93.577149
 20
219.442466
 30
0.0
 10
93.750689
 20
221.498116
 30
0.0
 10
93.731929
 20
221.607106
 30
0.0
 10
93.132049
 20
222.028006
 30
0.0
  0
SPLINE
  5
1f0
100
AcDbEntity
  8
Capa_1
 62
5
100
AcDbSpline
 70
8
 71
3
 72
8
 73
4
 74
0
 40
0
 40
0
 40
0
 40
0
 40
1
 40
1
 40
1
 40
1
 10
93.132049
 20
222.028006
 30
0.0
 10
92.531609
 20
222.449316
 30
0.0
 10
92.498679
 20
222.442646
 30
0.0
 10
92.333709
 20
221.866266
 30
0.0
  0
SPLINE
  5
1f1
100
AcDbEntity
  8
Capa_1
 62
5
100
AcDbSpline
 70
8
 71
3
 72
8
 73
4
 74
0
 40
0
 40
0
 40
0
 40
0
 40
1
 40
1
 40
1
 40
1
 10
92.333709
 20
221.866266
 30
0.0
 10
92.052359
 20
220.883236
 30
0.0
 10
92.087079
 20
217.170036
 30
0.0
 10
92.382809
 20
216.617486
 30
0.0
  0
SPLINE
  5
1f2
100
AcDbEntity
  8
Capa_1
 62
5
100
AcDbSpline
 70
8
 71
3
 72
8
 73
4
 74
0
 40
0
 40
0
 40
0
 40
0
 40
1
 40
1
 40
1
 40
1
 10
92.382809
 20
216.617486
 30
0.0
 10
92.746159
 20
215.938566
 30
0.0
 10
93.077369
 20
215.970366
 30
0.0
 10
93.252939
 20
216.700986
 30
0.0
  0
LWPOLYLINE
  5
1f3
100
AcDbEntity
  8
Capa_1
 62
5
100
AcDbPolyline
 90
1
 70
1
 10
90.694749
 20
207.760396
 30
0.0
  0
SPLINE
  5
1f4
100
AcDbEntity
  8
Capa_1
 62
5
100
AcDbSpline
 70
8
 71
3
 72
8
 73
4
 74
0
 40
0
 40
0
 40
0
 40
0
 40
1
 40
1
 40
1
 40
1
 10
97.517859
 20
218.281256
 30
0.0
 10
97.744389
 20
218.604676
 30
0.0
 10
97.929739
 20
219.014856
 30
0.0
 10
97.929739
 20
219.192756
 30
0.0
  0
SPLINE
  5
1f5
100
AcDbEntity
  8
Capa_1
 62
5
100
AcDbSpline
 70
8
 71
3
 72
8
 73
4
 74
0
 40
0
 40
0
 40
0
 40
0
 40
1
 40
1
 40
1
 40
1
 10
97.929739
 20
219.192756
 30
0.0
 10
97.929739
 20
219.370666
 30
0.0
 10
96.122749
 20
221.192366
 30
0.0
 10
93.914199
 20
223.240996
 30
0.0
  0
SPLINE
  5
1f6
100
AcDbEntity
  8
Capa_1
 62
5
100
AcDbSpline
 70
8
 71
3
 72
8
 73
4
 74
0
 40
0
 40
0
 40
0
 40
0
 40
1
 40
1
 40
1
 40
1
 10
93.914199
 20
223.240996
 30
0.0
 10
91.071239
 20
225.878096
 30
0.0
 10
89.836259
 20
226.867416
 30
0.0
 10
89.684919
 20
226.628966
 30
0.0
  0
SPLINE
  5
1f7
100
AcDbEntity
  8
Capa_1
 62
5
100
AcDbSpline
 70
8
 71
3
 72
8
 73
4
 74
0
 40
0
 40
0
 40
0
 40
0
 40
1
 40
1
 40
1
 40
1
 10
89.684919
 20
226.628966
 30
0.0
 10
89.361459
 20
226.119296
 30
0.0
 10
89.421349
 20
223.101346
 30
0.0
 10
89.770119
 20
222.335876
 30
0.0
  0
SPLINE
  5
1f8
100
AcDbEntity
  8
Capa_1
 62
5
100
AcDbSpline
 70
8
 71
3
 72
8
 73
4
 74
0
 40
0
 40
0
 40
0
 40
0
 40
1
 40
1
 40
1
 40
1
 10
89.770119
 20
222.335876
 30
0.0
 10
90.241769
 20
221.300726
 30
0.0
 10
90.952079
 20
221.469006
 30
0.0
 10
91.142699
 20
222.661046
 30
0.0
  0
SPLINE
  5
1f9
100
AcDbEntity
  8
Capa_1
 62
5
100
AcDbSpline
 70
8
 71
3
 72
8
 73
4
 74
0
 40
0
 40
0
 40
0
 40
0
 40
1
 40
1
 40
1
 40
1
 10
91.142699
 20
222.661046
 30
0.0
 10
91.230599
 20
223.210546
 30
0.0
 10
91.454139
 20
223.863336
 30
0.0
 10
91.639529
 20
224.111696
 30
0.0
  0
SPLINE
  5
1fa
100
AcDbEntity
  8
Capa_1
 62
5
100
AcDbSpline
 70
8
 71
3
 72
8
 73
4
 74
0
 40
0
 40
0
 40
0
 40
0
 40
1
 40
1
 40
1
 40
1
 10
91.639529
 20
224.111696
 30
0.0
 10
91.945539
 20
224.521636
 30
0.0
 10
92.116849
 20
224.439706
 30
0.0
 10
93.497959
 20
223.222986
 30
0.0
  0
SPLINE
  5
1fb
100
AcDbEntity
  8
Capa_1
 62
5
100
AcDbSpline
 70
8
 71
3
 72
8
 73
4
 74
0
 40
0
 40
0
 40
0
 40
0
 40
1
 40
1
 40
1
 40
1
 10
93.497959
 20
223.222986
 30
0.0
 10
94.781949
 20
222.091826
 30
0.0
 10
95.019319
 20
221.744086
 30
0.0
 10
95.019319
 20
220.994206
 30
0.0
  0
SPLINE
  5
1fc
100
AcDbEntity
  8
Capa_1
 62
5
100
AcDbSpline
 70
8
 71
3
 72
8
 73
4
 74
0
 40
0
 40
0
 40
0
 40
0
 40
1
 40
1
 40
1
 40
1
 10
95.019319
 20
220.994206
 30
0.0
 10
95.019319
 20
220.505526
 30
0.0
 10
95.140079
 20
220.031056
 30
0.0
 10
95.287679
 20
219.939836
 30
0.0
  0
SPLINE
  5
1fd
100
AcDbEntity
  8
Capa_1
 62
5
100
AcDbSpline
 70
8
 71
3
 72
8
 73
4
 74
0
 40
0
 40
0
 40
0
 40
0
 40
1
 40
1
 40
1
 40
1
 10
95.287679
 20
219.939836
 30
0.0
 10
95.435279
 20
219.848636
 30
0.0
 10
95.794889
 20
219.305806
 30
0.0
 10
96.086809
 20
218.733596
 30
0.0
  0
SPLINE
  5
1fe
100
AcDbEntity
  8
Capa_1
 62
5
100
AcDbSpline
 70
8
 71
3
 72
8
 73
4
 74
0
 40
0
 40
0
 40
0
 40
0
 40
1
 40
1
 40
1
 40
1
 10
96.086809
 20
218.733596
 30
0.0
 10
96.696209
 20
217.539076
 30
0.0
 10
96.943309
 20
217.460966
 30
0.0
 10
97.517859
 20
218.281256
 30
0.0
  0
LWPOLYLINE
  5
1ff
100
AcDbEntity
  8
Capa_1
 62
5
100
AcDbPolyline
 90
1
 70
1
 10
93.252939
 20
216.700986
 30
0.0
  0
SPLINE
  5
200
100
AcDbEntity
  8
Capa_1
 62
5
100
AcDbSpline
 70
8
 71
3
 72
8
 73
4
 74
0
 40
0
 40
0
 40
0
 40
0
 40
1
 40
1
 40
1
 40
1
 10
98.575859
 20
231.389456
 30
0.0
 10
97.037039
 20
232.458056
 30
0.0
 10
96.998139
 20
235.326366
 30
0.0
 10
98.511859
 20
236.109136
 30
0.0
  0
SPLINE
  5
201
100
AcDbEntity
  8
Capa_1
 62
5
100
AcDbSpline
 70
8
 71
3
 72
8
 73
4
 74
0
 40
0
 40
0
 40
0
 40
0
 40
1
 40
1
 40
1
 40
1
 10
98.511859
 20
236.109136
 30
0.0
 10
100.263670
 20
237.015026
 30
0.0
 10
101.842210
 20
235.660006
 30
0.0
 10
101.552380
 20
233.499146
 30
0.0
  0
SPLINE
  5
202
100
AcDbEntity
  8
Capa_1
 62
5
100
AcDbSpline
 70
8
 71
3
 72
8
 73
4
 74
0
 40
0
 40
0
 40
0
 40
0
 40
1
 40
1
 40
1
 40
1
 10
101.552380
 20
233.499146
 30
0.0
 10
101.322040
 20
231.781816
 30
0.0
 10
99.683379
 20
230.620366
 30
0.0
 10
98.575869
 20
231.389456
 30
0.0
  0
LWPOLYLINE
  5
203
100
AcDbEntity
  8
Capa_1
 62
5
100
AcDbPolyline
 90
1
 70
1
 10
97.517859
 20
218.281256
 30
0.0
  0
SPLINE
  5
204
100
AcDbEntity
  8
Capa_1
 62
5
100
AcDbSpline
 70
8
 71
3
 72
8
 73
4
 74
0
 40
0
 40
0
 40
0
 40
0
 40
1
 40
1
 40
1
 40
1
 10
100.301670
 20
232.757066
 30
0.0
 10
100.671520
 20
233.448126
 30
0.0
 10
100.648000
 20
234.712856
 30
0.0
 10
100.258070
 20
235.102796
 30
0.0
  0
SPLINE
  5
205
100
AcDbEntity
  8
Capa_1
 62
5
100
AcDbSpline
 70
8
 71
3
 72
8
 73
4
 74
0
 40
0
 40
0
 40
0
 40
0
 40
1
 40
1
 40
1
 40
1
 10
100.258070
 20
235.102796
 30
0.0
 10
99.467339
 20
235.893536
 30
0.0
 10
98.370719
 20
235.155596
 30
0.0
 10
98.370719
 20
233.832796
 30
0.0
  0
SPLINE
  5
206
100
AcDbEntity
  8
Capa_1
 62
5
100
AcDbSpline
 70
8
 71
3
 72
8
 73
4
 74
0
 40
0
 40
0
 40
0
 40
0
 40
1
 40
1
 40
1
 40
1
 10
98.370719
 20
233.832796
 30
0.0
 10
98.370719
 20
232.409976
 30
0.0
 10
99.715099
 20
231.661026
 30
0.0
 10
100.301680
 20
232.757066
 30
0.0
  0
LWPOLYLINE
  5
207
100
AcDbEntity
  8
Capa_1
 62
5
100
AcDbPolyline
 90
1
 70
1
 10
98.575869
 20
231.389456
 30
0.0
  0
SPLINE
  5
208
100
AcDbEntity
  8
Capa_1
 62
5
100
AcDbSpline
 70
8
 71
3
 72
8
 73
4
 74
0
 40
0
 40
0
 40
0
 40
0
 40
1
 40
1
 40
1
 40
1
 10
94.579239
 20
235.836316
 30
0.0
 10
93.973859
 20
236.441706
 30
0.0
 10
93.911939
 20
236.677386
 30
0.0
 10
94.019029
 20
237.968716
 30
0.0
  0
SPLINE
  5
209
100
AcDbEntity
  8
Capa_1
 62
5
100
AcDbSpline
 70
8
 71
3
 72
8
 73
4
 74
0
 40
0
 40
0
 40
0
 40
0
 40
1
 40
1
 40
1
 40
1
 10
94.019029
 20
237.968716
 30
0.0
 10
94.168849
 20
239.775396
 30
0.0
 10
94.836709
 20
240.553216
 30
0.0
 10
96.238149
 20
240.553216
 30
0.0
  0
SPLINE
  5
20a
100
AcDbEntity
  8
Capa_1
 62
5
100
AcDbSpline
 70
8
 71
3
 72
8
 73
4
 74
0
 40
0
 40
0
 40
0
 40
0
 40
1
 40
1
 40
1
 40
1
 10
96.238149
 20
240.553216
 30
0.0
 10
97.592269
 20
240.553216
 30
0.0
 10
98.194319
 20
239.749016
 30
0.0
 10
98.194319
 20
237.940206
 30
0.0
  0
SPLINE
  5
20b
100
AcDbEntity
  8
Capa_1
 62
5
100
AcDbSpline
 70
8
 71
3
 72
8
 73
4
 74
0
 40
0
 40
0
 40
0
 40
0
 40
1
 40
1
 40
1
 40
1
 10
98.194319
 20
237.940206
 30
0.0
 10
98.194319
 20
236.118946
 30
0.0
 10
97.497069
 20
235.155716
 30
0.0
 10
96.178719
 20
235.155716
 30
0.0
  0
SPLINE
  5
20c
100
AcDbEntity
  8
Capa_1
 62
5
100
AcDbSpline
 70
8
 71
3
 72
8
 73
4
 74
0
 40
0
 40
0
 40
0
 40
0
 40
1
 40
1
 40
1
 40
1
 10
96.178719
 20
235.155716
 30
0.0
 10
95.544469
 20
235.155716
 30
0.0
 10
95.049029
 20
235.366536
 30
0.0
 10
94.579239
 20
235.836316
 30
0.0
  0
LWPOLYLINE
  5
20d
100
AcDbEntity
  8
Capa_1
 62
5
100
AcDbPolyline
 90
1
 70
1
 10
100.301680
 20
232.757066
 30
0.0
  0
SPLINE
  5
20e
100
AcDbEntity
  8
Capa_1
 62
5
100
AcDbSpline
 70
8
 71
3
 72
8
 73
4
 74
0
 40
0
 40
0
 40
0
 40
0
 40
1
 40
1
 40
1
 40
1
 10
96.988689
 20
236.802086
 30
0.0
 10
97.538279
 20
237.586736
 30
0.0
 10
97.508309
 20
238.403616
 30
0.0
 10
96.902489
 20
239.151786
 30
0.0
  0
SPLINE
  5
20f
100
AcDbEntity
  8
Capa_1
 62
5
100
AcDbSpline
 70
8
 71
3
 72
8
 73
4
 74
0
 40
0
 40
0
 40
0
 40
0
 40
1
 40
1
 40
1
 40
1
 10
96.902489
 20
239.151786
 30
0.0
 10
96.462889
 20
239.694676
 30
0.0
 10
96.323099
 20
239.729846
 30
0.0
 10
95.711869
 20
239.451356
 30
0.0
  0
SPLINE
  5
210
100
AcDbEntity
  8
Capa_1
 62
5
100
AcDbSpline
 70
8
 71
3
 72
8
 73
4
 74
0
 40
0
 40
0
 40
0
 40
0
 40
1
 40
1
 40
1
 40
1
 10
95.711869
 20
239.451356
 30
0.0
 10
95.045549
 20
239.147756
 30
0.0
 10
94.868889
 20
238.657356
 30
0.0
 10
94.982229
 20
237.425966
 30
0.0
  0
SPLINE
  5
211
100
AcDbEntity
  8
Capa_1
 62
5
100
AcDbSpline
 70
8
 71
3
 72
8
 73
4
 74
0
 40
0
 40
0
 40
0
 40
0
 40
1
 40
1
 40
1
 40
1
 10
94.982229
 20
237.425966
 30
0.0
 10
95.096769
 20
236.181726
 30
0.0
 10
96.293539
 20
235.809606
 30
0.0
 10
96.988699
 20
236.802086
 30
0.0
  0
LWPOLYLINE
  5
212
100
AcDbEntity
  8
Capa_1
 62
5
100
AcDbPolyline
 90
1
 70
1
 10
94.579239
 20
235.836316
 30
0.0
  0
SPLINE
  5
213
100
AcDbEntity
  8
Capa_1
 62
5
100
AcDbSpline
 70
8
 71
3
 72
8
 73
4
 74
0
 40
0
 40
0
 40
0
 40
0
 40
1
 40
1
 40
1
 40
1
 10
90.821629
 20
239.483396
 30
0.0
 10
90.169209
 20
240.177866
 30
0.0
 10
89.837759
 20
241.647976
 30
0.0
 10
90.098969
 20
242.688706
 30
0.0
  0
SPLINE
  5
214
100
AcDbEntity
  8
Capa_1
 62
5
100
AcDbSpline
 70
8
 71
3
 72
8
 73
4
 74
0
 40
0
 40
0
 40
0
 40
0
 40
1
 40
1
 40
1
 40
1
 10
90.098969
 20
242.688706
 30
0.0
 10
90.534479
 20
244.423926
 30
0.0
 10
92.591009
 20
245.016406
 30
0.0
 10
93.840719
 20
243.766696
 30
0.0
  0
SPLINE
  5
215
100
AcDbEntity
  8
Capa_1
 62
5
100
AcDbSpline
 70
8
 71
3
 72
8
 73
4
 74
0
 40
0
 40
0
 40
0
 40
0
 40
1
 40
1
 40
1
 40
1
 10
93.840719
 20
243.766696
 30
0.0
 10
94.900119
 20
242.707306
 30
0.0
 10
94.683379
 20
240.142336
 30
0.0
 10
93.454749
 20
239.199026
 30
0.0
  0
SPLINE
  5
216
100
AcDbEntity
  8
Capa_1
 62
5
100
AcDbSpline
 70
8
 71
3
 72
8
 73
4
 74
0
 40
0
 40
0
 40
0
 40
0
 40
1
 40
1
 40
1
 40
1
 10
93.454749
 20
239.199026
 30
0.0
 10
92.750419
 20
238.658266
 30
0.0
 10
91.466539
 20
238.796916
 30
0.0
 10
90.821629
 20
239.483396
 30
0.0
  0
LWPOLYLINE
  5
217
100
AcDbEntity
  8
Capa_1
 62
5
100
AcDbPolyline
 90
1
 70
1
 10
96.988699
 20
236.802086
 30
0.0
  0
SPLINE
  5
218
100
AcDbEntity
  8
Capa_1
 62
5
100
AcDbSpline
 70
8
 71
3
 72
8
 73
4
 74
0
 40
0
 40
0
 40
0
 40
0
 40
1
 40
1
 40
1
 40
1
 10
93.096619
 20
240.248946
 30
0.0
 10
93.547029
 20
240.824606
 30
0.0
 10
93.665479
 20
241.780026
 30
0.0
 10
93.385879
 20
242.582086
 30
0.0
  0
SPLINE
  5
219
100
AcDbEntity
  8
Capa_1
 62
5
100
AcDbSpline
 70
8
 71
3
 72
8
 73
4
 74
0
 40
0
 40
0
 40
0
 40
0
 40
1
 40
1
 40
1
 40
1
 10
93.385879
 20
242.582086
 30
0.0
 10
93.171619
 20
243.196726
 30
0.0
 10
92.957959
 20
243.357796
 30
0.0
 10
92.356909
 20
243.357796
 30
0.0
  0
SPLINE
  5
21a
100
AcDbEntity
  8
Capa_1
 62
5
100
AcDbSpline
 70
8
 71
3
 72
8
 73
4
 74
0
 40
0
 40
0
 40
0
 40
0
 40
1
 40
1
 40
1
 40
1
 10
92.356909
 20
243.357796
 30
0.0
 10
91.510809
 20
243.357796
 30
0.0
 10
91.050569
 20
242.751896
 30
0.0
 10
91.050569
 20
241.638006
 30
0.0
  0
SPLINE
  5
21b
100
AcDbEntity
  8
Capa_1
 62
5
100
AcDbSpline
 70
8
 71
3
 72
8
 73
4
 74
0
 40
0
 40
0
 40
0
 40
0
 40
1
 40
1
 40
1
 40
1
 10
91.050569
 20
241.638006
 30
0.0
 10
91.050569
 20
241.255066
 30
0.0
 10
91.173819
 20
240.711466
 30
0.0
 10
91.324459
 20
240.429986
 30
0.0
  0
SPLINE
  5
21c
100
AcDbEntity
  8
Capa_1
 62
5
100
AcDbSpline
 70
8
 71
3
 72
8
 73
4
 74
0
 40
0
 40
0
 40
0
 40
0
 40
1
 40
1
 40
1
 40
1
 10
91.324459
 20
240.429986
 30
0.0
 10
91.632629
 20
239.854166
 30
0.0
 10
92.702249
 20
239.744886
 30
0.0
 10
93.096619
 20
240.248946
 30
0.0
  0
LWPOLYLINE
  5
21d
100
AcDbEntity
  8
Capa_1
 62
5
100
AcDbPolyline
 90
1
 70
1
 10
90.821629
 20
239.483396
 30
0.0
  0
SPLINE
  5
21e
100
AcDbEntity
  8
Capa_1
 62
5
100
AcDbSpline
 70
8
 71
3
 72
8
 73
4
 74
0
 40
0
 40
0
 40
0
 40
0
 40
1
 40
1
 40
1
 40
1
 10
151.375560
 20
178.362110
 30
0.0
 10
151.375560
 20
178.724630
 30
0.0
 10
150.145960
 20
179.685320
 30
0.0
 10
148.465150
 20
180.636040
 30
0.0
  0
SPLINE
  5
21f
100
AcDbEntity
  8
Capa_1
 62
5
100
AcDbSpline
 70
8
 71
3
 72
8
 73
4
 74
0
 40
0
 40
0
 40
0
 40
0
 40
1
 40
1
 40
1
 40
1
 10
148.465150
 20
180.636040
 30
0.0
 10
145.370120
 20
182.386680
 30
0.0
 10
143.489780
 20
183.091170
 30
0.0
 10
141.525030
 20
183.236260
 30
0.0
  0
SPLINE
  5
220
100
AcDbEntity
  8
Capa_1
 62
5
100
AcDbSpline
 70
8
 71
3
 72
8
 73
4
 74
0
 40
0
 40
0
 40
0
 40
0
 40
1
 40
1
 40
1
 40
1
 10
141.525030
 20
183.236260
 30
0.0
 10
139.985810
 20
183.349920
 30
0.0
 10
139.719660
 20
183.303560
 30
0.0
 10
139.562680
 20
182.894480
 30
0.0
  0
SPLINE
  5
221
100
AcDbEntity
  8
Capa_1
 62
5
100
AcDbSpline
 70
8
 71
3
 72
8
 73
4
 74
0
 40
0
 40
0
 40
0
 40
0
 40
1
 40
1
 40
1
 40
1
 10
139.562680
 20
182.894480
 30
0.0
 10
139.437830
 20
182.569130
 30
0.0
 10
139.580880
 20
182.256110
 30
0.0
 10
140.020510
 20
181.892920
 30
0.0
  0
SPLINE
  5
222
100
AcDbEntity
  8
Capa_1
 62
5
100
AcDbSpline
 70
8
 71
3
 72
8
 73
4
 74
0
 40
0
 40
0
 40
0
 40
0
 40
1
 40
1
 40
1
 40
1
 10
140.020510
 20
181.892920
 30
0.0
 10
140.942940
 20
181.130820
 30
0.0
 10
145.203760
 20
179.146200
 30
0.0
 10
146.891400
 20
178.692580
 30
0.0
  0
SPLINE
  5
223
100
AcDbEntity
  8
Capa_1
 62
5
100
AcDbSpline
 70
8
 71
3
 72
8
 73
4
 74
0
 40
0
 40
0
 40
0
 40
0
 40
1
 40
1
 40
1
 40
1
 10
146.891400
 20
178.692580
 30
0.0
 10
148.159490
 20
178.351730
 30
0.0
 10
151.375560
 20
178.114720
 30
0.0
 10
151.375560
 20
178.362110
 30
0.0
  0
LWPOLYLINE
  5
224
100
AcDbEntity
  8
Capa_1
 62
5
100
AcDbPolyline
 90
1
 70
1
 10
93.096619
 20
240.248946
 30
0.0
  0
SPLINE
  5
225
100
AcDbEntity
  8
Capa_1
 62
5
100
AcDbSpline
 70
8
 71
3
 72
8
 73
4
 74
0
 40
0
 40
0
 40
0
 40
0
 40
1
 40
1
 40
1
 40
1
 10
56.899099
 20
187.017330
 30
0.0
 10
57.920039
 20
187.756890
 30
0.0
 10
59.290259
 20
189.963310
 30
0.0
 10
59.297979
 20
190.880170
 30
0.0
  0
SPLINE
  5
226
100
AcDbEntity
  8
Capa_1
 62
5
100
AcDbSpline
 70
8
 71
3
 72
8
 73
4
 74
0
 40
0
 40
0
 40
0
 40
0
 40
1
 40
1
 40
1
 40
1
 10
59.297979
 20
190.880170
 30
0.0
 10
59.298979
 20
191.048880
 30
0.0
 10
58.566959
 20
192.060910
 30
0.0
 10
57.670329
 20
193.129130
 30
0.0
  0
SPLINE
  5
227
100
AcDbEntity
  8
Capa_1
 62
5
100
AcDbSpline
 70
8
 71
3
 72
8
 73
4
 74
0
 40
0
 40
0
 40
0
 40
0
 40
1
 40
1
 40
1
 40
1
 10
57.670329
 20
193.129130
 30
0.0
 10
55.421459
 20
195.808360
 30
0.0
 10
53.570019
 20
198.716216
 30
0.0
 10
51.632579
 20
202.611966
 30
0.0
  0
SPLINE
  5
228
100
AcDbEntity
  8
Capa_1
 62
5
100
AcDbSpline
 70
8
 71
3
 72
8
 73
4
 74
0
 40
0
 40
0
 40
0
 40
0
 40
1
 40
1
 40
1
 40
1
 10
51.632579
 20
202.611966
 30
0.0
 10
50.217759
 20
205.456836
 30
0.0
 10
48.726119
 20
207.639046
 30
0.0
 10
48.196329
 20
207.639046
 30
0.0
  0
SPLINE
  5
229
100
AcDbEntity
  8
Capa_1
 62
5
100
AcDbSpline
 70
8
 71
3
 72
8
 73
4
 74
0
 40
0
 40
0
 40
0
 40
0
 40
1
 40
1
 40
1
 40
1
 10
48.196329
 20
207.639046
 30
0.0
 10
48.112429
 20
207.639046
 30
0.0
 10
47.818419
 20
207.220506
 30
0.0
 10
47.542929
 20
206.708946
 30
0.0
  0
SPLINE
  5
22a
100
AcDbEntity
  8
Capa_1
 62
5
100
AcDbSpline
 70
8
 71
3
 72
8
 73
4
 74
0
 40
0
 40
0
 40
0
 40
0
 40
1
 40
1
 40
1
 40
1
 10
47.542929
 20
206.708946
 30
0.0
 10
46.636879
 20
205.026526
 30
0.0
 10
43.625039
 20
202.958686
 30
0.0
 10
41.889929
 20
202.827776
 30
0.0
  0
SPLINE
  5
22b
100
AcDbEntity
  8
Capa_1
 62
5
100
AcDbSpline
 70
8
 71
3
 72
8
 73
4
 74
0
 40
0
 40
0
 40
0
 40
0
 40
1
 40
1
 40
1
 40
1
 10
41.889929
 20
202.827776
 30
0.0
 10
41.102949
 20
202.768376
 30
0.0
 10
41.032119
 20
202.696596
 30
0.0
 10
41.179839
 20
202.108026
 30
0.0
  0
SPLINE
  5
22c
100
AcDbEntity
  8
Capa_1
 62
5
100
AcDbSpline
 70
8
 71
3
 72
8
 73
4
 74
0
 40
0
 40
0
 40
0
 40
0
 40
1
 40
1
 40
1
 40
1
 10
41.179839
 20
202.108026
 30
0.0
 10
41.520339
 20
200.751366
 30
0.0
 10
44.004839
 20
195.848660
 30
0.0
 10
45.465349
 20
193.651360
 30
0.0
  0
SPLINE
  5
22d
100
AcDbEntity
  8
Capa_1
 62
5
100
AcDbSpline
 70
8
 71
3
 72
8
 73
4
 74
0
 40
0
 40
0
 40
0
 40
0
 40
1
 40
1
 40
1
 40
1
 10
45.465349
 20
193.651360
 30
0.0
 10
46.300389
 20
192.395060
 30
0.0
 10
47.775199
 20
190.574590
 30
0.0
 10
48.742709
 20
189.605870
 30
0.0
  0
SPLINE
  5
22e
100
AcDbEntity
  8
Capa_1
 62
5
100
AcDbSpline
 70
8
 71
3
 72
8
 73
4
 74
0
 40
0
 40
0
 40
0
 40
0
 40
1
 40
1
 40
1
 40
1
 10
48.742709
 20
189.605870
 30
0.0
 10
52.152429
 20
186.191880
 30
0.0
 10
54.660709
 20
185.395850
 30
0.0
 10
56.899099
 20
187.017330
 30
0.0
  0
LWPOLYLINE
  5
22f
100
AcDbEntity
  8
Capa_1
 62
5
100
AcDbPolyline
 90
1
 70
1
 10
151.375560
 20
178.362110
 30
0.0
  0
SPLINE
  5
230
100
AcDbEntity
  8
Capa_1
 62
5
100
AcDbSpline
 70
8
 71
3
 72
8
 73
4
 74
0
 40
0
 40
0
 40
0
 40
0
 40
1
 40
1
 40
1
 40
1
 10
67.176809
 20
189.792310
 30
0.0
 10
70.145389
 20
191.032660
 30
0.0
 10
71.145559
 20
194.040560
 30
0.0
 10
69.787949
 20
197.644986
 30
0.0
  0
SPLINE
  5
231
100
AcDbEntity
  8
Capa_1
 62
5
100
AcDbSpline
 70
8
 71
3
 72
8
 73
4
 74
0
 40
0
 40
0
 40
0
 40
0
 40
1
 40
1
 40
1
 40
1
 10
69.787949
 20
197.644986
 30
0.0
 10
68.783739
 20
200.311146
 30
0.0
 10
66.765499
 20
204.150906
 30
0.0
 10
65.048119
 20
206.662696
 30
0.0
  0
SPLINE
  5
232
100
AcDbEntity
  8
Capa_1
 62
5
100
AcDbSpline
 70
8
 71
3
 72
8
 73
4
 74
0
 40
0
 40
0
 40
0
 40
0
 40
1
 40
1
 40
1
 40
1
 10
65.048119
 20
206.662696
 30
0.0
 10
63.598659
 20
208.782626
 30
0.0
 10
58.712369
 20
214.253636
 30
0.0
 10
58.268469
 20
214.253636
 30
0.0
  0
SPLINE
  5
233
100
AcDbEntity
  8
Capa_1
 62
5
100
AcDbSpline
 70
8
 71
3
 72
8
 73
4
 74
0
 40
0
 40
0
 40
0
 40
0
 40
1
 40
1
 40
1
 40
1
 10
58.268469
 20
214.253636
 30
0.0
 10
58.166989
 20
214.253636
 30
0.0
 10
57.938179
 20
213.850506
 30
0.0
 10
57.760019
 20
213.357796
 30
0.0
  0
SPLINE
  5
234
100
AcDbEntity
  8
Capa_1
 62
5
100
AcDbSpline
 70
8
 71
3
 72
8
 73
4
 74
0
 40
0
 40
0
 40
0
 40
0
 40
1
 40
1
 40
1
 40
1
 10
57.760019
 20
213.357796
 30
0.0
 10
56.909219
 20
211.004956
 30
0.0
 10
53.908039
 20
208.832536
 30
0.0
 10
51.745989
 20
209.004486
 30
0.0
  0
SPLINE
  5
235
100
AcDbEntity
  8
Capa_1
 62
5
100
AcDbSpline
 70
8
 71
3
 72
8
 73
4
 74
0
 40
0
 40
0
 40
0
 40
0
 40
1
 40
1
 40
1
 40
1
 10
51.745989
 20
209.004486
 30
0.0
 10
51.098819
 20
209.055986
 30
0.0
 10
50.569319
 20
209.011486
 30
0.0
 10
50.569319
 20
208.904586
 30
0.0
  0
SPLINE
  5
236
100
AcDbEntity
  8
Capa_1
 62
5
100
AcDbSpline
 70
8
 71
3
 72
8
 73
4
 74
0
 40
0
 40
0
 40
0
 40
0
 40
1
 40
1
 40
1
 40
1
 10
50.569319
 20
208.904586
 30
0.0
 10
50.569319
 20
208.501036
 30
0.0
 10
52.197359
 20
204.636166
 30
0.0
 10
53.248769
 20
202.543736
 30
0.0
  0
SPLINE
  5
237
100
AcDbEntity
  8
Capa_1
 62
5
100
AcDbSpline
 70
8
 71
3
 72
8
 73
4
 74
0
 40
0
 40
0
 40
0
 40
0
 40
1
 40
1
 40
1
 40
1
 10
53.248769
 20
202.543736
 30
0.0
 10
55.915019
 20
197.237606
 30
0.0
 10
60.799639
 20
191.461170
 30
0.0
 10
63.802119
 20
190.063610
 30
0.0
  0
SPLINE
  5
238
100
AcDbEntity
  8
Capa_1
 62
5
100
AcDbSpline
 70
8
 71
3
 72
8
 73
4
 74
0
 40
0
 40
0
 40
0
 40
0
 40
1
 40
1
 40
1
 40
1
 10
63.802119
 20
190.063610
 30
0.0
 10
65.500489
 20
189.273070
 30
0.0
 10
65.864179
 20
189.243830
 30
0.0
 10
67.176809
 20
189.792280
 30
0.0
  0
LWPOLYLINE
  5
239
100
AcDbEntity
  8
Capa_1
 62
5
100
AcDbPolyline
 90
1
 70
1
 10
56.899099
 20
187.017330
 30
0.0
  0
SPLINE
  5
23a
100
AcDbEntity
  8
Capa_1
 62
5
100
AcDbSpline
 70
8
 71
3
 72
8
 73
4
 74
0
 40
0
 40
0
 40
0
 40
0
 40
1
 40
1
 40
1
 40
1
 10
42.234939
 20
190.970700
 30
0.0
 10
43.253589
 20
191.277430
 30
0.0
 10
44.236279
 20
191.577850
 30
0.0
 10
44.418699
 20
191.638280
 30
0.0
  0
SPLINE
  5
23b
100
AcDbEntity
  8
Capa_1
 62
5
100
AcDbSpline
 70
8
 71
3
 72
8
 73
4
 74
0
 40
0
 40
0
 40
0
 40
0
 40
1
 40
1
 40
1
 40
1
 10
44.418699
 20
191.638280
 30
0.0
 10
44.638039
 20
191.710980
 30
0.0
 10
44.345699
 20
192.355700
 30
0.0
 10
43.555519
 20
193.542050
 30
0.0
  0
SPLINE
  5
23c
100
AcDbEntity
  8
Capa_1
 62
5
100
AcDbSpline
 70
8
 71
3
 72
8
 73
4
 74
0
 40
0
 40
0
 40
0
 40
0
 40
1
 40
1
 40
1
 40
1
 10
43.555519
 20
193.542050
 30
0.0
 10
42.898359
 20
194.528680
 30
0.0
 10
41.822659
 20
196.382730
 30
0.0
 10
41.165089
 20
197.662146
 30
0.0
  0
LWPOLYLINE
  5
23d
100
AcDbEntity
  8
Capa_1
 62
5
100
AcDbPolyline
 90
1
 70
1
 10
67.176809
 20
189.792280
 30
0.0
  0
SPLINE
  5
23e
100
AcDbEntity
  8
Capa_1
 62
5
100
AcDbSpline
 70
8
 71
3
 72
8
 73
4
 74
0
 40
0
 40
0
 40
0
 40
0
 40
1
 40
1
 40
1
 40
1
 10
38.456389
 20
198.912686
 30
0.0
 10
35.524659
 20
196.828500
 30
0.0
 10
34.165149
 20
195.218450
 30
0.0
 10
34.165149
 20
193.830660
 30
0.0
  0
SPLINE
  5
23f
100
AcDbEntity
  8
Capa_1
 62
5
100
AcDbSpline
 70
8
 71
3
 72
8
 73
4
 74
0
 40
0
 40
0
 40
0
 40
0
 40
1
 40
1
 40
1
 40
1
 10
34.165149
 20
193.830660
 30
0.0
 10
34.165149
 20
192.382140
 30
0.0
 10
35.255119
 20
190.884790
 30
0.0
 10
36.673309
 20
190.385080
 30
0.0
  0
SPLINE
  5
240
100
AcDbEntity
  8
Capa_1
 62
5
100
AcDbSpline
 70
8
 71
3
 72
8
 73
4
 74
0
 40
0
 40
0
 40
0
 40
0
 40
1
 40
1
 40
1
 40
1
 10
36.673309
 20
190.385080
 30
0.0
 10
37.530669
 20
190.082980
 30
0.0
 10
40.231179
 20
190.367280
 30
0.0
 10
42.234939
 20
190.970700
 30
0.0
  0
LWPOLYLINE
  5
241
100
AcDbEntity
  8
Capa_1
 62
5
100
AcDbPolyline
 90
3
 70
0
 10
41.165089
 20
197.662146
 30
0.0
 10
39.969509
 20
199.988376
 30
0.0
 10
38.456389
 20
198.912686
 30
0.0
  0
SPLINE
  5
242
100
AcDbEntity
  8
Capa_1
 62
5
100
AcDbSpline
 70
8
 71
3
 72
8
 73
4
 74
0
 40
0
 40
0
 40
0
 40
0
 40
1
 40
1
 40
1
 40
1
 10
74.514109
 20
199.289696
 30
0.0
 10
75.823799
 20
199.683716
 30
0.0
 10
79.093139
 20
200.711486
 30
0.0
 10
81.779309
 20
201.573616
 30
0.0
  0
SPLINE
  5
243
100
AcDbEntity
  8
Capa_1
 62
5
100
AcDbSpline
 70
8
 71
3
 72
8
 73
4
 74
0
 40
0
 40
0
 40
0
 40
0
 40
1
 40
1
 40
1
 40
1
 10
81.779309
 20
201.573616
 30
0.0
 10
84.465479
 20
202.435756
 30
0.0
 10
86.845509
 20
203.141136
 30
0.0
 10
87.068269
 20
203.141136
 30
0.0
  0
SPLINE
  5
244
100
AcDbEntity
  8
Capa_1
 62
5
100
AcDbSpline
 70
8
 71
3
 72
8
 73
4
 74
0
 40
0
 40
0
 40
0
 40
0
 40
1
 40
1
 40
1
 40
1
 10
87.068269
 20
203.141136
 30
0.0
 10
87.513399
 20
203.141136
 30
0.0
 10
87.058269
 20
203.608026
 30
0.0
 10
84.937899
 20
205.328256
 30
0.0
  0
SPLINE
  5
245
100
AcDbEntity
  8
Capa_1
 62
5
100
AcDbSpline
 70
8
 71
3
 72
8
 73
4
 74
0
 40
0
 40
0
 40
0
 40
0
 40
1
 40
1
 40
1
 40
1
 10
84.937899
 20
205.328256
 30
0.0
 10
83.761619
 20
206.282396
 30
0.0
 10
83.113069
 20
206.555106
 30
0.0
 10
83.113069
 20
206.095576
 30
0.0
  0
SPLINE
  5
246
100
AcDbEntity
  8
Capa_1
 62
5
100
AcDbSpline
 70
8
 71
3
 72
8
 73
4
 74
0
 40
0
 40
0
 40
0
 40
0
 40
1
 40
1
 40
1
 40
1
 10
83.113069
 20
206.095576
 30
0.0
 10
83.113069
 20
205.974266
 30
0.0
 10
82.655109
 20
205.378956
 30
0.0
 10
82.095379
 20
204.772656
 30
0.0
  0
SPLINE
  5
247
100
AcDbEntity
  8
Capa_1
 62
5
100
AcDbSpline
 70
8
 71
3
 72
8
 73
4
 74
0
 40
0
 40
0
 40
0
 40
0
 40
1
 40
1
 40
1
 40
1
 10
82.095379
 20
204.772656
 30
0.0
 10
81.141799
 20
203.739746
 30
0.0
 10
80.987619
 20
203.670466
 30
0.0
 10
79.647979
 20
203.672886
 30
0.0
  0
SPLINE
  5
248
100
AcDbEntity
  8
Capa_1
 62
5
100
AcDbSpline
 70
8
 71
3
 72
8
 73
4
 74
0
 40
0
 40
0
 40
0
 40
0
 40
1
 40
1
 40
1
 40
1
 10
79.647979
 20
203.672886
 30
0.0
 10
76.580009
 20
203.678886
 30
0.0
 10
74.274979
 20
205.609686
 30
0.0
 10
73.604409
 20
208.736436
 30
0.0
  0
SPLINE
  5
249
100
AcDbEntity
  8
Capa_1
 62
5
100
AcDbSpline
 70
8
 71
3
 72
8
 73
4
 74
0
 40
0
 40
0
 40
0
 40
0
 40
1
 40
1
 40
1
 40
1
 10
73.604409
 20
208.736436
 30
0.0
 10
73.248169
 20
210.397546
 30
0.0
 10
73.242839
 20
212.948726
 30
0.0
 10
73.593709
 20
213.871536
 30
0.0
  0
SPLINE
  5
24a
100
AcDbEntity
  8
Capa_1
 62
5
100
AcDbSpline
 70
8
 71
3
 72
8
 73
4
 74
0
 40
0
 40
0
 40
0
 40
0
 40
1
 40
1
 40
1
 40
1
 10
73.593709
 20
213.871536
 30
0.0
 10
73.850529
 20
214.547016
 30
0.0
 10
73.716219
 20
214.723236
 30
0.0
 10
70.881729
 20
217.429776
 30
0.0
  0
LWPOLYLINE
  5
24b
100
AcDbEntity
  8
Capa_1
 62
5
100
AcDbPolyline
 90
1
 70
1
 10
42.234939
 20
190.970700
 30
0.0
  0
SPLINE
  5
24c
100
AcDbEntity
  8
Capa_1
 62
5
100
AcDbSpline
 70
8
 71
3
 72
8
 73
4
 74
0
 40
0
 40
0
 40
0
 40
0
 40
1
 40
1
 40
1
 40
1
 10
66.973499
 20
219.573466
 30
0.0
 10
66.464179
 20
219.186336
 30
0.0
 10
65.030849
 20
218.190736
 30
0.0
 10
63.788319
 20
217.361016
 30
0.0
  0
SPLINE
  5
24d
100
AcDbEntity
  8
Capa_1
 62
5
100
AcDbSpline
 70
8
 71
3
 72
8
 73
4
 74
0
 40
0
 40
0
 40
0
 40
0
 40
1
 40
1
 40
1
 40
1
 10
63.788319
 20
217.361016
 30
0.0
 10
61.759019
 20
216.005926
 30
0.0
 10
60.358919
 20
214.910336
 30
0.0
 10
60.358919
 20
214.677496
 30
0.0
  0
SPLINE
  5
24e
100
AcDbEntity
  8
Capa_1
 62
5
100
AcDbSpline
 70
8
 71
3
 72
8
 73
4
 74
0
 40
0
 40
0
 40
0
 40
0
 40
1
 40
1
 40
1
 40
1
 10
60.358919
 20
214.677496
 30
0.0
 10
60.358919
 20
214.630896
 30
0.0
 10
61.050679
 20
213.891416
 30
0.0
 10
61.896169
 20
213.034156
 30
0.0
  0
SPLINE
  5
24f
100
AcDbEntity
  8
Capa_1
 62
5
100
AcDbSpline
 70
8
 71
3
 72
8
 73
4
 74
0
 40
0
 40
0
 40
0
 40
0
 40
1
 40
1
 40
1
 40
1
 10
61.896169
 20
213.034156
 30
0.0
 10
65.345389
 20
209.536936
 30
0.0
 10
67.827609
 20
206.007026
 30
0.0
 10
70.077219
 20
201.400086
 30
0.0
  0
SPLINE
  5
250
100
AcDbEntity
  8
Capa_1
 62
5
100
AcDbSpline
 70
8
 71
3
 72
8
 73
4
 74
0
 40
0
 40
0
 40
0
 40
0
 40
1
 40
1
 40
1
 40
1
 10
70.077219
 20
201.400086
 30
0.0
 10
70.894449
 20
199.726496
 30
0.0
 10
71.691289
 20
198.405816
 30
0.0
 10
71.847979
 20
198.465246
 30
0.0
  0
SPLINE
  5
251
100
AcDbEntity
  8
Capa_1
 62
5
100
AcDbSpline
 70
8
 71
3
 72
8
 73
4
 74
0
 40
0
 40
0
 40
0
 40
0
 40
1
 40
1
 40
1
 40
1
 10
71.847979
 20
198.465246
 30
0.0
 10
72.004669
 20
198.524646
 30
0.0
 10
73.204439
 20
198.895666
 30
0.0
 10
74.514129
 20
199.289696
 30
0.0
  0
LWPOLYLINE
  5
252
100
AcDbEntity
  8
Capa_1
 62
5
100
AcDbPolyline
 90
3
 70
0
 10
70.881729
 20
217.429776
 30
0.0
 10
67.899539
 20
220.277336
 30
0.0
 10
66.973499
 20
219.573466
 30
0.0
  0
SPLINE
  5
253
100
AcDbEntity
  8
Capa_1
 62
5
100
AcDbSpline
 70
8
 71
3
 72
8
 73
4
 74
0
 40
0
 40
0
 40
0
 40
0
 40
1
 40
1
 40
1
 40
1
 10
136.702140
 20
209.194706
 30
0.0
 10
137.987970
 20
209.778786
 30
0.0
 10
139.204730
 20
211.147926
 30
0.0
 10
139.204730
 20
212.010716
 30
0.0
  0
SPLINE
  5
254
100
AcDbEntity
  8
Capa_1
 62
5
100
AcDbSpline
 70
8
 71
3
 72
8
 73
4
 74
0
 40
0
 40
0
 40
0
 40
0
 40
1
 40
1
 40
1
 40
1
 10
139.204730
 20
212.010716
 30
0.0
 10
139.204730
 20
212.355506
 30
0.0
 10
138.146460
 20
214.697856
 30
0.0
 10
136.853010
 20
217.215926
 30
0.0
  0
SPLINE
  5
255
100
AcDbEntity
  8
Capa_1
 62
5
100
AcDbSpline
 70
8
 71
3
 72
8
 73
4
 74
0
 40
0
 40
0
 40
0
 40
0
 40
1
 40
1
 40
1
 40
1
 10
136.853010
 20
217.215926
 30
0.0
 10
135.559570
 20
219.734006
 30
0.0
 10
133.869610
 20
223.223006
 30
0.0
 10
133.097540
 20
224.969256
 30
0.0
  0
SPLINE
  5
256
100
AcDbEntity
  8
Capa_1
 62
5
100
AcDbSpline
 70
8
 71
3
 72
8
 73
4
 74
0
 40
0
 40
0
 40
0
 40
0
 40
1
 40
1
 40
1
 40
1
 10
133.097540
 20
224.969256
 30
0.0
 10
132.325480
 20
226.715506
 30
0.0
 10
131.659010
 20
228.192196
 30
0.0
 10
131.616510
 20
228.250796
 30
0.0
  0
SPLINE
  5
257
100
AcDbEntity
  8
Capa_1
 62
5
100
AcDbSpline
 70
8
 71
3
 72
8
 73
4
 74
0
 40
0
 40
0
 40
0
 40
0
 40
1
 40
1
 40
1
 40
1
 10
131.616510
 20
228.250796
 30
0.0
 10
131.574010
 20
228.309396
 30
0.0
 10
131.279030
 20
228.026536
 30
0.0
 10
130.961000
 20
227.622246
 30
0.0
  0
SPLINE
  5
258
100
AcDbEntity
  8
Capa_1
 62
5
100
AcDbSpline
 70
8
 71
3
 72
8
 73
4
 74
0
 40
0
 40
0
 40
0
 40
0
 40
1
 40
1
 40
1
 40
1
 10
130.961000
 20
227.622246
 30
0.0
 10
130.045220
 20
226.458016
 30
0.0
 10
128.520320
 20
225.907766
 30
0.0
 10
126.191230
 20
225.901106
 30
0.0
  0
SPLINE
  5
259
100
AcDbEntity
  8
Capa_1
 62
5
100
AcDbSpline
 70
8
 71
3
 72
8
 73
4
 74
0
 40
0
 40
0
 40
0
 40
0
 40
1
 40
1
 40
1
 40
1
 10
126.191230
 20
225.901106
 30
0.0
 10
125.072910
 20
225.898106
 30
0.0
 10
123.852520
 20
226.011416
 30
0.0
 10
123.479250
 20
226.153336
 30
0.0
  0
SPLINE
  5
25a
100
AcDbEntity
  8
Capa_1
 62
5
100
AcDbSpline
 70
8
 71
3
 72
8
 73
4
 74
0
 40
0
 40
0
 40
0
 40
0
 40
1
 40
1
 40
1
 40
1
 10
123.479250
 20
226.153336
 30
0.0
 10
123.105970
 20
226.295256
 30
0.0
 10
122.800560
 20
226.344856
 30
0.0
 10
122.800560
 20
226.263556
 30
0.0
  0
SPLINE
  5
25b
100
AcDbEntity
  8
Capa_1
 62
5
100
AcDbSpline
 70
8
 71
3
 72
8
 73
4
 74
0
 40
0
 40
0
 40
0
 40
0
 40
1
 40
1
 40
1
 40
1
 10
122.800560
 20
226.263556
 30
0.0
 10
122.800560
 20
225.535266
 30
0.0
 10
124.080070
 20
221.414886
 30
0.0
 10
124.763500
 20
219.942306
 30
0.0
  0
SPLINE
  5
25c
100
AcDbEntity
  8
Capa_1
 62
5
100
AcDbSpline
 70
8
 71
3
 72
8
 73
4
 74
0
 40
0
 40
0
 40
0
 40
0
 40
1
 40
1
 40
1
 40
1
 10
124.763500
 20
219.942306
 30
0.0
 10
125.599950
 20
218.140036
 30
0.0
 10
130.553420
 20
211.248286
 30
0.0
 10
131.824310
 20
210.118616
 30
0.0
  0
SPLINE
  5
25d
100
AcDbEntity
  8
Capa_1
 62
5
100
AcDbSpline
 70
8
 71
3
 72
8
 73
4
 74
0
 40
0
 40
0
 40
0
 40
0
 40
1
 40
1
 40
1
 40
1
 10
131.824310
 20
210.118616
 30
0.0
 10
133.463300
 20
208.661766
 30
0.0
 10
134.921010
 20
208.385656
 30
0.0
 10
136.702140
 20
209.194706
 30
0.0
  0
LWPOLYLINE
  5
25e
100
AcDbEntity
  8
Capa_1
 62
5
100
AcDbPolyline
 90
1
 70
1
 10
74.514129
 20
199.289696
 30
0.0
  0
SPLINE
  5
25f
100
AcDbEntity
  8
Capa_1
 62
5
100
AcDbSpline
 70
8
 71
3
 72
8
 73
4
 74
0
 40
0
 40
0
 40
0
 40
0
 40
1
 40
1
 40
1
 40
1
 10
148.296930
 20
210.120526
 30
0.0
 10
148.777150
 20
210.321176
 30
0.0
 10
149.440780
 20
210.827186
 30
0.0
 10
149.771670
 20
211.245006
 30
0.0
  0
SPLINE
  5
260
100
AcDbEntity
  8
Capa_1
 62
5
100
AcDbSpline
 70
8
 71
3
 72
8
 73
4
 74
0
 40
0
 40
0
 40
0
 40
0
 40
1
 40
1
 40
1
 40
1
 10
149.771670
 20
211.245006
 30
0.0
 10
150.715450
 20
212.436716
 30
0.0
 10
150.443950
 20
214.781746
 30
0.0
 10
148.790950
 20
219.715926
 30
0.0
  0
SPLINE
  5
261
100
AcDbEntity
  8
Capa_1
 62
5
100
AcDbSpline
 70
8
 71
3
 72
8
 73
4
 74
0
 40
0
 40
0
 40
0
 40
0
 40
1
 40
1
 40
1
 40
1
 10
148.790950
 20
219.715926
 30
0.0
 10
147.301410
 20
224.162176
 30
0.0
 10
146.068570
 20
226.994256
 30
0.0
 10
144.737520
 20
229.027466
 30
0.0
  0
SPLINE
  5
262
100
AcDbEntity
  8
Capa_1
 62
5
100
AcDbSpline
 70
8
 71
3
 72
8
 73
4
 74
0
 40
0
 40
0
 40
0
 40
0
 40
1
 40
1
 40
1
 40
1
 10
144.737520
 20
229.027466
 30
0.0
 10
143.859850
 20
230.368116
 30
0.0
 10
143.849120
 20
230.374496
 30
0.0
 10
143.314890
 20
229.873246
 30
0.0
  0
SPLINE
  5
263
100
AcDbEntity
  8
Capa_1
 62
5
100
AcDbSpline
 70
8
 71
3
 72
8
 73
4
 74
0
 40
0
 40
0
 40
0
 40
0
 40
1
 40
1
 40
1
 40
1
 10
143.314890
 20
229.873246
 30
0.0
 10
143.018840
 20
229.595456
 30
0.0
 10
141.943170
 20
228.975226
 30
0.0
 10
140.924520
 20
228.494946
 30
0.0
  0
SPLINE
  5
264
100
AcDbEntity
  8
Capa_1
 62
5
100
AcDbSpline
 70
8
 71
3
 72
8
 73
4
 74
0
 40
0
 40
0
 40
0
 40
0
 40
1
 40
1
 40
1
 40
1
 10
140.924520
 20
228.494946
 30
0.0
 10
139.246550
 20
227.703816
 30
0.0
 10
138.841250
 20
227.621416
 30
0.0
 10
136.613150
 20
227.618406
 30
0.0
  0
LWPOLYLINE
  5
265
100
AcDbEntity
  8
Capa_1
 62
5
100
AcDbPolyline
 90
1
 70
1
 10
136.702140
 20
209.194706
 30
0.0
  0
SPLINE
  5
266
100
AcDbEntity
  8
Capa_1
 62
5
100
AcDbSpline
 70
8
 71
3
 72
8
 73
4
 74
0
 40
0
 40
0
 40
0
 40
0
 40
1
 40
1
 40
1
 40
1
 10
134.316360
 20
226.953956
 30
0.0
 10
134.998770
 20
224.176066
 30
0.0
 10
139.717200
 20
213.918826
 30
0.0
 10
141.223580
 20
211.938566
 30
0.0
  0
SPLINE
  5
267
100
AcDbEntity
  8
Capa_1
 62
5
100
AcDbSpline
 70
8
 71
3
 72
8
 73
4
 74
0
 40
0
 40
0
 40
0
 40
0
 40
1
 40
1
 40
1
 40
1
 10
141.223580
 20
211.938566
 30
0.0
 10
142.641630
 20
210.074436
 30
0.0
 10
146.074490
 20
209.192256
 30
0.0
 10
148.296930
 20
210.120846
 30
0.0
  0
LWPOLYLINE
  5
268
100
AcDbEntity
  8
Capa_1
 62
5
100
AcDbPolyline
 90
3
 70
0
 10
136.613150
 20
227.618406
 30
0.0
 10
134.153870
 20
227.615406
 30
0.0
 10
134.316360
 20
226.953956
 30
0.0
  0
SPLINE
  5
269
100
AcDbEntity
  8
Capa_1
 62
5
100
AcDbSpline
 70
8
 71
3
 72
8
 73
4
 74
0
 40
0
 40
0
 40
0
 40
0
 40
1
 40
1
 40
1
 40
1
 10
124.213560
 20
211.324916
 30
0.0
 10
126.082120
 20
211.603846
 30
0.0
 10
127.667810
 20
211.888936
 30
0.0
 10
127.737320
 20
211.958446
 30
0.0
  0
SPLINE
  5
26a
100
AcDbEntity
  8
Capa_1
 62
5
100
AcDbSpline
 70
8
 71
3
 72
8
 73
4
 74
0
 40
0
 40
0
 40
0
 40
0
 40
1
 40
1
 40
1
 40
1
 10
127.737320
 20
211.958446
 30
0.0
 10
127.806820
 20
212.027946
 30
0.0
 10
126.919330
 20
213.495546
 30
0.0
 10
125.765090
 20
215.219756
 30
0.0
  0
SPLINE
  5
26b
100
AcDbEntity
  8
Capa_1
 62
5
100
AcDbSpline
 70
8
 71
3
 72
8
 73
4
 74
0
 40
0
 40
0
 40
0
 40
0
 40
1
 40
1
 40
1
 40
1
 10
125.765090
 20
215.219756
 30
0.0
 10
123.095250
 20
219.207946
 30
0.0
 10
121.221720
 20
223.481656
 30
0.0
 10
121.209010
 20
225.612586
 30
0.0
  0
SPLINE
  5
26c
100
AcDbEntity
  8
Capa_1
 62
5
100
AcDbSpline
 70
8
 71
3
 72
8
 73
4
 74
0
 40
0
 40
0
 40
0
 40
0
 40
1
 40
1
 40
1
 40
1
 10
121.209010
 20
225.612586
 30
0.0
 10
121.207010
 20
225.986366
 30
0.0
 10
121.103520
 20
226.452226
 30
0.0
 10
120.979540
 20
226.647846
 30
0.0
  0
SPLINE
  5
26d
100
AcDbEntity
  8
Capa_1
 62
5
100
AcDbSpline
 70
8
 71
3
 72
8
 73
4
 74
0
 40
0
 40
0
 40
0
 40
0
 40
1
 40
1
 40
1
 40
1
 10
120.979540
 20
226.647846
 30
0.0
 10
120.679300
 20
227.121576
 30
0.0
 10
118.129110
 20
227.634326
 30
0.0
 10
112.879500
 20
228.276446
 30
0.0
  0
SPLINE
  5
26e
100
AcDbEntity
  8
Capa_1
 62
5
100
AcDbSpline
 70
8
 71
3
 72
8
 73
4
 74
0
 40
0
 40
0
 40
0
 40
0
 40
1
 40
1
 40
1
 40
1
 10
112.879500
 20
228.276446
 30
0.0
 10
106.876240
 20
229.010756
 30
0.0
 10
104.236500
 20
228.970436
 30
0.0
 10
103.917670
 20
228.139566
 30
0.0
  0
SPLINE
  5
26f
100
AcDbEntity
  8
Capa_1
 62
5
100
AcDbSpline
 70
8
 71
3
 72
8
 73
4
 74
0
 40
0
 40
0
 40
0
 40
0
 40
1
 40
1
 40
1
 40
1
 10
103.917670
 20
228.139566
 30
0.0
 10
103.739800
 20
227.676056
 30
0.0
 10
112.683430
 20
215.184466
 30
0.0
 10
115.347210
 20
212.175886
 30
0.0
  0
SPLINE
  5
270
100
AcDbEntity
  8
Capa_1
 62
5
100
AcDbSpline
 70
8
 71
3
 72
8
 73
4
 74
0
 40
0
 40
0
 40
0
 40
0
 40
1
 40
1
 40
1
 40
1
 10
115.347210
 20
212.175886
 30
0.0
 10
116.616460
 20
210.742346
 30
0.0
 10
118.865170
 20
210.526516
 30
0.0
 10
124.213560
 20
211.324916
 30
0.0
  0
LWPOLYLINE
  5
271
100
AcDbEntity
  8
Capa_1
 62
5
100
AcDbPolyline
 90
2
 70
0
 10
148.296930
 20
210.120846
 30
0.0
 10
148.296930
 20
210.120526
 30
0.0
  0
SPLINE
  5
272
100
AcDbEntity
  8
Capa_1
 62
5
100
AcDbSpline
 70
8
 71
3
 72
8
 73
4
 74
0
 40
0
 40
0
 40
0
 40
0
 40
1
 40
1
 40
1
 40
1
 10
80.368459
 20
214.863906
 30
0.0
 10
80.676679
 20
217.264796
 30
0.0
 10
80.672589
 20
217.304736
 30
0.0
 10
80.052829
 20
217.943766
 30
0.0
  0
SPLINE
  5
273
100
AcDbEntity
  8
Capa_1
 62
5
100
AcDbSpline
 70
8
 71
3
 72
8
 73
4
 74
0
 40
0
 40
0
 40
0
 40
0
 40
1
 40
1
 40
1
 40
1
 10
80.052829
 20
217.943766
 30
0.0
 10
79.707489
 20
218.299856
 30
0.0
 10
79.345269
 20
218.511526
 30
0.0
 10
79.247899
 20
218.414166
 30
0.0
  0
SPLINE
  5
274
100
AcDbEntity
  8
Capa_1
 62
5
100
AcDbSpline
 70
8
 71
3
 72
8
 73
4
 74
0
 40
0
 40
0
 40
0
 40
0
 40
1
 40
1
 40
1
 40
1
 10
79.247899
 20
218.414166
 30
0.0
 10
79.150499
 20
218.316766
 30
0.0
 10
79.057629
 20
217.062846
 30
0.0
 10
79.041449
 20
215.627616
 30
0.0
  0
SPLINE
  5
275
100
AcDbEntity
  8
Capa_1
 62
5
100
AcDbSpline
 70
8
 71
3
 72
8
 73
4
 74
0
 40
0
 40
0
 40
0
 40
0
 40
1
 40
1
 40
1
 40
1
 10
79.041449
 20
215.627616
 30
0.0
 10
79.020349
 20
213.751936
 30
0.0
 10
79.115649
 20
212.892406
 30
0.0
 10
79.380459
 20
212.571136
 30
0.0
  0
SPLINE
  5
276
100
AcDbEntity
  8
Capa_1
 62
5
100
AcDbSpline
 70
8
 71
3
 72
8
 73
4
 74
0
 40
0
 40
0
 40
0
 40
0
 40
1
 40
1
 40
1
 40
1
 10
79.380459
 20
212.571136
 30
0.0
 10
79.583099
 20
212.325306
 30
0.0
 10
79.818039
 20
212.193326
 30
0.0
 10
79.902539
 20
212.277826
 30
0.0
  0
SPLINE
  5
277
100
AcDbEntity
  8
Capa_1
 62
5
100
AcDbSpline
 70
8
 71
3
 72
8
 73
4
 74
0
 40
0
 40
0
 40
0
 40
0
 40
1
 40
1
 40
1
 40
1
 10
79.902539
 20
212.277826
 30
0.0
 10
79.987039
 20
212.362326
 30
0.0
 10
80.196719
 20
213.526076
 30
0.0
 10
80.368459
 20
214.863906
 30
0.0
  0
LWPOLYLINE
  5
278
100
AcDbEntity
  8
Capa_1
 62
5
100
AcDbPolyline
 90
1
 70
1
 10
124.213560
 20
211.324916
 30
0.0
  0
SPLINE
  5
279
100
AcDbEntity
  8
Capa_1
 62
5
100
AcDbSpline
 70
8
 71
3
 72
8
 73
4
 74
0
 40
0
 40
0
 40
0
 40
0
 40
1
 40
1
 40
1
 40
1
 10
84.322469
 20
214.642026
 30
0.0
 10
84.557789
 20
215.001166
 30
0.0
 10
84.709359
 20
215.416066
 30
0.0
 10
84.659299
 20
215.564016
 30
0.0
  0
SPLINE
  5
27a
100
AcDbEntity
  8
Capa_1
 62
5
100
AcDbSpline
 70
8
 71
3
 72
8
 73
4
 74
0
 40
0
 40
0
 40
0
 40
0
 40
1
 40
1
 40
1
 40
1
 10
84.659299
 20
215.564016
 30
0.0
 10
84.532249
 20
215.939506
 30
0.0
 10
76.692269
 20
223.266856
 30
0.0
 10
76.559559
 20
223.134146
 30
0.0
  0
SPLINE
  5
27b
100
AcDbEntity
  8
Capa_1
 62
5
100
AcDbSpline
 70
8
 71
3
 72
8
 73
4
 74
0
 40
0
 40
0
 40
0
 40
0
 40
1
 40
1
 40
1
 40
1
 10
76.559559
 20
223.134146
 30
0.0
 10
76.180779
 20
222.755376
 30
0.0
 10
75.999469
 20
220.723676
 30
0.0
 10
76.246199
 20
219.622736
 30
0.0
  0
SPLINE
  5
27c
100
AcDbEntity
  8
Capa_1
 62
5
100
AcDbSpline
 70
8
 71
3
 72
8
 73
4
 74
0
 40
0
 40
0
 40
0
 40
0
 40
1
 40
1
 40
1
 40
1
 10
76.246199
 20
219.622736
 30
0.0
 10
76.728639
 20
217.469976
 30
0.0
 10
77.622429
 20
217.136456
 30
0.0
 10
77.920119
 20
218.998106
 30
0.0
  0
SPLINE
  5
27d
100
AcDbEntity
  8
Capa_1
 62
5
100
AcDbSpline
 70
8
 71
3
 72
8
 73
4
 74
0
 40
0
 40
0
 40
0
 40
0
 40
1
 40
1
 40
1
 40
1
 10
77.920119
 20
218.998106
 30
0.0
 10
78.187409
 20
220.669606
 30
0.0
 10
78.663989
 20
220.815846
 30
0.0
 10
80.075259
 20
219.659416
 30
0.0
  0
SPLINE
  5
27e
100
AcDbEntity
  8
Capa_1
 62
5
100
AcDbSpline
 70
8
 71
3
 72
8
 73
4
 74
0
 40
0
 40
0
 40
0
 40
0
 40
1
 40
1
 40
1
 40
1
 10
80.075259
 20
219.659416
 30
0.0
 10
81.396769
 20
218.576536
 30
0.0
 10
81.790149
 20
218.012146
 30
0.0
 10
81.790149
 20
217.199026
 30
0.0
  0
SPLINE
  5
27f
100
AcDbEntity
  8
Capa_1
 62
5
100
AcDbSpline
 70
8
 71
3
 72
8
 73
4
 74
0
 40
0
 40
0
 40
0
 40
0
 40
1
 40
1
 40
1
 40
1
 10
81.790149
 20
217.199026
 30
0.0
 10
81.790149
 20
216.611716
 30
0.0
 10
83.330699
 20
213.989046
 30
0.0
 10
83.675679
 20
213.989046
 30
0.0
  0
SPLINE
  5
280
100
AcDbEntity
  8
Capa_1
 62
5
100
AcDbSpline
 70
8
 71
3
 72
8
 73
4
 74
0
 40
0
 40
0
 40
0
 40
0
 40
1
 40
1
 40
1
 40
1
 10
83.675679
 20
213.989046
 30
0.0
 10
83.796099
 20
213.989046
 30
0.0
 10
84.087149
 20
214.282886
 30
0.0
 10
84.322469
 20
214.642026
 30
0.0
  0
LWPOLYLINE
  5
281
100
AcDbEntity
  8
Capa_1
 62
5
100
AcDbPolyline
 90
1
 70
1
 10
80.368459
 20
214.863906
 30
0.0
  0
SPLINE
  5
282
100
AcDbEntity
  8
Capa_1
 62
5
100
AcDbSpline
 70
8
 71
3
 72
8
 73
4
 74
0
 40
0
 40
0
 40
0
 40
0
 40
1
 40
1
 40
1
 40
1
 10
160.170440
 20
214.485806
 30
0.0
 10
165.437820
 20
214.884126
 30
0.0
 10
166.537600
 20
215.038476
 30
0.0
 10
166.983460
 20
215.441976
 30
0.0
  0
SPLINE
  5
283
100
AcDbEntity
  8
Capa_1
 62
5
100
AcDbSpline
 70
8
 71
3
 72
8
 73
4
 74
0
 40
0
 40
0
 40
0
 40
0
 40
1
 40
1
 40
1
 40
1
 10
166.983460
 20
215.441976
 30
0.0
 10
167.605480
 20
216.004886
 30
0.0
 10
167.664410
 20
216.901676
 30
0.0
 10
167.145360
 20
217.905416
 30
0.0
  0
SPLINE
  5
284
100
AcDbEntity
  8
Capa_1
 62
5
100
AcDbSpline
 70
8
 71
3
 72
8
 73
4
 74
0
 40
0
 40
0
 40
0
 40
0
 40
1
 40
1
 40
1
 40
1
 10
167.145360
 20
217.905416
 30
0.0
 10
166.492480
 20
219.167946
 30
0.0
 10
165.815460
 20
219.529176
 30
0.0
 10
162.865800
 20
220.188836
 30
0.0
  0
SPLINE
  5
285
100
AcDbEntity
  8
Capa_1
 62
5
100
AcDbSpline
 70
8
 71
3
 72
8
 73
4
 74
0
 40
0
 40
0
 40
0
 40
0
 40
1
 40
1
 40
1
 40
1
 10
162.865800
 20
220.188836
 30
0.0
 10
161.275600
 20
220.544456
 30
0.0
 10
157.736070
 20
221.378586
 30
0.0
 10
155.000180
 20
222.042446
 30
0.0
  0
SPLINE
  5
286
100
AcDbEntity
  8
Capa_1
 62
5
100
AcDbSpline
 70
8
 71
3
 72
8
 73
4
 74
0
 40
0
 40
0
 40
0
 40
0
 40
1
 40
1
 40
1
 40
1
 10
155.000180
 20
222.042446
 30
0.0
 10
152.264290
 20
222.706306
 30
0.0
 10
149.914060
 20
223.249466
 30
0.0
 10
149.777440
 20
223.249466
 30
0.0
  0
SPLINE
  5
287
100
AcDbEntity
  8
Capa_1
 62
5
100
AcDbSpline
 70
8
 71
3
 72
8
 73
4
 74
0
 40
0
 40
0
 40
0
 40
0
 40
1
 40
1
 40
1
 40
1
 10
149.777440
 20
223.249466
 30
0.0
 10
149.640820
 20
223.249466
 30
0.0
 10
149.865340
 20
222.326726
 30
0.0
 10
150.276310
 20
221.198946
 30
0.0
  0
SPLINE
  5
288
100
AcDbEntity
  8
Capa_1
 62
5
100
AcDbSpline
 70
8
 71
3
 72
8
 73
4
 74
0
 40
0
 40
0
 40
0
 40
0
 40
1
 40
1
 40
1
 40
1
 10
150.276310
 20
221.198946
 30
0.0
 10
150.911530
 20
219.455886
 30
0.0
 10
151.550070
 20
217.085836
 30
0.0
 10
152.058420
 20
214.584366
 30
0.0
  0
SPLINE
  5
289
100
AcDbEntity
  8
Capa_1
 62
5
100
AcDbSpline
 70
8
 71
3
 72
8
 73
4
 74
0
 40
0
 40
0
 40
0
 40
0
 40
1
 40
1
 40
1
 40
1
 10
152.058420
 20
214.584366
 30
0.0
 10
152.206020
 20
213.858026
 30
0.0
 10
151.915300
 20
213.861556
 30
0.0
 10
160.170440
 20
214.485866
 30
0.0
  0
LWPOLYLINE
  5
28a
100
AcDbEntity
  8
Capa_1
 62
5
100
AcDbPolyline
 90
1
 70
1
 10
84.322469
 20
214.642026
 30
0.0
  0
SPLINE
  5
28b
100
AcDbEntity
  8
Capa_1
 62
5
100
AcDbSpline
 70
8
 71
3
 72
8
 73
4
 74
0
 40
0
 40
0
 40
0
 40
0
 40
1
 40
1
 40
1
 40
1
 10
80.843159
 20
244.976096
 30
0.0
 10
82.092109
 20
245.958516
 30
0.0
 10
84.111559
 20
249.104036
 30
0.0
 10
84.421669
 20
250.550036
 30
0.0
  0
SPLINE
  5
28c
100
AcDbEntity
  8
Capa_1
 62
5
100
AcDbSpline
 70
8
 71
3
 72
8
 73
4
 74
0
 40
0
 40
0
 40
0
 40
0
 40
1
 40
1
 40
1
 40
1
 10
84.421669
 20
250.550036
 30
0.0
 10
84.779109
 20
252.216736
 30
0.0
 10
84.753509
 20
252.251226
 30
0.0
 10
81.680629
 20
254.244096
 30
0.0
  0
SPLINE
  5
28d
100
AcDbEntity
  8
Capa_1
 62
5
100
AcDbSpline
 70
8
 71
3
 72
8
 73
4
 74
0
 40
0
 40
0
 40
0
 40
0
 40
1
 40
1
 40
1
 40
1
 10
81.680629
 20
254.244096
 30
0.0
 10
75.700059
 20
258.122686
 30
0.0
 10
68.593059
 20
260.034526
 30
0.0
 10
61.446959
 20
259.687096
 30
0.0
  0
SPLINE
  5
28e
100
AcDbEntity
  8
Capa_1
 62
5
100
AcDbSpline
 70
8
 71
3
 72
8
 73
4
 74
0
 40
0
 40
0
 40
0
 40
0
 40
1
 40
1
 40
1
 40
1
 10
61.446959
 20
259.687096
 30
0.0
 10
57.965149
 20
259.517806
 30
0.0
 10
56.087739
 20
259.009246
 30
0.0
 10
54.689309
 20
257.856546
 30
0.0
  0
SPLINE
  5
28f
100
AcDbEntity
  8
Capa_1
 62
5
100
AcDbSpline
 70
8
 71
3
 72
8
 73
4
 74
0
 40
0
 40
0
 40
0
 40
0
 40
1
 40
1
 40
1
 40
1
 10
54.689309
 20
257.856546
 30
0.0
 10
53.632239
 20
256.985216
 30
0.0
 10
53.418439
 20
256.393936
 30
0.0
 10
54.338489
 20
256.886336
 30
0.0
  0
SPLINE
  5
290
100
AcDbEntity
  8
Capa_1
 62
5
100
AcDbSpline
 70
8
 71
3
 72
8
 73
4
 74
0
 40
0
 40
0
 40
0
 40
0
 40
1
 40
1
 40
1
 40
1
 10
54.338489
 20
256.886336
 30
0.0
 10
55.330379
 20
257.417176
 30
0.0
 10
58.430719
 20
257.271986
 30
0.0
 10
60.491189
 20
256.598186
 30
0.0
  0
SPLINE
  5
291
100
AcDbEntity
  8
Capa_1
 62
5
100
AcDbSpline
 70
8
 71
3
 72
8
 73
4
 74
0
 40
0
 40
0
 40
0
 40
0
 40
1
 40
1
 40
1
 40
1
 10
60.491189
 20
256.598186
 30
0.0
 10
64.937769
 20
255.144116
 30
0.0
 10
70.011509
 20
252.163816
 30
0.0
 10
75.175569
 20
247.972636
 30
0.0
  0
SPLINE
  5
292
100
AcDbEntity
  8
Capa_1
 62
5
100
AcDbSpline
 70
8
 71
3
 72
8
 73
4
 74
0
 40
0
 40
0
 40
0
 40
0
 40
1
 40
1
 40
1
 40
1
 10
75.175569
 20
247.972636
 30
0.0
 10
78.145569
 20
245.562166
 30
0.0
 10
79.681509
 20
244.416126
 30
0.0
 10
79.942089
 20
244.416126
 30
0.0
  0
SPLINE
  5
293
100
AcDbEntity
  8
Capa_1
 62
5
100
AcDbSpline
 70
8
 71
3
 72
8
 73
4
 74
0
 40
0
 40
0
 40
0
 40
0
 40
1
 40
1
 40
1
 40
1
 10
79.942089
 20
244.416126
 30
0.0
 10
80.046149
 20
244.416126
 30
0.0
 10
80.451629
 20
244.668116
 30
0.0
 10
80.843159
 20
244.976096
 30
0.0
  0
LWPOLYLINE
  5
294
100
AcDbEntity
  8
Capa_1
 62
5
100
AcDbPolyline
 90
1
 70
1
 10
160.170440
 20
214.485866
 30
0.0
  0
SPLINE
  5
295
100
AcDbEntity
  8
Capa_1
 62
5
100
AcDbSpline
 70
8
 71
3
 72
8
 73
4
 74
0
 40
0
 40
0
 40
0
 40
0
 40
1
 40
1
 40
1
 40
1
 10
59.143149
 20
173.192600
 30
0.0
 10
58.283849
 20
173.746840
 30
0.0
 10
54.127969
 20
176.323310
 30
0.0
 10
49.907859
 20
178.918090
 30
0.0
  0
SPLINE
  5
296
100
AcDbEntity
  8
Capa_1
 62
5
100
AcDbSpline
 70
8
 71
3
 72
8
 73
4
 74
0
 40
0
 40
0
 40
0
 40
0
 40
1
 40
1
 40
1
 40
1
 10
49.907859
 20
178.918090
 30
0.0
 10
40.005739
 20
185.006510
 30
0.0
 10
40.250569
 20
184.848440
 30
0.0
 10
40.250569
 20
185.153230
 30
0.0
  0
SPLINE
  5
297
100
AcDbEntity
  8
Capa_1
 62
5
100
AcDbSpline
 70
8
 71
3
 72
8
 73
4
 74
0
 40
0
 40
0
 40
0
 40
0
 40
1
 40
1
 40
1
 40
1
 10
40.250569
 20
185.153230
 30
0.0
 10
40.250569
 20
185.296680
 30
0.0
 10
40.332969
 20
185.414060
 30
0.0
 10
40.433619
 20
185.414060
 30
0.0
  0
SPLINE
  5
298
100
AcDbEntity
  8
Capa_1
 62
5
100
AcDbSpline
 70
8
 71
3
 72
8
 73
4
 74
0
 40
0
 40
0
 40
0
 40
0
 40
1
 40
1
 40
1
 40
1
 10
40.433619
 20
185.414060
 30
0.0
 10
40.859899
 20
185.414060
 30
0.0
 10
60.546409
 20
173.395790
 30
0.0
 10
61.277589
 20
172.689170
 30
0.0
  0
SPLINE
  5
299
100
AcDbEntity
  8
Capa_1
 62
5
100
AcDbSpline
 70
8
 71
3
 72
8
 73
4
 74
0
 40
0
 40
0
 40
0
 40
0
 40
1
 40
1
 40
1
 40
1
 10
61.277589
 20
172.689170
 30
0.0
 10
61.796679
 20
172.187530
 30
0.0
 10
61.796549
 20
172.184890
 30
0.0
 10
61.252489
 20
172.184890
 30
0.0
  0
SPLINE
  5
29a
100
AcDbEntity
  8
Capa_1
 62
5
100
AcDbSpline
 70
8
 71
3
 72
8
 73
4
 74
0
 40
0
 40
0
 40
0
 40
0
 40
1
 40
1
 40
1
 40
1
 10
61.252489
 20
172.184890
 30
0.0
 10
60.951679
 20
172.184890
 30
0.0
 10
60.002479
 20
172.638360
 30
0.0
 10
59.143179
 20
173.192600
 30
0.0
  0
LWPOLYLINE
  5
29b
100
AcDbEntity
  8
Capa_1
 62
5
100
AcDbPolyline
 90
1
 70
1
 10
80.843159
 20
244.976096
 30
0.0
  0
SPLINE
  5
29c
100
AcDbEntity
  8
Capa_1
 62
5
100
AcDbSpline
 70
8
 71
3
 72
8
 73
4
 74
0
 40
0
 40
0
 40
0
 40
0
 40
1
 40
1
 40
1
 40
1
 10
164.996590
 20
189.448950
 30
0.0
 10
164.761960
 20
189.776370
 30
0.0
 10
163.544550
 20
191.711140
 30
0.0
 10
162.291230
 20
193.748430
 30
0.0
  0
SPLINE
  5
29d
100
AcDbEntity
  8
Capa_1
 62
5
100
AcDbSpline
 70
8
 71
3
 72
8
 73
4
 74
0
 40
0
 40
0
 40
0
 40
0
 40
1
 40
1
 40
1
 40
1
 10
162.291230
 20
193.748430
 30
0.0
 10
156.786270
 20
202.696846
 30
0.0
 10
154.315750
 20
206.943996
 30
0.0
 10
154.470170
 20
207.193856
 30
0.0
  0
SPLINE
  5
29e
100
AcDbEntity
  8
Capa_1
 62
5
100
AcDbSpline
 70
8
 71
3
 72
8
 73
4
 74
0
 40
0
 40
0
 40
0
 40
0
 40
1
 40
1
 40
1
 40
1
 10
154.470170
 20
207.193856
 30
0.0
 10
154.564370
 20
207.346266
 30
0.0
 10
154.875770
 20
207.161856
 30
0.0
 10
155.190380
 20
206.767256
 30
0.0
  0
SPLINE
  5
29f
100
AcDbEntity
  8
Capa_1
 62
5
100
AcDbSpline
 70
8
 71
3
 72
8
 73
4
 74
0
 40
0
 40
0
 40
0
 40
0
 40
1
 40
1
 40
1
 40
1
 10
155.190380
 20
206.767256
 30
0.0
 10
155.792200
 20
206.012506
 30
0.0
 10
165.927650
 20
189.241700
 30
0.0
 10
165.927650
 20
189.000640
 30
0.0
  0
SPLINE
  5
2a0
100
AcDbEntity
  8
Capa_1
 62
5
100
AcDbSpline
 70
8
 71
3
 72
8
 73
4
 74
0
 40
0
 40
0
 40
0
 40
0
 40
1
 40
1
 40
1
 40
1
 10
165.927650
 20
189.000640
 30
0.0
 10
165.927650
 20
188.644210
 30
0.0
 10
165.386560
 20
188.904740
 30
0.0
 10
164.996590
 20
189.448950
 30
0.0
  0
LWPOLYLINE
  5
2a1
100
AcDbEntity
  8
Capa_1
 62
5
100
AcDbPolyline
 90
1
 70
1
 10
59.143179
 20
173.192600
 30
0.0
  0
SPLINE
  5
2a2
100
AcDbEntity
  8
Capa_1
 62
5
100
AcDbSpline
 70
8
 71
3
 72
8
 73
4
 74
0
 40
0
 40
0
 40
0
 40
0
 40
1
 40
1
 40
1
 40
1
 10
167.565920
 20
196.724990
 30
0.0
 10
162.327190
 20
206.680516
 30
0.0
 10
161.425140
 20
208.654816
 30
0.0
 10
162.239180
 20
208.383466
 30
0.0
  0
SPLINE
  5
2a3
100
AcDbEntity
  8
Capa_1
 62
5
100
AcDbSpline
 70
8
 71
3
 72
8
 73
4
 74
0
 40
0
 40
0
 40
0
 40
0
 40
1
 40
1
 40
1
 40
1
 10
162.239180
 20
208.383466
 30
0.0
 10
162.393340
 20
208.332066
 30
0.0
 10
164.279200
 20
204.839576
 30
0.0
 10
166.429970
 20
200.622356
 30
0.0
  0
SPLINE
  5
2a4
100
AcDbEntity
  8
Capa_1
 62
5
100
AcDbSpline
 70
8
 71
3
 72
8
 73
4
 74
0
 40
0
 40
0
 40
0
 40
0
 40
1
 40
1
 40
1
 40
1
 10
166.429970
 20
200.622356
 30
0.0
 10
168.580740
 20
196.405140
 30
0.0
 10
170.597740
 20
192.480190
 30
0.0
 10
170.912180
 20
191.900270
 30
0.0
  0
SPLINE
  5
2a5
100
AcDbEntity
  8
Capa_1
 62
5
100
AcDbSpline
 70
8
 71
3
 72
8
 73
4
 74
0
 40
0
 40
0
 40
0
 40
0
 40
1
 40
1
 40
1
 40
1
 10
170.912180
 20
191.900270
 30
0.0
 10
171.518190
 20
190.782610
 30
0.0
 10
171.636210
 20
190.176560
 30
0.0
 10
171.247850
 20
190.176560
 30
0.0
  0
SPLINE
  5
2a6
100
AcDbEntity
  8
Capa_1
 62
5
100
AcDbSpline
 70
8
 71
3
 72
8
 73
4
 74
0
 40
0
 40
0
 40
0
 40
0
 40
1
 40
1
 40
1
 40
1
 10
171.247850
 20
190.176560
 30
0.0
 10
171.118020
 20
190.176560
 30
0.0
 10
169.461160
 20
193.123350
 30
0.0
 10
167.565920
 20
196.724990
 30
0.0
  0
LWPOLYLINE
  5
2a7
100
AcDbEntity
  8
Capa_1
 62
5
100
AcDbPolyline
 90
1
 70
1
 10
164.996590
 20
189.448950
 30
0.0
  0
SPLINE
  5
2a8
100
AcDbEntity
  8
Capa_1
 62
5
100
AcDbSpline
 70
8
 71
3
 72
8
 73
4
 74
0
 40
0
 40
0
 40
0
 40
0
 40
1
 40
1
 40
1
 40
1
 10
175.717230
 20
191.047500
 30
0.0
 10
175.717230
 20
191.090000
 30
0.0
 10
174.113840
 20
195.102340
 30
0.0
 10
172.154150
 20
199.963916
 30
0.0
  0
SPLINE
  5
2a9
100
AcDbEntity
  8
Capa_1
 62
5
100
AcDbSpline
 70
8
 71
3
 72
8
 73
4
 74
0
 40
0
 40
0
 40
0
 40
0
 40
1
 40
1
 40
1
 40
1
 10
172.154150
 20
199.963916
 30
0.0
 10
170.194450
 20
204.825506
 30
0.0
 10
168.641500
 20
208.853596
 30
0.0
 10
168.703150
 20
208.915246
 30
0.0
  0
SPLINE
  5
2aa
100
AcDbEntity
  8
Capa_1
 62
5
100
AcDbSpline
 70
8
 71
3
 72
8
 73
4
 74
0
 40
0
 40
0
 40
0
 40
0
 40
1
 40
1
 40
1
 40
1
 10
168.703150
 20
208.915246
 30
0.0
 10
169.143400
 20
209.355496
 30
0.0
 10
169.917410
 20
207.754326
 30
0.0
 10
172.883330
 20
200.267906
 30
0.0
  0
SPLINE
  5
2ab
100
AcDbEntity
  8
Capa_1
 62
5
100
AcDbSpline
 70
8
 71
3
 72
8
 73
4
 74
0
 40
0
 40
0
 40
0
 40
0
 40
1
 40
1
 40
1
 40
1
 10
172.883330
 20
200.267906
 30
0.0
 10
174.733020
 20
195.599020
 30
0.0
 10
176.246400
 20
191.597050
 30
0.0
 10
176.246400
 20
191.374660
 30
0.0
  0
SPLINE
  5
2ac
100
AcDbEntity
  8
Capa_1
 62
5
100
AcDbSpline
 70
8
 71
3
 72
8
 73
4
 74
0
 40
0
 40
0
 40
0
 40
0
 40
1
 40
1
 40
1
 40
1
 10
176.246400
 20
191.374660
 30
0.0
 10
176.246400
 20
191.152270
 30
0.0
 10
176.127340
 20
190.970310
 30
0.0
 10
175.981810
 20
190.970310
 30
0.0
  0
SPLINE
  5
2ad
100
AcDbEntity
  8
Capa_1
 62
5
100
AcDbSpline
 70
8
 71
3
 72
8
 73
4
 74
0
 40
0
 40
0
 40
0
 40
0
 40
1
 40
1
 40
1
 40
1
 10
175.981810
 20
190.970310
 30
0.0
 10
175.836290
 20
190.970310
 30
0.0
 10
175.717230
 20
191.005010
 30
0.0
 10
175.717230
 20
191.047510
 30
0.0
  0
LWPOLYLINE
  5
2ae
100
AcDbEntity
  8
Capa_1
 62
5
100
AcDbPolyline
 90
1
 70
1
 10
167.565920
 20
196.724990
 30
0.0
  0
LWPOLYLINE
  5
2af
100
AcDbEntity
  8
Capa_1
 62
5
100
AcDbPolyline
 90
1
 70
1
 10
175.717230
 20
191.047510
 30
0.0
  0
SPLINE
  5
2b0
100
AcDbEntity
  8
Capa_1
 62
1
100
AcDbSpline
 70
8
 71
3
 72
8
 73
4
 74
0
 40
0
 40
0
 40
0
 40
0
 40
1
 40
1
 40
1
 40
1
 10
174.475620
 20
267.985121
 30
0.0
 10
179.583950
 20
267.985121
 30
0.0
 10
183.696430
 20
263.872640
 30
0.0
 10
183.696430
 20
258.764313
 30
0.0
  0
LWPOLYLINE
  5
2b1
100
AcDbEntity
  8
Capa_1
 62
1
100
AcDbPolyline
 90
2
 70
0
 10
25.851761
 20
267.985121
 30
0.0
 10
174.475620
 20
267.985121
 30
0.0
  0
SPLINE
  5
2b2
100
AcDbEntity
  8
Capa_1
 62
1
100
AcDbSpline
 70
8
 71
3
 72
8
 73
4
 74
0
 40
0
 40
0
 40
0
 40
0
 40
1
 40
1
 40
1
 40
1
 10
183.696430
 20
170.994630
 30
0.0
 10
183.696430
 20
165.886300
 30
0.0
 10
179.583950
 20
161.773820
 30
0.0
 10
174.475620
 20
161.773820
 30
0.0
  0
LWPOLYLINE
  5
2b3
100
AcDbEntity
  8
Capa_1
 62
1
100
AcDbPolyline
 90
2
 70
0
 10
183.696430
 20
258.764313
 30
0.0
 10
183.696430
 20
170.994630
 30
0.0
  0
SPLINE
  5
2b4
100
AcDbEntity
  8
Capa_1
 62
1
100
AcDbSpline
 70
8
 71
3
 72
8
 73
4
 74
0
 40
0
 40
0
 40
0
 40
0
 40
1
 40
1
 40
1
 40
1
 10
25.851761
 20
161.773820
 30
0.0
 10
20.743433
 20
161.773820
 30
0.0
 10
16.630953
 20
165.886300
 30
0.0
 10
16.630953
 20
170.994630
 30
0.0
  0
LWPOLYLINE
  5
2b5
100
AcDbEntity
  8
Capa_1
 62
1
100
AcDbPolyline
 90
2
 70
0
 10
174.475620
 20
161.773820
 30
0.0
 10
25.851761
 20
161.773820
 30
0.0
  0
SPLINE
  5
2b6
100
AcDbEntity
  8
Capa_1
 62
1
100
AcDbSpline
 70
8
 71
3
 72
8
 73
4
 74
0
 40
0
 40
0
 40
0
 40
0
 40
1
 40
1
 40
1
 40
1
 10
16.630953
 20
258.764313
 30
0.0
 10
16.630953
 20
263.872640
 30
0.0
 10
20.743433
 20
267.985121
 30
0.0
 10
25.851761
 20
267.985121
 30
0.0
  0
LWPOLYLINE
  5
2b7
100
AcDbEntity
  8
Capa_1
 62
1
100
AcDbPolyline
 90
2
 70
0
 10
16.630953
 20
170.994630
 30
0.0
 10
16.630953
 20
258.764313
 30
0.0
  0
LWPOLYLINE
  5
2b8
100
AcDbEntity
  8
Capa_1
 62
1
100
AcDbPolyline
 90
1
 70
1
 10
25.851761
 20
267.985121
 30
0.0
  0
ENDSEC
  0
SECTION
  2
OBJECTS
  0
DICTIONARY
  5
C
330
0
100
AcDbDictionary
  3
ACAD_GROUP
350
D
  3
ACAD_MLINESTYLE
350
17
  0
DICTIONARY
  5
D
330
C
100
AcDbDictionary
  0
DICTIONARY
  5
1A
330
C
100
AcDbDictionary
  0
DICTIONARY
  5
17
330
C
100
AcDbDictionary
  3
STANDARD
350
18
  0
DICTIONARY
  5
19
330
C
100
AcDbDictionary
  0
ENDSEC
  0
EOF
