<?xml version="1.0" encoding="UTF-8" standalone="no"?>
<svg
   xmlns:dc="http://purl.org/dc/elements/1.1/"
   xmlns:cc="http://creativecommons.org/ns#"
   xmlns:rdf="http://www.w3.org/1999/02/22-rdf-syntax-ns#"
   xmlns:svg="http://www.w3.org/2000/svg"
   xmlns="http://www.w3.org/2000/svg"
   xmlns:xlink="http://www.w3.org/1999/xlink"
   xmlns:sodipodi="http://sodipodi.sourceforge.net/DTD/sodipodi-0.dtd"
   xmlns:inkscape="http://www.inkscape.org/namespaces/inkscape"
   sodipodi:docname="LogoValleSteam.svg"
   inkscape:version="1.0 (4035a4fb49, 2020-05-01)"
   id="svg8"
   version="1.1"
   viewBox="0 0 210 297"
   height="297mm"
   width="210mm">
  <defs
     id="defs2" />
  <sodipodi:namedview
     inkscape:window-maximized="1"
     inkscape:window-y="-8"
     inkscape:window-x="-8"
     inkscape:window-height="1009"
     inkscape:window-width="1920"
     showgrid="false"
     inkscape:document-rotation="0"
     inkscape:current-layer="layer1"
     inkscape:document-units="mm"
     inkscape:cy="712.09931"
     inkscape:cx="-10.228849"
     inkscape:zoom="0.7"
     inkscape:pageshadow="2"
     inkscape:pageopacity="0.0"
     borderopacity="1.0"
     bordercolor="#666666"
     pagecolor="#ffffff"
     id="base" />
  <metadata
     id="metadata5">
    <rdf:RDF>
      <cc:Work
         rdf:about="">
        <dc:format>image/svg+xml</dc:format>
        <dc:type
           rdf:resource="http://purl.org/dc/dcmitype/StillImage" />
        <dc:title></dc:title>
      </cc:Work>
    </rdf:RDF>
  </metadata>
  <g
     id="layer1"
     inkscape:groupmode="layer"
     inkscape:label="Capa 1">
    <path
       sodipodi:nodetypes="sscssssssssssssssssssssssssssssssssss"
       id="path847"
       d="m 85.025737,212.84012 c -18.11438,-5.00151 -30.71226,-19.94552 -32.08278,-38.05762 -0.3755,-4.96241 -0.005,-10.25571 0.98283,-14.05972 0.87263,-3.35876 1.41403,-4.47905 2.21971,-4.59311 0.6052,-0.0857 3.33506,1.64284 10.75628,6.81078 4.69316,3.26818 7.34616,5.09914 10.31875,7.12145 1.60073,1.089 4.04151,2.77698 5.42396,3.75105 1.38245,0.97408 3.82323,2.65896 5.42396,3.74418 5.07723,3.44213 5.46311,3.7223 5.59301,4.06082 0.07,0.18236 -0.11758,0.73312 -0.41679,1.22392 -0.72588,1.19063 -0.68722,2.13915 0.12662,3.10633 0.97769,1.16193 2.09802,1.77453 5.39806,2.95172 8.018393,2.86033 7.468863,3.34043 -5.27694,4.6103 -4.53683,0.45201 -7.38074,0.97307 -9.41495,1.72502 -5.22776,1.93245 -7.58164,5.58159 -5.93726,9.20431 1.18055,2.60085 3.12696,4.31418 7.90176,6.95556 1.62389,0.89832 2.95253,1.73938 2.95253,1.86902 0,0.39888 -1.61228,0.22663 -3.96875,-0.42401 z m 12.56771,-6.25062 c -5.338,-0.65952 -9.85291,-2.64877 -10.33048,-4.55156 -0.46312,-1.84524 1.73516,-2.75984 8.74298,-3.63751 7.691403,-0.96329 11.320023,-2.09957 13.070123,-4.09283 0.66618,-0.75874 0.8205,-1.16606 0.8205,-2.16569 0,-1.63405 -0.78581,-2.77578 -2.68565,-3.90205 -1.43118,-0.84844 -2.10451,-1.09137 -7.497443,-2.70503 -1.41658,-0.42386 -2.62928,-0.96288 -2.99971,-1.33332 -0.60726,-0.60726 -0.61084,-0.63859 -0.15272,-1.3383 0.66212,-1.01131 0.66136,-1.01075 8.837613,-6.56882 1.81901,-1.23653 5.39088,-3.6771 7.9375,-5.42349 2.54661,-1.74639 6.47567,-4.42614 8.73125,-5.95499 2.25557,-1.52885 6.00604,-4.08141 8.33437,-5.67236 4.12061,-2.81561 5.06676,-3.24605 5.63363,-2.56297 1.05309,1.26897 2.39151,7.71497 2.60941,12.5673 0.54755,12.19313 -3.33702,22.81529 -10.85699,29.68784 -4.2281,3.8641 -11.45758,6.81089 -18.8173,7.67006 -2.76511,0.3228 -8.70137,0.31431 -11.377083,-0.0163 z"
       style="fill:none;stroke:#ff0000;stroke-width:0.264583;stroke-opacity:1" />
    <path
       style="fill:none;stroke:#000000;stroke-width:0.264583;stroke-opacity:1"
       d="m 65.752489,158.38976 c -0.25467,-0.0666 -0.46302,-0.23433 -0.46302,-0.37285 0,-0.5149 14.1563,-15.31976 14.64864,-15.31976 0.26999,0 3.13025,2.16814 4.08952,3.09996 0.1923,0.18679 0.45105,0.33962 0.575,0.33962 0.12395,0 1.08976,-1.10133 2.14625,-2.4474 5.24755,-6.68588 6.69574,-8.40052 7.09514,-8.40052 0.27457,0 1.25693,1.34202 2.66303,3.63803 3.32896,5.43581 3.25886,5.35781 4.814541,5.35781 1.64054,0 2.00069,0.19509 4.47352,2.42328 1.10482,0.99553 2.15075,1.81005 2.32428,1.81005 0.17353,0 1.25975,-0.53578 2.41382,-1.19062 1.15407,-0.65485 2.29367,-1.19063 2.53244,-1.19063 0.54344,0 1.5135,0.75236 7.12485,5.5259 5.37215,4.57005 6.74689,5.85193 6.74689,6.29116 0,0.18139 -0.41296,0.40727 -0.91769,0.50196 -1.2672,0.23772 -8.61169,-0.21985 -8.63705,-0.53811 -0.0113,-0.1417 0.73109,-0.57668 1.64972,-0.96662 0.91864,-0.38995 1.71361,-0.83904 1.76659,-0.99799 0.053,-0.15895 -0.28372,-0.60879 -0.74823,-0.99965 -0.46451,-0.39086 -0.98027,-0.84282 -1.14614,-1.00435 -0.84477,-0.82268 -5.42305,-4.37272 -5.63925,-4.37272 -0.13755,0 -0.8774,0.56555 -1.6441,1.25678 l -1.39399,1.25677 0.28173,2.2138 c 0.15496,1.21759 0.2101,2.32971 0.12255,2.47137 -0.1983,0.32086 -1.59393,-1.02132 -4.52786,-4.35444 -2.15474,-2.44793 -2.97879,-3.05586 -2.97879,-2.19757 0,0.62183 -1.19486,1.8403 -1.63793,1.67028 -0.21912,-0.0841 -1.11266,-1.32441 -1.985641,-2.75629 -3.37516,-5.53594 -5.17608,-8.43737 -5.43624,-8.75823 -0.56782,-0.70029 -1.55118,0.72989 -1.77597,2.58295 -0.13483,1.11155 -0.20091,1.19608 -0.99477,1.27282 -0.70949,0.0686 -1.07106,0.38566 -2.18281,1.91418 -0.73286,1.00759 -1.33247,1.94442 -1.33247,2.08184 0,0.13742 0.67944,0.44738 1.50986,0.68879 0.83043,0.24141 1.71517,0.58273 1.96609,0.75848 0.75705,0.53026 4.72613,5.45768 4.72613,5.86727 0,0.62839 -0.4751,0.4594 -3.76326,-1.33859 -1.72983,-0.94588 -3.29019,-1.71979 -3.46746,-1.71979 -0.17728,0 -1.26923,0.9525 -2.42657,2.11667 -1.15734,1.16416 -2.19634,2.11666 -2.3089,2.11666 -0.33561,0 -0.23235,-1.70702 0.17271,-2.85509 0.20755,-0.58824 0.44845,-1.58548 0.53535,-2.21607 0.15694,-1.13891 0.14369,-1.16196 -1.98971,-3.46165 -1.18123,-1.27331 -2.27683,-2.3151 -2.43466,-2.3151 -0.15783,0 -1.45633,1.21267 -2.88556,2.69481 -2.49153,2.58377 -2.59861,2.74309 -2.59861,3.8665 v 1.17169 l -1.13712,-0.17053 c -1.11902,-0.1678 -1.16117,-0.1455 -2.64584,1.40017 -0.82979,0.86388 -1.5087,1.68807 -1.5087,1.83154 0,0.14348 0.47625,0.45142 1.05833,0.68432 0.58209,0.2329 1.05834,0.52602 1.05834,0.65136 0,0.37832 -4.73075,0.68991 -5.88698,0.38775 z"
       id="path847-3"
       sodipodi:nodetypes="csssssssssssssssssssssscsssssssssssssssssssssssscsssssc" />
    <text
       id="text866"
       style="font-size:10.5833px;line-height:1.25;font-family:sq;-inkscape-font-specification:sq;stroke-width:0.264583;fill:none;fill-opacity:1;stroke:#ff0000;stroke-opacity:1;"
       xml:space="preserve"><textPath
         id="textPath872"
         xlink:href="#path870"><tspan
           id="tspan864"
           style="font-style:normal;font-variant:normal;font-weight:bold;font-stretch:normal;font-family:Arial;-inkscape-font-specification:'Arial Bold';stroke-width:0.264583;fill:none;fill-opacity:1;stroke:#ff0000;stroke-opacity:1;">VALLE STEAM</tspan></textPath></text>
    <path
       sodipodi:nodetypes="ccc"
       inkscape:transform-center-y="7.7291437"
       inkscape:transform-center-x="0.53480942"
       id="path870"
       d="m 62.555059,147.03274 c 22.085507,-22.86468 44.192871,-22.29544 71.815481,4.15774 v 0"
       style="fill:none;stroke:none;stroke-width:0.264583px;stroke-linecap:butt;stroke-linejoin:miter;stroke-opacity:1" />
    <circle
       r="49.613819"
       cy="169.43893"
       cx="95.733589"
       id="path875"
       style="fill:none;fill-opacity:1;fill-rule:evenodd;stroke:#0000ff;stroke-width:0.77236;stroke-miterlimit:4;stroke-dasharray:none;stroke-dashoffset:0;stroke-opacity:1" />
  </g>
</svg>
