  0
SECTION
  2
HEADER
  9
$ACADVER
  1
AC1014
  9
$HANDSEED
  5
FFFF
  9
$MEASUREMENT
 70
     1
  0
ENDSEC
  0
SECTION
  2
TABLES
  0
TABLE
  2
VPORT
  5
8
330
0
100
AcDbSymbolTable
 70
     4
  0
VPORT
  5
2E
330
8
100
AcDbSymbolTableRecord
100
AcDbViewportTableRecord
  2
*ACTIVE
 70
     0
 10
0.0
 20
0.0
 11
1.0
 21
1.0
 12
210.0
 22
148.5
 13
0.0
 23
0.0
 14
10.0
 24
10.0
 15
10.0
 25
10.0
 16
0.0
 26
0.0
 36
1.0
 17
0.0
 27
0.0
 37
0.0
 40
341.0
 41
1.24
 42
50.0
 43
0.0
 44
0.0
 50
0.0
 51
0.0
 71
     0
 72
   100
 73
     1
 74
     3
 75
     0
 76
     0
 77
     0
 78
     0
  0
ENDTAB
  0
TABLE
  2
LTYPE
  5
5
330
0
100
AcDbSymbolTable
 70
     1
  0
LTYPE
  5
14
330
5
100
AcDbSymbolTableRecord
100
AcDbLinetypeTableRecord
  2
BYBLOCK
 70
     0
  3

 72
    65
 73
     0
 40
0.0
  0
LTYPE
  5
15
330
5
100
AcDbSymbolTableRecord
100
AcDbLinetypeTableRecord
  2
BYLAYER
 70
     0
  3

 72
    65
 73
     0
 40
0.0
  0
LTYPE
  5
16
330
5
100
AcDbSymbolTableRecord
100
AcDbLinetypeTableRecord
  2
CONTINUOUS
 70
     0
  3
Solid line
 72
    65
 73
     0
 40
0.0
  0
ENDTAB
  0
TABLE
  2
LAYER
  5
2
100
AcDbSymbolTable
 70
2
  0
LAYER
  5
50
100
AcDbSymbolTableRecord
100
AcDbLayerTableRecord
  2
0
 70
0
  6
CONTINUOUS
  0
LAYER
  5
51
100
AcDbSymbolTableRecord
100
AcDbLayerTableRecord
  2
Capa_1
 70
0
  6
CONTINUOUS
  0
ENDTAB
  0
TABLE
  2
STYLE
  5
3
330
0
100
AcDbSymbolTable
 70
     1
  0
STYLE
  5
11
330
3
100
AcDbSymbolTableRecord
100
AcDbTextStyleTableRecord
  2
STANDARD
 70
     0
 40
0.0
 41
1.0
 50
0.0
 71
     0
 42
2.5
  3
txt
  4

  0
ENDTAB
  0
TABLE
  2
VIEW
  5
6
330
0
100
AcDbSymbolTable
 70
     0
  0
ENDTAB
  0
TABLE
  2
UCS
  5
7
330
0
100
AcDbSymbolTable
 70
     0
  0
ENDTAB
  0
TABLE
  2
APPID
  5
9
330
0
100
AcDbSymbolTable
 70
     2
  0
APPID
  5
12
330
9
100
AcDbSymbolTableRecord
100
AcDbRegAppTableRecord
  2
ACAD
 70
     0
  0
ENDTAB
  0
TABLE
  2
DIMSTYLE
  5
A
330
0
100
AcDbSymbolTable
 70
     1
  0
DIMSTYLE
105
27
330
A
100
AcDbSymbolTableRecord
100
AcDbDimStyleTableRecord
  2
ISO-25
 70
     0
  3

  4

  5

  6

  7

 40
1.0
 41
2.5
 42
0.625
 43
3.75
 44
1.25
 45
0.0
 46
0.0
 47
0.0
 48
0.0
140
2.5
141
2.5
142
0.0
143
0.03937007874016
144
1.0
145
0.0
146
1.0
147
0.625
 71
     0
 72
     0
 73
     0
 74
     0
 75
     0
 76
     0
 77
     1
 78
     8
170
     0
171
     3
172
     1
173
     0
174
     0
175
     0
176
     0
177
     0
178
     0
270
     2
271
     2
272
     2
273
     2
274
     3
340
11
275
     0
280
     0
281
     0
282
     0
283
     0
284
     8
285
     0
286
     0
287
     3
288
     0
  0
ENDTAB
  0
TABLE
  2
BLOCK_RECORD
  5
1
330
0
100
AcDbSymbolTable
 70
     1
  0
BLOCK_RECORD
  5
1F
330
1
100
AcDbSymbolTableRecord
100
AcDbBlockTableRecord
  2
*MODEL_SPACE
  0
BLOCK_RECORD
  5
1B
330
1
100
AcDbSymbolTableRecord
100
AcDbBlockTableRecord
  2
*PAPER_SPACE
  0
ENDTAB
  0
ENDSEC
  0
SECTION
  2
BLOCKS
  0
BLOCK
  5
20
330
1F
100
AcDbEntity
  8
0
100
AcDbBlockBegin
  2
*MODEL_SPACE
 70
     0
 10
0.0
 20
0.0
 30
0.0
  3
*MODEL_SPACE
  1

  0
ENDBLK
  5
21
330
1F
100
AcDbEntity
  8
0
100
AcDbBlockEnd
  0
BLOCK
  5
1C
330
1B
100
AcDbEntity
 67
     1
  8
0
100
AcDbBlockBegin
  2
*PAPER_SPACE
  1

  0
ENDBLK
  5
1D
330
1B
100
AcDbEntity
 67
     1
  8
0
100
AcDbBlockEnd
  0
ENDSEC
  0
SECTION
  2
ENTITIES
  0
SPLINE
  5
100
100
AcDbEntity
  8
Capa_1
 62
1
100
AcDbSpline
 70
8
 71
3
 72
8
 73
4
 74
0
 40
0
 40
0
 40
0
 40
0
 40
1
 40
1
 40
1
 40
1
 10
85.025737
 20
84.159880
 30
0.0
 10
66.911357
 20
89.161390
 30
0.0
 10
54.313477
 20
104.105400
 30
0.0
 10
52.942957
 20
122.217500
 30
0.0
  0
SPLINE
  5
101
100
AcDbEntity
  8
Capa_1
 62
1
100
AcDbSpline
 70
8
 71
3
 72
8
 73
4
 74
0
 40
0
 40
0
 40
0
 40
0
 40
1
 40
1
 40
1
 40
1
 10
52.942957
 20
122.217500
 30
0.0
 10
52.567457
 20
127.179910
 30
0.0
 10
52.937957
 20
132.473210
 30
0.0
 10
53.925787
 20
136.277220
 30
0.0
  0
SPLINE
  5
102
100
AcDbEntity
  8
Capa_1
 62
1
100
AcDbSpline
 70
8
 71
3
 72
8
 73
4
 74
0
 40
0
 40
0
 40
0
 40
0
 40
1
 40
1
 40
1
 40
1
 10
53.925787
 20
136.277220
 30
0.0
 10
54.798417
 20
139.635980
 30
0.0
 10
55.339817
 20
140.756270
 30
0.0
 10
56.145497
 20
140.870330
 30
0.0
  0
SPLINE
  5
103
100
AcDbEntity
  8
Capa_1
 62
1
100
AcDbSpline
 70
8
 71
3
 72
8
 73
4
 74
0
 40
0
 40
0
 40
0
 40
0
 40
1
 40
1
 40
1
 40
1
 10
56.145497
 20
140.870330
 30
0.0
 10
56.750697
 20
140.956030
 30
0.0
 10
59.480557
 20
139.227490
 30
0.0
 10
66.901777
 20
134.059550
 30
0.0
  0
SPLINE
  5
104
100
AcDbEntity
  8
Capa_1
 62
1
100
AcDbSpline
 70
8
 71
3
 72
8
 73
4
 74
0
 40
0
 40
0
 40
0
 40
0
 40
1
 40
1
 40
1
 40
1
 10
66.901777
 20
134.059550
 30
0.0
 10
71.594937
 20
130.791370
 30
0.0
 10
74.247937
 20
128.960410
 30
0.0
 10
77.220527
 20
126.938100
 30
0.0
  0
SPLINE
  5
105
100
AcDbEntity
  8
Capa_1
 62
1
100
AcDbSpline
 70
8
 71
3
 72
8
 73
4
 74
0
 40
0
 40
0
 40
0
 40
0
 40
1
 40
1
 40
1
 40
1
 10
77.220527
 20
126.938100
 30
0.0
 10
78.821257
 20
125.849100
 30
0.0
 10
81.262037
 20
124.161120
 30
0.0
 10
82.644487
 20
123.187050
 30
0.0
  0
SPLINE
  5
106
100
AcDbEntity
  8
Capa_1
 62
1
100
AcDbSpline
 70
8
 71
3
 72
8
 73
4
 74
0
 40
0
 40
0
 40
0
 40
0
 40
1
 40
1
 40
1
 40
1
 10
82.644487
 20
123.187050
 30
0.0
 10
84.026937
 20
122.212970
 30
0.0
 10
86.467717
 20
120.528090
 30
0.0
 10
88.068447
 20
119.442870
 30
0.0
  0
SPLINE
  5
107
100
AcDbEntity
  8
Capa_1
 62
1
100
AcDbSpline
 70
8
 71
3
 72
8
 73
4
 74
0
 40
0
 40
0
 40
0
 40
0
 40
1
 40
1
 40
1
 40
1
 10
88.068447
 20
119.442870
 30
0.0
 10
93.145677
 20
116.000740
 30
0.0
 10
93.531557
 20
115.720570
 30
0.0
 10
93.661457
 20
115.382050
 30
0.0
  0
SPLINE
  5
108
100
AcDbEntity
  8
Capa_1
 62
1
100
AcDbSpline
 70
8
 71
3
 72
8
 73
4
 74
0
 40
0
 40
0
 40
0
 40
0
 40
1
 40
1
 40
1
 40
1
 10
93.661457
 20
115.382050
 30
0.0
 10
93.731457
 20
115.199690
 30
0.0
 10
93.543877
 20
114.648930
 30
0.0
 10
93.244667
 20
114.158130
 30
0.0
  0
SPLINE
  5
109
100
AcDbEntity
  8
Capa_1
 62
1
100
AcDbSpline
 70
8
 71
3
 72
8
 73
4
 74
0
 40
0
 40
0
 40
0
 40
0
 40
1
 40
1
 40
1
 40
1
 10
93.244667
 20
114.158130
 30
0.0
 10
92.518787
 20
112.967500
 30
0.0
 10
92.557447
 20
112.018980
 30
0.0
 10
93.371287
 20
111.051800
 30
0.0
  0
SPLINE
  5
10a
100
AcDbEntity
  8
Capa_1
 62
1
100
AcDbSpline
 70
8
 71
3
 72
8
 73
4
 74
0
 40
0
 40
0
 40
0
 40
0
 40
1
 40
1
 40
1
 40
1
 10
93.371287
 20
111.051800
 30
0.0
 10
94.348977
 20
109.889870
 30
0.0
 10
95.469307
 20
109.277270
 30
0.0
 10
98.769347
 20
108.100080
 30
0.0
  0
SPLINE
  5
10b
100
AcDbEntity
  8
Capa_1
 62
1
100
AcDbSpline
 70
8
 71
3
 72
8
 73
4
 74
0
 40
0
 40
0
 40
0
 40
0
 40
1
 40
1
 40
1
 40
1
 10
98.769347
 20
108.100080
 30
0.0
 10
106.787740
 20
105.239750
 30
0.0
 10
106.238210
 20
104.759650
 30
0.0
 10
93.492407
 20
103.489780
 30
0.0
  0
SPLINE
  5
10c
100
AcDbEntity
  8
Capa_1
 62
1
100
AcDbSpline
 70
8
 71
3
 72
8
 73
4
 74
0
 40
0
 40
0
 40
0
 40
0
 40
1
 40
1
 40
1
 40
1
 10
93.492407
 20
103.489780
 30
0.0
 10
88.955577
 20
103.037770
 30
0.0
 10
86.111667
 20
102.516710
 30
0.0
 10
84.077457
 20
101.764760
 30
0.0
  0
SPLINE
  5
10d
100
AcDbEntity
  8
Capa_1
 62
1
100
AcDbSpline
 70
8
 71
3
 72
8
 73
4
 74
0
 40
0
 40
0
 40
0
 40
0
 40
1
 40
1
 40
1
 40
1
 10
84.077457
 20
101.764760
 30
0.0
 10
78.849697
 20
99.832310
 30
0.0
 10
76.495817
 20
96.183170
 30
0.0
 10
78.140197
 20
92.560450
 30
0.0
  0
SPLINE
  5
10e
100
AcDbEntity
  8
Capa_1
 62
1
100
AcDbSpline
 70
8
 71
3
 72
8
 73
4
 74
0
 40
0
 40
0
 40
0
 40
0
 40
1
 40
1
 40
1
 40
1
 10
78.140197
 20
92.560450
 30
0.0
 10
79.320747
 20
89.959600
 30
0.0
 10
81.267157
 20
88.246270
 30
0.0
 10
86.041957
 20
85.604890
 30
0.0
  0
SPLINE
  5
10f
100
AcDbEntity
  8
Capa_1
 62
1
100
AcDbSpline
 70
8
 71
3
 72
8
 73
4
 74
0
 40
0
 40
0
 40
0
 40
0
 40
1
 40
1
 40
1
 40
1
 10
86.041957
 20
85.604890
 30
0.0
 10
87.665847
 20
84.706570
 30
0.0
 10
88.994487
 20
83.865510
 30
0.0
 10
88.994487
 20
83.735870
 30
0.0
  0
SPLINE
  5
110
100
AcDbEntity
  8
Capa_1
 62
1
100
AcDbSpline
 70
8
 71
3
 72
8
 73
4
 74
0
 40
0
 40
0
 40
0
 40
0
 40
1
 40
1
 40
1
 40
1
 10
88.994487
 20
83.735870
 30
0.0
 10
88.994487
 20
83.336990
 30
0.0
 10
87.382207
 20
83.509240
 30
0.0
 10
85.025737
 20
84.159880
 30
0.0
  0
SPLINE
  5
111
100
AcDbEntity
  8
Capa_1
 62
1
100
AcDbSpline
 70
8
 71
3
 72
8
 73
4
 74
0
 40
0
 40
0
 40
0
 40
0
 40
1
 40
1
 40
1
 40
1
 10
97.593447
 20
90.410500
 30
0.0
 10
92.255447
 20
91.070020
 30
0.0
 10
87.740537
 20
93.059270
 30
0.0
 10
87.262967
 20
94.962060
 30
0.0
  0
SPLINE
  5
112
100
AcDbEntity
  8
Capa_1
 62
1
100
AcDbSpline
 70
8
 71
3
 72
8
 73
4
 74
0
 40
0
 40
0
 40
0
 40
0
 40
1
 40
1
 40
1
 40
1
 10
87.262967
 20
94.962060
 30
0.0
 10
86.799847
 20
96.807300
 30
0.0
 10
88.998127
 20
97.721900
 30
0.0
 10
96.005947
 20
98.599570
 30
0.0
  0
SPLINE
  5
113
100
AcDbEntity
  8
Capa_1
 62
1
100
AcDbSpline
 70
8
 71
3
 72
8
 73
4
 74
0
 40
0
 40
0
 40
0
 40
0
 40
1
 40
1
 40
1
 40
1
 10
96.005947
 20
98.599570
 30
0.0
 10
103.697350
 20
99.562860
 30
0.0
 10
107.325970
 20
100.699140
 30
0.0
 10
109.076070
 20
102.692400
 30
0.0
  0
SPLINE
  5
114
100
AcDbEntity
  8
Capa_1
 62
1
100
AcDbSpline
 70
8
 71
3
 72
8
 73
4
 74
0
 40
0
 40
0
 40
0
 40
0
 40
1
 40
1
 40
1
 40
1
 10
109.076070
 20
102.692400
 30
0.0
 10
109.742250
 20
103.451140
 30
0.0
 10
109.896570
 20
103.858460
 30
0.0
 10
109.896570
 20
104.858090
 30
0.0
  0
SPLINE
  5
115
100
AcDbEntity
  8
Capa_1
 62
1
100
AcDbSpline
 70
8
 71
3
 72
8
 73
4
 74
0
 40
0
 40
0
 40
0
 40
0
 40
1
 40
1
 40
1
 40
1
 10
109.896570
 20
104.858090
 30
0.0
 10
109.896570
 20
106.492140
 30
0.0
 10
109.110760
 20
107.633870
 30
0.0
 10
107.210920
 20
108.760140
 30
0.0
  0
SPLINE
  5
116
100
AcDbEntity
  8
Capa_1
 62
1
100
AcDbSpline
 70
8
 71
3
 72
8
 73
4
 74
0
 40
0
 40
0
 40
0
 40
0
 40
1
 40
1
 40
1
 40
1
 10
107.210920
 20
108.760140
 30
0.0
 10
105.779740
 20
109.608580
 30
0.0
 10
105.106410
 20
109.851510
 30
0.0
 10
99.713477
 20
111.465170
 30
0.0
  0
SPLINE
  5
117
100
AcDbEntity
  8
Capa_1
 62
1
100
AcDbSpline
 70
8
 71
3
 72
8
 73
4
 74
0
 40
0
 40
0
 40
0
 40
0
 40
1
 40
1
 40
1
 40
1
 10
99.713477
 20
111.465170
 30
0.0
 10
98.296897
 20
111.889030
 30
0.0
 10
97.084197
 20
112.428050
 30
0.0
 10
96.713767
 20
112.798490
 30
0.0
  0
SPLINE
  5
118
100
AcDbEntity
  8
Capa_1
 62
1
100
AcDbSpline
 70
8
 71
3
 72
8
 73
4
 74
0
 40
0
 40
0
 40
0
 40
0
 40
1
 40
1
 40
1
 40
1
 10
96.713767
 20
112.798490
 30
0.0
 10
96.106507
 20
113.405750
 30
0.0
 10
96.102927
 20
113.437080
 30
0.0
 10
96.561047
 20
114.136790
 30
0.0
  0
SPLINE
  5
119
100
AcDbEntity
  8
Capa_1
 62
1
100
AcDbSpline
 70
8
 71
3
 72
8
 73
4
 74
0
 40
0
 40
0
 40
0
 40
0
 40
1
 40
1
 40
1
 40
1
 10
96.561047
 20
114.136790
 30
0.0
 10
97.223167
 20
115.148100
 30
0.0
 10
97.222407
 20
115.147540
 30
0.0
 10
105.398660
 20
120.705610
 30
0.0
  0
SPLINE
  5
11a
100
AcDbEntity
  8
Capa_1
 62
1
100
AcDbSpline
 70
8
 71
3
 72
8
 73
4
 74
0
 40
0
 40
0
 40
0
 40
0
 40
1
 40
1
 40
1
 40
1
 10
105.398660
 20
120.705610
 30
0.0
 10
107.217670
 20
121.942140
 30
0.0
 10
110.789540
 20
124.382710
 30
0.0
 10
113.336160
 20
126.129100
 30
0.0
  0
SPLINE
  5
11b
100
AcDbEntity
  8
Capa_1
 62
1
100
AcDbSpline
 70
8
 71
3
 72
8
 73
4
 74
0
 40
0
 40
0
 40
0
 40
0
 40
1
 40
1
 40
1
 40
1
 10
113.336160
 20
126.129100
 30
0.0
 10
115.882770
 20
127.875490
 30
0.0
 10
119.811830
 20
130.555240
 30
0.0
 10
122.067410
 20
132.084090
 30
0.0
  0
SPLINE
  5
11c
100
AcDbEntity
  8
Capa_1
 62
1
100
AcDbSpline
 70
8
 71
3
 72
8
 73
4
 74
0
 40
0
 40
0
 40
0
 40
0
 40
1
 40
1
 40
1
 40
1
 10
122.067410
 20
132.084090
 30
0.0
 10
124.322980
 20
133.612940
 30
0.0
 10
128.073450
 20
136.165500
 30
0.0
 10
130.401780
 20
137.756450
 30
0.0
  0
SPLINE
  5
11d
100
AcDbEntity
  8
Capa_1
 62
1
100
AcDbSpline
 70
8
 71
3
 72
8
 73
4
 74
0
 40
0
 40
0
 40
0
 40
0
 40
1
 40
1
 40
1
 40
1
 10
130.401780
 20
137.756450
 30
0.0
 10
134.522390
 20
140.572060
 30
0.0
 10
135.468540
 20
141.002500
 30
0.0
 10
136.035410
 20
140.319420
 30
0.0
  0
SPLINE
  5
11e
100
AcDbEntity
  8
Capa_1
 62
1
100
AcDbSpline
 70
8
 71
3
 72
8
 73
4
 74
0
 40
0
 40
0
 40
0
 40
0
 40
1
 40
1
 40
1
 40
1
 10
136.035410
 20
140.319420
 30
0.0
 10
137.088500
 20
139.050450
 30
0.0
 10
138.426920
 20
132.604450
 30
0.0
 10
138.644820
 20
127.752120
 30
0.0
  0
SPLINE
  5
11f
100
AcDbEntity
  8
Capa_1
 62
1
100
AcDbSpline
 70
8
 71
3
 72
8
 73
4
 74
0
 40
0
 40
0
 40
0
 40
0
 40
1
 40
1
 40
1
 40
1
 10
138.644820
 20
127.752120
 30
0.0
 10
139.192370
 20
115.558990
 30
0.0
 10
135.307800
 20
104.936830
 30
0.0
 10
127.787830
 20
98.064280
 30
0.0
  0
SPLINE
  5
120
100
AcDbEntity
  8
Capa_1
 62
1
100
AcDbSpline
 70
8
 71
3
 72
8
 73
4
 74
0
 40
0
 40
0
 40
0
 40
0
 40
1
 40
1
 40
1
 40
1
 10
127.787830
 20
98.064280
 30
0.0
 10
123.559730
 20
94.200180
 30
0.0
 10
116.330250
 20
91.253390
 30
0.0
 10
108.970530
 20
90.394220
 30
0.0
  0
SPLINE
  5
121
100
AcDbEntity
  8
Capa_1
 62
1
100
AcDbSpline
 70
8
 71
3
 72
8
 73
4
 74
0
 40
0
 40
0
 40
0
 40
0
 40
1
 40
1
 40
1
 40
1
 10
108.970530
 20
90.394220
 30
0.0
 10
106.205420
 20
90.071420
 30
0.0
 10
100.269160
 20
90.079910
 30
0.0
 10
97.593447
 20
90.410520
 30
0.0
  0
LWPOLYLINE
  5
122
100
AcDbEntity
  8
Capa_1
 62
1
100
AcDbPolyline
 90
1
 70
1
 10
85.025737
 20
84.159880
 30
0.0
  0
SPLINE
  5
123
100
AcDbEntity
  8
Capa_1
 62
7
100
AcDbSpline
 70
8
 71
3
 72
8
 73
4
 74
0
 40
0
 40
0
 40
0
 40
0
 40
1
 40
1
 40
1
 40
1
 10
65.752489
 20
138.610240
 30
0.0
 10
65.497819
 20
138.676840
 30
0.0
 10
65.289469
 20
138.844570
 30
0.0
 10
65.289469
 20
138.983090
 30
0.0
  0
SPLINE
  5
124
100
AcDbEntity
  8
Capa_1
 62
7
100
AcDbSpline
 70
8
 71
3
 72
8
 73
4
 74
0
 40
0
 40
0
 40
0
 40
0
 40
1
 40
1
 40
1
 40
1
 10
65.289469
 20
138.983090
 30
0.0
 10
65.289469
 20
139.497990
 30
0.0
 10
79.445769
 20
154.302850
 30
0.0
 10
79.938109
 20
154.302850
 30
0.0
  0
SPLINE
  5
125
100
AcDbEntity
  8
Capa_1
 62
7
100
AcDbSpline
 70
8
 71
3
 72
8
 73
4
 74
0
 40
0
 40
0
 40
0
 40
0
 40
1
 40
1
 40
1
 40
1
 10
79.938109
 20
154.302850
 30
0.0
 10
80.208099
 20
154.302850
 30
0.0
 10
83.068359
 20
152.134710
 30
0.0
 10
84.027629
 20
151.202890
 30
0.0
  0
SPLINE
  5
126
100
AcDbEntity
  8
Capa_1
 62
7
100
AcDbSpline
 70
8
 71
3
 72
8
 73
4
 74
0
 40
0
 40
0
 40
0
 40
0
 40
1
 40
1
 40
1
 40
1
 10
84.027629
 20
151.202890
 30
0.0
 10
84.219929
 20
151.016100
 30
0.0
 10
84.478679
 20
150.863270
 30
0.0
 10
84.602629
 20
150.863270
 30
0.0
  0
SPLINE
  5
127
100
AcDbEntity
  8
Capa_1
 62
7
100
AcDbSpline
 70
8
 71
3
 72
8
 73
4
 74
0
 40
0
 40
0
 40
0
 40
0
 40
1
 40
1
 40
1
 40
1
 10
84.602629
 20
150.863270
 30
0.0
 10
84.726579
 20
150.863270
 30
0.0
 10
85.692389
 20
151.964600
 30
0.0
 10
86.748879
 20
153.310670
 30
0.0
  0
SPLINE
  5
128
100
AcDbEntity
  8
Capa_1
 62
7
100
AcDbSpline
 70
8
 71
3
 72
8
 73
4
 74
0
 40
0
 40
0
 40
0
 40
0
 40
1
 40
1
 40
1
 40
1
 10
86.748879
 20
153.310670
 30
0.0
 10
91.996429
 20
159.996550
 30
0.0
 10
93.444619
 20
161.711190
 30
0.0
 10
93.844019
 20
161.711190
 30
0.0
  0
SPLINE
  5
129
100
AcDbEntity
  8
Capa_1
 62
7
100
AcDbSpline
 70
8
 71
3
 72
8
 73
4
 74
0
 40
0
 40
0
 40
0
 40
0
 40
1
 40
1
 40
1
 40
1
 10
93.844019
 20
161.711190
 30
0.0
 10
94.118589
 20
161.711190
 30
0.0
 10
95.100949
 20
160.369170
 30
0.0
 10
96.507049
 20
158.073160
 30
0.0
  0
SPLINE
  5
12a
100
AcDbEntity
  8
Capa_1
 62
7
100
AcDbSpline
 70
8
 71
3
 72
8
 73
4
 74
0
 40
0
 40
0
 40
0
 40
0
 40
1
 40
1
 40
1
 40
1
 10
96.507049
 20
158.073160
 30
0.0
 10
99.836009
 20
152.637350
 30
0.0
 10
99.765909
 20
152.715350
 30
0.0
 10
101.321590
 20
152.715350
 30
0.0
  0
SPLINE
  5
12b
100
AcDbEntity
  8
Capa_1
 62
7
100
AcDbSpline
 70
8
 71
3
 72
8
 73
4
 74
0
 40
0
 40
0
 40
0
 40
0
 40
1
 40
1
 40
1
 40
1
 10
101.321590
 20
152.715350
 30
0.0
 10
102.962130
 20
152.715350
 30
0.0
 10
103.322280
 20
152.520260
 30
0.0
 10
105.795110
 20
150.292070
 30
0.0
  0
SPLINE
  5
12c
100
AcDbEntity
  8
Capa_1
 62
7
100
AcDbSpline
 70
8
 71
3
 72
8
 73
4
 74
0
 40
0
 40
0
 40
0
 40
0
 40
1
 40
1
 40
1
 40
1
 10
105.795110
 20
150.292070
 30
0.0
 10
106.899930
 20
149.296540
 30
0.0
 10
107.945860
 20
148.482020
 30
0.0
 10
108.119390
 20
148.482020
 30
0.0
  0
SPLINE
  5
12d
100
AcDbEntity
  8
Capa_1
 62
7
100
AcDbSpline
 70
8
 71
3
 72
8
 73
4
 74
0
 40
0
 40
0
 40
0
 40
0
 40
1
 40
1
 40
1
 40
1
 10
108.119390
 20
148.482020
 30
0.0
 10
108.292920
 20
148.482020
 30
0.0
 10
109.379140
 20
149.017800
 30
0.0
 10
110.533210
 20
149.672640
 30
0.0
  0
SPLINE
  5
12e
100
AcDbEntity
  8
Capa_1
 62
7
100
AcDbSpline
 70
8
 71
3
 72
8
 73
4
 74
0
 40
0
 40
0
 40
0
 40
0
 40
1
 40
1
 40
1
 40
1
 10
110.533210
 20
149.672640
 30
0.0
 10
111.687280
 20
150.327490
 30
0.0
 10
112.826880
 20
150.863270
 30
0.0
 10
113.065650
 20
150.863270
 30
0.0
  0
SPLINE
  5
12f
100
AcDbEntity
  8
Capa_1
 62
7
100
AcDbSpline
 70
8
 71
3
 72
8
 73
4
 74
0
 40
0
 40
0
 40
0
 40
0
 40
1
 40
1
 40
1
 40
1
 10
113.065650
 20
150.863270
 30
0.0
 10
113.609090
 20
150.863270
 30
0.0
 10
114.579150
 20
150.110910
 30
0.0
 10
120.190500
 20
145.337370
 30
0.0
  0
SPLINE
  5
130
100
AcDbEntity
  8
Capa_1
 62
7
100
AcDbSpline
 70
8
 71
3
 72
8
 73
4
 74
0
 40
0
 40
0
 40
0
 40
0
 40
1
 40
1
 40
1
 40
1
 10
120.190500
 20
145.337370
 30
0.0
 10
125.562650
 20
140.767320
 30
0.0
 10
126.937390
 20
139.485440
 30
0.0
 10
126.937390
 20
139.046210
 30
0.0
  0
SPLINE
  5
131
100
AcDbEntity
  8
Capa_1
 62
7
100
AcDbSpline
 70
8
 71
3
 72
8
 73
4
 74
0
 40
0
 40
0
 40
0
 40
0
 40
1
 40
1
 40
1
 40
1
 10
126.937390
 20
139.046210
 30
0.0
 10
126.937390
 20
138.864820
 30
0.0
 10
126.524430
 20
138.638940
 30
0.0
 10
126.019700
 20
138.544250
 30
0.0
  0
SPLINE
  5
132
100
AcDbEntity
  8
Capa_1
 62
7
100
AcDbSpline
 70
8
 71
3
 72
8
 73
4
 74
0
 40
0
 40
0
 40
0
 40
0
 40
1
 40
1
 40
1
 40
1
 10
126.019700
 20
138.544250
 30
0.0
 10
124.752500
 20
138.306530
 30
0.0
 10
117.408010
 20
138.764100
 30
0.0
 10
117.382650
 20
139.082360
 30
0.0
  0
SPLINE
  5
133
100
AcDbEntity
  8
Capa_1
 62
7
100
AcDbSpline
 70
8
 71
3
 72
8
 73
4
 74
0
 40
0
 40
0
 40
0
 40
0
 40
1
 40
1
 40
1
 40
1
 10
117.382650
 20
139.082360
 30
0.0
 10
117.371350
 20
139.224060
 30
0.0
 10
118.113740
 20
139.659040
 30
0.0
 10
119.032370
 20
140.048980
 30
0.0
  0
SPLINE
  5
134
100
AcDbEntity
  8
Capa_1
 62
7
100
AcDbSpline
 70
8
 71
3
 72
8
 73
4
 74
0
 40
0
 40
0
 40
0
 40
0
 40
1
 40
1
 40
1
 40
1
 10
119.032370
 20
140.048980
 30
0.0
 10
119.951010
 20
140.438930
 30
0.0
 10
120.745980
 20
140.888020
 30
0.0
 10
120.798960
 20
141.046970
 30
0.0
  0
SPLINE
  5
135
100
AcDbEntity
  8
Capa_1
 62
7
100
AcDbSpline
 70
8
 71
3
 72
8
 73
4
 74
0
 40
0
 40
0
 40
0
 40
0
 40
1
 40
1
 40
1
 40
1
 10
120.798960
 20
141.046970
 30
0.0
 10
120.851960
 20
141.205920
 30
0.0
 10
120.515240
 20
141.655760
 30
0.0
 10
120.050730
 20
142.046620
 30
0.0
  0
SPLINE
  5
136
100
AcDbEntity
  8
Capa_1
 62
7
100
AcDbSpline
 70
8
 71
3
 72
8
 73
4
 74
0
 40
0
 40
0
 40
0
 40
0
 40
1
 40
1
 40
1
 40
1
 10
120.050730
 20
142.046620
 30
0.0
 10
119.586220
 20
142.437480
 30
0.0
 10
119.070460
 20
142.889440
 30
0.0
 10
118.904590
 20
143.050970
 30
0.0
  0
SPLINE
  5
137
100
AcDbEntity
  8
Capa_1
 62
7
100
AcDbSpline
 70
8
 71
3
 72
8
 73
4
 74
0
 40
0
 40
0
 40
0
 40
0
 40
1
 40
1
 40
1
 40
1
 10
118.904590
 20
143.050970
 30
0.0
 10
118.059820
 20
143.873650
 30
0.0
 10
113.481540
 20
147.423690
 30
0.0
 10
113.265340
 20
147.423690
 30
0.0
  0
SPLINE
  5
138
100
AcDbEntity
  8
Capa_1
 62
7
100
AcDbSpline
 70
8
 71
3
 72
8
 73
4
 74
0
 40
0
 40
0
 40
0
 40
0
 40
1
 40
1
 40
1
 40
1
 10
113.265340
 20
147.423690
 30
0.0
 10
113.127790
 20
147.423690
 30
0.0
 10
112.387940
 20
146.858140
 30
0.0
 10
111.621240
 20
146.166910
 30
0.0
  0
LWPOLYLINE
  5
139
100
AcDbEntity
  8
Capa_1
 62
1
100
AcDbPolyline
 90
1
 70
1
 10
97.593447
 20
90.410520
 30
0.0
  0
SPLINE
  5
13a
100
AcDbEntity
  8
Capa_1
 62
7
100
AcDbSpline
 70
8
 71
3
 72
8
 73
4
 74
0
 40
0
 40
0
 40
0
 40
0
 40
1
 40
1
 40
1
 40
1
 10
110.508980
 20
142.696340
 30
0.0
 10
110.663940
 20
141.478750
 30
0.0
 10
110.719080
 20
140.366630
 30
0.0
 10
110.631530
 20
140.224970
 30
0.0
  0
SPLINE
  5
13b
100
AcDbEntity
  8
Capa_1
 62
7
100
AcDbSpline
 70
8
 71
3
 72
8
 73
4
 74
0
 40
0
 40
0
 40
0
 40
0
 40
1
 40
1
 40
1
 40
1
 10
110.631530
 20
140.224970
 30
0.0
 10
110.433230
 20
139.904110
 30
0.0
 10
109.037600
 20
141.246290
 30
0.0
 10
106.103670
 20
144.579410
 30
0.0
  0
SPLINE
  5
13c
100
AcDbEntity
  8
Capa_1
 62
7
100
AcDbSpline
 70
8
 71
3
 72
8
 73
4
 74
0
 40
0
 40
0
 40
0
 40
0
 40
1
 40
1
 40
1
 40
1
 10
106.103670
 20
144.579410
 30
0.0
 10
103.948930
 20
147.027340
 30
0.0
 10
103.124880
 20
147.635270
 30
0.0
 10
103.124880
 20
146.776980
 30
0.0
  0
SPLINE
  5
13d
100
AcDbEntity
  8
Capa_1
 62
7
100
AcDbSpline
 70
8
 71
3
 72
8
 73
4
 74
0
 40
0
 40
0
 40
0
 40
0
 40
1
 40
1
 40
1
 40
1
 10
103.124880
 20
146.776980
 30
0.0
 10
103.124880
 20
146.155150
 30
0.0
 10
101.930020
 20
144.936680
 30
0.0
 10
101.486950
 20
145.106700
 30
0.0
  0
SPLINE
  5
13e
100
AcDbEntity
  8
Capa_1
 62
7
100
AcDbSpline
 70
8
 71
3
 72
8
 73
4
 74
0
 40
0
 40
0
 40
0
 40
0
 40
1
 40
1
 40
1
 40
1
 10
101.486950
 20
145.106700
 30
0.0
 10
101.267830
 20
145.190800
 30
0.0
 10
100.374290
 20
146.431110
 30
0.0
 10
99.501309
 20
147.862990
 30
0.0
  0
SPLINE
  5
13f
100
AcDbEntity
  8
Capa_1
 62
7
100
AcDbSpline
 70
8
 71
3
 72
8
 73
4
 74
0
 40
0
 40
0
 40
0
 40
0
 40
1
 40
1
 40
1
 40
1
 10
99.501309
 20
147.862990
 30
0.0
 10
96.126149
 20
153.398930
 30
0.0
 10
94.325229
 20
156.300360
 30
0.0
 10
94.065069
 20
156.621220
 30
0.0
  0
SPLINE
  5
140
100
AcDbEntity
  8
Capa_1
 62
7
100
AcDbSpline
 70
8
 71
3
 72
8
 73
4
 74
0
 40
0
 40
0
 40
0
 40
0
 40
1
 40
1
 40
1
 40
1
 10
94.065069
 20
156.621220
 30
0.0
 10
93.497249
 20
157.321510
 30
0.0
 10
92.513889
 20
155.891330
 30
0.0
 10
92.289099
 20
154.038270
 30
0.0
  0
SPLINE
  5
141
100
AcDbEntity
  8
Capa_1
 62
7
100
AcDbSpline
 70
8
 71
3
 72
8
 73
4
 74
0
 40
0
 40
0
 40
0
 40
0
 40
1
 40
1
 40
1
 40
1
 10
92.289099
 20
154.038270
 30
0.0
 10
92.154269
 20
152.926720
 30
0.0
 10
92.088189
 20
152.842190
 30
0.0
 10
91.294329
 20
152.765450
 30
0.0
  0
SPLINE
  5
142
100
AcDbEntity
  8
Capa_1
 62
7
100
AcDbSpline
 70
8
 71
3
 72
8
 73
4
 74
0
 40
0
 40
0
 40
0
 40
0
 40
1
 40
1
 40
1
 40
1
 10
91.294329
 20
152.765450
 30
0.0
 10
90.584839
 20
152.696850
 30
0.0
 10
90.223269
 20
152.379790
 30
0.0
 10
89.111519
 20
150.851270
 30
0.0
  0
SPLINE
  5
143
100
AcDbEntity
  8
Capa_1
 62
7
100
AcDbSpline
 70
8
 71
3
 72
8
 73
4
 74
0
 40
0
 40
0
 40
0
 40
0
 40
1
 40
1
 40
1
 40
1
 10
89.111519
 20
150.851270
 30
0.0
 10
88.378659
 20
149.843680
 30
0.0
 10
87.779049
 20
148.906850
 30
0.0
 10
87.779049
 20
148.769430
 30
0.0
  0
SPLINE
  5
144
100
AcDbEntity
  8
Capa_1
 62
7
100
AcDbSpline
 70
8
 71
3
 72
8
 73
4
 74
0
 40
0
 40
0
 40
0
 40
0
 40
1
 40
1
 40
1
 40
1
 10
87.779049
 20
148.769430
 30
0.0
 10
87.779049
 20
148.632010
 30
0.0
 10
88.458489
 20
148.322050
 30
0.0
 10
89.288909
 20
148.080640
 30
0.0
  0
SPLINE
  5
145
100
AcDbEntity
  8
Capa_1
 62
7
100
AcDbSpline
 70
8
 71
3
 72
8
 73
4
 74
0
 40
0
 40
0
 40
0
 40
0
 40
1
 40
1
 40
1
 40
1
 10
89.288909
 20
148.080640
 30
0.0
 10
90.119339
 20
147.839230
 30
0.0
 10
91.004079
 20
147.497910
 30
0.0
 10
91.254999
 20
147.322160
 30
0.0
  0
SPLINE
  5
146
100
AcDbEntity
  8
Capa_1
 62
7
100
AcDbSpline
 70
8
 71
3
 72
8
 73
4
 74
0
 40
0
 40
0
 40
0
 40
0
 40
1
 40
1
 40
1
 40
1
 10
91.254999
 20
147.322160
 30
0.0
 10
92.012049
 20
146.791900
 30
0.0
 10
95.981129
 20
141.864480
 30
0.0
 10
95.981129
 20
141.454890
 30
0.0
  0
SPLINE
  5
147
100
AcDbEntity
  8
Capa_1
 62
7
100
AcDbSpline
 70
8
 71
3
 72
8
 73
4
 74
0
 40
0
 40
0
 40
0
 40
0
 40
1
 40
1
 40
1
 40
1
 10
95.981129
 20
141.454890
 30
0.0
 10
95.981129
 20
140.826500
 30
0.0
 10
95.506029
 20
140.995490
 30
0.0
 10
92.217869
 20
142.793480
 30
0.0
  0
SPLINE
  5
148
100
AcDbEntity
  8
Capa_1
 62
7
100
AcDbSpline
 70
8
 71
3
 72
8
 73
4
 74
0
 40
0
 40
0
 40
0
 40
0
 40
1
 40
1
 40
1
 40
1
 10
92.217869
 20
142.793480
 30
0.0
 10
90.488039
 20
143.739360
 30
0.0
 10
88.927679
 20
144.513270
 30
0.0
 10
88.750409
 20
144.513270
 30
0.0
  0
SPLINE
  5
149
100
AcDbEntity
  8
Capa_1
 62
7
100
AcDbSpline
 70
8
 71
3
 72
8
 73
4
 74
0
 40
0
 40
0
 40
0
 40
0
 40
1
 40
1
 40
1
 40
1
 10
88.750409
 20
144.513270
 30
0.0
 10
88.573129
 20
144.513270
 30
0.0
 10
87.481179
 20
143.560770
 30
0.0
 10
86.323839
 20
142.396600
 30
0.0
  0
SPLINE
  5
14a
100
AcDbEntity
  8
Capa_1
 62
7
100
AcDbSpline
 70
8
 71
3
 72
8
 73
4
 74
0
 40
0
 40
0
 40
0
 40
0
 40
1
 40
1
 40
1
 40
1
 10
86.323839
 20
142.396600
 30
0.0
 10
85.166499
 20
141.232440
 30
0.0
 10
84.127499
 20
140.279940
 30
0.0
 10
84.014939
 20
140.279940
 30
0.0
  0
SPLINE
  5
14b
100
AcDbEntity
  8
Capa_1
 62
7
100
AcDbSpline
 70
8
 71
3
 72
8
 73
4
 74
0
 40
0
 40
0
 40
0
 40
0
 40
1
 40
1
 40
1
 40
1
 10
84.014939
 20
140.279940
 30
0.0
 10
83.679329
 20
140.279940
 30
0.0
 10
83.782589
 20
141.986960
 30
0.0
 10
84.187649
 20
143.135030
 30
0.0
  0
SPLINE
  5
14c
100
AcDbEntity
  8
Capa_1
 62
7
100
AcDbSpline
 70
8
 71
3
 72
8
 73
4
 74
0
 40
0
 40
0
 40
0
 40
0
 40
1
 40
1
 40
1
 40
1
 10
84.187649
 20
143.135030
 30
0.0
 10
84.395199
 20
143.723270
 30
0.0
 10
84.636099
 20
144.720510
 30
0.0
 10
84.722999
 20
145.351100
 30
0.0
  0
SPLINE
  5
14d
100
AcDbEntity
  8
Capa_1
 62
7
100
AcDbSpline
 70
8
 71
3
 72
8
 73
4
 74
0
 40
0
 40
0
 40
0
 40
0
 40
1
 40
1
 40
1
 40
1
 10
84.722999
 20
145.351100
 30
0.0
 10
84.879939
 20
146.490010
 30
0.0
 10
84.866689
 20
146.513060
 30
0.0
 10
82.733289
 20
148.812750
 30
0.0
  0
SPLINE
  5
14e
100
AcDbEntity
  8
Capa_1
 62
7
100
AcDbSpline
 70
8
 71
3
 72
8
 73
4
 74
0
 40
0
 40
0
 40
0
 40
0
 40
1
 40
1
 40
1
 40
1
 10
82.733289
 20
148.812750
 30
0.0
 10
81.552059
 20
150.086060
 30
0.0
 10
80.456459
 20
151.127850
 30
0.0
 10
80.298629
 20
151.127850
 30
0.0
  0
SPLINE
  5
14f
100
AcDbEntity
  8
Capa_1
 62
7
100
AcDbSpline
 70
8
 71
3
 72
8
 73
4
 74
0
 40
0
 40
0
 40
0
 40
0
 40
1
 40
1
 40
1
 40
1
 10
80.298629
 20
151.127850
 30
0.0
 10
80.140799
 20
151.127850
 30
0.0
 10
78.842299
 20
149.915180
 30
0.0
 10
77.413069
 20
148.433040
 30
0.0
  0
SPLINE
  5
150
100
AcDbEntity
  8
Capa_1
 62
7
100
AcDbSpline
 70
8
 71
3
 72
8
 73
4
 74
0
 40
0
 40
0
 40
0
 40
0
 40
1
 40
1
 40
1
 40
1
 10
77.413069
 20
148.433040
 30
0.0
 10
74.921539
 20
145.849270
 30
0.0
 10
74.814459
 20
145.689950
 30
0.0
 10
74.814459
 20
144.566540
 30
0.0
  0
LWPOLYLINE
  5
151
100
AcDbEntity
  8
Capa_1
 62
7
100
AcDbPolyline
 90
3
 70
0
 10
111.621240
 20
146.166910
 30
0.0
 10
110.227250
 20
144.910140
 30
0.0
 10
110.508980
 20
142.696340
 30
0.0
  0
SPLINE
  5
152
100
AcDbEntity
  8
Capa_1
 62
7
100
AcDbSpline
 70
8
 71
3
 72
8
 73
4
 74
0
 40
0
 40
0
 40
0
 40
0
 40
1
 40
1
 40
1
 40
1
 10
73.677339
 20
143.565380
 30
0.0
 10
72.558319
 20
143.733180
 30
0.0
 10
72.516169
 20
143.710880
 30
0.0
 10
71.031499
 20
142.165210
 30
0.0
  0
SPLINE
  5
153
100
AcDbEntity
  8
Capa_1
 62
7
100
AcDbSpline
 70
8
 71
3
 72
8
 73
4
 74
0
 40
0
 40
0
 40
0
 40
0
 40
1
 40
1
 40
1
 40
1
 10
71.031499
 20
142.165210
 30
0.0
 10
70.201709
 20
141.301330
 30
0.0
 10
69.522799
 20
140.477140
 30
0.0
 10
69.522799
 20
140.333670
 30
0.0
  0
SPLINE
  5
154
100
AcDbEntity
  8
Capa_1
 62
7
100
AcDbSpline
 70
8
 71
3
 72
8
 73
4
 74
0
 40
0
 40
0
 40
0
 40
0
 40
1
 40
1
 40
1
 40
1
 10
69.522799
 20
140.333670
 30
0.0
 10
69.522799
 20
140.190190
 30
0.0
 10
69.999049
 20
139.882250
 30
0.0
 10
70.581129
 20
139.649350
 30
0.0
  0
SPLINE
  5
155
100
AcDbEntity
  8
Capa_1
 62
7
100
AcDbSpline
 70
8
 71
3
 72
8
 73
4
 74
0
 40
0
 40
0
 40
0
 40
0
 40
1
 40
1
 40
1
 40
1
 10
70.581129
 20
139.649350
 30
0.0
 10
71.163219
 20
139.416450
 30
0.0
 10
71.639469
 20
139.123330
 30
0.0
 10
71.639469
 20
138.997990
 30
0.0
  0
SPLINE
  5
156
100
AcDbEntity
  8
Capa_1
 62
7
100
AcDbSpline
 70
8
 71
3
 72
8
 73
4
 74
0
 40
0
 40
0
 40
0
 40
0
 40
1
 40
1
 40
1
 40
1
 10
71.639469
 20
138.997990
 30
0.0
 10
71.639469
 20
138.619670
 30
0.0
 10
66.908719
 20
138.308080
 30
0.0
 10
65.752489
 20
138.610240
 30
0.0
  0
LWPOLYLINE
  5
157
100
AcDbEntity
  8
Capa_1
 62
7
100
AcDbPolyline
 90
3
 70
0
 10
74.814459
 20
144.566540
 30
0.0
 10
74.814459
 20
143.394850
 30
0.0
 10
73.677339
 20
143.565380
 30
0.0
  0
LWPOLYLINE
  5
158
100
AcDbEntity
  8
Capa_1
 62
7
100
AcDbPolyline
 90
1
 70
1
 10
65.752489
 20
138.610240
 30
0.0
  0
LWPOLYLINE
  5
159
100
AcDbEntity
  8
Capa_1
 62
1
100
AcDbPolyline
 90
7
 70
1
 10
64.461060
 20
151.884170
 30
0.0
 10
57.257120
 20
155.465710
 30
0.0
 10
58.452449
 20
156.615860
 30
0.0
 10
63.721528
 20
153.904870
 30
0.0
 10
61.170798
 20
159.231450
 30
0.0
 10
62.340060
 20
160.356520
 30
0.0
 10
65.637770
 20
153.016400
 30
0.0
  0
LWPOLYLINE
  5
15a
100
AcDbEntity
  8
Capa_1
 62
1
100
AcDbPolyline
 90
8
 70
1
 10
72.972858
 20
159.126420
 30
0.0
 10
71.667362
 20
158.094670
 30
0.0
 10
70.081417
 20
159.034630
 30
0.0
 10
67.705578
 20
157.156980
 30
0.0
 10
68.281995
 20
155.419180
 30
0.0
 10
67.008934
 20
154.413070
 30
0.0
 10
64.626634
 20
162.186310
 30
0.0
 10
65.895640
 20
163.189220
 30
0.0
  0
LWPOLYLINE
  5
15b
100
AcDbEntity
  8
Capa_1
 62
1
100
AcDbPolyline
 90
3
 70
1
 10
68.904823
 20
159.731650
 30
0.0
 10
66.342776
 20
161.289970
 30
0.0
 10
67.283090
 20
158.449980
 30
0.0
  0
LWPOLYLINE
  5
15c
100
AcDbEntity
  8
Capa_1
 62
1
100
AcDbPolyline
 90
6
 70
1
 10
73.717035
 20
159.572100
 30
0.0
 10
69.849673
 20
166.014120
 30
0.0
 10
71.161117
 20
166.801430
 30
0.0
 10
74.371506
 20
161.453750
 30
0.0
 10
77.632391
 20
163.411370
 30
0.0
 10
78.289364
 20
162.317020
 30
0.0
  0
LWPOLYLINE
  5
15d
100
AcDbEntity
  8
Capa_1
 62
1
100
AcDbPolyline
 90
6
 70
1
 10
79.317820
 20
162.821870
 30
0.0
 10
76.456810
 20
169.769580
 30
0.0
 10
77.871200
 20
170.352010
 30
0.0
 10
80.246193
 20
164.584550
 30
0.0
 10
83.763056
 20
166.032770
 30
0.0
 10
84.249073
 20
164.852510
 30
0.0
  0
LWPOLYLINE
  5
15e
100
AcDbEntity
  8
Capa_1
 62
1
100
AcDbPolyline
 90
12
 70
1
 10
85.308432
 20
165.185240
 30
0.0
 10
83.784309
 20
172.606080
 30
0.0
 10
89.286666
 20
173.736180
 30
0.0
 10
89.544499
 20
172.480810
 30
0.0
 10
85.540483
 20
171.658450
 30
0.0
 10
85.878369
 20
170.013310
 30
0.0
 10
89.603976
 20
170.778490
 30
0.0
 10
89.860769
 20
169.528190
 30
0.0
 10
86.135162
 20
168.763010
 30
0.0
 10
86.549981
 20
166.743280
 30
0.0
 10
90.695731
 20
167.594750
 30
0.0
 10
90.952524
 20
166.344450
 30
0.0
  0
SPLINE
  5
15f
100
AcDbEntity
  8
Capa_1
 62
1
100
AcDbSpline
 70
8
 71
3
 72
8
 73
4
 74
0
 40
0
 40
0
 40
0
 40
0
 40
1
 40
1
 40
1
 40
1
 10
96.562003
 20
169.022500
 30
0.0
 10
96.603490
 20
168.516693
 30
0.0
 10
96.748515
 20
168.134203
 30
0.0
 10
96.997080
 20
167.875030
 30
0.0
  0
SPLINE
  5
160
100
AcDbEntity
  8
Capa_1
 62
1
100
AcDbSpline
 70
8
 71
3
 72
8
 73
4
 74
0
 40
0
 40
0
 40
0
 40
0
 40
1
 40
1
 40
1
 40
1
 10
96.997080
 20
167.875030
 30
0.0
 10
97.249071
 20
167.615530
 30
0.0
 10
97.606549
 20
167.463587
 30
0.0
 10
98.069513
 20
167.419200
 30
0.0
  0
SPLINE
  5
161
100
AcDbEntity
  8
Capa_1
 62
1
100
AcDbSpline
 70
8
 71
3
 72
8
 73
4
 74
0
 40
0
 40
0
 40
0
 40
0
 40
1
 40
1
 40
1
 40
1
 10
98.069513
 20
167.419200
 30
0.0
 10
98.559911
 20
167.372200
 30
0.0
 10
98.938431
 20
167.439737
 30
0.0
 10
99.205072
 20
167.621810
 30
0.0
  0
SPLINE
  5
162
100
AcDbEntity
  8
Capa_1
 62
1
100
AcDbSpline
 70
8
 71
3
 72
8
 73
4
 74
0
 40
0
 40
0
 40
0
 40
0
 40
1
 40
1
 40
1
 40
1
 10
99.205072
 20
167.621810
 30
0.0
 10
99.475471
 20
167.807003
 30
0.0
 10
99.623986
 20
168.038487
 30
0.0
 10
99.650618
 20
168.316260
 30
0.0
  0
SPLINE
  5
163
100
AcDbEntity
  8
Capa_1
 62
1
100
AcDbSpline
 70
8
 71
3
 72
8
 73
4
 74
0
 40
0
 40
0
 40
0
 40
0
 40
1
 40
1
 40
1
 40
1
 10
99.650618
 20
168.316260
 30
0.0
 10
99.667718
 20
168.494587
 30
0.0
 10
99.629029
 20
168.650577
 30
0.0
 10
99.534552
 20
168.784230
 30
0.0
  0
SPLINE
  5
164
100
AcDbEntity
  8
Capa_1
 62
1
100
AcDbSpline
 70
8
 71
3
 72
8
 73
4
 74
0
 40
0
 40
0
 40
0
 40
0
 40
1
 40
1
 40
1
 40
1
 10
99.534552
 20
168.784230
 30
0.0
 10
99.443837
 20
168.920977
 30
0.0
 10
99.272602
 20
169.048140
 30
0.0
 10
99.020848
 20
169.165720
 30
0.0
  0
SPLINE
  5
165
100
AcDbEntity
  8
Capa_1
 62
1
100
AcDbSpline
 70
8
 71
3
 72
8
 73
4
 74
0
 40
0
 40
0
 40
0
 40
0
 40
1
 40
1
 40
1
 40
1
 10
99.020848
 20
169.165720
 30
0.0
 10
98.848439
 20
169.244547
 30
0.0
 10
98.452581
 20
169.393250
 30
0.0
 10
97.833274
 20
169.611830
 30
0.0
  0
SPLINE
  5
166
100
AcDbEntity
  8
Capa_1
 62
1
100
AcDbSpline
 70
8
 71
3
 72
8
 73
4
 74
0
 40
0
 40
0
 40
0
 40
0
 40
1
 40
1
 40
1
 40
1
 10
97.833274
 20
169.611830
 30
0.0
 10
97.036485
 20
169.892410
 30
0.0
 10
96.487618
 20
170.195943
 30
0.0
 10
96.186675
 20
170.522430
 30
0.0
  0
SPLINE
  5
167
100
AcDbEntity
  8
Capa_1
 62
1
100
AcDbSpline
 70
8
 71
3
 72
8
 73
4
 74
0
 40
0
 40
0
 40
0
 40
0
 40
1
 40
1
 40
1
 40
1
 10
96.186675
 20
170.522430
 30
0.0
 10
95.763495
 20
170.981770
 30
0.0
 10
95.580509
 20
171.509793
 30
0.0
 10
95.637718
 20
172.106500
 30
0.0
  0
SPLINE
  5
168
100
AcDbEntity
  8
Capa_1
 62
1
100
AcDbSpline
 70
8
 71
3
 72
8
 73
4
 74
0
 40
0
 40
0
 40
0
 40
0
 40
1
 40
1
 40
1
 40
1
 10
95.637718
 20
172.106500
 30
0.0
 10
95.674545
 20
172.490593
 30
0.0
 10
95.816928
 20
172.838607
 30
0.0
 10
96.064867
 20
173.150540
 30
0.0
  0
SPLINE
  5
169
100
AcDbEntity
  8
Capa_1
 62
1
100
AcDbSpline
 70
8
 71
3
 72
8
 73
4
 74
0
 40
0
 40
0
 40
0
 40
0
 40
1
 40
1
 40
1
 40
1
 10
96.064867
 20
173.150540
 30
0.0
 10
96.316567
 20
173.465573
 30
0.0
 10
96.654848
 20
173.690977
 30
0.0
 10
97.079709
 20
173.826750
 30
0.0
  0
SPLINE
  5
16a
100
AcDbEntity
  8
Capa_1
 62
1
100
AcDbSpline
 70
8
 71
3
 72
8
 73
4
 74
0
 40
0
 40
0
 40
0
 40
0
 40
1
 40
1
 40
1
 40
1
 10
97.079709
 20
173.826750
 30
0.0
 10
97.508000
 20
173.962190
 30
0.0
 10
98.011927
 20
174.002130
 30
0.0
 10
98.591489
 20
173.946570
 30
0.0
  0
SPLINE
  5
16b
100
AcDbEntity
  8
Capa_1
 62
1
100
AcDbSpline
 70
8
 71
3
 72
8
 73
4
 74
0
 40
0
 40
0
 40
0
 40
0
 40
1
 40
1
 40
1
 40
1
 10
98.591489
 20
173.946570
 30
0.0
 10
99.537990
 20
173.855823
 30
0.0
 10
100.229690
 20
173.580123
 30
0.0
 10
100.666590
 20
173.119470
 30
0.0
  0
SPLINE
  5
16c
100
AcDbEntity
  8
Capa_1
 62
1
100
AcDbSpline
 70
8
 71
3
 72
8
 73
4
 74
0
 40
0
 40
0
 40
0
 40
0
 40
1
 40
1
 40
1
 40
1
 10
100.666590
 20
173.119470
 30
0.0
 10
101.106917
 20
172.658483
 30
0.0
 10
101.305877
 20
172.080477
 30
0.0
 10
101.263470
 20
171.385450
 30
0.0
  0
LWPOLYLINE
  5
16d
100
AcDbEntity
  8
Capa_1
 62
1
100
AcDbPolyline
 90
2
 70
0
 10
95.066711
 20
169.020500
 30
0.0
 10
96.562003
 20
169.022500
 30
0.0
  0
SPLINE
  5
16e
100
AcDbEntity
  8
Capa_1
 62
1
100
AcDbSpline
 70
8
 71
3
 72
8
 73
4
 74
0
 40
0
 40
0
 40
0
 40
0
 40
1
 40
1
 40
1
 40
1
 10
99.734421
 20
171.464550
 30
0.0
 10
99.706414
 20
171.858317
 30
0.0
 10
99.592442
 20
172.149577
 30
0.0
 10
99.392504
 20
172.338330
 30
0.0
  0
SPLINE
  5
16f
100
AcDbEntity
  8
Capa_1
 62
1
100
AcDbSpline
 70
8
 71
3
 72
8
 73
4
 74
0
 40
0
 40
0
 40
0
 40
0
 40
1
 40
1
 40
1
 40
1
 10
99.392504
 20
172.338330
 30
0.0
 10
99.196323
 20
172.530183
 30
0.0
 10
98.883898
 20
172.646660
 30
0.0
 10
98.455228
 20
172.687760
 30
0.0
  0
SPLINE
  5
170
100
AcDbEntity
  8
Capa_1
 62
1
100
AcDbSpline
 70
8
 71
3
 72
8
 73
4
 74
0
 40
0
 40
0
 40
0
 40
0
 40
1
 40
1
 40
1
 40
1
 10
98.455228
 20
172.687760
 30
0.0
 10
98.012841
 20
172.730160
 30
0.0
 10
97.657763
 20
172.672487
 30
0.0
 10
97.389994
 20
172.514740
 30
0.0
  0
SPLINE
  5
171
100
AcDbEntity
  8
Capa_1
 62
1
100
AcDbSpline
 70
8
 71
3
 72
8
 73
4
 74
0
 40
0
 40
0
 40
0
 40
0
 40
1
 40
1
 40
1
 40
1
 10
97.389994
 20
172.514740
 30
0.0
 10
97.217635
 20
172.413600
 30
0.0
 10
97.122085
 20
172.265293
 30
0.0
 10
97.103344
 20
172.069820
 30
0.0
  0
SPLINE
  5
172
100
AcDbEntity
  8
Capa_1
 62
1
100
AcDbSpline
 70
8
 71
3
 72
8
 73
4
 74
0
 40
0
 40
0
 40
0
 40
0
 40
1
 40
1
 40
1
 40
1
 10
97.103344
 20
172.069820
 30
0.0
 10
97.086244
 20
171.891487
 30
0.0
 10
97.147059
 20
171.731647
 30
0.0
 10
97.285789
 20
171.590300
 30
0.0
  0
SPLINE
  5
173
100
AcDbEntity
  8
Capa_1
 62
1
100
AcDbSpline
 70
8
 71
3
 72
8
 73
4
 74
0
 40
0
 40
0
 40
0
 40
0
 40
1
 40
1
 40
1
 40
1
 10
97.285789
 20
171.590300
 30
0.0
 10
97.462380
 20
171.410707
 30
0.0
 10
97.912663
 20
171.197953
 30
0.0
 10
98.636637
 20
170.952040
 30
0.0
  0
SPLINE
  5
174
100
AcDbEntity
  8
Capa_1
 62
1
100
AcDbSpline
 70
8
 71
3
 72
8
 73
4
 74
0
 40
0
 40
0
 40
0
 40
0
 40
1
 40
1
 40
1
 40
1
 10
98.636637
 20
170.952040
 30
0.0
 10
99.360610
 20
170.706120
 30
0.0
 10
99.890168
 20
170.471920
 30
0.0
 10
100.225310
 20
170.249440
 30
0.0
  0
SPLINE
  5
175
100
AcDbEntity
  8
Capa_1
 62
1
100
AcDbSpline
 70
8
 71
3
 72
8
 73
4
 74
0
 40
0
 40
0
 40
0
 40
0
 40
1
 40
1
 40
1
 40
1
 10
100.225310
 20
170.249440
 30
0.0
 10
100.564210
 20
170.030060
 30
0.0
 10
100.817493
 20
169.747943
 30
0.0
 10
100.985160
 20
169.403090
 30
0.0
  0
SPLINE
  5
176
100
AcDbEntity
  8
Capa_1
 62
1
100
AcDbSpline
 70
8
 71
3
 72
8
 73
4
 74
0
 40
0
 40
0
 40
0
 40
0
 40
1
 40
1
 40
1
 40
1
 10
100.985160
 20
169.403090
 30
0.0
 10
101.156587
 20
169.061330
 30
0.0
 10
101.219450
 20
168.652110
 30
0.0
 10
101.173750
 20
168.175430
 30
0.0
  0
SPLINE
  5
177
100
AcDbEntity
  8
Capa_1
 62
1
100
AcDbSpline
 70
8
 71
3
 72
8
 73
4
 74
0
 40
0
 40
0
 40
0
 40
0
 40
1
 40
1
 40
1
 40
1
 10
101.173750
 20
168.175430
 30
0.0
 10
101.132350
 20
167.743330
 30
0.0
 10
100.973523
 20
167.350173
 30
0.0
 10
100.697270
 20
166.995960
 30
0.0
  0
SPLINE
  5
178
100
AcDbEntity
  8
Capa_1
 62
1
100
AcDbSpline
 70
8
 71
3
 72
8
 73
4
 74
0
 40
0
 40
0
 40
0
 40
0
 40
1
 40
1
 40
1
 40
1
 10
100.697270
 20
166.995960
 30
0.0
 10
100.421050
 20
166.641747
 30
0.0
 10
100.054584
 20
166.393087
 30
0.0
 10
99.597873
 20
166.249980
 30
0.0
  0
SPLINE
  5
179
100
AcDbEntity
  8
Capa_1
 62
1
100
AcDbSpline
 70
8
 71
3
 72
8
 73
4
 74
0
 40
0
 40
0
 40
0
 40
0
 40
1
 40
1
 40
1
 40
1
 10
99.597873
 20
166.249980
 30
0.0
 10
99.141489
 20
166.110313
 30
0.0
 10
98.585793
 20
166.071877
 30
0.0
 10
97.930786
 20
166.134670
 30
0.0
  0
SPLINE
  5
17a
100
AcDbEntity
  8
Capa_1
 62
1
100
AcDbSpline
 70
8
 71
3
 72
8
 73
4
 74
0
 40
0
 40
0
 40
0
 40
0
 40
1
 40
1
 40
1
 40
1
 10
97.930786
 20
166.134670
 30
0.0
 10
96.977424
 20
166.226077
 30
0.0
 10
96.266298
 20
166.515753
 30
0.0
 10
95.797408
 20
167.003700
 30
0.0
  0
SPLINE
  5
17b
100
AcDbEntity
  8
Capa_1
 62
1
100
AcDbSpline
 70
8
 71
3
 72
8
 73
4
 74
0
 40
0
 40
0
 40
0
 40
0
 40
1
 40
1
 40
1
 40
1
 10
95.797408
 20
167.003700
 30
0.0
 10
95.328847
 20
167.495073
 30
0.0
 10
95.085281
 20
168.167340
 30
0.0
 10
95.066711
 20
169.020500
 30
0.0
  0
LWPOLYLINE
  5
17c
100
AcDbEntity
  8
Capa_1
 62
1
100
AcDbPolyline
 90
2
 70
0
 10
101.263470
 20
171.385450
 30
0.0
 10
99.734421
 20
171.464550
 30
0.0
  0
LWPOLYLINE
  5
17d
100
AcDbEntity
  8
Capa_1
 62
1
100
AcDbPolyline
 90
1
 70
1
 10
95.066711
 20
169.020500
 30
0.0
  0
LWPOLYLINE
  5
17e
100
AcDbEntity
  8
Capa_1
 62
1
100
AcDbPolyline
 90
8
 70
1
 10
103.877490
 20
165.199030
 30
0.0
 10
105.593120
 20
171.254870
 30
0.0
 10
103.430320
 20
171.867600
 30
0.0
 10
103.779640
 20
173.100640
 30
0.0
 10
109.571970
 20
171.459670
 30
0.0
 10
109.222650
 20
170.226620
 30
0.0
 10
107.064820
 20
170.837940
 30
0.0
 10
105.349190
 20
164.782100
 30
0.0
  0
LWPOLYLINE
  5
17f
100
AcDbEntity
  8
Capa_1
 62
1
100
AcDbPolyline
 90
12
 70
1
 10
108.431820
 20
163.783390
 30
0.0
 10
111.540520
 20
170.691930
 30
0.0
 10
116.663010
 20
168.386920
 30
0.0
 10
116.137120
 20
167.218210
 30
0.0
 10
112.409530
 20
168.895550
 30
0.0
 10
111.720360
 20
167.363990
 30
0.0
 10
115.188760
 20
165.803280
 30
0.0
 10
114.664990
 20
164.639290
 30
0.0
 10
111.196590
 20
166.200000
 30
0.0
 10
110.350500
 20
164.319710
 30
0.0
 10
114.210040
 20
162.582990
 30
0.0
 10
113.686270
 20
161.419000
 30
0.0
  0
LWPOLYLINE
  5
180
100
AcDbEntity
  8
Capa_1
 62
1
100
AcDbPolyline
 90
8
 70
1
 10
120.674450
 20
157.234640
 30
0.0
 10
119.252400
 20
158.098700
 30
0.0
 10
119.580690
 20
159.912800
 30
0.0
 10
116.992730
 20
161.485280
 30
0.0
 10
115.564790
 20
160.339340
 30
0.0
 10
114.178070
 20
161.181930
 30
0.0
 10
120.633650
 20
166.124000
 30
0.0
 10
122.015950
 20
165.284100
 30
0.0
  0
LWPOLYLINE
  5
181
100
AcDbEntity
  8
Capa_1
 62
1
100
AcDbPolyline
 90
3
 70
1
 10
119.823940
 20
161.258550
 30
0.0
 10
120.391620
 20
164.203070
 30
0.0
 10
118.057420
 20
162.331910
 30
0.0
  0
SPLINE
  5
182
100
AcDbEntity
  8
Capa_1
 62
7
100
AcDbSpline
 70
8
 71
3
 72
8
 73
4
 74
0
 40
0
 40
0
 40
0
 40
0
 40
1
 40
1
 40
1
 40
1
 10
62.555059
 20
149.967260
 30
0.0
 10
84.640566
 20
172.831940
 30
0.0
 10
106.747930
 20
172.262700
 30
0.0
 10
134.370540
 20
145.809520
 30
0.0
  0
LWPOLYLINE
  5
183
100
AcDbEntity
  8
Capa_1
 62
1
100
AcDbPolyline
 90
13
 70
1
 10
121.316420
 20
156.751840
 30
0.0
 10
125.892360
 20
162.789440
 30
0.0
 10
127.716820
 20
161.406670
 30
0.0
 10
125.690950
 20
156.457970
 30
0.0
 10
129.895460
 20
159.755470
 30
0.0
 10
131.724040
 20
158.369570
 30
0.0
 10
127.148110
 20
152.331970
 30
0.0
 10
126.015540
 20
153.190350
 30
0.0
 10
129.617610
 20
157.943010
 30
0.0
 10
124.817080
 20
154.098670
 30
0.0
 10
123.643330
 20
154.988260
 30
0.0
 10
126.051060
 20
160.646120
 30
0.0
 10
122.448990
 20
155.893460
 30
0.0
  0
SPLINE
  5
184
100
AcDbEntity
  8
Capa_1
 62
5
100
AcDbSpline
 70
8
 71
3
 72
8
 73
4
 74
0
 40
0
 40
0
 40
0
 40
0
 40
1
 40
1
 40
1
 40
1
 10
95.733589
 20
177.174889
 30
0.0
 10
75.666672
 20
177.174889
 30
0.0
 10
57.575674
 20
165.086870
 30
0.0
 10
49.896397
 20
146.547457
 30
0.0
  0
SPLINE
  5
185
100
AcDbEntity
  8
Capa_1
 62
5
100
AcDbSpline
 70
8
 71
3
 72
8
 73
4
 74
0
 40
0
 40
0
 40
0
 40
0
 40
1
 40
1
 40
1
 40
1
 10
49.896397
 20
146.547457
 30
0.0
 10
42.217121
 20
128.008043
 30
0.0
 10
46.461868
 20
106.668255
 30
0.0
 10
60.651321
 20
92.478802
 30
0.0
  0
SPLINE
  5
186
100
AcDbEntity
  8
Capa_1
 62
5
100
AcDbSpline
 70
8
 71
3
 72
8
 73
4
 74
0
 40
0
 40
0
 40
0
 40
0
 40
1
 40
1
 40
1
 40
1
 10
60.651321
 20
92.478802
 30
0.0
 10
74.840774
 20
78.289349
 30
0.0
 10
96.180562
 20
74.044602
 30
0.0
 10
114.719976
 20
81.723878
 30
0.0
  0
SPLINE
  5
187
100
AcDbEntity
  8
Capa_1
 62
5
100
AcDbSpline
 70
8
 71
3
 72
8
 73
4
 74
0
 40
0
 40
0
 40
0
 40
0
 40
1
 40
1
 40
1
 40
1
 10
114.719976
 20
81.723878
 30
0.0
 10
133.259389
 20
89.403155
 30
0.0
 10
145.347408
 20
107.494153
 30
0.0
 10
145.347408
 20
127.561070
 30
0.0
  0
SPLINE
  5
188
100
AcDbEntity
  8
Capa_1
 62
5
100
AcDbSpline
 70
8
 71
3
 72
8
 73
4
 74
0
 40
0
 40
0
 40
0
 40
0
 40
1
 40
1
 40
1
 40
1
 10
145.347408
 20
127.561070
 30
0.0
 10
145.347408
 20
140.719473
 30
0.0
 10
140.120253
 20
153.338942
 30
0.0
 10
130.815857
 20
162.643338
 30
0.0
  0
SPLINE
  5
189
100
AcDbEntity
  8
Capa_1
 62
5
100
AcDbSpline
 70
8
 71
3
 72
8
 73
4
 74
0
 40
0
 40
0
 40
0
 40
0
 40
1
 40
1
 40
1
 40
1
 10
130.815857
 20
162.643338
 30
0.0
 10
121.511461
 20
171.947734
 30
0.0
 10
108.891992
 20
177.174889
 30
0.0
 10
95.733589
 20
177.174889
 30
0.0
  0
LWPOLYLINE
  5
18a
100
AcDbEntity
  8
Capa_1
 62
7
100
AcDbPolyline
 90
1
 70
1
 10
134.370540
 20
145.809520
 30
0.0
  0
LWPOLYLINE
  5
18b
100
AcDbEntity
  8
Capa_1
 62
5
100
AcDbPolyline
 90
1
 70
1
 10
95.733589
 20
177.174889
 30
0.0
  0
ENDSEC
  0
SECTION
  2
OBJECTS
  0
DICTIONARY
  5
C
330
0
100
AcDbDictionary
  3
ACAD_GROUP
350
D
  3
ACAD_MLINESTYLE
350
17
  0
DICTIONARY
  5
D
330
C
100
AcDbDictionary
  0
DICTIONARY
  5
1A
330
C
100
AcDbDictionary
  0
DICTIONARY
  5
17
330
C
100
AcDbDictionary
  3
STANDARD
350
18
  0
DICTIONARY
  5
19
330
C
100
AcDbDictionary
  0
ENDSEC
  0
EOF
