<?xml version="1.0" standalone="no"?>
<!DOCTYPE svg PUBLIC "-//W3C//DTD SVG 20010904//EN"
 "http://www.w3.org/TR/2001/REC-SVG-20010904/DTD/svg10.dtd">
<svg version="1.0" xmlns="http://www.w3.org/2000/svg"
 width="489.000000pt" height="489.000000pt" viewBox="0 0 489.000000 489.000000"
 preserveAspectRatio="xMidYMid meet">
<metadata>
Created by potrace 1.16, written by Peter Selinger 2001-2019
</metadata>
<g transform="translate(0.000000,489.000000) scale(0.100000,-0.100000)"
fill="#000000" stroke="none">
<path d="M2122 4385 c-51 -7 -95 -15 -97 -17 -4 -4 23 -249 28 -254 6 -6 227
22 234 30 5 5 -22 5 -58 2 l-66 -7 -9 80 -10 80 46 6 c53 8 75 14 68 20 -2 2
-28 1 -57 -4 -56 -9 -67 -2 -59 36 2 14 14 19 51 21 26 2 47 7 47 13 0 10 4
11 -118 -6z"/>
<path d="M2446 4379 c-45 -36 -36 -82 36 -172 21 -27 38 -53 38 -58 0 -17 -52
-9 -81 12 -16 11 -29 16 -29 10 0 -40 137 -58 181 -22 37 30 31 79 -18 137
-57 69 -68 93 -48 100 9 4 28 1 43 -7 43 -22 48 -22 23 0 -32 29 -108 29 -145
0z"/>
<path d="M2680 4373 c8 -3 25 -9 36 -14 l21 -8 -22 -116 c-15 -81 -19 -118
-11 -121 18 -6 100 -23 103 -21 1 1 9 43 17 92 27 152 26 150 72 146 67 -5 34
6 -82 28 -107 20 -168 27 -134 14z"/>
<path d="M1773 4317 c-24 -5 -43 -15 -43 -21 1 -16 57 -237 63 -242 4 -4 217
45 226 53 16 12 -14 10 -58 -3 -29 -8 -55 -14 -56 -12 -2 2 -17 55 -33 118
-19 76 -34 115 -43 116 -8 1 -33 -3 -56 -9z"/>
<path d="M2987 4313 c-14 -23 -77 -236 -72 -242 14 -14 231 -78 239 -70 16 14
38 10 94 -16 35 -16 52 -30 52 -43 0 -13 21 -28 70 -52 l70 -34 43 42 c24 23
46 42 50 42 4 0 7 -27 7 -60 0 -69 3 -71 75 -36 28 14 52 20 53 15 2 -5 -3
-30 -12 -56 -9 -26 -16 -51 -16 -57 0 -11 89 -70 95 -64 10 11 71 254 64 256
-4 2 -38 -10 -74 -27 -37 -17 -71 -31 -76 -31 -5 0 -9 30 -10 68 -1 111 -3
112 -94 31 -44 -40 -89 -80 -101 -90 l-21 -19 -11 152 c-7 83 -14 153 -16 155
-2 2 -59 -35 -126 -83 l-123 -86 -59 18 c-40 12 -58 22 -58 34 0 25 41 140 50
140 4 0 27 -7 50 -15 50 -18 50 -18 50 -6 0 5 -22 14 -50 21 -51 12 -61 27
-41 59 7 11 16 11 57 -3 26 -9 50 -14 52 -11 6 5 6 5 -112 45 -102 34 -94 32
-99 23z"/>
<path d="M1495 4223 c-22 -9 -41 -17 -42 -18 -4 -2 82 -233 89 -240 6 -6 153
46 196 70 38 20 21 18 -37 -5 -31 -12 -53 -16 -56 -9 -4 5 -24 56 -45 112 -21
56 -45 103 -52 104 -7 1 -31 -5 -53 -14z"/>
<path d="M1256 4067 c-10 -113 -16 -262 -8 -239 10 33 117 90 140 75 13 -8 30
-4 75 19 l59 29 -39 28 c-21 15 -79 55 -129 89 l-92 61 -6 -62z"/>
<path d="M1136 3965 c4 -47 4 -85 1 -85 -4 0 -35 16 -70 35 -35 19 -70 35 -77
35 -21 0 -112 -62 -103 -70 18 -17 266 -141 271 -136 5 6 3 138 -3 172 -2 10
-4 45 -4 77 -1 31 -6 57 -11 57 -7 0 -8 -30 -4 -85z"/>
<path d="M2246 3937 c-22 -22 -177 -217 -331 -414 -44 -57 -82 -103 -85 -103
-3 0 -47 36 -99 80 -52 44 -103 82 -113 86 -22 7 -71 -30 -148 -112 -30 -33
-115 -122 -190 -199 -233 -242 -390 -415 -390 -431 0 -12 23 -14 157 -12 133
3 158 5 158 18 0 9 -21 22 -57 33 -32 10 -58 21 -58 25 0 4 35 45 78 92 l79
84 40 -12 c73 -22 77 -20 70 44 l-6 56 135 137 135 136 85 -90 c47 -49 97
-105 111 -123 l26 -32 -33 -136 c-47 -194 -32 -199 114 -40 48 53 93 96 99 96
6 0 81 -38 168 -85 87 -47 165 -85 173 -85 32 0 14 38 -60 130 -134 167 -155
185 -245 210 -43 13 -79 26 -79 30 0 4 28 47 63 96 59 84 65 89 102 92 46 4
55 14 55 65 0 42 18 89 49 127 25 31 6 56 207 -272 87 -141 165 -267 175 -279
23 -31 43 -20 73 40 14 27 30 52 35 55 8 5 46 -33 255 -267 101 -112 113 -105
90 53 l-16 102 38 39 c21 22 55 51 76 65 33 23 40 25 55 13 76 -58 353 -293
353 -299 0 -5 -41 -25 -90 -46 -90 -37 -108 -49 -95 -62 9 -9 449 -19 453 -10
2 4 10 4 18 1 18 -7 18 7 -1 35 -36 51 -639 562 -664 562 -9 0 -65 -27 -124
-60 -59 -33 -114 -60 -121 -60 -8 0 -58 40 -112 88 -55 49 -109 94 -121 100
-12 7 -50 12 -85 12 -36 0 -71 5 -80 13 -8 6 -58 82 -110 167 -126 206 -160
258 -176 265 -7 2 -23 -5 -36 -18z"/>
<path d="M464 3060 c-29 -11 -51 -63 -84 -195 -120 -472 -78 -947 121 -1388
252 -560 743 -980 1344 -1152 109 -31 222 -52 232 -42 12 12 -27 42 -112 87
-240 127 -353 219 -407 331 -60 123 -45 226 47 325 132 142 299 190 847 244
284 28 348 42 348 78 0 24 -110 81 -235 122 -282 92 -366 187 -279 315 33 49
64 22 -291 264 -60 41 -132 91 -160 111 -27 20 -108 76 -180 125 -71 49 -161
111 -200 138 -38 26 -143 99 -233 160 -89 62 -269 186 -400 276 -317 220 -315
219 -358 201z"/>
<path d="M4242 3027 c-53 -33 -302 -202 -609 -413 -95 -66 -236 -162 -313
-214 -77 -52 -186 -127 -243 -166 -56 -39 -208 -142 -336 -230 -248 -168 -321
-227 -321 -261 0 -47 93 -91 295 -142 165 -41 289 -107 337 -178 53 -77 49
-136 -15 -209 -82 -93 -251 -148 -582 -190 -331 -41 -424 -65 -460 -121 -55
-83 68 -187 286 -243 580 -149 1312 -2 1682 339 181 168 333 416 420 686 108
336 126 758 46 1105 -44 191 -80 270 -121 270 -7 0 -37 -15 -66 -33z"/>
</g>
</svg>
